<svg version="1.1" xmlns="http://www.w3.org/2000/svg" xmlns:xlink="http://www.w3.org/1999/xlink" width="165.63535" height="157.18802" viewBox="0,0,165.63535,157.18802"><defs><linearGradient x1="231.50891" y1="180" x2="320.06768" y2="180" gradientUnits="userSpaceOnUse" id="color-1"><stop offset="0" stop-color="#ffac39"/><stop offset="1" stop-color="#ffd395"/></linearGradient><linearGradient x1="159.93233" y1="180.11573" x2="248.4911" y2="180.11573" gradientUnits="userSpaceOnUse" id="color-2"><stop offset="0" stop-color="#ffac39"/><stop offset="1" stop-color="#ffd395"/></linearGradient></defs><g transform="translate(-157.18233,-101.4094)"><g data-paper-data="{&quot;isPaintingLayer&quot;:true}" fill-rule="nonzero" stroke-linejoin="miter" stroke-miterlimit="10" stroke-dasharray="" stroke-dashoffset="0" style="mix-blend-mode: normal"><path d="" fill="none" stroke="#000000" stroke-width="2" stroke-linecap="butt"/><path d="" fill="none" stroke="#000000" stroke-width="2" stroke-linecap="butt"/><path d="" fill="none" stroke="#000000" stroke-width="2" stroke-linecap="butt"/><g fill="#ffac39" stroke-width="5.5" stroke-linecap="round"><path d="M231.50891,255.75341c17.67891,0.03181 36.71903,0.06597 52.70789,0.09398c19.6841,0.03448 35.93761,-21.35999 35.85053,-37.85807c-0.11358,-21.51756 -0.40995,-69.66345 -0.58062,-101.99693c-0.0301,-5.70225 -4.6257,-11.68499 -10.22604,-11.83297c-8.31002,-0.21958 -12.57165,4.89108 -15.74335,10.18716c-7.71441,12.88148 -18.8687,33.0856 -18.8687,33.0856l-39.90694,0.4101" stroke="url(#color-1)"/><path d="M248.4911,255.58223c-17.67891,0.03181 -36.71904,-0.6007 -52.70789,-0.57269c-19.6841,0.03448 -35.93762,-20.02667 -35.85053,-36.52474c0.11358,-21.51756 0.40995,-69.66345 0.58062,-101.99693c0.0301,-5.70225 4.6257,-11.68499 10.22604,-11.83297c8.31002,-0.21958 12.57165,4.89108 15.74335,10.18717c7.71442,12.88148 18.8687,33.0856 18.8687,33.0856l41.40845,-0.25657" data-paper-data="{&quot;index&quot;:null}" stroke="url(#color-2)"/></g></g></g></svg>