<svg version="1.1" xmlns="http://www.w3.org/2000/svg" xmlns:xlink="http://www.w3.org/1999/xlink" width="148" height="148" viewBox="0,0,148,148"><g transform="translate(-166,-106)"><g data-paper-data="{&quot;isPaintingLayer&quot;:true}" stroke-miterlimit="10" stroke-dasharray="" stroke-dashoffset="0" style="mix-blend-mode: normal"><path d="M166,180c0,-40.86907 33.13093,-74 74,-74c40.86907,0 74,33.13093 74,74c0,40.86907 -33.13093,74 -74,74c-40.86907,0 -74,-33.13093 -74,-74z" fill="#fdfdfd" fill-rule="nonzero" stroke="none" stroke-width="0" stroke-linecap="butt" stroke-linejoin="miter"/><g fill="#c88614" fill-rule="evenodd" stroke="#c88614"><path d="M243.7383,185.01844c0.2477,-0.16513 0.66052,-0.08257 0.74309,0.24769l2.1467,8.8345c0,0 5.28419,3.88057 6.85293,6.60523c2.64209,4.54109 2.72465,8.25654 2.72465,8.25654c0,0 5.86214,1.73388 6.85293,6.4401c0.99079,4.70623 -2.6421,13.62329 -18.16439,16.67821c-15.52229,3.05492 -27.98966,-1.15592 -33.85181,-10.56837c-5.86214,-9.41246 3.38518,-20.64135 2.88979,-19.98082l-1.73387,-14.77921c-0.08256,-0.33026 0.33026,-0.57796 0.66052,-0.41282l9.99042,6.52266c0,0 3.71544,-1.40362 7.59601,-1.56875c2.31183,-0.16513 4.2934,0 6.1924,0.33026z" stroke-width="1.2" stroke-linecap="butt" stroke-linejoin="miter"/><path d="M255.95797,209.29266c0,0 5.69701,1.48618 6.68779,6.1924c0.99079,4.70623 -2.97235,13.21046 -18.32951,16.18281c-19.98082,4.12827 -29.47584,-7.76114 -23.94396,-16.51307c5.53188,-8.8345 15.0269,-1.32104 21.96239,-1.81644c5.9447,-0.41282 6.60523,-5.61444 13.62329,-4.0457z" stroke-width="1" stroke-linecap="butt" stroke-linejoin="miter"/><path d="M229.94988,218.12715c0,-0.33026 0.33026,-0.57795 0.66053,-0.49539c1.56874,0.57796 6.02727,1.899 10.98119,2.22927c4.45853,0.24769 7.10062,-0.00001 8.3391,-0.2477c0.41282,-0.08257 0.74309,0.33026 0.57796,0.74309c-0.74309,2.22927 -3.88057,8.42166 -12.54994,7.92628c-7.51345,-0.82565 -8.25653,-6.10983 -8.00884,-10.15554z" stroke-width="1.2" stroke-linecap="round" stroke-linejoin="round"/><path d="M242.00442,211.19166c1.73388,0 3.55032,0.16512 3.63288,0.74309c0.08256,1.15591 -1.15592,3.46775 -2.47697,3.55031c-1.48618,0.16513 -4.95392,-1.899 -4.95392,-3.22005c-0.08256,-0.99078 2.14669,-1.07335 3.798,-1.07335z" stroke-width="1.2" stroke-linecap="round" stroke-linejoin="round"/><g><path d="M251.74714,201.53151c2.39439,3.71544 2.47696,7.92627 0.16513,9.41245c-2.31183,1.48618 -6.10984,-0.24769 -8.5868,-3.96314c-2.39439,-3.71544 -2.47696,-7.92628 -0.16513,-9.41246c2.31183,-1.56874 6.19241,0.2477 8.5868,3.96314z" stroke-width="1.2" stroke-linecap="round" stroke-linejoin="round"/><path d="M251.41688,206.23774c0,0.90822 -0.66053,1.65131 -1.48618,1.65131c-0.82565,0 -1.48618,-0.74309 -1.48618,-1.65131c0,-0.90822 0.66052,-1.6513 1.48618,-1.6513c0.82565,0 1.48618,0.74309 1.48618,1.6513" stroke-width="1" stroke-linecap="butt" stroke-linejoin="miter"/></g><g><path d="M231.27092,203.84334c2.47696,3.63288 2.31183,8.09141 0.08256,9.66015c-2.72466,1.56874 -6.35753,0.41282 -8.8345,-3.22005c-2.55953,-3.63288 -2.72465,-8.33911 -0.16513,-10.15555c2.55953,-1.899 6.4401,0.08257 8.91706,3.71544z" stroke-width="1.2" stroke-linecap="round" stroke-linejoin="round"/><path d="M230.77553,208.63213c0,0.90822 -0.66053,1.65131 -1.48618,1.65131c-0.82565,0 -1.48618,-0.74309 -1.48618,-1.65131c0,-0.90822 0.66052,-1.6513 1.48618,-1.6513c0.82565,0.08256 1.48618,0.74309 1.48618,1.6513" stroke-width="1" stroke-linecap="butt" stroke-linejoin="miter"/></g></g><g fill="#ffab19" fill-rule="evenodd" stroke="#ffab19"><path d="M256.7383,186.01844c0.2477,-0.16513 0.66052,-0.08257 0.74308,0.24769l2.1467,8.8345c0,0 5.28419,3.88057 6.85293,6.60523c2.64209,4.5411 2.72466,8.25654 2.72466,8.25654c0,0 5.86214,1.73388 6.85293,6.4401c0.99078,4.70622 -2.6421,13.62329 -18.16439,16.67821c-15.52229,3.05492 -27.98966,-1.15592 -33.8518,-10.56837c-5.86214,-9.41245 3.38518,-20.64134 2.88979,-19.98082l-1.73387,-14.7792c-0.08257,-0.33026 0.33026,-0.57796 0.66052,-0.41282l9.99042,6.52266c0,0 3.71544,-1.40362 7.59601,-1.56875c2.31183,-0.16513 4.2934,0 6.1924,0.33026z" stroke-width="1.2" stroke-linecap="butt" stroke-linejoin="miter"/><path d="M268.95797,210.29266c0,0 5.69701,1.48618 6.6878,6.19241c0.99078,4.70622 -2.97235,13.21045 -18.32952,16.18281c-19.98082,4.12827 -29.47584,-7.76114 -23.94396,-16.51307c5.53188,-8.8345 15.0269,-1.32105 21.96239,-1.81644c5.9447,-0.41282 6.60523,-5.61444 13.62329,-4.0457z" stroke-width="1" stroke-linecap="butt" stroke-linejoin="miter"/><path d="M242.94988,219.12715c0,-0.33026 0.33026,-0.57795 0.66053,-0.49539c1.56874,0.57796 6.02727,1.899 10.98119,2.22926c4.45853,0.24769 7.10062,-0.00001 8.3391,-0.2477c0.41282,-0.08256 0.74309,0.33026 0.57796,0.74309c-0.74309,2.22926 -3.88057,8.42166 -12.54994,7.92628c-7.51345,-0.82566 -8.25653,-6.10984 -8.00884,-10.15554z" stroke-width="1.2" stroke-linecap="round" stroke-linejoin="round"/><path d="M255.00442,212.19166c1.73388,0 3.55032,0.16512 3.63288,0.74308c0.08257,1.15591 -1.15592,3.46775 -2.47696,3.55032c-1.48618,0.16513 -4.95392,-1.89901 -4.95392,-3.22005c-0.08257,-0.99078 2.1467,-1.07335 3.798,-1.07335z" stroke-width="1.2" stroke-linecap="round" stroke-linejoin="round"/><g><path d="M264.74713,202.53151c2.3944,3.71544 2.47696,7.92628 0.16513,9.41245c-2.31183,1.48618 -6.10984,-0.24769 -8.5868,-3.96313c-2.3944,-3.71544 -2.47696,-7.92628 -0.16513,-9.41246c2.31183,-1.56874 6.19241,0.2477 8.5868,3.96314z" stroke-width="1.2" stroke-linecap="round" stroke-linejoin="round"/><path d="M264.41688,207.23774c0,0.90822 -0.66053,1.65131 -1.48618,1.65131c-0.82565,0 -1.48618,-0.74309 -1.48618,-1.65131c0,-0.90822 0.66052,-1.6513 1.48618,-1.6513c0.82565,0 1.48618,0.74308 1.48618,1.6513" stroke-width="1" stroke-linecap="butt" stroke-linejoin="miter"/></g><g><path d="M244.27092,204.84334c2.47696,3.63288 2.31183,8.09141 0.08256,9.66015c-2.72466,1.56874 -6.35753,0.41283 -8.83449,-3.22005c-2.55953,-3.63288 -2.72466,-8.33911 -0.16513,-10.15555c2.55953,-1.899 6.4401,0.08257 8.91706,3.71545z" stroke-width="1.2" stroke-linecap="round" stroke-linejoin="round"/><path d="M243.77553,209.63213c0,0.90822 -0.66053,1.65131 -1.48618,1.65131c-0.82565,0 -1.48618,-0.74309 -1.48618,-1.65131c0,-0.90822 0.66052,-1.6513 1.48618,-1.6513c0.82565,0.08256 1.48618,0.74308 1.48618,1.6513" stroke-width="1" stroke-linecap="butt" stroke-linejoin="miter"/></g></g><path d="M269.19045,163.50372c0,0.57436 -0.06046,1.14116 -0.18138,1.70041c-0.03779,0.24939 -0.12848,0.77841 -0.26451,1.5946c-0.29474,1.76842 -1.15628,3.40081 -2.45614,4.64022c-1.95736,1.87423 -4.36815,3.10608 -7.05102,3.62753c-0.49123,0.26451 -1.1336,0.60459 -1.97247,1.06559c-0.70283,0.37787 -1.45101,0.64993 -2.22942,0.8162c-0.07557,0.02267 -0.45344,0.1058 -1.383,0.38543c-1.1336,0.57436 -2.6224,1.23941 -4.59488,2.04049c-0.34008,0.14359 -0.68772,0.25695 -1.04292,0.34764c-0.9749,0.25695 -1.95736,0.38543 -2.91714,0.38543c-3.06829,0 -5.85696,-1.26964 -7.85966,-3.58219c-0.38543,-0.44588 -0.71795,-0.92956 -1.00513,-1.44346c-0.36275,-0.1587 -0.71039,-0.33252 -1.05803,-0.52902c-0.46856,0.16626 -0.95223,0.32497 -1.44346,0.45344c-0.48367,0.12092 -0.9749,0.20405 -1.46613,0.24184c-0.49879,0.03779 -1.25452,0.11336 -2.25965,0.22672c-1.81377,0.25695 -3.76357,0.59703 -5.81917,1.02024c-1.40567,0.52146 -3.22699,1.10337 -5.53199,1.77598c-0.26451,0.07557 -0.53657,0.13603 -0.80864,0.18893c-1.4888,0.27207 -3.0834,0.25695 -4.74602,-0.06802c-4.98786,-0.88421 -6.90743,-4.14143 -7.60271,-5.98543c-0.32497,-0.86154 -0.62726,-2.06316 -0.62726,-3.53685c0,-0.76329 0.08313,-1.60216 0.28718,-2.50149c0.89177,-4.09609 4.34548,-5.97787 6.07612,-6.90743c0.74818,-0.41565 1.46613,-0.75574 2.16896,-1.04292c0.16626,-2.17652 0.40054,-6.49933 0.67261,-15.05426v-0.77085c-4.48152,-0.77085 -7.88989,-3.99029 -8.80433,-8.50203c-0.43833,-2.07827 -0.12092,-4.23968 0.91444,-6.16681c1.54926,-3.02294 4.45884,-5.04076 8.04103,-5.55466c0.21916,-0.03023 0.44588,-0.0529 0.67261,-0.06802c0.64238,-0.03779 1.32254,-0.09069 2.02537,-0.15115c0.78597,-0.06802 2.06316,-0.16626 3.83158,-0.30229c0.12092,-0.01511 0.24939,-0.01511 0.37031,-0.02267c0.02267,0 0.04534,-0.00756 0.06802,-0.00756c2.64508,-0.70283 5.46397,-0.44588 8.08638,0.74818c1.05803,0.47611 2.0027,1.17895 2.77355,2.04804c0.91444,1.02024 1.73819,2.36545 2.95493,4.79137c0.06802,0.14359 0.13603,0.28718 0.19649,0.43077c0.18138,0.41565 0.37031,0.86154 0.58192,1.33765c0.01511,-0.18893 0.03023,-0.39298 0.04534,-0.60459c0.00756,-0.08313 0.01511,-0.17382 0.02267,-0.25695c0.55169,-5.09366 4.47396,-8.84211 9.99839,-9.5525c0.461,-0.06046 0.92956,-0.08313 1.39055,-0.06046c0.99001,0.03779 2.54683,0.03023 4.55709,-0.00756h0.16626c0.69528,0 2.07827,-0.03023 4.71579,-0.17382c2.5695,-0.24939 5.11633,0.43077 7.25507,1.91201c2.83401,1.95736 4.45129,5.0332 4.45129,8.43402c0,3.61998 -1.93468,6.90743 -5.16924,8.78921c-1.39055,0.80864 -2.8718,1.34521 -4.4135,1.60972c0.13603,0.99001 0.30229,2.13118 0.49879,3.40081c0.6197,3.48394 1.11849,6.65048 1.48124,9.4467c3.94494,0.68772 7.80675,3.41593 8.35088,8.49447v0.00756c0.03779,0.29474 0.0529,0.59703 0.0529,0.89177z" fill="#ffab19" fill-rule="nonzero" stroke="none" stroke-width="1" stroke-linecap="butt" stroke-linejoin="miter"/><path d="M258.19095,161.75124c0,-0.03889 -0.09858,0.53111 -0.29506,1.71068c-0.9053,0.86573 -2.0453,1.33716 -3.42136,1.41562c-0.62901,0.31518 -1.63222,0.84629 -3.0076,1.59265c-0.55123,0.11802 -1.39684,0.3534 -2.53618,0.70814c-0.74771,0.4332 -2.08487,1.04277 -4.01081,1.8287c-0.9053,0.23605 -1.61277,0.05901 -2.12376,-0.53111c-0.15759,-1.10044 0.45198,-2.04396 1.8287,-2.83124c1.14001,-0.55056 2.28001,-1.12123 3.42136,-1.71068c-0.39297,-6.72469 -1.2587,-13.21267 -2.59519,-19.46526c0,0.03956 -0.03956,0.09858 -0.11802,0.17704c-0.47143,4.05104 -1.21914,9.8121 -2.24179,17.28249c-0.07913,0.55123 -0.3534,1.3774 -0.8255,2.47717c-0.15692,0.11802 -0.36413,0.24611 -0.61963,0.38358c-0.25617,0.13814 -0.79666,0.30445 -1.62216,0.50093c-0.7866,0.15759 -1.35594,-0.23605 -1.71068,-1.17957c-0.47143,-1.49475 -1.39617,-3.75531 -2.77223,-6.78303c-0.86506,-1.73013 -2.20289,-4.20729 -4.01081,-7.43217c-0.59012,-0.98309 -1.2587,-2.3008 -2.00507,-3.95247c-1.06222,-2.35981 -1.69123,-3.73519 -1.88772,-4.12883c-0.07913,0.62901 -0.15692,2.02586 -0.23605,4.18784c-0.03956,0.47143 -0.03956,1.12056 0,1.94606c0,1.10178 0,1.80926 0,2.12376c0,0.27561 -0.03956,0.68803 -0.11802,1.23858c-0.11802,0.66925 -0.17704,1.12123 -0.17704,1.35661c-0.04024,0.66925 -0.11802,2.43894 -0.23605,5.3084c-0.04024,1.80926 -0.04024,2.91104 0,3.30333c0,0.39364 0.21526,0.62969 0.64846,0.70814c0.11802,0 0.35407,-0.03889 0.70814,-0.11802c0.35407,-0.07846 0.6089,-0.13747 0.76716,-0.17704c0.66791,-0.03889 1.41562,-0.16698 2.24179,-0.38358c0.8255,-0.21526 1.37605,-0.3239 1.65167,-0.3239c0.59012,0 1.12056,0.23605 1.59265,0.70814c0.15625,0.66925 0.15625,1.31771 0,1.94606c-0.59012,0.55123 -1.33716,0.94352 -2.24179,1.18024c-0.51166,0.03956 -1.29827,0.11802 -2.35981,0.23605c-1.96684,0.27561 -4.06982,0.64913 -6.31161,1.12123c-1.10111,0.4332 -2.73333,0.96431 -4.89532,1.59198c-0.4332,0.0798 -0.94419,0.05968 -1.53364,-0.05901c-0.70814,-0.11802 -1.10178,-0.33328 -1.18024,-0.64846c-0.11802,-0.31451 -0.11802,-0.70814 0,-1.18024c0.03889,-0.23605 0.60957,-0.64913 1.71068,-1.23925c0.70814,-0.3923 1.3271,-0.65718 1.85821,-0.79666c0.53044,-0.1368 1.05082,-0.26555 1.56248,-0.38291c0.39297,-0.03889 1.0032,-0.13747 1.82937,-0.29439c0.15625,-0.07846 0.27427,-0.23672 0.3534,-0.4721c0,-0.98242 0.01945,-2.26056 0.05901,-3.83444c0.23605,-2.39804 0.4721,-7.35304 0.70814,-14.86433v-3.18464c0.03889,-1.69056 -0.03956,-3.44081 -0.23605,-5.25006c-0.15759,-0.23605 -0.33463,-0.33328 -0.53111,-0.29439c-1.10178,0.23605 -2.63542,0.47143 -4.60026,0.70814c-1.49475,0.03956 -2.35981,-0.57 -2.59586,-1.82937c-0.03956,-0.15625 0,-0.33328 0.11869,-0.53044c0.27427,-0.59012 0.8255,-0.94352 1.65167,-1.06222c0.62834,-0.03889 1.28754,-0.08852 1.97556,-0.14753c0.68736,-0.05901 1.7992,-0.14753 3.33284,-0.26555c0.31451,0 0.80538,-0.05901 1.47463,-0.17704c0.78593,-0.27494 1.61143,-0.21593 2.47717,0.17704c0.31451,0.3534 0.8255,1.23858 1.53364,2.6542c1.10044,2.55629 2.81045,6.37062 5.13137,11.44297c0.62901,1.14068 1.49408,2.77223 2.59519,4.89599c0.70814,1.41562 1.80791,3.53871 3.30333,6.37062c0.54989,-3.06729 1.65167,-9.85032 3.30333,-20.35044c0.03889,-0.11802 0.15692,-1.47463 0.35407,-4.06982c0.11802,-1.10044 0.94352,-1.7489 2.47717,-1.94606c0.98242,0.03956 2.47717,0.03956 4.4829,0c1.06155,0 2.6542,-0.05901 4.77796,-0.17704c0.59012,-0.07846 1.14001,0.05901 1.65167,0.41241c0.51099,0.3534 0.76716,0.8255 0.76716,1.41562c0,0.58945 -0.30512,1.06155 -0.91402,1.41495c-0.61024,0.35407 -1.24864,0.55123 -1.91655,0.59012c-0.51233,-0.23605 -1.12123,-0.3534 -1.82937,-0.3534c-1.53364,0 -3.02839,0.19715 -4.4829,0.58945c-0.19715,0.04024 -0.27561,0.49221 -0.23605,1.35661c0,0.70814 0.07779,1.75024 0.23605,3.1263c0.07779,0.15759 0.19648,0.4332 0.3534,0.8255c0.15692,1.33716 0.43253,3.30333 0.8255,5.89852c0.66858,3.73654 1.15945,6.98086 1.47463,9.73297c0.4721,4.05037 0.70814,6.1339 0.70814,6.2526c0.23605,0.07913 0.68736,-0.07846 1.35661,-0.4721c0.98242,-0.51099 1.55242,-0.80538 1.71068,-0.88451c0.3923,-0.15625 0.90396,-0.23605 1.53364,-0.23605c1.17957,0.00201 1.80791,0.37553 1.88704,1.1219z" fill="#ffffff" fill-rule="nonzero" stroke="none" stroke-width="1" stroke-linecap="butt" stroke-linejoin="miter"/></g></g></svg>