<svg version="1.1" xmlns="http://www.w3.org/2000/svg" xmlns:xlink="http://www.w3.org/1999/xlink" width="891.53904" height="18.38655" viewBox="0,0,891.53904,18.38655"><defs><linearGradient x1="-201.21637" y1="180.1032" x2="238.31812" y2="180.1032" gradientUnits="userSpaceOnUse" id="color-1"><stop offset="0" stop-color="#ffcb82" stop-opacity="0"/><stop offset="1" stop-color="#ffcb82"/></linearGradient><linearGradient x1="236.07558" y1="180.12731" x2="675.61007" y2="180.12731" gradientUnits="userSpaceOnUse" id="color-2"><stop offset="0" stop-color="#ffcb82"/><stop offset="1" stop-color="#ffcb82" stop-opacity="0"/></linearGradient><radialGradient cx="234.73006" cy="171.63134" r="444.01952" gradientUnits="userSpaceOnUse" id="color-3"><stop offset="0" stop-color="#ff9800"/><stop offset="1" stop-color="#ff9800" stop-opacity="0"/></radialGradient></defs><g transform="translate(205.76952,-169.93173)"><g data-paper-data="{&quot;isPaintingLayer&quot;:true}" fill-rule="nonzero" stroke-linejoin="miter" stroke-miterlimit="10" stroke-dasharray="" stroke-dashoffset="0" style="mix-blend-mode: normal"><path d="M-196.73131,178.39386c0,-2.7532 -4.48506,-6.45751 -4.48506,-6.45751h439.53449v16.3337c0,0 -11.51026,0.0633 -35.89021,0.04485c-46.59332,-0.03527 -131.02693,-0.36915 -207.63941,-2.01429c-99.43719,-2.13526 -191.51979,-7.31198 -191.51979,-7.90676z" fill="url(#color-1)" stroke="#000000" stroke-width="0" stroke-linecap="butt"/><path d="M479.6052,186.30062c-116.69993,2.50595 -243.52962,1.96943 -243.52962,1.96943v-16.3337h439.53449c0,0 -4.48503,3.70432 -4.48503,6.45751c0,0.59477 -92.08263,5.7715 -191.51982,7.90676z" data-paper-data="{&quot;index&quot;:null}" fill="url(#color-2)" stroke="#000000" stroke-width="0" stroke-linecap="butt"/><path d="M-204.01952,171.68173h888.03904" fill="none" stroke="url(#color-3)" stroke-width="3.5" stroke-linecap="round"/></g></g></svg>