<svg width="48" height="48" viewBox="0 0 48 48" fill="none" xmlns="http://www.w3.org/2000/svg">
<g clip-path="url(#clip0_970_621)">
<rect x="4.73535" y="31.0869" width="4.87291" height="4.73369" fill="#707070"/>
<rect x="9.60742" y="31.0869" width="4.87291" height="4.73369" fill="#707070"/>
<rect x="14.4795" y="26.3516" width="4.87291" height="4.73369" fill="#383838"/>
<rect x="14.4795" y="31.0869" width="4.87291" height="4.73369" fill="#383838"/>
<rect x="9.60742" y="31.0869" width="4.87291" height="4.73369" fill="#383838"/>
<rect x="9.60742" y="35.8203" width="4.87291" height="4.73369" fill="#383838"/>
<rect x="4.73535" y="35.8203" width="4.87291" height="4.73369" fill="#383838"/>
<rect x="38.5664" y="35.8203" width="4.87291" height="4.87291" fill="#383838"/>
<rect x="33.6934" y="35.8203" width="5.56904" height="4.87291" fill="#383838"/>
<rect y="31.0869" width="4.73369" height="4.73369" fill="#383838"/>
<rect x="9.60742" y="26.3516" width="4.87291" height="4.73369" fill="#707070"/>
<rect x="9.60742" y="26.3516" width="4.87291" height="4.73369" fill="#707070"/>
<rect x="4.73535" y="26.3516" width="4.87291" height="4.73369" fill="#707070"/>
<rect x="4.73535" y="26.3516" width="4.87291" height="4.73369" fill="#707070"/>
<rect x="4.73535" y="21.3398" width="4.87291" height="5.01214" fill="#707070"/>
<rect x="4.73535" y="21.3398" width="4.87291" height="5.01214" fill="#707070"/>
<rect x="4.73535" y="16.6074" width="4.87291" height="4.73369" fill="#707070"/>
<rect x="4.73535" y="16.6074" width="4.87291" height="4.73369" fill="#707070"/>
<rect x="9.60742" y="16.6074" width="4.87291" height="4.73369" fill="#707070"/>
<rect x="9.60742" y="16.6074" width="4.87291" height="4.73369" fill="#707070"/>
<rect x="9.60742" y="21.3398" width="4.87291" height="5.01214" fill="#707070"/>
<rect x="9.60742" y="21.3398" width="4.87291" height="5.01214" fill="#707070"/>
<rect x="14.4795" y="21.3398" width="4.87291" height="5.01214" fill="#707070"/>
<rect x="14.4795" y="21.3398" width="4.87291" height="5.01214" fill="#707070"/>
<rect x="19.3516" y="21.3398" width="4.73369" height="5.01214" fill="#707070"/>
<rect x="19.3516" y="21.3398" width="4.73369" height="5.01214" fill="#707070"/>
<rect x="33.6934" y="26.3516" width="4.87291" height="4.73369" fill="#707070"/>
<rect x="33.6934" y="26.3516" width="4.87291" height="4.73369" fill="#707070"/>
<rect x="38.5664" y="26.3516" width="4.87291" height="4.73369" fill="#707070"/>
<rect x="38.5664" y="26.3516" width="4.87291" height="4.73369" fill="#707070"/>
<rect x="33.6934" y="21.3398" width="4.87291" height="5.01214" fill="#707070"/>
<rect x="33.6934" y="21.3398" width="4.87291" height="5.01214" fill="#707070"/>
<rect x="38.5664" y="21.3398" width="4.87291" height="5.01214" fill="#707070"/>
<rect x="38.5664" y="21.3398" width="4.87291" height="5.01214" fill="#707070"/>
<rect x="33.6934" y="16.6074" width="4.87291" height="4.73369" fill="#707070"/>
<rect x="33.6934" y="16.6074" width="4.87291" height="4.73369" fill="#707070"/>
<rect x="38.5664" y="16.6074" width="4.87291" height="4.73369" fill="#707070"/>
<rect x="38.5664" y="16.6074" width="4.87291" height="4.73369" fill="#707070"/>
<rect x="24.0869" y="16.6074" width="4.73369" height="4.73369" fill="#707070"/>
<rect x="24.0869" y="16.6074" width="4.73369" height="4.73369" fill="#707070"/>
<rect x="28.8193" y="16.6074" width="4.87291" height="4.73369" fill="#707070"/>
<rect x="28.8193" y="16.6074" width="4.87291" height="4.73369" fill="#707070"/>
<rect x="14.4795" y="16.6074" width="4.87291" height="4.73369" fill="#707070"/>
<rect x="14.4795" y="16.6074" width="4.87291" height="4.73369" fill="#707070"/>
<rect x="19.3516" y="16.6074" width="4.73369" height="4.73369" fill="#707070"/>
<rect x="19.3516" y="16.6074" width="4.73369" height="4.73369" fill="#707070"/>
<rect x="9.60742" y="11.7354" width="4.87291" height="4.87291" fill="#707070"/>
<rect x="9.60742" y="11.7354" width="4.87291" height="4.87291" fill="#707070"/>
<rect x="14.4795" y="11.7354" width="4.87291" height="4.87291" fill="#707070"/>
<rect x="14.4795" y="11.7354" width="4.87291" height="4.87291" fill="#707070"/>
<rect x="19.3516" y="11.7354" width="4.73369" height="4.87291" fill="#707070"/>
<rect x="19.3516" y="11.7354" width="4.73369" height="4.87291" fill="#707070"/>
<rect x="24.0869" y="11.7354" width="4.73369" height="4.87291" fill="#707070"/>
<rect x="24.0869" y="11.7354" width="4.73369" height="4.87291" fill="#707070"/>
<rect x="28.8193" y="11.7354" width="4.87291" height="4.87291" fill="#707070"/>
<rect x="28.8193" y="11.7354" width="4.87291" height="4.87291" fill="#707070"/>
<rect x="33.6934" y="11.7354" width="4.87291" height="4.87291" fill="#707070"/>
<rect x="33.6934" y="11.7354" width="4.87291" height="4.87291" fill="#707070"/>
<rect x="24.0869" y="21.3398" width="4.73369" height="5.01214" fill="#707070"/>
<rect x="24.0869" y="21.3398" width="4.73369" height="5.01214" fill="#707070"/>
<rect x="28.8193" y="21.3398" width="4.87291" height="5.01214" fill="#707070"/>
<rect x="28.8193" y="21.3398" width="4.87291" height="5.01214" fill="#707070"/>
<rect x="14.4795" y="16.6074" width="4.87291" height="4.73369" fill="#FFB800"/>
<rect x="28.8193" y="14.2402" width="4.87291" height="4.73369" fill="#FF003D"/>
<rect x="33.6934" y="18.9736" width="4.87291" height="4.87291" fill="#FF003D"/>
<rect y="26.3516" width="4.73369" height="4.73369" fill="#383838"/>
<rect y="21.3398" width="4.73369" height="5.01214" fill="#383838"/>
<rect y="16.6074" width="4.73369" height="4.73369" fill="#383838"/>
<rect x="4.73535" y="11.7354" width="4.87291" height="4.87291" fill="#383838"/>
<rect width="4.87291" height="4.73369" transform="matrix(-1 0 0 1 43.4385 31.0869)" fill="#707070"/>
<rect width="4.87291" height="4.73369" transform="matrix(-1 0 0 1 38.5664 31.0869)" fill="#707070"/>
<rect width="4.87291" height="4.73369" transform="matrix(-1 0 0 1 33.6934 26.3516)" fill="#383838"/>
<rect width="4.87291" height="4.73369" transform="matrix(-1 0 0 1 33.6934 31.0869)" fill="#383838"/>
<rect width="4.73369" height="4.73369" transform="matrix(-1 0 0 1 38.4258 31.0869)" fill="#383838"/>
<rect width="4.73369" height="4.73369" transform="matrix(-1 0 0 1 48.1729 31.0869)" fill="#383838"/>
<rect width="4.73369" height="4.73369" transform="matrix(-1 0 0 1 28.8193 26.3516)" fill="#383838"/>
<rect width="4.73369" height="4.73369" transform="matrix(-1 0 0 1 24.0869 26.3516)" fill="#383838"/>
<rect width="4.73369" height="4.73369" transform="matrix(-1 0 0 1 48.1729 26.3516)" fill="#383838"/>
<rect width="4.73369" height="5.01214" transform="matrix(-1 0 0 1 48.1729 21.3398)" fill="#383838"/>
<rect width="4.73369" height="4.73369" transform="matrix(-1 0 0 1 48.1729 16.6074)" fill="#383838"/>
<rect width="4.87291" height="4.87291" transform="matrix(-1 0 0 1 43.4385 11.7354)" fill="#383838"/>
<rect x="9.60742" y="7" width="4.87291" height="4.73369" fill="#383838"/>
<rect x="14.4795" y="7" width="4.87291" height="4.73369" fill="#383838"/>
<rect x="19.3516" y="7" width="4.73369" height="4.73369" fill="#383838"/>
<rect x="24.0869" y="7" width="4.73369" height="4.73369" fill="#383838"/>
<rect x="28.8193" y="7" width="4.87291" height="4.73369" fill="#383838"/>
<rect x="33.6934" y="7" width="4.87291" height="4.73369" fill="#383838"/>
</g>
<defs>
<clipPath id="clip0_970_621">
<rect width="48" height="48" fill="white"/>
</clipPath>
</defs>
</svg>
