<svg width="1655" height="349" viewBox="0 0 1655 349" fill="none" xmlns="http://www.w3.org/2000/svg">
<rect x="1410" width="91.388" height="241.833" fill="#FF003D"/>
<rect x="1560.72" width="91.4012" height="196.119" fill="#FF003D"/>
<path d="M1533 178.311L1592.43 144L1655 242L1566.5 242L1533 178.311Z" fill="#FF003D"/>
<rect x="1652.12" width="91.4012" height="242.122" transform="rotate(90 1652.12 0)" fill="#FF003D"/>
<rect x="1652.12" y="122.271" width="73.8474" height="242.122" transform="rotate(90 1652.12 122.271)" fill="#FF003D"/>
<rect x="373" width="91.388" height="241.833" fill="#FFB800"/>
<rect x="614.833" width="91.388" height="241.833" transform="rotate(90 614.833 0)" fill="#FFB800"/>
<rect x="614.833" width="91.388" height="241.833" transform="rotate(90 614.833 0)" fill="#FFB800"/>
<rect x="614.833" y="150.445" width="91.388" height="241.833" transform="rotate(90 614.833 150.445)" fill="#FFB800"/>
<rect x="614.833" y="241.833" width="91.3881" height="118.977" transform="rotate(-180 614.833 241.833)" fill="#FFB800"/>
<rect x="1205.83" width="91.388" height="241.833" transform="rotate(90 1205.83 0)" fill="#FFB800"/>
<rect x="1205.83" y="241.833" width="91.388" height="241.833" transform="rotate(-180 1205.83 241.833)" fill="#FFB800"/>
<rect x="1205.83" y="241.833" width="91.388" height="241.833" transform="rotate(-180 1205.83 241.833)" fill="#FFB800"/>
<rect x="1055.39" y="241.833" width="91.388" height="241.833" transform="rotate(-180 1055.39 241.833)" fill="#FFB800"/>
<rect x="1114.07" y="0.144531" width="91.388" height="241.833" fill="#FFB800"/>
<rect x="1264.79" y="0.144531" width="91.388" height="241.833" fill="#FFB800"/>
<rect x="1355.9" y="0.144531" width="91.388" height="241.833" transform="rotate(90 1355.9 0.144531)" fill="#FFB800"/>
<rect x="1355.9" y="0.144531" width="91.388" height="241.833" transform="rotate(90 1355.9 0.144531)" fill="#FFB800"/>
<rect x="669" width="91.388" height="241.833" fill="#FF003D"/>
<rect x="819.722" width="91.388" height="241.833" fill="#FF003D"/>
<rect x="911.122" width="91.4012" height="242.122" transform="rotate(90 911.122 0)" fill="#FF003D"/>
<rect x="910.833" y="121.667" width="91.388" height="241.833" transform="rotate(90 910.833 121.667)" fill="#FF003D"/>
<rect x="34" y="173" width="35" height="34" fill="#707070"/>
<rect x="69" y="173" width="35" height="34" fill="#707070"/>
<rect x="104" y="139" width="35" height="34" fill="#383838"/>
<rect x="104" y="173" width="35" height="34" fill="#383838"/>
<rect x="69" y="173" width="35" height="34" fill="#383838"/>
<rect x="69" y="207" width="35" height="34" fill="#383838"/>
<rect x="34" y="207" width="35" height="34" fill="#383838"/>
<rect x="277" y="207" width="35" height="35" fill="#383838"/>
<rect x="242" y="207" width="40" height="35" fill="#383838"/>
<rect y="173" width="34" height="34" fill="#383838"/>
<rect x="69" y="139" width="35" height="34" fill="#707070"/>
<rect x="69" y="139" width="35" height="34" fill="#707070"/>
<rect x="34" y="139" width="35" height="34" fill="#707070"/>
<rect x="34" y="139" width="35" height="34" fill="#707070"/>
<rect x="34" y="103" width="35" height="36" fill="#707070"/>
<rect x="34" y="103" width="35" height="36" fill="#707070"/>
<rect x="34" y="69" width="35" height="34" fill="#707070"/>
<rect x="34" y="69" width="35" height="34" fill="#707070"/>
<rect x="69" y="69" width="35" height="34" fill="#707070"/>
<rect x="69" y="69" width="35" height="34" fill="#707070"/>
<rect x="69" y="103" width="35" height="36" fill="#707070"/>
<rect x="69" y="103" width="35" height="36" fill="#707070"/>
<rect x="104" y="103" width="35" height="36" fill="#707070"/>
<rect x="104" y="103" width="35" height="36" fill="#707070"/>
<rect x="139" y="103" width="34" height="36" fill="#707070"/>
<rect x="139" y="103" width="34" height="36" fill="#707070"/>
<rect x="242" y="139" width="35" height="34" fill="#707070"/>
<rect x="242" y="139" width="35" height="34" fill="#707070"/>
<rect x="277" y="139" width="35" height="34" fill="#707070"/>
<rect x="277" y="139" width="35" height="34" fill="#707070"/>
<rect x="242" y="103" width="35" height="36" fill="#707070"/>
<rect x="242" y="103" width="35" height="36" fill="#707070"/>
<rect x="277" y="103" width="35" height="36" fill="#707070"/>
<rect x="277" y="103" width="35" height="36" fill="#707070"/>
<rect x="242" y="69" width="35" height="34" fill="#707070"/>
<rect x="242" y="69" width="35" height="34" fill="#707070"/>
<rect x="277" y="69" width="35" height="34" fill="#707070"/>
<rect x="277" y="69" width="35" height="34" fill="#707070"/>
<rect x="173" y="69" width="34" height="34" fill="#707070"/>
<rect x="173" y="69" width="34" height="34" fill="#707070"/>
<rect x="207" y="69" width="35" height="34" fill="#707070"/>
<rect x="207" y="69" width="35" height="34" fill="#707070"/>
<rect x="104" y="69" width="35" height="34" fill="#707070"/>
<rect x="104" y="69" width="35" height="34" fill="#707070"/>
<rect x="139" y="69" width="34" height="34" fill="#707070"/>
<rect x="139" y="69" width="34" height="34" fill="#707070"/>
<rect x="69" y="34" width="35" height="35" fill="#707070"/>
<rect x="69" y="34" width="35" height="35" fill="#707070"/>
<rect x="104" y="34" width="35" height="35" fill="#707070"/>
<rect x="104" y="34" width="35" height="35" fill="#707070"/>
<rect x="139" y="34" width="34" height="35" fill="#707070"/>
<rect x="139" y="34" width="34" height="35" fill="#707070"/>
<rect x="173" y="34" width="34" height="35" fill="#707070"/>
<rect x="173" y="34" width="34" height="35" fill="#707070"/>
<rect x="207" y="34" width="35" height="35" fill="#707070"/>
<rect x="207" y="34" width="35" height="35" fill="#707070"/>
<rect x="242" y="34" width="35" height="35" fill="#707070"/>
<rect x="242" y="34" width="35" height="35" fill="#707070"/>
<rect x="173" y="103" width="34" height="36" fill="#707070"/>
<rect x="173" y="103" width="34" height="36" fill="#707070"/>
<rect x="207" y="103" width="35" height="36" fill="#707070"/>
<rect x="207" y="103" width="35" height="36" fill="#707070"/>
<rect x="104" y="69" width="35" height="34" fill="#FFB800"/>
<rect x="207" y="52" width="35" height="34" fill="#FF003D"/>
<rect x="242" y="86" width="35" height="35" fill="#FF003D"/>
<rect y="139" width="34" height="34" fill="#383838"/>
<rect y="103" width="34" height="36" fill="#383838"/>
<rect y="69" width="34" height="34" fill="#383838"/>
<rect x="34" y="34" width="35" height="35" fill="#383838"/>
<rect width="35" height="34" transform="matrix(-1 0 0 1 312 173)" fill="#707070"/>
<rect width="35" height="34" transform="matrix(-1 0 0 1 277 173)" fill="#707070"/>
<rect width="35" height="34" transform="matrix(-1 0 0 1 242 139)" fill="#383838"/>
<rect width="35" height="34" transform="matrix(-1 0 0 1 242 173)" fill="#383838"/>
<rect width="34" height="34" transform="matrix(-1 0 0 1 276 173)" fill="#383838"/>
<rect width="34" height="34" transform="matrix(-1 0 0 1 346 173)" fill="#383838"/>
<rect width="34" height="34" transform="matrix(-1 0 0 1 207 139)" fill="#383838"/>
<rect width="34" height="34" transform="matrix(-1 0 0 1 173 139)" fill="#383838"/>
<rect width="34" height="34" transform="matrix(-1 0 0 1 346 139)" fill="#383838"/>
<rect width="34" height="36" transform="matrix(-1 0 0 1 346 103)" fill="#383838"/>
<rect width="34" height="34" transform="matrix(-1 0 0 1 346 69)" fill="#383838"/>
<rect width="35" height="35" transform="matrix(-1 0 0 1 312 34)" fill="#383838"/>
<rect x="69" width="35" height="34" fill="#383838"/>
<rect x="104" width="35" height="34" fill="#383838"/>
<rect x="139" width="34" height="34" fill="#383838"/>
<rect x="173" width="34" height="34" fill="#383838"/>
<rect x="207" width="35" height="34" fill="#383838"/>
<rect x="242" width="35" height="34" fill="#383838"/>
<rect y="261" width="1652" height="88" fill="#FF003D"/>
<path d="M514.418 328.91C524.298 328.91 530.733 323.645 530.733 315.585C530.733 307.59 524.558 304.6 516.693 302.78L513.313 301.935C507.268 300.44 503.693 298.815 503.693 293.94C503.693 289.065 507.593 286.335 513.638 286.335C519.878 286.335 524.428 289.065 524.428 295.63V298.36H529.823V295.63C529.823 286.335 522.803 281.59 513.638 281.59C504.473 281.59 498.298 286.335 498.298 294.005C498.298 301.675 503.758 304.795 511.818 306.745L515.198 307.59C521.308 309.02 525.338 310.71 525.338 315.715C525.338 320.59 521.503 324.165 514.418 324.165C507.463 324.165 502.588 320.59 502.588 312.985V311.62H497.193V312.985C497.193 323.645 504.473 328.91 514.418 328.91ZM539.332 328H544.467V312.01C544.467 304.145 548.757 300.115 554.867 300.115C560.197 300.115 563.642 302.845 563.642 309.15V328H568.777V308.76C568.777 300.245 563.187 295.63 556.167 295.63C549.732 295.63 546.742 298.49 545.377 301.285H544.467V282.5H539.332V328ZM588.945 328.91C595.51 328.91 598.175 325.79 599.54 323.255H600.32V323.58C600.32 326.31 602.205 328 605.065 328H609.55V323.645H606.625C605.455 323.645 604.805 322.995 604.805 321.695V307.33C604.805 299.725 599.995 295.305 591.935 295.305C583.94 295.305 579.65 299.66 578.155 304.99L582.965 306.55C583.94 302.455 586.735 299.725 591.87 299.725C597.135 299.725 599.735 302.52 599.735 307.005V309.345H589.01C582.185 309.345 577.05 312.53 577.05 318.965C577.05 325.335 582.185 328.91 588.945 328.91ZM589.53 324.49C585.11 324.49 582.185 322.41 582.185 318.835C582.185 315.26 585.11 313.505 589.205 313.505H599.735V314.22C599.735 320.72 595.64 324.49 589.53 324.49ZM616.583 328H621.718V308.63C621.718 303.3 624.773 300.765 629.388 300.765H633.483V296.085H629.713C625.878 296.085 623.603 297.32 622.498 300.115H621.588V296.215H616.583V328ZM654.502 328.91C663.017 328.91 666.787 324.165 668.737 320.135L664.317 317.99C662.757 321.5 660.092 324.36 654.632 324.36C648.327 324.36 643.777 320.265 643.582 313.44H669.452V311.1C669.452 301.415 663.212 295.305 654.177 295.305C644.882 295.305 638.382 301.935 638.382 311.75V312.53C638.382 322.345 644.817 328.91 654.502 328.91ZM643.647 309.215C644.427 303.3 648.392 299.855 654.177 299.855C659.897 299.855 663.862 303.3 664.252 309.215H643.647ZM677.444 336.125H679.524C683.294 336.125 685.114 334.305 685.114 330.535V324.49C685.114 321.955 683.229 320.135 680.759 320.135C678.224 320.135 676.339 321.89 676.339 324.36C676.339 326.765 678.224 328.455 680.759 328.455H681.669V330.535C681.669 332.16 680.954 332.875 679.329 332.875H677.444V336.125ZM708.619 328H714.079V309.67H726.039C734.034 309.67 740.339 304.795 740.339 296.54V295.695C740.339 287.375 734.164 282.5 726.039 282.5H708.619V328ZM714.079 304.73V287.44H725.454C731.369 287.44 734.879 290.495 734.879 295.76V296.41C734.879 301.74 731.239 304.73 725.454 304.73H714.079ZM747.852 328H752.987V282.5H747.852V328ZM773.535 328.91C780.1 328.91 782.765 325.79 784.13 323.255H784.91V323.58C784.91 326.31 786.795 328 789.655 328H794.14V323.645H791.215C790.045 323.645 789.395 322.995 789.395 321.695V307.33C789.395 299.725 784.585 295.305 776.525 295.305C768.53 295.305 764.24 299.66 762.745 304.99L767.555 306.55C768.53 302.455 771.325 299.725 776.46 299.725C781.725 299.725 784.325 302.52 784.325 307.005V309.345H773.6C766.775 309.345 761.64 312.53 761.64 318.965C761.64 325.335 766.775 328.91 773.535 328.91ZM774.12 324.49C769.7 324.49 766.775 322.41 766.775 318.835C766.775 315.26 769.7 313.505 773.795 313.505H784.325V314.22C784.325 320.72 780.23 324.49 774.12 324.49ZM804.182 341H823.682C827.322 341 829.402 338.855 829.402 335.41V296.215H824.267V312.205C824.267 320.135 819.912 324.1 813.867 324.1C808.472 324.1 805.092 321.435 805.092 315.13V296.215H799.957V315.52C799.957 324.035 805.482 328.585 812.502 328.585C819.002 328.585 821.992 325.725 823.357 322.93H824.267V334.5C824.267 335.8 823.747 336.45 822.382 336.45H804.182V341ZM839.627 336.125H841.707C845.477 336.125 847.297 334.305 847.297 330.535V324.49C847.297 321.955 845.412 320.135 842.942 320.135C840.407 320.135 838.522 321.89 838.522 324.36C838.522 326.765 840.407 328.455 842.942 328.455H843.852V330.535C843.852 332.16 843.137 332.875 841.512 332.875H839.627V336.125ZM888.041 328.91C897.921 328.91 904.356 323.645 904.356 315.585C904.356 307.59 898.181 304.6 890.316 302.78L886.936 301.935C880.891 300.44 877.316 298.815 877.316 293.94C877.316 289.065 881.216 286.335 887.261 286.335C893.501 286.335 898.051 289.065 898.051 295.63V298.36H903.446V295.63C903.446 286.335 896.426 281.59 887.261 281.59C878.096 281.59 871.921 286.335 871.921 294.005C871.921 301.675 877.381 304.795 885.441 306.745L888.821 307.59C894.931 309.02 898.961 310.71 898.961 315.715C898.961 320.59 895.126 324.165 888.041 324.165C881.086 324.165 876.211 320.59 876.211 312.985V311.62H870.816V312.985C870.816 323.645 878.096 328.91 888.041 328.91ZM927.645 328.91C937.265 328.91 943.895 322.475 943.895 312.53V311.685C943.895 301.74 937.265 295.305 927.645 295.305C918.025 295.305 911.395 301.74 911.395 311.685V312.53C911.395 322.475 918.025 328.91 927.645 328.91ZM927.645 324.295C920.95 324.295 916.53 319.68 916.53 312.4V311.815C916.53 304.535 920.885 299.92 927.645 299.92C934.34 299.92 938.76 304.535 938.76 311.815V312.4C938.76 319.68 934.34 324.295 927.645 324.295ZM967.76 328.91C976.925 328.91 981.865 323.19 983.23 316.82L978.16 315.715C977.38 320.59 974.13 324.295 967.825 324.295C961.52 324.295 956.71 319.81 956.71 312.4V311.815C956.71 304.405 961.52 299.92 967.825 299.92C974.13 299.92 977.315 303.82 977.965 308.5L982.97 307.46C981.93 301.025 976.925 295.305 967.76 295.305C958.465 295.305 951.575 301.545 951.575 311.75V312.465C951.575 322.67 958.465 328.91 967.76 328.91ZM994.518 291.275C996.793 291.275 998.483 289.65 998.483 287.375C998.483 285.035 996.793 283.41 994.518 283.41C992.308 283.41 990.618 285.035 990.618 287.375C990.618 289.65 992.308 291.275 994.518 291.275ZM991.983 328H997.118V296.215H991.983V328ZM1017.67 328.91C1024.23 328.91 1026.9 325.79 1028.26 323.255H1029.04V323.58C1029.04 326.31 1030.93 328 1033.79 328H1038.27V323.645H1035.35C1034.18 323.645 1033.53 322.995 1033.53 321.695V307.33C1033.53 299.725 1028.72 295.305 1020.66 295.305C1012.66 295.305 1008.37 299.66 1006.88 304.99L1011.69 306.55C1012.66 302.455 1015.46 299.725 1020.59 299.725C1025.86 299.725 1028.46 302.52 1028.46 307.005V309.345H1017.73C1010.91 309.345 1005.77 312.53 1005.77 318.965C1005.77 325.335 1010.91 328.91 1017.67 328.91ZM1018.25 324.49C1013.83 324.49 1010.91 322.41 1010.91 318.835C1010.91 315.26 1013.83 313.505 1017.93 313.505H1028.46V314.22C1028.46 320.72 1024.36 324.49 1018.25 324.49ZM1045.3 328H1050.44V282.5H1045.3V328ZM1063.77 291.275C1066.05 291.275 1067.74 289.65 1067.74 287.375C1067.74 285.035 1066.05 283.41 1063.77 283.41C1061.56 283.41 1059.87 285.035 1059.87 287.375C1059.87 289.65 1061.56 291.275 1063.77 291.275ZM1061.24 328H1066.37V296.215H1061.24V328ZM1075.74 328H1101.87V323.515H1081.07V322.8L1101.35 302.845V296.215H1076.39V300.7H1095.95V301.415L1075.74 321.37V328ZM1124.42 328.91C1132.93 328.91 1136.7 324.165 1138.65 320.135L1134.23 317.99C1132.67 321.5 1130.01 324.36 1124.55 324.36C1118.24 324.36 1113.69 320.265 1113.5 313.44H1139.37V311.1C1139.37 301.415 1133.13 295.305 1124.09 295.305C1114.8 295.305 1108.3 301.935 1108.3 311.75V312.53C1108.3 322.345 1114.73 328.91 1124.42 328.91ZM1113.56 309.215C1114.34 303.3 1118.31 299.855 1124.09 299.855C1129.81 299.855 1133.78 303.3 1134.17 309.215H1113.56ZM1150.68 328.91C1153.21 328.91 1155.1 327.09 1155.1 324.49C1155.1 321.89 1153.21 320.07 1150.68 320.07C1148.14 320.07 1146.26 321.89 1146.26 324.49C1146.26 327.09 1148.14 328.91 1150.68 328.91Z" fill="white"/>
</svg>
