<svg width="35" height="32" viewBox="0 0 35 32" fill="none" xmlns="http://www.w3.org/2000/svg">
<path fill-rule="evenodd" clip-rule="evenodd" d="M0.558594 1.28747C0.558594 0.929149 0.850003 0.638672 1.20947 0.638672H2.5926H3.74179H4.27169C4.43224 0.638672 4.58712 0.697823 4.70657 0.804757L5.10083 1.15768L16.9404 11.7563C17.1878 11.9778 17.5628 11.9778 17.8102 11.7563L29.6499 1.15769L30.0441 0.804755C30.1636 0.697823 30.3185 0.638672 30.4789 0.638672H31.0089H32.158H33.5412C33.9006 0.638672 34.192 0.929149 34.192 1.28747V2.66617V29.6131V30.9918C34.192 31.3503 33.9006 31.6406 33.5412 31.6406H30.7749C30.4155 31.6406 30.124 31.3503 30.124 30.9918V29.6131V7.63801C30.124 7.07663 29.4574 6.7802 29.0384 7.1553L18.7867 16.3324L18.3924 16.6854C18.273 16.7923 18.1181 16.8514 17.9574 16.8514H17.4276H17.3232H16.7932C16.6326 16.8514 16.4778 16.7923 16.3583 16.6854L15.964 16.3324L5.71238 7.1553C5.29336 6.7802 4.6266 7.07663 4.6266 7.63802V29.6131V30.9918C4.6266 31.3503 4.33518 31.6406 3.97572 31.6406H1.20947C0.850003 31.6406 0.558594 31.3503 0.558594 30.9918V29.6131V2.66617V1.28747Z" fill="#F9A535"/>
<path fill-rule="evenodd" clip-rule="evenodd" d="M14.0306 19.6917C14.0306 18.9887 14.6051 18.416 15.3103 18.416C16.0155 18.416 16.5901 18.9887 16.5901 19.6917C16.5901 20.3945 16.0155 20.9673 15.3103 20.9673C14.6051 20.9673 14.0306 20.3945 14.0306 19.6917ZM17.3737 22.4253C16.6423 22.4253 16.0677 22.6074 16.0677 23.1281C16.0677 23.5537 16.3468 24.0661 16.9335 24.2392C16.8595 24.9689 16.2137 25.5684 15.467 25.5684C14.6656 25.5684 13.9933 24.9355 13.9933 24.0995C13.9933 23.8755 13.8112 23.694 13.5865 23.694C13.3618 23.694 13.1797 23.8755 13.1797 24.0995C13.1797 25.3981 14.2311 26.3794 15.467 26.3794C16.2323 26.3794 16.9221 25.9851 17.3394 25.3927C17.7561 25.9966 18.4561 26.3794 19.2279 26.3794C20.4712 26.3794 21.5152 25.3387 21.5152 24.0995C21.5152 23.8755 21.3332 23.694 21.1084 23.694C20.8837 23.694 20.7016 23.8755 20.7016 24.0995C20.7016 24.8907 20.022 25.5684 19.2279 25.5684C18.4771 25.5684 17.8396 25.0129 17.7621 24.2551C18.384 24.1027 18.6795 23.5878 18.6795 23.1281C18.6795 22.5815 18.105 22.4253 17.3737 22.4253ZM19.463 18.416C18.7578 18.416 18.1832 18.9887 18.1832 19.6917C18.1832 20.3945 18.7578 20.9673 19.463 20.9673C20.1682 20.9673 20.7428 20.3945 20.7428 19.6917C20.7428 18.9887 20.1682 18.416 19.463 18.416Z" fill="#F9A535"/>
</svg>
