<svg width="32" height="31" viewBox="0 0 32 31" fill="none" xmlns="http://www.w3.org/2000/svg">
<path d="M29.4246 19.7776C29.4246 26.5576 23.4453 28.7455 16.0824 28.7455C8.71961 28.7455 2.74023 26.5816 2.74023 19.7776C2.74023 16.5799 3.63128 12.9494 5.53061 9.96816L3.95955 4.58262C3.65472 3.54879 4.66301 2.61112 5.60097 3.01985L10.7831 5.23177C12.3072 4.53452 14.0659 4.12582 16.0824 4.12582C18.0521 4.12582 19.8108 4.53453 21.3349 5.25581L26.5639 3.01985C27.5018 2.63516 28.5101 3.57284 28.2053 4.58262L26.6108 10.0403C28.5101 12.9735 29.4246 16.6039 29.4246 19.7776V19.7776Z" stroke="#F9A535" stroke-width="4" stroke-miterlimit="10"/>
</svg>
