<svg width="2000" height="799" viewBox="0 0 2000 799" fill="none" xmlns="http://www.w3.org/2000/svg">
    <path
        d="M111.762 27.1999L307.056 103.571C345.531 91.7153 388.944 85.3685 437.957 86.3141C486.968 85.3685 530.384 91.7153 568.856 103.571L764.15 27.1999C804.131 20.0299 839.139 53.7228 831.687 92.208L804.049 281.573C837.667 361.53 848.943 442.213 848.943 491.023C848.943 616.415 794.087 772.756 437.957 772.756C81.8249 772.756 26.9686 616.415 26.9686 491.023C26.9686 442.213 38.2451 361.53 71.8629 281.573L44.2253 92.208C36.7763 53.7228 71.7806 20.0299 111.762 27.1999Z"
        fill="#F9A535" />
    <path fill-rule="evenodd" clip-rule="evenodd"
        d="M118.93 2.32616L116.4 1.87245C59.7964 -8.27856 7.95764 39.3413 18.5579 96.4212L45.1061 278.322C12.1864 359.465 0.956543 440.479 0.956543 491.025C0.956543 557.141 15.4307 635.919 80.9952 697.575C146.109 758.807 256.72 798.5 437.957 798.5C619.193 798.5 729.803 758.807 794.917 697.575C860.481 635.919 874.955 557.141 874.955 491.025C874.955 440.479 863.725 359.465 830.805 278.322L857.353 96.4228C867.959 39.3393 816.113 -8.2781 759.511 1.87245L756.981 2.32616L567.663 76.3602C528.789 65.3883 485.686 59.6944 437.957 60.5694C390.225 59.6944 347.125 65.3885 308.249 76.3603L118.93 2.32616ZM307.055 103.573C345.531 91.7175 388.943 85.3707 437.957 86.3163C486.968 85.3707 530.384 91.7175 568.856 103.573L764.15 27.2022C804.131 20.0321 839.139 53.725 831.686 92.2103L804.049 281.575C837.666 361.533 848.943 442.215 848.943 491.025C848.943 616.418 794.087 772.758 437.957 772.758C81.8247 772.758 26.9684 616.418 26.9684 491.025C26.9684 442.215 38.2449 361.533 71.8627 281.575L44.2252 92.2103C36.7761 53.725 71.7805 20.0321 111.762 27.2022L307.055 103.573Z"
        fill="#844E1D" />
    <path
        d="M437.957 744.442C610.348 744.442 750.099 696.972 750.099 584.657C750.099 472.341 628.417 337.715 437.957 337.715C247.497 337.715 125.814 472.341 125.814 584.657C125.814 696.972 265.565 744.442 437.957 744.442Z"
        fill="#FEFEFE" />
    <path
        d="M692.883 250.986V333.362C692.883 356.109 711.516 374.549 734.502 374.549C757.487 374.549 776.121 356.109 776.121 333.362V250.986C776.121 228.239 757.487 209.799 734.502 209.799C711.516 209.799 692.883 228.239 692.883 250.986Z"
        fill="#844E1D" />
    <path
        d="M510.801 250.986V333.362C510.801 356.109 529.434 374.549 552.42 374.549C575.405 374.549 594.039 356.109 594.039 333.362V250.986C594.039 228.239 575.405 209.799 552.42 209.799C529.434 209.799 510.801 228.239 510.801 250.986Z"
        fill="#844E1D" />
    <path
        d="M647.776 439.075C634.513 435.421 625.055 426.019 625.055 415.968C625.055 403.078 640.61 399.493 659.799 399.493C678.988 399.493 694.543 403.078 694.543 415.968C694.543 426.018 685.087 435.419 671.825 439.074V458.693C671.825 477.175 687.378 492.157 706.562 492.157C707.999 492.157 709.416 492.073 710.807 491.91C713.421 491.603 715.928 493.514 715.928 496.146V511.18C715.928 513.154 714.489 514.847 712.525 515.038C710.564 515.228 708.575 515.325 706.562 515.325C687.491 515.325 670.541 506.577 659.801 493.018C649.061 506.577 632.11 515.325 613.039 515.325C611.028 515.325 609.04 515.228 607.081 515.038C605.117 514.848 603.678 513.154 603.678 511.181V496.146C603.678 493.514 606.184 491.604 608.798 491.91C610.188 492.074 611.603 492.157 613.039 492.157C632.224 492.157 647.776 477.175 647.776 458.693V439.075Z"
        fill="#844E1D" />
    <path
        d="M1004.92 57.1396V150.23H994.01L943.283 77.1396H942.374V150.23H931.101V57.1396H942.01L992.919 130.412H993.828V57.1396H1004.92ZM1054.38 151.685C1048.08 151.685 1042.55 150.185 1037.79 147.185C1033.07 144.185 1029.37 139.988 1026.7 134.594C1024.07 129.2 1022.75 122.897 1022.75 115.685C1022.75 108.412 1024.07 102.064 1026.7 96.6396C1029.37 91.2153 1033.07 87.0032 1037.79 84.0032C1042.55 81.0032 1048.08 79.5032 1054.38 79.5032C1060.69 79.5032 1066.2 81.0032 1070.93 84.0032C1075.69 87.0032 1079.38 91.2153 1082.02 96.6396C1084.69 102.064 1086.02 108.412 1086.02 115.685C1086.02 122.897 1084.69 129.2 1082.02 134.594C1079.38 139.988 1075.69 144.185 1070.93 147.185C1066.2 150.185 1060.69 151.685 1054.38 151.685ZM1054.38 142.049C1059.17 142.049 1063.11 140.821 1066.2 138.367C1069.29 135.912 1071.58 132.685 1073.07 128.685C1074.55 124.685 1075.29 120.352 1075.29 115.685C1075.29 111.018 1074.55 106.67 1073.07 102.64C1071.58 98.6093 1069.29 95.3517 1066.2 92.8668C1063.11 90.382 1059.17 89.1396 1054.38 89.1396C1049.6 89.1396 1045.66 90.382 1042.57 92.8668C1039.48 95.3517 1037.19 98.6093 1035.7 102.64C1034.22 106.67 1033.48 111.018 1033.48 115.685C1033.48 120.352 1034.22 124.685 1035.7 128.685C1037.19 132.685 1039.48 135.912 1042.57 138.367C1045.66 140.821 1049.6 142.049 1054.38 142.049ZM1132.76 80.4123V89.5032H1096.58V80.4123H1132.76ZM1107.12 63.685H1117.85V130.23C1117.85 133.261 1118.29 135.533 1119.17 137.049C1120.08 138.533 1121.23 139.533 1122.62 140.049C1124.05 140.533 1125.55 140.776 1127.12 140.776C1128.31 140.776 1129.28 140.715 1130.03 140.594C1130.79 140.443 1131.4 140.321 1131.85 140.23L1134.03 149.867C1133.31 150.14 1132.29 150.412 1130.99 150.685C1129.68 150.988 1128.03 151.14 1126.03 151.14C1123 151.14 1120.03 150.488 1117.12 149.185C1114.24 147.882 1111.85 145.897 1109.94 143.23C1108.06 140.564 1107.12 137.2 1107.12 133.14V63.685ZM1197.62 57.1396V150.23H1186.35V57.1396H1197.62ZM1218.77 150.23V80.4123H1229.13V91.3214H1230.04C1231.5 87.5941 1233.85 84.7002 1237.09 82.6396C1240.33 80.5487 1244.23 79.5032 1248.77 79.5032C1253.38 79.5032 1257.21 80.5487 1260.27 82.6396C1263.36 84.7002 1265.77 87.5941 1267.5 91.3214H1268.23C1270.01 87.7153 1272.7 84.8517 1276.27 82.7305C1279.85 80.579 1284.13 79.5032 1289.13 79.5032C1295.38 79.5032 1300.48 81.4577 1304.45 85.3668C1308.42 89.2456 1310.41 95.2911 1310.41 103.503V150.23H1299.68V103.503C1299.68 98.3517 1298.27 94.6699 1295.45 92.4577C1292.63 90.2456 1289.32 89.1396 1285.5 89.1396C1280.59 89.1396 1276.79 90.6244 1274.09 93.5941C1271.39 96.5335 1270.04 100.261 1270.04 104.776V150.23H1259.13V102.412C1259.13 98.4426 1257.85 95.2456 1255.27 92.8214C1252.7 90.3668 1249.38 89.1396 1245.32 89.1396C1242.53 89.1396 1239.92 89.882 1237.5 91.3668C1235.1 92.8517 1233.17 94.9123 1231.68 97.5486C1230.23 100.155 1229.5 103.17 1229.5 106.594V150.23H1218.77ZM1330.02 176.412V80.4123H1340.38V91.5032H1341.66C1342.45 90.2911 1343.54 88.7456 1344.93 86.8668C1346.35 84.9577 1348.38 83.2608 1351.02 81.7759C1353.69 80.2608 1357.29 79.5032 1361.84 79.5032C1367.72 79.5032 1372.9 80.9729 1377.38 83.9123C1381.87 86.8517 1385.37 91.0183 1387.88 96.4123C1390.4 101.806 1391.66 108.17 1391.66 115.503C1391.66 122.897 1390.4 129.306 1387.88 134.73C1385.37 140.124 1381.88 144.306 1377.43 147.276C1372.98 150.215 1367.84 151.685 1362.02 151.685C1357.54 151.685 1353.95 150.943 1351.25 149.458C1348.55 147.943 1346.48 146.23 1345.02 144.321C1343.57 142.382 1342.45 140.776 1341.66 139.503H1340.75V176.412H1330.02ZM1340.57 115.321C1340.57 120.594 1341.34 125.246 1342.88 129.276C1344.43 133.276 1346.69 136.412 1349.66 138.685C1352.63 140.927 1356.26 142.049 1360.57 142.049C1365.05 142.049 1368.79 140.867 1371.79 138.503C1374.82 136.109 1377.1 132.897 1378.61 128.867C1380.16 124.806 1380.93 120.291 1380.93 115.321C1380.93 110.412 1380.17 105.988 1378.66 102.049C1377.17 98.079 1374.92 94.9426 1371.88 92.6396C1368.88 90.3062 1365.11 89.1396 1360.57 89.1396C1356.2 89.1396 1352.54 90.2456 1349.57 92.4577C1346.6 94.6396 1344.35 97.7002 1342.84 101.64C1341.32 105.549 1340.57 110.109 1340.57 115.321ZM1418.75 57.1396V150.23H1408.02V57.1396H1418.75ZM1467.67 151.685C1460.94 151.685 1455.14 150.2 1450.26 147.23C1445.41 144.23 1441.67 140.049 1439.03 134.685C1436.43 129.291 1435.12 123.018 1435.12 115.867C1435.12 108.715 1436.43 102.412 1439.03 96.9577C1441.67 91.4729 1445.34 87.2002 1450.03 84.1396C1454.76 81.0487 1460.28 79.5032 1466.58 79.5032C1470.21 79.5032 1473.81 80.1093 1477.35 81.3214C1480.9 82.5335 1484.12 84.5032 1487.03 87.2305C1489.94 89.9274 1492.26 93.5032 1493.99 97.9577C1495.71 102.412 1496.58 107.897 1496.58 114.412V118.958H1442.76V109.685H1485.67C1485.67 105.746 1484.88 102.23 1483.31 99.1396C1481.76 96.0486 1479.55 93.6093 1476.67 91.8214C1473.82 90.0335 1470.46 89.1396 1466.58 89.1396C1462.31 89.1396 1458.61 90.2002 1455.49 92.3214C1452.4 94.4123 1450.02 97.1396 1448.35 100.503C1446.68 103.867 1445.85 107.473 1445.85 111.321V117.503C1445.85 122.776 1446.76 127.246 1448.58 130.912C1450.43 134.549 1452.99 137.321 1456.26 139.23C1459.53 141.109 1463.34 142.049 1467.67 142.049C1470.49 142.049 1473.03 141.655 1475.31 140.867C1477.61 140.049 1479.59 138.837 1481.26 137.23C1482.93 135.594 1484.21 133.564 1485.12 131.14L1495.49 134.049C1494.4 137.564 1492.56 140.655 1489.99 143.321C1487.41 145.958 1484.23 148.018 1480.44 149.503C1476.65 150.958 1472.4 151.685 1467.67 151.685ZM1512.9 150.23V80.4123H1523.26V91.3214H1524.17C1525.62 87.5941 1527.97 84.7002 1531.21 82.6396C1534.46 80.5487 1538.35 79.5032 1542.9 79.5032C1547.5 79.5032 1551.34 80.5487 1554.4 82.6396C1557.49 84.7002 1559.9 87.5941 1561.62 91.3214H1562.35C1564.14 87.7153 1566.82 84.8517 1570.4 82.7305C1573.97 80.579 1578.26 79.5032 1583.26 79.5032C1589.5 79.5032 1594.61 81.4577 1598.58 85.3668C1602.55 89.2456 1604.53 95.2911 1604.53 103.503V150.23H1593.81V103.503C1593.81 98.3517 1592.4 94.6699 1589.58 92.4577C1586.76 90.2456 1583.44 89.1396 1579.62 89.1396C1574.71 89.1396 1570.91 90.6244 1568.21 93.5941C1565.52 96.5335 1564.17 100.261 1564.17 104.776V150.23H1553.26V102.412C1553.26 98.4426 1551.97 95.2456 1549.4 92.8214C1546.82 90.3668 1543.5 89.1396 1539.44 89.1396C1536.65 89.1396 1534.05 89.882 1531.62 91.3668C1529.23 92.8517 1527.29 94.9123 1525.81 97.5486C1524.35 100.155 1523.62 103.17 1523.62 106.594V150.23H1512.9ZM1653.42 151.685C1646.69 151.685 1640.89 150.2 1636.01 147.23C1631.16 144.23 1627.42 140.049 1624.78 134.685C1622.18 129.291 1620.87 123.018 1620.87 115.867C1620.87 108.715 1622.18 102.412 1624.78 96.9577C1627.42 91.4729 1631.09 87.2002 1635.78 84.1396C1640.51 81.0487 1646.03 79.5032 1652.33 79.5032C1655.96 79.5032 1659.56 80.1093 1663.1 81.3214C1666.65 82.5335 1669.87 84.5032 1672.78 87.2305C1675.69 89.9274 1678.01 93.5032 1679.74 97.9577C1681.46 102.412 1682.33 107.897 1682.33 114.412V118.958H1628.51V109.685H1671.42C1671.42 105.746 1670.63 102.23 1669.06 99.1396C1667.51 96.0486 1665.3 93.6093 1662.42 91.8214C1659.57 90.0335 1656.21 89.1396 1652.33 89.1396C1648.06 89.1396 1644.36 90.2002 1641.24 92.3214C1638.15 94.4123 1635.77 97.1396 1634.1 100.503C1632.43 103.867 1631.6 107.473 1631.6 111.321V117.503C1631.6 122.776 1632.51 127.246 1634.33 130.912C1636.18 134.549 1638.74 137.321 1642.01 139.23C1645.28 141.109 1649.09 142.049 1653.42 142.049C1656.24 142.049 1658.78 141.655 1661.06 140.867C1663.36 140.049 1665.34 138.837 1667.01 137.23C1668.68 135.594 1669.96 133.564 1670.87 131.14L1681.24 134.049C1680.15 137.564 1678.31 140.655 1675.74 143.321C1673.16 145.958 1669.98 148.018 1666.19 149.503C1662.4 150.958 1658.15 151.685 1653.42 151.685ZM1709.37 108.23V150.23H1698.65V80.4123H1709.01V91.3214H1709.92C1711.56 87.7759 1714.04 84.9274 1717.37 82.7759C1720.71 80.5941 1725.01 79.5032 1730.28 79.5032C1735.01 79.5032 1739.15 80.4729 1742.69 82.4123C1746.24 84.3214 1748.99 87.2305 1750.96 91.1396C1752.93 95.0183 1753.92 99.9274 1753.92 105.867V150.23H1743.19V106.594C1743.19 101.109 1741.77 96.8365 1738.92 93.7759C1736.07 90.685 1732.16 89.1396 1727.19 89.1396C1723.77 89.1396 1720.71 89.882 1718.01 91.3668C1715.34 92.8517 1713.24 95.0183 1711.69 97.8668C1710.15 100.715 1709.37 104.17 1709.37 108.23ZM1803.88 80.4123V89.5032H1767.7V80.4123H1803.88ZM1778.25 63.685H1788.98V130.23C1788.98 133.261 1789.42 135.533 1790.29 137.049C1791.2 138.533 1792.35 139.533 1793.75 140.049C1795.17 140.533 1796.67 140.776 1798.25 140.776C1799.43 140.776 1800.4 140.715 1801.16 140.594C1801.92 140.443 1802.52 140.321 1802.98 140.23L1805.16 149.867C1804.43 150.14 1803.42 150.412 1802.11 150.685C1800.81 150.988 1799.16 151.14 1797.16 151.14C1794.13 151.14 1791.16 150.488 1788.25 149.185C1785.37 147.882 1782.98 145.897 1781.07 143.23C1779.19 140.564 1778.25 137.2 1778.25 133.14V63.685ZM1848.54 151.685C1841.82 151.685 1836.01 150.2 1831.13 147.23C1826.29 144.23 1822.54 140.049 1819.91 134.685C1817.3 129.291 1816 123.018 1816 115.867C1816 108.715 1817.3 102.412 1819.91 96.9577C1822.54 91.4729 1826.21 87.2002 1830.91 84.1396C1835.63 81.0487 1841.15 79.5032 1847.45 79.5032C1851.09 79.5032 1854.68 80.1093 1858.23 81.3214C1861.77 82.5335 1865 84.5032 1867.91 87.2305C1870.82 89.9274 1873.13 93.5032 1874.86 97.9577C1876.59 102.412 1877.45 107.897 1877.45 114.412V118.958H1823.63V109.685H1866.54C1866.54 105.746 1865.76 102.23 1864.18 99.1396C1862.63 96.0486 1860.42 93.6093 1857.54 91.8214C1854.7 90.0335 1851.33 89.1396 1847.45 89.1396C1843.18 89.1396 1839.48 90.2002 1836.36 92.3214C1833.27 94.4123 1830.89 97.1396 1829.23 100.503C1827.56 103.867 1826.73 107.473 1826.73 111.321V117.503C1826.73 122.776 1827.63 127.246 1829.45 130.912C1831.3 134.549 1833.86 137.321 1837.13 139.23C1840.41 141.109 1844.21 142.049 1848.54 142.049C1851.36 142.049 1853.91 141.655 1856.18 140.867C1858.48 140.049 1860.47 138.837 1862.13 137.23C1863.8 135.594 1865.09 133.564 1866 131.14L1876.36 134.049C1875.27 137.564 1873.44 140.655 1870.86 143.321C1868.29 145.958 1865.1 148.018 1861.32 149.503C1857.53 150.958 1853.27 151.685 1848.54 151.685ZM1920.13 151.685C1914.32 151.685 1909.18 150.215 1904.73 147.276C1900.27 144.306 1896.79 140.124 1894.27 134.73C1891.76 129.306 1890.5 122.897 1890.5 115.503C1890.5 108.17 1891.76 101.806 1894.27 96.4123C1896.79 91.0183 1900.29 86.8517 1904.77 83.9123C1909.26 80.9729 1914.44 79.5032 1920.32 79.5032C1924.86 79.5032 1928.45 80.2608 1931.09 81.7759C1933.76 83.2608 1935.79 84.9577 1937.18 86.8668C1938.6 88.7456 1939.71 90.2911 1940.5 91.5032H1941.41V57.1396H1952.13V150.23H1941.77V139.503H1940.5C1939.71 140.776 1938.59 142.382 1937.13 144.321C1935.68 146.23 1933.6 147.943 1930.91 149.458C1928.21 150.943 1924.62 151.685 1920.13 151.685ZM1921.59 142.049C1925.89 142.049 1929.53 140.927 1932.5 138.685C1935.47 136.412 1937.73 133.276 1939.27 129.276C1940.82 125.246 1941.59 120.594 1941.59 115.321C1941.59 110.109 1940.83 105.549 1939.32 101.64C1937.8 97.7002 1935.56 94.6396 1932.59 92.4577C1929.62 90.2456 1925.95 89.1396 1921.59 89.1396C1917.04 89.1396 1913.26 90.3062 1910.23 92.6396C1907.23 94.9426 1904.97 98.079 1903.45 102.049C1901.97 105.988 1901.23 110.412 1901.23 115.321C1901.23 120.291 1901.98 124.806 1903.5 128.867C1905.04 132.897 1907.32 136.109 1910.32 138.503C1913.35 140.867 1917.1 142.049 1921.59 142.049ZM1987.45 57.1396L1986.54 124.049H1976L1975.09 57.1396H1987.45ZM1981.27 150.958C1979.03 150.958 1977.1 150.155 1975.5 148.549C1973.89 146.943 1973.09 145.018 1973.09 142.776C1973.09 140.533 1973.89 138.609 1975.5 137.003C1977.1 135.397 1979.03 134.594 1981.27 134.594C1983.51 134.594 1985.44 135.397 1987.04 137.003C1988.65 138.609 1989.45 140.533 1989.45 142.776C1989.45 144.261 1989.07 145.624 1988.32 146.867C1987.59 148.109 1986.6 149.109 1985.36 149.867C1984.15 150.594 1982.79 150.958 1981.27 150.958Z"
        fill="white" />
    <path
        d="M966.464 221.867C966.055 218.412 964.396 215.73 961.487 213.821C958.578 211.912 955.01 210.958 950.783 210.958C947.692 210.958 944.987 211.458 942.669 212.458C940.374 213.458 938.578 214.833 937.283 216.583C936.01 218.333 935.374 220.321 935.374 222.549C935.374 224.412 935.817 226.015 936.703 227.355C937.612 228.674 938.771 229.776 940.18 230.662C941.589 231.526 943.067 232.242 944.612 232.81C946.158 233.355 947.578 233.799 948.874 234.14L955.964 236.049C957.783 236.526 959.805 237.185 962.033 238.026C964.283 238.867 966.43 240.015 968.476 241.469C970.544 242.901 972.249 244.742 973.589 246.992C974.93 249.242 975.601 252.003 975.601 255.276C975.601 259.049 974.612 262.458 972.635 265.503C970.68 268.549 967.817 270.969 964.044 272.765C960.294 274.56 955.737 275.458 950.374 275.458C945.374 275.458 941.044 274.651 937.385 273.037C933.749 271.424 930.885 269.174 928.794 266.287C926.726 263.401 925.555 260.049 925.283 256.23H934.01C934.237 258.867 935.124 261.049 936.669 262.776C938.237 264.48 940.214 265.753 942.601 266.594C945.01 267.412 947.601 267.821 950.374 267.821C953.601 267.821 956.499 267.299 959.067 266.253C961.635 265.185 963.669 263.708 965.169 261.821C966.669 259.912 967.419 257.685 967.419 255.14C967.419 252.821 966.771 250.935 965.476 249.48C964.18 248.026 962.476 246.844 960.362 245.935C958.249 245.026 955.964 244.23 953.51 243.549L944.919 241.094C939.464 239.526 935.146 237.287 931.964 234.378C928.783 231.469 927.192 227.662 927.192 222.958C927.192 219.049 928.249 215.64 930.362 212.73C932.499 209.799 935.362 207.526 938.953 205.912C942.567 204.276 946.601 203.458 951.055 203.458C955.555 203.458 959.555 204.265 963.055 205.878C966.555 207.469 969.328 209.651 971.374 212.424C973.442 215.196 974.533 218.344 974.646 221.867H966.464ZM1009.68 275.321C1004.96 275.321 1000.81 274.196 997.24 271.946C993.695 269.696 990.922 266.549 988.922 262.503C986.945 258.458 985.956 253.73 985.956 248.321C985.956 242.867 986.945 238.105 988.922 234.037C990.922 229.969 993.695 226.81 997.24 224.56C1000.81 222.31 1004.96 221.185 1009.68 221.185C1014.41 221.185 1018.55 222.31 1022.09 224.56C1025.66 226.81 1028.43 229.969 1030.41 234.037C1032.41 238.105 1033.41 242.867 1033.41 248.321C1033.41 253.73 1032.41 258.458 1030.41 262.503C1028.43 266.549 1025.66 269.696 1022.09 271.946C1018.55 274.196 1014.41 275.321 1009.68 275.321ZM1009.68 268.094C1013.27 268.094 1016.23 267.174 1018.55 265.333C1020.87 263.492 1022.58 261.071 1023.69 258.071C1024.81 255.071 1025.37 251.821 1025.37 248.321C1025.37 244.821 1024.81 241.56 1023.69 238.537C1022.58 235.515 1020.87 233.071 1018.55 231.208C1016.23 229.344 1013.27 228.412 1009.68 228.412C1006.09 228.412 1003.14 229.344 1000.82 231.208C998.501 233.071 996.786 235.515 995.672 238.537C994.558 241.56 994.001 244.821 994.001 248.321C994.001 251.821 994.558 255.071 995.672 258.071C996.786 261.071 998.501 263.492 1000.82 265.333C1003.14 267.174 1006.09 268.094 1009.68 268.094ZM1045.69 274.23V221.867H1053.46V229.776H1054.01C1054.96 227.185 1056.69 225.083 1059.19 223.469C1061.69 221.855 1064.51 221.049 1067.65 221.049C1068.24 221.049 1068.98 221.06 1069.86 221.083C1070.75 221.105 1071.42 221.14 1071.87 221.185V229.367C1071.6 229.299 1070.98 229.196 1070 229.06C1069.04 228.901 1068.03 228.821 1066.96 228.821C1064.42 228.821 1062.15 229.355 1060.15 230.424C1058.17 231.469 1056.6 232.924 1055.44 234.787C1054.31 236.628 1053.74 238.73 1053.74 241.094V274.23H1045.69ZM1081.41 274.23V221.867H1089.18V229.776H1089.73C1090.68 227.185 1092.41 225.083 1094.91 223.469C1097.41 221.855 1100.23 221.049 1103.37 221.049C1103.96 221.049 1104.69 221.06 1105.58 221.083C1106.47 221.105 1107.14 221.14 1107.59 221.185V229.367C1107.32 229.299 1106.69 229.196 1105.72 229.06C1104.76 228.901 1103.75 228.821 1102.68 228.821C1100.14 228.821 1097.87 229.355 1095.87 230.424C1093.89 231.469 1092.32 232.924 1091.16 234.787C1090.02 236.628 1089.46 238.73 1089.46 241.094V274.23H1081.41ZM1123.9 293.867C1122.54 293.867 1121.33 293.753 1120.26 293.526C1119.19 293.321 1118.45 293.117 1118.04 292.912L1120.09 285.821C1122.04 286.321 1123.77 286.503 1125.27 286.367C1126.77 286.23 1128.1 285.56 1129.26 284.355C1130.44 283.174 1131.52 281.253 1132.5 278.594L1134 274.503L1114.63 221.867H1123.36L1137.81 263.594H1138.36L1152.81 221.867H1161.54L1139.31 281.867C1138.31 284.571 1137.08 286.81 1135.6 288.583C1134.12 290.378 1132.4 291.708 1130.45 292.571C1128.52 293.435 1126.34 293.867 1123.9 293.867ZM1222.48 221.867V228.685H1194.25V221.867H1222.48ZM1202.71 274.23V214.64C1202.71 211.64 1203.41 209.14 1204.82 207.14C1206.23 205.14 1208.06 203.64 1210.31 202.64C1212.56 201.64 1214.93 201.14 1217.43 201.14C1219.41 201.14 1221.02 201.299 1222.27 201.617C1223.52 201.935 1224.46 202.23 1225.07 202.503L1222.75 209.458C1222.34 209.321 1221.77 209.151 1221.05 208.946C1220.34 208.742 1219.41 208.64 1218.25 208.64C1215.59 208.64 1213.67 209.31 1212.49 210.651C1211.33 211.992 1210.75 213.958 1210.75 216.549V274.23H1202.71ZM1252.87 275.321C1248.14 275.321 1244 274.196 1240.43 271.946C1236.88 269.696 1234.11 266.549 1232.11 262.503C1230.13 258.458 1229.14 253.73 1229.14 248.321C1229.14 242.867 1230.13 238.105 1232.11 234.037C1234.11 229.969 1236.88 226.81 1240.43 224.56C1244 222.31 1248.14 221.185 1252.87 221.185C1257.6 221.185 1261.73 222.31 1265.28 224.56C1268.85 226.81 1271.62 229.969 1273.6 234.037C1275.6 238.105 1276.6 242.867 1276.6 248.321C1276.6 253.73 1275.6 258.458 1273.6 262.503C1271.62 266.549 1268.85 269.696 1265.28 271.946C1261.73 274.196 1257.6 275.321 1252.87 275.321ZM1252.87 268.094C1256.46 268.094 1259.42 267.174 1261.73 265.333C1264.05 263.492 1265.77 261.071 1266.88 258.071C1268 255.071 1268.55 251.821 1268.55 248.321C1268.55 244.821 1268 241.56 1266.88 238.537C1265.77 235.515 1264.05 233.071 1261.73 231.208C1259.42 229.344 1256.46 228.412 1252.87 228.412C1249.28 228.412 1246.33 229.344 1244.01 231.208C1241.69 233.071 1239.97 235.515 1238.86 238.537C1237.75 241.56 1237.19 244.821 1237.19 248.321C1237.19 251.821 1237.75 255.071 1238.86 258.071C1239.97 261.071 1241.69 263.492 1244.01 265.333C1246.33 267.174 1249.28 268.094 1252.87 268.094ZM1288.88 274.23V221.867H1296.65V229.776H1297.2C1298.15 227.185 1299.88 225.083 1302.38 223.469C1304.88 221.855 1307.7 221.049 1310.83 221.049C1311.42 221.049 1312.16 221.06 1313.05 221.083C1313.94 221.105 1314.61 221.14 1315.06 221.185V229.367C1314.79 229.299 1314.16 229.196 1313.19 229.06C1312.23 228.901 1311.22 228.821 1310.15 228.821C1307.61 228.821 1305.33 229.355 1303.33 230.424C1301.36 231.469 1299.79 232.924 1298.63 234.787C1297.49 236.628 1296.92 238.73 1296.92 241.094V274.23H1288.88ZM1367.01 275.458C1363.69 275.458 1360.68 274.833 1357.97 273.583C1355.27 272.31 1353.12 270.48 1351.53 268.094C1349.94 265.685 1349.14 262.776 1349.14 259.367C1349.14 256.367 1349.73 253.935 1350.92 252.071C1352.1 250.185 1353.68 248.708 1355.65 247.64C1357.63 246.571 1359.81 245.776 1362.2 245.253C1364.61 244.708 1367.03 244.276 1369.46 243.958C1372.64 243.549 1375.22 243.242 1377.2 243.037C1379.2 242.81 1380.65 242.435 1381.56 241.912C1382.5 241.39 1382.96 240.48 1382.96 239.185V238.912C1382.96 235.549 1382.04 232.935 1380.2 231.071C1378.38 229.208 1375.62 228.276 1371.92 228.276C1368.08 228.276 1365.06 229.117 1362.88 230.799C1360.7 232.48 1359.17 234.276 1358.28 236.185L1350.64 233.458C1352.01 230.276 1353.83 227.799 1356.1 226.026C1358.39 224.23 1360.89 222.98 1363.6 222.276C1366.33 221.549 1369.01 221.185 1371.64 221.185C1373.33 221.185 1375.26 221.39 1377.44 221.799C1379.64 222.185 1381.77 222.992 1383.81 224.219C1385.88 225.446 1387.6 227.299 1388.96 229.776C1390.33 232.253 1391.01 235.571 1391.01 239.73V274.23H1382.96V267.14H1382.55C1382.01 268.276 1381.1 269.492 1379.83 270.787C1378.55 272.083 1376.86 273.185 1374.75 274.094C1372.63 275.003 1370.05 275.458 1367.01 275.458ZM1368.23 268.23C1371.42 268.23 1374.1 267.605 1376.28 266.355C1378.48 265.105 1380.14 263.492 1381.26 261.515C1382.39 259.537 1382.96 257.458 1382.96 255.276V247.912C1382.62 248.321 1381.87 248.696 1380.71 249.037C1379.58 249.355 1378.26 249.64 1376.76 249.89C1375.28 250.117 1373.84 250.321 1372.43 250.503C1371.04 250.662 1369.92 250.799 1369.05 250.912C1366.96 251.185 1365.01 251.628 1363.19 252.242C1361.39 252.833 1359.94 253.73 1358.83 254.935C1357.73 256.117 1357.19 257.73 1357.19 259.776C1357.19 262.571 1358.22 264.685 1360.29 266.117C1362.38 267.526 1365.03 268.23 1368.23 268.23ZM1413.74 242.73V274.23H1405.69V221.867H1413.46V230.049H1414.15C1415.37 227.39 1417.24 225.253 1419.74 223.64C1422.24 222.003 1425.46 221.185 1429.42 221.185C1432.96 221.185 1436.07 221.912 1438.73 223.367C1441.38 224.799 1443.45 226.98 1444.93 229.912C1446.41 232.821 1447.15 236.503 1447.15 240.958V274.23H1439.1V241.503C1439.1 237.39 1438.03 234.185 1435.9 231.89C1433.76 229.571 1430.83 228.412 1427.1 228.412C1424.53 228.412 1422.24 228.969 1420.21 230.083C1418.21 231.196 1416.63 232.821 1415.48 234.958C1414.32 237.094 1413.74 239.685 1413.74 242.73ZM1465.15 293.867C1463.79 293.867 1462.58 293.753 1461.51 293.526C1460.44 293.321 1459.7 293.117 1459.29 292.912L1461.34 285.821C1463.29 286.321 1465.02 286.503 1466.52 286.367C1468.02 286.23 1469.35 285.56 1470.51 284.355C1471.69 283.174 1472.77 281.253 1473.75 278.594L1475.25 274.503L1455.88 221.867H1464.61L1479.06 263.594H1479.61L1494.06 221.867H1502.79L1480.56 281.867C1479.56 284.571 1478.33 286.81 1476.85 288.583C1475.37 290.378 1473.65 291.708 1471.7 292.571C1469.77 293.435 1467.59 293.867 1465.15 293.867ZM946.964 391.321C942.601 391.321 938.749 390.219 935.408 388.015C932.067 385.787 929.453 382.651 927.567 378.605C925.68 374.537 924.737 369.73 924.737 364.185C924.737 358.685 925.68 353.912 927.567 349.867C929.453 345.821 932.078 342.696 935.442 340.492C938.805 338.287 942.692 337.185 947.101 337.185C950.51 337.185 953.203 337.753 955.18 338.89C957.18 340.003 958.703 341.276 959.749 342.708C960.817 344.117 961.646 345.276 962.237 346.185H962.919V320.412H970.964V390.23H963.192V382.185H962.237C961.646 383.14 960.805 384.344 959.714 385.799C958.624 387.23 957.067 388.515 955.044 389.651C953.021 390.765 950.328 391.321 946.964 391.321ZM948.055 384.094C951.283 384.094 954.01 383.253 956.237 381.571C958.464 379.867 960.158 377.515 961.317 374.515C962.476 371.492 963.055 368.003 963.055 364.049C963.055 360.14 962.487 356.719 961.351 353.787C960.214 350.833 958.533 348.537 956.305 346.901C954.078 345.242 951.328 344.412 948.055 344.412C944.646 344.412 941.805 345.287 939.533 347.037C937.283 348.765 935.589 351.117 934.453 354.094C933.339 357.049 932.783 360.367 932.783 364.049C932.783 367.776 933.351 371.162 934.487 374.208C935.646 377.23 937.351 379.64 939.601 381.435C941.874 383.208 944.692 384.094 948.055 384.094ZM1008.77 391.321C1003.73 391.321 999.374 390.208 995.714 387.98C992.078 385.73 989.271 382.594 987.294 378.571C985.339 374.526 984.362 369.821 984.362 364.458C984.362 359.094 985.339 354.367 987.294 350.276C989.271 346.162 992.021 342.958 995.544 340.662C999.089 338.344 1003.23 337.185 1007.95 337.185C1010.68 337.185 1013.37 337.64 1016.03 338.549C1018.69 339.458 1021.11 340.935 1023.29 342.98C1025.48 345.003 1027.21 347.685 1028.51 351.026C1029.81 354.367 1030.45 358.48 1030.45 363.367V366.776H990.089V359.821H1022.27C1022.27 356.867 1021.68 354.23 1020.5 351.912C1019.34 349.594 1017.68 347.765 1015.52 346.424C1013.38 345.083 1010.86 344.412 1007.95 344.412C1004.75 344.412 1001.98 345.208 999.635 346.799C997.317 348.367 995.533 350.412 994.283 352.935C993.033 355.458 992.408 358.162 992.408 361.049V365.685C992.408 369.64 993.089 372.992 994.453 375.742C995.839 378.469 997.76 380.549 1000.21 381.98C1002.67 383.39 1005.52 384.094 1008.77 384.094C1010.88 384.094 1012.79 383.799 1014.5 383.208C1016.23 382.594 1017.71 381.685 1018.96 380.48C1020.21 379.253 1021.18 377.73 1021.86 375.912L1029.63 378.094C1028.82 380.73 1027.44 383.049 1025.51 385.049C1023.58 387.026 1021.19 388.571 1018.35 389.685C1015.51 390.776 1012.32 391.321 1008.77 391.321ZM1083.92 337.867L1064.55 390.23H1056.37L1037.01 337.867H1045.73L1060.19 379.594H1060.73L1075.19 337.867H1083.92ZM1114.62 391.321C1109.57 391.321 1105.22 390.208 1101.56 387.98C1097.92 385.73 1095.12 382.594 1093.14 378.571C1091.18 374.526 1090.21 369.821 1090.21 364.458C1090.21 359.094 1091.18 354.367 1093.14 350.276C1095.12 346.162 1097.87 342.958 1101.39 340.662C1104.93 338.344 1109.07 337.185 1113.8 337.185C1116.52 337.185 1119.22 337.64 1121.88 338.549C1124.54 339.458 1126.96 340.935 1129.14 342.98C1131.32 345.003 1133.06 347.685 1134.35 351.026C1135.65 354.367 1136.3 358.48 1136.3 363.367V366.776H1095.93V359.821H1128.12C1128.12 356.867 1127.52 354.23 1126.34 351.912C1125.18 349.594 1123.52 347.765 1121.37 346.424C1119.23 345.083 1116.71 344.412 1113.8 344.412C1110.59 344.412 1107.82 345.208 1105.48 346.799C1103.16 348.367 1101.38 350.412 1100.13 352.935C1098.88 355.458 1098.25 358.162 1098.25 361.049V365.685C1098.25 369.64 1098.93 372.992 1100.3 375.742C1101.68 378.469 1103.6 380.549 1106.06 381.98C1108.51 383.39 1111.37 384.094 1114.62 384.094C1116.73 384.094 1118.64 383.799 1120.34 383.208C1122.07 382.594 1123.56 381.685 1124.81 380.48C1126.06 379.253 1127.02 377.73 1127.71 375.912L1135.48 378.094C1134.66 380.73 1133.29 383.049 1131.35 385.049C1129.42 387.026 1127.04 388.571 1124.19 389.685C1121.35 390.776 1118.16 391.321 1114.62 391.321ZM1156.58 320.412V390.23H1148.54V320.412H1156.58ZM1192.59 391.321C1187.86 391.321 1183.71 390.196 1180.15 387.946C1176.6 385.696 1173.83 382.549 1171.83 378.503C1169.85 374.458 1168.86 369.73 1168.86 364.321C1168.86 358.867 1169.85 354.105 1171.83 350.037C1173.83 345.969 1176.6 342.81 1180.15 340.56C1183.71 338.31 1187.86 337.185 1192.59 337.185C1197.32 337.185 1201.45 338.31 1205 340.56C1208.57 342.81 1211.34 345.969 1213.32 350.037C1215.32 354.105 1216.32 358.867 1216.32 364.321C1216.32 369.73 1215.32 374.458 1213.32 378.503C1211.34 382.549 1208.57 385.696 1205 387.946C1201.45 390.196 1197.32 391.321 1192.59 391.321ZM1192.59 384.094C1196.18 384.094 1199.13 383.174 1201.45 381.333C1203.77 379.492 1205.49 377.071 1206.6 374.071C1207.71 371.071 1208.27 367.821 1208.27 364.321C1208.27 360.821 1207.71 357.56 1206.6 354.537C1205.49 351.515 1203.77 349.071 1201.45 347.208C1199.13 345.344 1196.18 344.412 1192.59 344.412C1189 344.412 1186.04 345.344 1183.73 347.208C1181.41 349.071 1179.69 351.515 1178.58 354.537C1177.46 357.56 1176.91 360.821 1176.91 364.321C1176.91 367.821 1177.46 371.071 1178.58 374.071C1179.69 377.071 1181.41 379.492 1183.73 381.333C1186.04 383.174 1189 384.094 1192.59 384.094ZM1228.6 409.867V337.867H1236.37V346.185H1237.33C1237.92 345.276 1238.73 344.117 1239.78 342.708C1240.85 341.276 1242.37 340.003 1244.35 338.89C1246.35 337.753 1249.05 337.185 1252.46 337.185C1256.87 337.185 1260.76 338.287 1264.12 340.492C1267.48 342.696 1270.11 345.821 1272 349.867C1273.88 353.912 1274.83 358.685 1274.83 364.185C1274.83 369.73 1273.88 374.537 1272 378.605C1270.11 382.651 1267.5 385.787 1264.15 388.015C1260.81 390.219 1256.96 391.321 1252.6 391.321C1249.23 391.321 1246.54 390.765 1244.52 389.651C1242.5 388.515 1240.94 387.23 1239.85 385.799C1238.76 384.344 1237.92 383.14 1237.33 382.185H1236.64V409.867H1228.6ZM1236.51 364.049C1236.51 368.003 1237.09 371.492 1238.25 374.515C1239.4 377.515 1241.1 379.867 1243.33 381.571C1245.55 383.253 1248.28 384.094 1251.51 384.094C1254.87 384.094 1257.68 383.208 1259.93 381.435C1262.2 379.64 1263.9 377.23 1265.04 374.208C1266.2 371.162 1266.78 367.776 1266.78 364.049C1266.78 360.367 1266.21 357.049 1265.08 354.094C1263.96 351.117 1262.27 348.765 1260 347.037C1257.75 345.287 1254.92 344.412 1251.51 344.412C1248.23 344.412 1245.48 345.242 1243.26 346.901C1241.03 348.537 1239.35 350.833 1238.21 353.787C1237.08 356.719 1236.51 360.14 1236.51 364.049ZM1287.1 390.23V337.867H1294.87V346.049H1295.55C1296.64 343.253 1298.4 341.083 1300.84 339.537C1303.27 337.969 1306.19 337.185 1309.6 337.185C1313.05 337.185 1315.93 337.969 1318.22 339.537C1320.54 341.083 1322.35 343.253 1323.64 346.049H1324.19C1325.53 343.344 1327.54 341.196 1330.22 339.605C1332.9 337.992 1336.12 337.185 1339.87 337.185C1344.55 337.185 1348.38 338.651 1351.36 341.583C1354.34 344.492 1355.83 349.026 1355.83 355.185V390.23H1347.78V355.185C1347.78 351.321 1346.72 348.56 1344.61 346.901C1342.5 345.242 1340.01 344.412 1337.14 344.412C1333.46 344.412 1330.61 345.526 1328.59 347.753C1326.56 349.958 1325.55 352.753 1325.55 356.14V390.23H1317.37V354.367C1317.37 351.39 1316.4 348.992 1314.47 347.174C1312.54 345.333 1310.05 344.412 1307.01 344.412C1304.92 344.412 1302.96 344.969 1301.14 346.083C1299.35 347.196 1297.89 348.742 1296.78 350.719C1295.69 352.674 1295.14 354.935 1295.14 357.503V390.23H1287.1ZM1392.49 391.321C1387.44 391.321 1383.09 390.208 1379.43 387.98C1375.8 385.73 1372.99 382.594 1371.01 378.571C1369.06 374.526 1368.08 369.821 1368.08 364.458C1368.08 359.094 1369.06 354.367 1371.01 350.276C1372.99 346.162 1375.74 342.958 1379.26 340.662C1382.81 338.344 1386.94 337.185 1391.67 337.185C1394.4 337.185 1397.09 337.64 1399.75 338.549C1402.41 339.458 1404.83 340.935 1407.01 342.98C1409.19 345.003 1410.93 347.685 1412.23 351.026C1413.52 354.367 1414.17 358.48 1414.17 363.367V366.776H1373.81V359.821H1405.99C1405.99 356.867 1405.4 354.23 1404.22 351.912C1403.06 349.594 1401.4 347.765 1399.24 346.424C1397.1 345.083 1394.58 344.412 1391.67 344.412C1388.47 344.412 1385.69 345.208 1383.35 346.799C1381.04 348.367 1379.25 350.412 1378 352.935C1376.75 355.458 1376.13 358.162 1376.13 361.049V365.685C1376.13 369.64 1376.81 372.992 1378.17 375.742C1379.56 378.469 1381.48 380.549 1383.93 381.98C1386.39 383.39 1389.24 384.094 1392.49 384.094C1394.6 384.094 1396.51 383.799 1398.22 383.208C1399.94 382.594 1401.43 381.685 1402.68 380.48C1403.93 379.253 1404.9 377.73 1405.58 375.912L1413.35 378.094C1412.54 380.73 1411.16 383.049 1409.23 385.049C1407.3 387.026 1404.91 388.571 1402.07 389.685C1399.23 390.776 1396.04 391.321 1392.49 391.321ZM1434.46 358.73V390.23H1426.41V337.867H1434.18V346.049H1434.87C1436.09 343.39 1437.96 341.253 1440.46 339.64C1442.96 338.003 1446.18 337.185 1450.14 337.185C1453.68 337.185 1456.79 337.912 1459.44 339.367C1462.1 340.799 1464.17 342.98 1465.65 345.912C1467.13 348.821 1467.87 352.503 1467.87 356.958V390.23H1459.82V357.503C1459.82 353.39 1458.75 350.185 1456.62 347.89C1454.48 345.571 1451.55 344.412 1447.82 344.412C1445.25 344.412 1442.96 344.969 1440.93 346.083C1438.93 347.196 1437.35 348.821 1436.19 350.958C1435.04 353.094 1434.46 355.685 1434.46 358.73ZM1505.34 337.867V344.685H1478.2V337.867H1505.34ZM1486.11 325.321H1494.16V375.23C1494.16 377.503 1494.49 379.208 1495.15 380.344C1495.83 381.458 1496.69 382.208 1497.74 382.594C1498.81 382.958 1499.93 383.14 1501.11 383.14C1502 383.14 1502.73 383.094 1503.29 383.003C1503.86 382.89 1504.32 382.799 1504.66 382.73L1506.29 389.958C1505.75 390.162 1504.99 390.367 1504.01 390.571C1503.03 390.799 1501.79 390.912 1500.29 390.912C1498.02 390.912 1495.79 390.424 1493.61 389.446C1491.45 388.469 1489.66 386.98 1488.23 384.98C1486.82 382.98 1486.11 380.458 1486.11 377.412V325.321ZM1532.85 391.458C1529.53 391.458 1526.52 390.833 1523.82 389.583C1521.11 388.31 1518.96 386.48 1517.37 384.094C1515.78 381.685 1514.99 378.776 1514.99 375.367C1514.99 372.367 1515.58 369.935 1516.76 368.071C1517.94 366.185 1519.52 364.708 1521.5 363.64C1523.48 362.571 1525.66 361.776 1528.04 361.253C1530.45 360.708 1532.87 360.276 1535.31 359.958C1538.49 359.549 1541.07 359.242 1543.04 359.037C1545.04 358.81 1546.5 358.435 1547.41 357.912C1548.34 357.39 1548.81 356.48 1548.81 355.185V354.912C1548.81 351.549 1547.88 348.935 1546.04 347.071C1544.23 345.208 1541.46 344.276 1537.76 344.276C1533.92 344.276 1530.91 345.117 1528.73 346.799C1526.54 348.48 1525.01 350.276 1524.12 352.185L1516.49 349.458C1517.85 346.276 1519.67 343.799 1521.94 342.026C1524.24 340.23 1526.74 338.98 1529.44 338.276C1532.17 337.549 1534.85 337.185 1537.49 337.185C1539.17 337.185 1541.1 337.39 1543.28 337.799C1545.49 338.185 1547.61 338.992 1549.66 340.219C1551.73 341.446 1553.44 343.299 1554.81 345.776C1556.17 348.253 1556.85 351.571 1556.85 355.73V390.23H1548.81V383.14H1548.4C1547.85 384.276 1546.94 385.492 1545.67 386.787C1544.4 388.083 1542.7 389.185 1540.59 390.094C1538.48 391.003 1535.9 391.458 1532.85 391.458ZM1534.08 384.23C1537.26 384.23 1539.94 383.605 1542.12 382.355C1544.33 381.105 1545.99 379.492 1547.1 377.515C1548.24 375.537 1548.81 373.458 1548.81 371.276V363.912C1548.46 364.321 1547.71 364.696 1546.56 365.037C1545.42 365.355 1544.1 365.64 1542.6 365.89C1541.12 366.117 1539.68 366.321 1538.27 366.503C1536.88 366.662 1535.76 366.799 1534.9 366.912C1532.81 367.185 1530.85 367.628 1529.03 368.242C1527.24 368.833 1525.78 369.73 1524.67 370.935C1523.58 372.117 1523.03 373.73 1523.03 375.776C1523.03 378.571 1524.07 380.685 1526.13 382.117C1528.23 383.526 1530.87 384.23 1534.08 384.23ZM1579.58 320.412V390.23H1571.54V320.412H1579.58ZM946.964 507.321C942.601 507.321 938.749 506.219 935.408 504.015C932.067 501.787 929.453 498.651 927.567 494.605C925.68 490.537 924.737 485.73 924.737 480.185C924.737 474.685 925.68 469.912 927.567 465.867C929.453 461.821 932.078 458.696 935.442 456.492C938.805 454.287 942.692 453.185 947.101 453.185C950.51 453.185 953.203 453.753 955.18 454.89C957.18 456.003 958.703 457.276 959.749 458.708C960.817 460.117 961.646 461.276 962.237 462.185H962.919V436.412H970.964V506.23H963.192V498.185H962.237C961.646 499.14 960.805 500.344 959.714 501.799C958.624 503.23 957.067 504.515 955.044 505.651C953.021 506.765 950.328 507.321 946.964 507.321ZM948.055 500.094C951.283 500.094 954.01 499.253 956.237 497.571C958.464 495.867 960.158 493.515 961.317 490.515C962.476 487.492 963.055 484.003 963.055 480.049C963.055 476.14 962.487 472.719 961.351 469.787C960.214 466.833 958.533 464.537 956.305 462.901C954.078 461.242 951.328 460.412 948.055 460.412C944.646 460.412 941.805 461.287 939.533 463.037C937.283 464.765 935.589 467.117 934.453 470.094C933.339 473.049 932.783 476.367 932.783 480.049C932.783 483.776 933.351 487.162 934.487 490.208C935.646 493.23 937.351 495.64 939.601 497.435C941.874 499.208 944.692 500.094 948.055 500.094ZM1008.77 507.321C1003.73 507.321 999.374 506.208 995.714 503.98C992.078 501.73 989.271 498.594 987.294 494.571C985.339 490.526 984.362 485.821 984.362 480.458C984.362 475.094 985.339 470.367 987.294 466.276C989.271 462.162 992.021 458.958 995.544 456.662C999.089 454.344 1003.23 453.185 1007.95 453.185C1010.68 453.185 1013.37 453.64 1016.03 454.549C1018.69 455.458 1021.11 456.935 1023.29 458.98C1025.48 461.003 1027.21 463.685 1028.51 467.026C1029.81 470.367 1030.45 474.48 1030.45 479.367V482.776H990.089V475.821H1022.27C1022.27 472.867 1021.68 470.23 1020.5 467.912C1019.34 465.594 1017.68 463.765 1015.52 462.424C1013.38 461.083 1010.86 460.412 1007.95 460.412C1004.75 460.412 1001.98 461.208 999.635 462.799C997.317 464.367 995.533 466.412 994.283 468.935C993.033 471.458 992.408 474.162 992.408 477.049V481.685C992.408 485.64 993.089 488.992 994.453 491.742C995.839 494.469 997.76 496.549 1000.21 497.98C1002.67 499.39 1005.52 500.094 1008.77 500.094C1010.88 500.094 1012.79 499.799 1014.5 499.208C1016.23 498.594 1017.71 497.685 1018.96 496.48C1020.21 495.253 1021.18 493.73 1021.86 491.912L1029.63 494.094C1028.82 496.73 1027.44 499.049 1025.51 501.049C1023.58 503.026 1021.19 504.571 1018.35 505.685C1015.51 506.776 1012.32 507.321 1008.77 507.321ZM1050.74 436.412V506.23H1042.69V436.412H1050.74ZM1080.88 507.458C1077.56 507.458 1074.55 506.833 1071.85 505.583C1069.14 504.31 1067 502.48 1065.4 500.094C1063.81 497.685 1063.02 494.776 1063.02 491.367C1063.02 488.367 1063.61 485.935 1064.79 484.071C1065.97 482.185 1067.55 480.708 1069.53 479.64C1071.51 478.571 1073.69 477.776 1076.08 477.253C1078.48 476.708 1080.9 476.276 1083.34 475.958C1086.52 475.549 1089.1 475.242 1091.08 475.037C1093.08 474.81 1094.53 474.435 1095.44 473.912C1096.37 473.39 1096.84 472.48 1096.84 471.185V470.912C1096.84 467.549 1095.92 464.935 1094.08 463.071C1092.26 461.208 1089.5 460.276 1085.79 460.276C1081.95 460.276 1078.94 461.117 1076.76 462.799C1074.58 464.48 1073.04 466.276 1072.15 468.185L1064.52 465.458C1065.88 462.276 1067.7 459.799 1069.97 458.026C1072.27 456.23 1074.77 454.98 1077.47 454.276C1080.2 453.549 1082.88 453.185 1085.52 453.185C1087.2 453.185 1089.13 453.39 1091.31 453.799C1093.52 454.185 1095.64 454.992 1097.69 456.219C1099.76 457.446 1101.47 459.299 1102.84 461.776C1104.2 464.253 1104.88 467.571 1104.88 471.73V506.23H1096.84V499.14H1096.43C1095.88 500.276 1094.97 501.492 1093.7 502.787C1092.43 504.083 1090.73 505.185 1088.62 506.094C1086.51 507.003 1083.93 507.458 1080.88 507.458ZM1082.11 500.23C1085.29 500.23 1087.97 499.605 1090.15 498.355C1092.36 497.105 1094.02 495.492 1095.13 493.515C1096.27 491.537 1096.84 489.458 1096.84 487.276V479.912C1096.5 480.321 1095.75 480.696 1094.59 481.037C1093.45 481.355 1092.13 481.64 1090.63 481.89C1089.15 482.117 1087.71 482.321 1086.3 482.503C1084.92 482.662 1083.79 482.799 1082.93 482.912C1080.84 483.185 1078.88 483.628 1077.06 484.242C1075.27 484.833 1073.81 485.73 1072.7 486.935C1071.61 488.117 1071.06 489.73 1071.06 491.776C1071.06 494.571 1072.1 496.685 1074.17 498.117C1076.26 499.526 1078.9 500.23 1082.11 500.23ZM1122.87 525.867C1121.51 525.867 1120.29 525.753 1119.23 525.526C1118.16 525.321 1117.42 525.117 1117.01 524.912L1119.06 517.821C1121.01 518.321 1122.74 518.503 1124.24 518.367C1125.74 518.23 1127.07 517.56 1128.23 516.355C1129.41 515.174 1130.49 513.253 1131.46 510.594L1132.96 506.503L1113.6 453.867H1122.33L1136.78 495.594H1137.33L1151.78 453.867H1160.51L1138.28 513.867C1137.28 516.571 1136.04 518.81 1134.57 520.583C1133.09 522.378 1131.37 523.708 1129.42 524.571C1127.49 525.435 1125.31 525.867 1122.87 525.867ZM1208.22 465.594L1200.99 467.64C1200.54 466.435 1199.87 465.265 1198.98 464.128C1198.12 462.969 1196.94 462.015 1195.44 461.265C1193.94 460.515 1192.02 460.14 1189.67 460.14C1186.47 460.14 1183.8 460.878 1181.66 462.355C1179.55 463.81 1178.49 465.662 1178.49 467.912C1178.49 469.912 1179.22 471.492 1180.67 472.651C1182.13 473.81 1184.4 474.776 1187.49 475.549L1195.27 477.458C1199.95 478.594 1203.44 480.333 1205.73 482.674C1208.03 484.992 1209.17 487.98 1209.17 491.64C1209.17 494.64 1208.31 497.321 1206.58 499.685C1204.88 502.049 1202.49 503.912 1199.42 505.276C1196.36 506.64 1192.79 507.321 1188.72 507.321C1183.38 507.321 1178.96 506.162 1175.46 503.844C1171.96 501.526 1169.74 498.14 1168.81 493.685L1176.45 491.776C1177.17 494.594 1178.55 496.708 1180.57 498.117C1182.62 499.526 1185.29 500.23 1188.58 500.23C1192.33 500.23 1195.31 499.435 1197.52 497.844C1199.74 496.23 1200.86 494.299 1200.86 492.049C1200.86 490.23 1200.22 488.708 1198.95 487.48C1197.67 486.23 1195.72 485.299 1193.08 484.685L1184.36 482.64C1179.56 481.503 1176.04 479.742 1173.79 477.355C1171.56 474.946 1170.45 471.935 1170.45 468.321C1170.45 465.367 1171.28 462.753 1172.94 460.48C1174.62 458.208 1176.9 456.424 1179.79 455.128C1182.7 453.833 1185.99 453.185 1189.67 453.185C1194.86 453.185 1198.92 454.321 1201.88 456.594C1204.86 458.867 1206.97 461.867 1208.22 465.594ZM1271.6 453.867V460.685H1243.38V453.867H1271.6ZM1251.83 506.23V446.64C1251.83 443.64 1252.54 441.14 1253.94 439.14C1255.35 437.14 1257.18 435.64 1259.43 434.64C1261.68 433.64 1264.06 433.14 1266.56 433.14C1268.54 433.14 1270.15 433.299 1271.4 433.617C1272.65 433.935 1273.58 434.23 1274.19 434.503L1271.88 441.458C1271.47 441.321 1270.9 441.151 1270.17 440.946C1269.47 440.742 1268.54 440.64 1267.38 440.64C1264.72 440.64 1262.8 441.31 1261.62 442.651C1260.46 443.992 1259.88 445.958 1259.88 448.549V506.23H1251.83ZM1282.88 506.23V453.867H1290.65V461.776H1291.2C1292.15 459.185 1293.88 457.083 1296.38 455.469C1298.88 453.855 1301.7 453.049 1304.83 453.049C1305.42 453.049 1306.16 453.06 1307.05 453.083C1307.94 453.105 1308.61 453.14 1309.06 453.185V461.367C1308.79 461.299 1308.16 461.196 1307.19 461.06C1306.23 460.901 1305.22 460.821 1304.15 460.821C1301.61 460.821 1299.33 461.355 1297.33 462.424C1295.36 463.469 1293.79 464.924 1292.63 466.787C1291.49 468.628 1290.92 470.73 1290.92 473.094V506.23H1282.88ZM1338.28 507.321C1333.55 507.321 1329.4 506.196 1325.83 503.946C1322.29 501.696 1319.52 498.549 1317.52 494.503C1315.54 490.458 1314.55 485.73 1314.55 480.321C1314.55 474.867 1315.54 470.105 1317.52 466.037C1319.52 461.969 1322.29 458.81 1325.83 456.56C1329.4 454.31 1333.55 453.185 1338.28 453.185C1343 453.185 1347.14 454.31 1350.69 456.56C1354.25 458.81 1357.03 461.969 1359 466.037C1361 470.105 1362 474.867 1362 480.321C1362 485.73 1361 490.458 1359 494.503C1357.03 498.549 1354.25 501.696 1350.69 503.946C1347.14 506.196 1343 507.321 1338.28 507.321ZM1338.28 500.094C1341.87 500.094 1344.82 499.174 1347.14 497.333C1349.46 495.492 1351.17 493.071 1352.29 490.071C1353.4 487.071 1353.96 483.821 1353.96 480.321C1353.96 476.821 1353.4 473.56 1352.29 470.537C1351.17 467.515 1349.46 465.071 1347.14 463.208C1344.82 461.344 1341.87 460.412 1338.28 460.412C1334.69 460.412 1331.73 461.344 1329.41 463.208C1327.1 465.071 1325.38 467.515 1324.27 470.537C1323.15 473.56 1322.6 476.821 1322.6 480.321C1322.6 483.821 1323.15 487.071 1324.27 490.071C1325.38 493.071 1327.1 495.492 1329.41 497.333C1331.73 499.174 1334.69 500.094 1338.28 500.094ZM1374.29 506.23V453.867H1382.06V462.049H1382.74C1383.83 459.253 1385.59 457.083 1388.02 455.537C1390.46 453.969 1393.38 453.185 1396.79 453.185C1400.24 453.185 1403.12 453.969 1405.41 455.537C1407.73 457.083 1409.54 459.253 1410.83 462.049H1411.38C1412.72 459.344 1414.73 457.196 1417.41 455.605C1420.09 453.992 1423.31 453.185 1427.06 453.185C1431.74 453.185 1435.57 454.651 1438.55 457.583C1441.52 460.492 1443.01 465.026 1443.01 471.185V506.23H1434.97V471.185C1434.97 467.321 1433.91 464.56 1431.8 462.901C1429.68 461.242 1427.19 460.412 1424.33 460.412C1420.65 460.412 1417.8 461.526 1415.77 463.753C1413.75 465.958 1412.74 468.753 1412.74 472.14V506.23H1404.56V470.367C1404.56 467.39 1403.59 464.992 1401.66 463.174C1399.73 461.333 1397.24 460.412 1394.19 460.412C1392.1 460.412 1390.15 460.969 1388.33 462.083C1386.54 463.196 1385.08 464.742 1383.97 466.719C1382.88 468.674 1382.33 470.935 1382.33 473.503V506.23H1374.29ZM1507.5 453.867V460.685H1480.36V453.867H1507.5ZM1488.27 441.321H1496.31V491.23C1496.31 493.503 1496.64 495.208 1497.3 496.344C1497.98 497.458 1498.85 498.208 1499.89 498.594C1500.96 498.958 1502.09 499.14 1503.27 499.14C1504.15 499.14 1504.88 499.094 1505.45 499.003C1506.02 498.89 1506.47 498.799 1506.81 498.73L1508.45 505.958C1507.9 506.162 1507.14 506.367 1506.17 506.571C1505.19 506.799 1503.95 506.912 1502.45 506.912C1500.18 506.912 1497.95 506.424 1495.77 505.446C1493.61 504.469 1491.81 502.98 1490.38 500.98C1488.97 498.98 1488.27 496.458 1488.27 493.412V441.321ZM1528.77 474.73V506.23H1520.72V436.412H1528.77V462.049H1529.45C1530.68 459.344 1532.52 457.196 1534.97 455.605C1537.45 453.992 1540.75 453.185 1544.86 453.185C1548.43 453.185 1551.55 453.901 1554.23 455.333C1556.92 456.742 1559 458.912 1560.47 461.844C1561.97 464.753 1562.72 468.458 1562.72 472.958V506.23H1554.68V473.503C1554.68 469.344 1553.6 466.128 1551.44 463.855C1549.3 461.56 1546.34 460.412 1542.54 460.412C1539.9 460.412 1537.54 460.969 1535.45 462.083C1533.38 463.196 1531.75 464.821 1530.54 466.958C1529.36 469.094 1528.77 471.685 1528.77 474.73ZM1577.44 506.23V453.867H1585.49V506.23H1577.44ZM1581.53 445.14C1579.96 445.14 1578.61 444.605 1577.48 443.537C1576.36 442.469 1575.81 441.185 1575.81 439.685C1575.81 438.185 1576.36 436.901 1577.48 435.833C1578.61 434.765 1579.96 434.23 1581.53 434.23C1583.1 434.23 1584.44 434.765 1585.56 435.833C1586.69 436.901 1587.26 438.185 1587.26 439.685C1587.26 441.185 1586.69 442.469 1585.56 443.537C1584.44 444.605 1583.1 445.14 1581.53 445.14ZM1637.31 465.594L1630.09 467.64C1629.63 466.435 1628.96 465.265 1628.08 464.128C1627.21 462.969 1626.03 462.015 1624.53 461.265C1623.03 460.515 1621.11 460.14 1618.77 460.14C1615.56 460.14 1612.89 460.878 1610.76 462.355C1608.64 463.81 1607.59 465.662 1607.59 467.912C1607.59 469.912 1608.31 471.492 1609.77 472.651C1611.22 473.81 1613.5 474.776 1616.59 475.549L1624.36 477.458C1629.04 478.594 1632.53 480.333 1634.83 482.674C1637.12 484.992 1638.27 487.98 1638.27 491.64C1638.27 494.64 1637.4 497.321 1635.68 499.685C1633.97 502.049 1631.59 503.912 1628.52 505.276C1625.45 506.64 1621.88 507.321 1617.81 507.321C1612.47 507.321 1608.05 506.162 1604.55 503.844C1601.05 501.526 1598.84 498.14 1597.9 493.685L1605.54 491.776C1606.27 494.594 1607.64 496.708 1609.67 498.117C1611.71 499.526 1614.38 500.23 1617.68 500.23C1621.43 500.23 1624.4 499.435 1626.61 497.844C1628.84 496.23 1629.95 494.299 1629.95 492.049C1629.95 490.23 1629.31 488.708 1628.04 487.48C1626.77 486.23 1624.81 485.299 1622.18 484.685L1613.45 482.64C1608.65 481.503 1605.13 479.742 1602.88 477.355C1600.65 474.946 1599.54 471.935 1599.54 468.321C1599.54 465.367 1600.37 462.753 1602.03 460.48C1603.71 458.208 1606 456.424 1608.88 455.128C1611.79 453.833 1615.09 453.185 1618.77 453.185C1623.95 453.185 1628.02 454.321 1630.97 456.594C1633.95 458.867 1636.06 461.867 1637.31 465.594Z"
        fill="white" />
</svg>