<svg version="1.1" xmlns="http://www.w3.org/2000/svg" xmlns:xlink="http://www.w3.org/1999/xlink" width="123" height="128.13288" viewBox="0,0,123,128.13288"><defs><linearGradient x1="178.5" y1="182.56644" x2="301.5" y2="182.56644" gradientUnits="userSpaceOnUse" id="color-1"><stop offset="0" stop-color="#568fe3"/><stop offset="1" stop-color="#97add2"/></linearGradient><linearGradient x1="196" y1="182.56644" x2="284" y2="182.56644" gradientUnits="userSpaceOnUse" id="color-2"><stop offset="0" stop-color="#89a6d4"/><stop offset="1" stop-color="#5583c7"/></linearGradient><linearGradient x1="240" y1="154.56644" x2="240" y2="194.56644" gradientUnits="userSpaceOnUse" id="color-3"><stop offset="0" stop-color="#f2f8ff"/><stop offset="1" stop-color="#dfeefc"/></linearGradient><linearGradient x1="240" y1="190.56644" x2="240" y2="236.56644" gradientUnits="userSpaceOnUse" id="color-4"><stop offset="0" stop-color="#e3f0fd"/><stop offset="1" stop-color="#f2f8ff"/></linearGradient></defs><g transform="translate(-178.49999,-115.93356)"><g data-paper-data="{&quot;isPaintingLayer&quot;:true}" fill-rule="nonzero" stroke="none" stroke-width="0" stroke-linecap="butt" stroke-linejoin="miter" stroke-miterlimit="10" stroke-dasharray="" stroke-dashoffset="0" style="mix-blend-mode: normal"><path d="M178.5,182.56644c0,-33.96551 27.53449,-61.5 61.5,-61.5c33.96551,0 61.5,27.53449 61.5,61.5c0,33.96551 -27.53449,61.5 -61.5,61.5c-33.96551,0 -61.5,-27.53449 -61.5,-61.5z" fill="url(#color-1)"/><path d="M196,182.56644c0,-24.30053 19.69947,-44 44,-44c24.30053,0 44,19.69947 44,44c0,24.30053 -19.69947,44 -44,44c-24.30053,0 -44,-19.69947 -44,-44z" fill="url(#color-2)"/><path d="M259.5,174.56644c0,11.04569 -8.73045,20 -19.5,20c-10.76955,0 -19.5,-8.95431 -19.5,-20c0,-11.04569 8.73045,-20 19.5,-20c10.76955,0 19.5,8.95431 19.5,20z" fill="url(#color-3)"/><path d="M264.5,213.56644c0,12.70255 -10.96902,23 -24.5,23c-13.53098,0 -24.5,-10.29745 -24.5,-23c0,-12.70255 10.96902,-23 24.5,-23c13.53098,0 24.5,10.29745 24.5,23z" fill="url(#color-4)"/><path d="M234.5,117.86599v-1.93243h11v1.93243z" fill="#7ca5e3"/></g></g></svg>