<svg width="28" height="28" viewBox="0 0 28 28" fill="none" xmlns="http://www.w3.org/2000/svg">
<path fill-rule="evenodd" clip-rule="evenodd" d="M3.46447 17.4645C4.40215 16.5268 5.67392 16 7 16H14C15.3261 16 16.5979 16.5268 17.5355 17.4645C18.4732 18.4021 19 19.6739 19 21V23C19 23.5523 18.5523 24 18 24C17.4477 24 17 23.5523 17 23V21C17 20.2044 16.6839 19.4413 16.1213 18.8787C15.5587 18.3161 14.7956 18 14 18H7C6.20435 18 5.44129 18.3161 4.87868 18.8787C4.31607 19.4413 4 20.2044 4 21V23C4 23.5523 3.55228 24 3 24C2.44772 24 2 23.5523 2 23V21C2 19.6739 2.52678 18.4021 3.46447 17.4645Z" fill="#FF0000"/>
<path fill-rule="evenodd" clip-rule="evenodd" d="M10.5 6C8.84315 6 7.5 7.34315 7.5 9C7.5 10.6569 8.84315 12 10.5 12C12.1569 12 13.5 10.6569 13.5 9C13.5 7.34315 12.1569 6 10.5 6ZM5.5 9C5.5 6.23858 7.73858 4 10.5 4C13.2614 4 15.5 6.23858 15.5 9C15.5 11.7614 13.2614 14 10.5 14C7.73858 14 5.5 11.7614 5.5 9Z" fill="#FF0000"/>
<path fill-rule="evenodd" clip-rule="evenodd" d="M22 9C22.5523 9 23 9.44772 23 10V16C23 16.5523 22.5523 17 22 17C21.4477 17 21 16.5523 21 16V10C21 9.44772 21.4477 9 22 9Z" fill="#FF0000"/>
<path fill-rule="evenodd" clip-rule="evenodd" d="M18 13C18 12.4477 18.4477 12 19 12H25C25.5523 12 26 12.4477 26 13C26 13.5523 25.5523 14 25 14H19C18.4477 14 18 13.5523 18 13Z" fill="#FF0000"/>
</svg>
