<svg width="32" height="32" viewBox="0 0 32 32" fill="none" xmlns="http://www.w3.org/2000/svg">
<path fill-rule="evenodd" clip-rule="evenodd" d="M22.2213 5.21851C20.6594 5.21851 19.1616 5.83915 18.0574 6.94382L16.6816 8.31956C16.1935 8.8077 15.402 8.8077 14.9139 8.31956L13.5383 6.94404C11.2386 4.64428 7.50987 4.64427 5.21011 6.94403C2.91034 9.2438 2.91034 12.9725 5.21011 15.2722L15.7978 25.8599L25.0098 16.6478L26.3854 15.2722C27.4901 14.1681 28.1109 12.67 28.1109 11.1081C28.1109 11.1055 28.1109 11.1028 28.1109 11.1001C28.1088 9.54114 27.4884 8.04651 26.3856 6.94424C25.2815 5.83956 23.7832 5.21851 22.2213 5.21851ZM30.6109 11.1177C30.6083 13.3393 29.7245 15.4692 28.1531 17.04C28.1531 17.0401 28.1532 17.04 28.1531 17.04L16.6816 28.5115C16.4472 28.7459 16.1293 28.8776 15.7978 28.8776C15.4662 28.8776 15.1483 28.7459 14.9139 28.5115L4.81792 18.4155L3.44235 17.04C0.166279 13.764 0.166264 8.45234 3.44234 5.17627C6.71841 1.90019 12.03 1.90019 15.3061 5.17626C15.3061 5.17626 15.3061 5.17625 15.3061 5.17626L15.7978 5.66792L16.2892 5.17648C16.2893 5.1764 16.2891 5.17655 16.2892 5.17648C17.8622 3.60285 19.9963 2.71851 22.2213 2.71851C24.4464 2.71851 26.5803 3.60271 28.1534 5.17647C29.7269 6.74946 30.6109 8.88321 30.6109 11.1081C30.6109 11.1113 30.6109 11.1145 30.6109 11.1177Z" fill="#FF8CB4"/>
</svg>
