<svg width="32" height="32" viewBox="0 0 32 32" fill="none" xmlns="http://www.w3.org/2000/svg">
<path fill-rule="evenodd" clip-rule="evenodd" d="M23.7368 4.06683C22.373 4.06683 21.2675 5.17241 21.2675 6.53622C21.2675 7.90002 22.373 9.00558 23.7368 9.00558C25.1006 9.00558 26.2062 7.90002 26.2062 6.53622C26.2062 5.17241 25.1006 4.06683 23.7368 4.06683ZM18.2675 6.53622C18.2675 3.51557 20.7162 1.06683 23.7368 1.06683C26.7575 1.06683 29.2062 3.51557 29.2062 6.53622C29.2062 9.55689 26.7575 12.0056 23.7368 12.0056C20.7162 12.0056 18.2675 9.55689 18.2675 6.53622Z" fill="#00E4C9"/>
<path fill-rule="evenodd" clip-rule="evenodd" d="M7.85931 13.3287C6.49551 13.3287 5.38995 14.4343 5.38995 15.7981C5.38995 17.1619 6.49551 18.2675 7.85931 18.2675C9.22312 18.2675 10.3287 17.1619 10.3287 15.7981C10.3287 14.4343 9.22312 13.3287 7.85931 13.3287ZM2.38995 15.7981C2.38995 12.7774 4.83866 10.3287 7.85931 10.3287C10.88 10.3287 13.3287 12.7774 13.3287 15.7981C13.3287 18.8188 10.88 21.2675 7.85931 21.2675C4.83866 21.2675 2.38995 18.8188 2.38995 15.7981Z" fill="#00E4C9"/>
<path fill-rule="evenodd" clip-rule="evenodd" d="M23.7368 22.5906C22.373 22.5906 21.2675 23.6961 21.2675 25.0599C21.2675 26.4237 22.373 27.5293 23.7368 27.5293C25.1006 27.5293 26.2062 26.4237 26.2062 25.0599C26.2062 23.6961 25.1006 22.5906 23.7368 22.5906ZM18.2675 25.0599C18.2675 22.0393 20.7162 19.5906 23.7368 19.5906C26.7575 19.5906 29.2062 22.0393 29.2062 25.0599C29.2062 28.0806 26.7575 30.5293 23.7368 30.5293C20.7162 30.5293 18.2675 28.0806 18.2675 25.0599Z" fill="#00E4C9"/>
<path fill-rule="evenodd" clip-rule="evenodd" d="M9.99018 17.0408C10.4073 16.325 11.3256 16.0829 12.0414 16.5L21.0784 21.766C21.7941 22.1831 22.0362 23.1015 21.6191 23.8173C21.2021 24.533 20.2837 24.7751 19.5679 24.3581L10.531 19.092C9.81521 18.6749 9.57309 17.7566 9.99018 17.0408Z" fill="#00E4C9"/>
<path fill-rule="evenodd" clip-rule="evenodd" d="M21.6055 7.77814C22.0231 8.49364 21.7815 9.41216 21.066 9.82971L12.0423 15.0957C11.3268 15.5133 10.4083 15.2717 9.99072 14.5562C9.57317 13.8407 9.81471 12.9222 10.5302 12.5047L19.5539 7.23865C20.2694 6.8211 21.188 7.06264 21.6055 7.77814Z" fill="#00E4C9"/>
</svg>
