<svg width="32" height="32" viewBox="0 0 32 32" fill="none" xmlns="http://www.w3.org/2000/svg">
<g clip-path="url(#clip0_2_30)">
<path d="M29.0219 21.6471C29.0219 28.3432 22.9669 30.504 15.5109 30.504C8.05499 30.504 2 28.3669 2 21.6471C2 18.489 2.9023 14.9035 4.82565 11.9591L3.23474 6.64019C2.92605 5.61916 3.94709 4.69309 4.8969 5.09676L10.1445 7.2813C11.688 6.59269 13.4689 6.18901 15.5109 6.18901C17.5055 6.18901 19.2864 6.5927 20.8298 7.30504L26.125 5.09673C27.0748 4.71681 28.0958 5.64286 27.7871 6.64015L26.1725 12.0303C28.0958 14.9272 29.0219 18.5127 29.0219 21.6471Z" fill="#FF00FF" stroke="#FF7319" stroke-width="2.5" stroke-miterlimit="10"/>
</g>
<defs>
<clipPath id="clip0_2_30">
<rect width="31.5962" height="31.5962" fill="white"/>
</clipPath>
</defs>
</svg>
