<svg width="32" height="32" viewBox="0 0 32 32" fill="none" xmlns="http://www.w3.org/2000/svg">
<path d="M6.25 3.35165C6.25 3.35165 7.60165 2 11.6566 2C15.7116 2 18.4149 4.70331 22.4698 4.70331C26.5248 4.70331 27.8764 3.35168 27.8764 3.35168V19.5715C27.8764 19.5715 26.5248 20.9232 22.4698 20.9232C18.4149 20.9232 15.7116 18.2198 11.6566 18.2198C7.60164 18.2198 6.25 19.5715 6.25 19.5715V3.35165Z" fill="#FF00FF" stroke="#DC143C" stroke-width="2.5" stroke-miterlimit="10" stroke-linecap="round" stroke-linejoin="round"/>
<path fill-rule="evenodd" clip-rule="evenodd" d="M6.25 18.3215C6.94036 18.3215 7.5 18.8812 7.5 19.5715V29.0331C7.5 29.7235 6.94036 30.2831 6.25 30.2831C5.55964 30.2831 5 29.7235 5 29.0331V19.5715C5 18.8812 5.55964 18.3215 6.25 18.3215Z" fill="#DC143C"/>
</svg>
