<svg width="32" height="32" viewBox="0 0 32 32" fill="none" xmlns="http://www.w3.org/2000/svg">
<path fill-rule="evenodd" clip-rule="evenodd" d="M4.42028 21.2294C3.48656 19.3532 2.96146 17.2379 2.96146 15C2.96146 7.26801 9.22948 1 16.9615 1C24.6934 1 30.9615 7.26801 30.9615 15C30.9615 22.732 24.6934 29 16.9615 29C15.1194 29 13.3605 28.6442 11.7496 27.9977L3.30425 30.682C2.54245 30.9242 1.81853 30.2188 2.04076 29.451L4.42028 21.2294ZM17 4L16.9807 4.00002L16.9615 4C10.8863 4 5.96146 8.92487 5.96146 15C5.96146 15.6496 6.01752 16.2855 6.12505 16.9032C6.13732 16.8992 6.14966 16.8954 6.16206 16.8918C6.38489 18.1773 6.83086 19.3863 7.45862 20.4775L5.23463 27.2979L12.4666 25.0253C13.4397 25.4661 14.4883 25.7693 15.5877 25.9102L15.5884 25.9154C16.0379 25.9712 16.4961 26 16.9615 26L16.9807 26L17 26C23.0751 26 28 21.0751 28 15C28 8.92487 23.0751 4 17 4Z" fill="#F9A637"/>
</svg>
