<svg width="32" height="32" viewBox="0 0 32 32" fill="none" xmlns="http://www.w3.org/2000/svg">
<g clip-path="url(#clip0_2_16)">
<path fill-rule="evenodd" clip-rule="evenodd" d="M1.98505 7.42273C1.98505 6.73237 2.54469 6.17273 3.23505 6.17273H28.3612C29.0515 6.17273 29.6112 6.73237 29.6112 7.42273C29.6112 8.11309 29.0515 8.67273 28.3612 8.67273H3.23505C2.54469 8.67273 1.98505 8.11309 1.98505 7.42273Z" fill="#DC143C"/>
<path fill-rule="evenodd" clip-rule="evenodd" d="M13.0063 3.08911C12.1548 3.08911 11.4645 3.7794 11.4645 4.63092V7.4227C11.4645 8.11305 10.9049 8.6727 10.2145 8.6727C9.52418 8.6727 8.96454 8.11305 8.96454 7.4227V4.63092C8.96454 2.39872 10.7741 0.589111 13.0063 0.589111H18.5899C20.8221 0.589111 22.6317 2.39872 22.6317 4.63092V7.4227C22.6317 8.11305 22.072 8.6727 21.3817 8.6727C20.6913 8.6727 20.1317 8.11305 20.1317 7.4227V4.63092C20.1317 3.7794 19.4414 3.08911 18.5899 3.08911H13.0063ZM6.02686 6.1727C6.71721 6.1727 7.27686 6.73234 7.27686 7.4227V26.9652C7.27686 27.8167 7.96715 28.507 8.81863 28.507H22.7776C23.6291 28.507 24.3194 27.8167 24.3194 26.9652V7.4227C24.3194 6.73234 24.879 6.1727 25.5694 6.1727C26.2597 6.1727 26.8194 6.73234 26.8194 7.4227V26.9652C26.8194 29.1974 25.0098 31.007 22.7776 31.007H8.81863C6.5864 31.007 4.77686 29.1974 4.77686 26.9652V7.4227C4.77686 6.73234 5.3365 6.1727 6.02686 6.1727Z" fill="#DC143C"/>
<path fill-rule="evenodd" clip-rule="evenodd" d="M13.0063 13.1522C13.6967 13.1522 14.2563 13.7118 14.2563 14.4022V22.7775C14.2563 23.4679 13.6967 24.0275 13.0063 24.0275C12.316 24.0275 11.7563 23.4679 11.7563 22.7775V14.4022C11.7563 13.7118 12.316 13.1522 13.0063 13.1522Z" fill="#DC143C"/>
<path fill-rule="evenodd" clip-rule="evenodd" d="M18.5899 13.1522C19.2803 13.1522 19.8399 13.7118 19.8399 14.4022V22.7775C19.8399 23.4679 19.2803 24.0275 18.5899 24.0275C17.8995 24.0275 17.3399 23.4679 17.3399 22.7775V14.4022C17.3399 13.7118 17.8995 13.1522 18.5899 13.1522Z" fill="#DC143C"/>
</g>
<defs>
<clipPath id="clip0_2_16">
<rect width="31.5962" height="31.5962" fill="white"/>
</clipPath>
</defs>
</svg>
