<svg width="28" height="28" viewBox="0 0 28 28" fill="none" xmlns="http://www.w3.org/2000/svg">
<path fill-rule="evenodd" clip-rule="evenodd" d="M7 6C6.73478 6 6.48043 6.10536 6.29289 6.29289C6.10536 6.48043 6 6.73478 6 7V20.5858L8.29289 18.2929C8.48043 18.1054 8.73478 18 9 18H21C21.2652 18 21.5196 17.8946 21.7071 17.7071C21.8946 17.5196 22 17.2652 22 17V7C22 6.73478 21.8946 6.48043 21.7071 6.29289C21.5196 6.10536 21.2652 6 21 6H7ZM4.87868 4.87868C5.44129 4.31607 6.20435 4 7 4H21C21.7957 4 22.5587 4.31607 23.1213 4.87868C23.6839 5.44129 24 6.20435 24 7V17C24 17.7957 23.6839 18.5587 23.1213 19.1213C22.5587 19.6839 21.7957 20 21 20H9.41421L5.70711 23.7071C5.42111 23.9931 4.99099 24.0787 4.61732 23.9239C4.24364 23.7691 4 23.4045 4 23V7C4 6.20435 4.31607 5.44129 4.87868 4.87868Z" fill="#FF0000"/>
</svg>
