<svg width="198" height="189" viewBox="0 0 198 189" fill="none" xmlns="http://www.w3.org/2000/svg">
<path fill-rule="evenodd" clip-rule="evenodd" d="M39.5394 8.183L59.0463 16.366L65.3872 14.115C86.1964 6.72701 112.537 6.88901 131.522 14.521L137.499 16.924L157.615 8.49301C168.678 3.85401 178.763 0.0479988 180.025 0.0299988C183.084 -0.0100012 187.64 3.68701 188.435 6.85501C189.054 9.32201 188.352 12.197 182.025 33.099C176.353 51.837 176.401 50.873 180.772 58.708C191.093 77.208 196.891 99.146 197.093 120.459C197.237 135.572 195.645 142.921 190.162 152.473C179.727 170.651 156.268 183.322 126.724 186.74C114.146 188.196 82.8604 188.195 70.2588 186.738C47.8544 184.149 29.5174 176.47 16.5696 164.256C4.33807 152.718 -0.0505666 141.118 0.000438845 120.459C0.0536147 99.302 5.2757 78.253 15.0904 59.637L20.0456 50.239L17.6972 42.212C16.4047 37.797 14.1246 30.033 12.6303 24.96C7.37995 7.13701 7.37344 7.024 11.4984 2.442C12.8245 0.969001 14.9537 0 16.8648 0C18.6066 0 28.8109 3.682 39.5394 8.183Z" fill="#FF7319"/>
<path d="M71.914 89.45L66.7818 90.732L63.031 92.144C52.6005 96.07 43.1205 102.163 35.2159 110.02L31.2054 115.371C23.2617 125.972 19.0351 137.957 18.9921 150.005C18.9508 161.768 22.5028 168.374 32.4026 174.944C42.8821 181.899 57.7235 186.271 75.8568 187.746C86.0562 188.575 111.378 188.576 121.558 187.747C145.47 185.8 164.457 178.585 172.902 168.235C177.341 162.795 178.629 158.611 178.512 150.005C178.349 137.868 173.656 125.377 165.303 114.842L162.845 112.332C153.664 102.957 142.551 95.694 130.279 91.049L125.441 89.6809C110.075 85.3349 88.7562 85.243 71.914 89.45Z" fill="white"/>
<path d="M158.951 11.6489L142.345 18.807L148.067 22.1099C153.802 25.4209 169.996 40.595 172.983 45.454C174.495 47.916 174.835 47.118 179.853 29.35C187.887 0.901953 186.536 -0.242052 158.951 11.6489Z" fill="#77500C"/>
<path d="M13.8437 6.92596C12.2549 9.34996 12.4893 10.665 17.617 28.075C20.6242 38.283 23.0843 46.931 23.0843 47.291C23.0843 47.65 24.9585 45.58 27.2494 42.691C33.1997 35.189 45.1871 24.269 50.3799 21.62C52.8184 20.375 54.3898 18.998 53.871 18.559C51.6387 16.672 20.7707 4.33997 18.2801 4.33997C16.5882 4.33997 14.8887 5.32996 13.8437 6.92596Z" fill="#77500C"/>
<path d="M78.9684 83.4338C83.7632 83.4338 87.6502 79.5468 87.6502 74.752C87.6502 69.9572 83.7632 66.0702 78.9684 66.0702C74.1736 66.0702 70.2866 69.9572 70.2866 74.752C70.2866 79.5468 74.1736 83.4338 78.9684 83.4338Z" fill="black"/>
<path d="M118.329 83.4338C123.124 83.4338 127.011 79.5468 127.011 74.752C127.011 69.9572 123.124 66.0702 118.329 66.0702C113.534 66.0702 109.647 69.9572 109.647 74.752C109.647 79.5468 113.534 83.4338 118.329 83.4338Z" fill="black"/>
<path fill-rule="evenodd" clip-rule="evenodd" d="M101.389 105.89H94.8775V117.827H94.8703C94.8747 117.948 94.877 118.069 94.877 118.191C94.877 123.585 90.5041 127.958 85.11 127.958C84.3633 127.958 83.6362 127.874 82.9375 127.715V134.325C83.6475 134.42 84.372 134.469 85.1079 134.469C90.4336 134.469 95.162 131.911 98.1318 127.957C101.102 131.911 105.83 134.469 111.156 134.469C111.891 134.469 112.616 134.42 113.326 134.325V127.715C112.627 127.874 111.9 127.958 111.153 127.958C105.841 127.958 101.52 123.718 101.389 118.439V117.943C101.39 117.904 101.391 117.866 101.392 117.827H101.389V105.89Z" fill="black"/>
<path fill-rule="evenodd" clip-rule="evenodd" d="M101.027 96.324C103.504 96.324 106 97.6874 106 100.088C106 104.637 102.193 108.324 97.4994 108.324C92.8054 108.324 89 104.637 89 100.088C89 97.6874 91.4953 96.324 93.9734 96.324H101.027Z" fill="#77500C"/>
<path fill-rule="evenodd" clip-rule="evenodd" d="M92.5924 98.8646C92.2173 99.1237 92.133 99.3529 92.133 99.5922C92.133 102.739 94.7517 105.304 97.9994 105.304C101.248 105.304 103.867 102.739 103.867 99.5922C103.867 99.3533 103.783 99.1241 103.407 98.8647C102.98 98.5694 102.284 98.3443 101.499 98.3443H94.501C93.7151 98.3443 93.0196 98.5695 92.5924 98.8646ZM89.6311 94.764C91.0564 93.7793 92.8283 93.324 94.501 93.324H101.499C103.171 93.324 104.943 93.7794 106.368 94.7639C107.846 95.7843 109 97.434 109 99.5922C109 105.528 104.066 110.324 97.9994 110.324C91.9325 110.324 87 105.527 87 99.5922C87 97.4345 88.1536 95.7846 89.6311 94.764Z" fill="black"/>
<path fill-rule="evenodd" clip-rule="evenodd" d="M63 63.5C63 61.567 64.1135 60 65.487 60H88.513C89.8865 60 91 61.567 91 63.5C91 65.433 89.8865 67 88.513 67H65.487C64.1135 67 63 65.433 63 63.5Z" fill="black"/>
<path fill-rule="evenodd" clip-rule="evenodd" d="M135.785 65.209C135.655 65.212 135.526 65.213 135.396 65.213C125.788 65.213 118 57.425 118 47.817C118 47.544 118.006 47.271 118.019 47L124.989 47C124.968 47.271 124.958 47.544 124.958 47.82C124.958 53.584 129.631 58.257 135.395 58.257C135.526 58.257 135.655 58.255 135.785 58.25L135.785 65.209Z" fill="black"/>
</svg>
