<svg width="28" height="28" viewBox="0 0 28 28" fill="none" xmlns="http://www.w3.org/2000/svg">
<path fill-rule="evenodd" clip-rule="evenodd" d="M14 5C9.02944 5 5 9.02944 5 14C5 18.9706 9.02944 23 14 23C18.9706 23 23 18.9706 23 14C23 9.02944 18.9706 5 14 5ZM3 14C3 7.92487 7.92487 3 14 3C20.0751 3 25 7.92487 25 14C25 20.0751 20.0751 25 14 25C7.92487 25 3 20.0751 3 14Z" fill="#FF0000"/>
<path fill-rule="evenodd" clip-rule="evenodd" d="M18.9469 9.05269C19.2147 9.32052 19.3083 9.71669 19.1885 10.076L17.0685 16.436C16.9689 16.7346 16.7346 16.9689 16.436 17.0685L10.076 19.1885C9.71669 19.3083 9.32052 19.2147 9.05269 18.9469C8.78485 18.6791 8.69133 18.2829 8.81111 17.9236L10.9311 11.5636C11.0306 11.265 11.265 11.0306 11.5636 10.9311L17.9236 8.81111C18.2829 8.69133 18.6791 8.78485 18.9469 9.05269ZM12.6704 12.6704L11.3409 16.6587L15.3292 15.3292L16.6587 11.3409L12.6704 12.6704Z" fill="#FF0000"/>
</svg>
