<svg width="28" height="28" viewBox="0 0 28 28" fill="none" xmlns="http://www.w3.org/2000/svg">
<path fill-rule="evenodd" clip-rule="evenodd" d="M6.00982 5.27823C5.75762 5.27823 5.51576 5.38908 5.33743 5.58641C5.1591 5.78373 5.05891 6.05136 5.05891 6.33042V21.6696C5.05891 21.9486 5.1591 22.2163 5.33743 22.4136C5.51576 22.6109 5.75762 22.7218 6.00982 22.7218H9.97054C10.5391 22.7218 11 23.2318 11 23.8609C11 24.49 10.5391 25 9.97054 25H6.00982C5.21156 25 4.44601 24.6491 3.88156 24.0245C3.31711 23.4 3 22.5529 3 21.6696V6.33042C3 5.44714 3.3171 4.60003 3.88156 3.97546C4.44601 3.35088 5.21157 3 6.00982 3H9.97054C10.5391 3 11 3.51 11 4.13911C11 4.76823 10.5391 5.27823 9.97054 5.27823H6.00982Z" fill="#FF0000"/>
<path fill-rule="evenodd" clip-rule="evenodd" d="M19.0677 7.35609C18.6136 6.90197 17.8773 6.90197 17.4232 7.35609C16.9691 7.81021 16.9691 8.54649 17.4232 9.00061L21.0302 12.6076H10.415C9.77282 12.6076 9.2522 13.1282 9.2522 13.7704C9.2522 14.4127 9.77282 14.9333 10.415 14.9333H21.0308L17.4232 18.5409C16.9691 18.995 16.9691 19.7313 17.4232 20.1854C17.8773 20.6395 18.6136 20.6395 19.0677 20.1854L24.6601 14.593C25.1142 14.1389 25.1142 13.4026 24.6601 12.9485L19.0677 7.35609Z" fill="#FF0000"/>
</svg>
