<svg width="627" height="143" viewBox="0 0 627 143" fill="none" xmlns="http://www.w3.org/2000/svg">
<path fill-rule="evenodd" clip-rule="evenodd" d="M75 96C73.415 96 71.7894 96.1904 70.4992 96.7992C69.8354 97.1124 69.1985 97.5656 68.727 98.2194C68.2429 98.8905 68 99.6815 68 100.539C68 102.823 69.4082 105.433 72.1862 106.503V107.886C72.1862 111.302 69.2877 114.186 66 114.186C62.6614 114.186 59.8139 111.504 59.8139 107.886C59.8139 106.332 58.5541 105.072 57 105.072C55.446 105.072 54.1862 106.332 54.1862 107.886C54.1862 114.648 59.5887 119.814 66 119.814C69.5578 119.814 72.7789 118.156 74.9557 115.588C77.1417 118.197 80.4129 119.814 84 119.814C90.4623 119.814 95.8138 114.343 95.8138 107.886C95.8138 106.332 94.554 105.072 93 105.072C91.4459 105.072 90.1861 106.332 90.1861 107.886C90.1861 111.302 87.2877 114.186 84 114.186C80.6614 114.186 77.8139 111.504 77.8139 107.886V106.515C80.5818 105.473 82 102.92 82 100.539C82 99.6724 81.7667 98.8679 81.2792 98.1829C80.8024 97.513 80.1554 97.0588 79.4836 96.7512C78.188 96.1578 76.5579 96 75 96Z" fill="white"/>
<path d="M59.2019 85.5701C59.2019 82.3068 61.861 79.6477 65.1243 79.6477C68.3877 79.6477 71.0467 82.3068 71.0467 85.5701C71.0467 88.8335 68.3877 91.4925 65.1243 91.4925C61.861 91.4925 59.2019 88.8335 59.2019 85.5701Z" fill="white"/>
<path d="M78.4192 85.5701C78.4192 82.3068 81.0783 79.6477 84.3417 79.6477C87.605 79.6477 90.2641 82.3068 90.2641 85.5701C90.2641 88.8335 87.605 91.4925 84.3417 91.4925C81.0783 91.4925 78.4192 88.8335 78.4192 85.5701Z" fill="white"/>
<path fill-rule="evenodd" clip-rule="evenodd" d="M0.434326 0.434357H14.8336L75.41 54.8366L135.986 0.434357H150.386V139.952H137.254V16.9452L78.1672 70.0099H72.6528L13.5656 16.9451V139.952H0.434326V0.434357Z" fill="white"/>
<path d="M243.402 93.5468H243.523V100.557C243.523 101.524 243.16 102.37 242.435 102.974C241.71 103.579 240.984 103.941 240.138 103.941H185.507C186.111 113.127 188.65 119.775 193.242 123.763C197.835 127.631 204.966 129.565 214.636 129.565C220.437 129.565 225.755 127.873 230.59 124.488C232.282 123.159 233.732 123.28 235.062 124.851C235.787 125.576 237.117 127.026 239.051 129.202C239.655 129.927 239.897 130.773 239.897 131.861C239.776 132.828 239.413 133.674 238.567 134.278C231.436 139.597 223.459 142.135 214.636 142.135C201.824 142.135 192.034 139.234 185.144 133.312C176.926 126.301 172.695 114.336 172.695 97.777V97.6561C172.695 81.3392 176.079 69.7362 182.727 62.8468C188.649 56.5618 196.989 53.5401 207.988 53.5401C218.987 53.5401 227.447 56.6827 233.37 62.8468C239.655 69.011 242.918 79.2846 243.402 93.5468ZM185.386 93.5468H231.073C230.711 82.9106 228.535 75.4169 224.426 71.3074C221.042 67.5606 215.724 65.7476 208.23 65.7476C200.857 65.7476 195.297 67.5606 191.913 71.3074C187.683 75.5377 185.628 82.9106 185.386 93.5468Z" fill="white"/>
<path d="M333.81 95.6015C333.81 96.2058 333.689 96.931 333.689 97.7771C333.81 98.6231 333.81 99.3483 333.81 99.9527C333.81 107.688 332.963 114.457 331.271 120.137C329.579 125.818 326.92 130.29 323.173 133.795C317.372 139.234 309.395 142.014 298.879 142.256H298.517C288.122 142.014 280.024 139.234 274.465 133.795C267.454 127.147 263.828 115.907 263.828 99.9527C263.828 99.3483 263.828 98.6231 263.828 97.7771C263.828 96.931 263.828 96.2058 263.828 95.6015C263.828 79.6472 267.333 68.4067 274.465 61.7591C280.145 56.3201 288.122 53.5402 298.517 53.2985H298.879C309.274 53.5402 317.372 56.3201 323.173 61.7591C330.184 68.4067 333.81 79.6472 333.81 95.6015ZM321.24 99.8318C321.24 99.1066 321.24 98.5023 321.24 97.898V97.5354C321.24 96.6893 321.24 96.085 321.24 95.6015C321.24 89.4374 320.756 84.4819 319.91 80.4933C319.064 76.5047 317.251 73.3623 314.592 70.8241C311.208 67.6815 306.01 65.9894 298.758 65.7477C291.627 65.9894 286.309 67.6815 282.925 70.8241C280.387 73.3622 278.695 76.6256 277.849 80.4933C277.003 84.4819 276.519 89.4374 276.519 95.6015C276.519 96.2059 276.519 96.8102 276.519 97.5354V97.898C276.519 98.6232 276.519 99.2275 276.519 99.8318C276.519 105.996 277.003 110.951 277.849 114.94C278.695 118.929 280.508 122.071 282.925 124.609C286.309 127.752 291.507 129.323 298.758 129.444C305.89 129.323 311.208 127.752 314.592 124.609C317.251 122.071 318.943 118.808 319.91 114.94C320.877 111.072 321.24 105.996 321.24 99.8318Z" fill="white"/>
<path d="M470.872 56.8037C471.597 57.7706 471.718 58.7375 471.356 59.8254C465.796 76.2631 457.093 102.249 445.128 137.784C444.644 139.355 443.556 140.08 441.864 140.08H433.645C432.074 140.08 430.986 139.355 430.382 137.784L410.439 78.0761L390.496 137.784C390.013 139.355 388.925 140.08 387.233 140.08H379.014C377.443 140.08 376.355 139.355 375.751 137.784C374.421 133.553 370.07 120.621 362.818 98.9859C355.566 77.3509 351.094 64.2974 349.644 59.8254C349.281 58.7376 349.402 57.7706 350.127 56.8037C350.731 55.8367 351.698 55.3533 352.907 55.3533H358.829C360.522 55.3533 361.609 56.0785 362.093 57.6498L383.124 120.379C394.606 86.2949 401.616 65.3852 404.154 57.6498C404.638 56.0785 405.725 55.3533 407.417 55.3533H413.582C415.274 55.3533 416.362 56.0785 416.966 57.6498L437.755 120.379C449.237 86.2949 456.247 65.3852 458.785 57.6498C459.39 56.0785 460.478 55.3533 462.049 55.3533H468.213C469.301 55.3533 470.147 55.8367 470.872 56.8037Z" fill="white"/>
<path d="M557.533 93.5468L557.654 100.557C557.654 101.524 557.292 102.37 556.567 102.974C555.841 103.579 555.116 103.941 554.27 103.941H499.639C500.243 113.127 502.781 119.775 507.374 123.763C511.967 127.631 519.098 129.565 528.767 129.565C534.569 129.565 539.887 127.873 544.722 124.488C546.414 123.159 547.864 123.28 549.194 124.851C549.919 125.576 551.248 127.026 553.182 129.202C553.787 129.927 554.028 130.773 554.028 131.861C553.908 132.828 553.545 133.674 552.699 134.278C545.568 139.597 537.591 142.135 528.767 142.135C515.956 142.135 506.166 139.234 499.276 133.312C491.057 126.301 486.827 114.336 486.827 97.777V97.6561C486.827 81.3392 490.211 69.7362 496.859 62.8468C502.781 56.5618 511.121 53.5401 522.12 53.5401C533.119 53.5401 541.579 56.6827 547.502 62.8468C553.666 69.011 557.05 79.2846 557.533 93.5468ZM499.397 93.5468H545.084C544.722 82.9106 542.546 75.4169 538.437 71.3074C535.052 67.5606 529.734 65.7476 522.241 65.7476C514.868 65.7476 509.308 67.5606 505.924 71.3074C501.814 75.5377 499.639 82.9106 499.397 93.5468Z" fill="white"/>
<path d="M623.406 53.5406C624.252 53.6615 624.977 54.024 625.581 54.6283C626.186 55.2327 626.427 55.9579 626.427 56.9248V63.089C626.427 64.2976 625.944 65.2645 625.098 65.8689C624.252 66.4732 623.164 66.7149 622.076 66.4732C620.989 66.1106 619.901 65.9898 618.692 65.9898C614.824 65.8689 611.078 67.1984 607.452 69.9783C603.826 72.7583 600.683 75.7799 598.145 79.1641C595.848 82.1858 594.156 85.4491 592.948 89.0751V136.696C592.948 137.663 592.585 138.509 591.86 139.114C591.135 139.718 590.409 140.08 589.563 140.08H583.762C582.795 140.08 581.949 139.718 581.345 139.114C580.74 138.509 580.378 137.663 580.378 136.696V58.7378C580.378 57.7709 580.74 56.9248 581.345 56.3205C581.949 55.7162 582.795 55.3536 583.762 55.3536H589.563C590.53 55.3536 591.376 55.7162 591.981 56.3205C592.585 56.9249 592.948 57.7709 592.948 58.7378V69.4949C593.31 68.7697 593.552 68.2862 593.794 68.0445C601.287 58.0126 610.473 53.0571 621.109 53.2989C622.076 53.2989 622.802 53.4197 623.406 53.5406Z" fill="white"/>
</svg>
