<svg width="28" height="28" viewBox="0 0 28 28" fill="none" xmlns="http://www.w3.org/2000/svg">
<path fill-rule="evenodd" clip-rule="evenodd" d="M6 7C5.45228 7 5 7.45228 5 8V20C5 20.5477 5.45228 21 6 21H22C22.5477 21 23 20.5477 23 20V8C23 7.45228 22.5477 7 22 7H6ZM3 8C3 6.34772 4.34772 5 6 5H22C23.6523 5 25 6.34772 25 8V20C25 21.6523 23.6523 23 22 23H6C4.34772 23 3 21.6523 3 20V8Z" fill="#FF0000"/>
<path fill-rule="evenodd" clip-rule="evenodd" d="M3.18085 7.4265C3.49757 6.97405 4.1211 6.86402 4.57355 7.18073L14.0001 13.7793L23.4266 7.18073C23.8791 6.86402 24.5026 6.97405 24.8193 7.4265C25.136 7.87895 25.026 8.50248 24.5735 8.8192L14.5735 15.8192C14.2292 16.0602 13.7709 16.0602 13.4266 15.8192L3.42662 8.8192C2.97417 8.50248 2.86414 7.87895 3.18085 7.4265Z" fill="#FF0000"/>
</svg>
