<svg width="28" height="28" viewBox="0 0 28 28" fill="none" xmlns="http://www.w3.org/2000/svg">
<path fill-rule="evenodd" clip-rule="evenodd" d="M3.46447 17.4645C4.40215 16.5268 5.67392 16 7 16H15C16.3261 16 17.5979 16.5268 18.5355 17.4645C19.4732 18.4021 20 19.6739 20 21V23C20 23.5523 19.5523 24 19 24C18.4477 24 18 23.5523 18 23V21C18 20.2044 17.6839 19.4413 17.1213 18.8787C16.5587 18.3161 15.7956 18 15 18H7C6.20435 18 5.44129 18.3161 4.87868 18.8787C4.31607 19.4413 4 20.2044 4 21V23C4 23.5523 3.55228 24 3 24C2.44772 24 2 23.5523 2 23V21C2 19.6739 2.52678 18.4021 3.46447 17.4645Z" fill="#FF0000"/>
<path fill-rule="evenodd" clip-rule="evenodd" d="M11 6C9.34315 6 8 7.34315 8 9C8 10.6569 9.34315 12 11 12C12.6569 12 14 10.6569 14 9C14 7.34315 12.6569 6 11 6ZM6 9C6 6.23858 8.23858 4 11 4C13.7614 4 16 6.23858 16 9C16 11.7614 13.7614 14 11 14C8.23858 14 6 11.7614 6 9Z" fill="#FF0000"/>
<path fill-rule="evenodd" clip-rule="evenodd" d="M21.0318 16.88C21.1698 16.3453 21.7153 16.0237 22.25 16.1618C23.3227 16.4387 24.273 17.0641 24.9517 17.9397C25.6304 18.8152 25.9992 19.8914 26 20.9993L26 23C26 23.5523 25.5523 24 25 24C24.4477 24 24 23.5523 24 23L24 21.0007C24 21.0006 24 21.0008 24 21.0007C23.9994 20.3361 23.7782 19.6902 23.371 19.165C22.9638 18.6396 22.3936 18.2644 21.75 18.0982C21.2153 17.9602 20.8937 17.4148 21.0318 16.88Z" fill="#FF0000"/>
<path fill-rule="evenodd" clip-rule="evenodd" d="M17.0312 4.88196C17.1682 4.34694 17.713 4.02426 18.248 4.16125C19.3236 4.43663 20.2768 5.06213 20.9576 5.93914C21.6383 6.81615 22.0078 7.89479 22.0078 9.005C22.0078 10.1152 21.6383 11.1939 20.9576 12.0709C20.2768 12.9479 19.3236 13.5734 18.248 13.8488C17.713 13.9857 17.1682 13.6631 17.0312 13.128C16.8943 12.593 17.2169 12.0482 17.752 11.9113C18.3973 11.746 18.9692 11.3707 19.3777 10.8445C19.7861 10.3183 20.0078 9.67113 20.0078 9.005C20.0078 8.33887 19.7861 7.69169 19.3777 7.16548C18.9692 6.63928 18.3973 6.26398 17.752 6.09875C17.2169 5.96176 16.8943 5.41699 17.0312 4.88196Z" fill="#FF0000"/>
</svg>
