<svg width="32" height="32" viewBox="0 0 32 32" fill="none" xmlns="http://www.w3.org/2000/svg">
<path fill-rule="evenodd" clip-rule="evenodd" d="M7.69801 10.1719C7.03638 10.1719 6.5 10.7082 6.5 11.3699V24.834C6.5 25.4956 7.03637 26.032 7.69801 26.032H21.1621C21.8237 26.032 22.3601 25.4956 22.3601 24.834V17.4899C22.3601 16.7996 22.9198 16.2399 23.6101 16.2399C24.3005 16.2399 24.8601 16.7996 24.8601 17.4899V24.834C24.8601 26.8763 23.2045 28.532 21.1621 28.532H7.69801C5.65564 28.532 4 26.8763 4 24.834V11.3699C4 9.32754 5.65565 7.67188 7.69801 7.67188H15.0421C15.7324 7.67188 16.2921 8.23152 16.2921 8.92188C16.2921 9.61223 15.7324 10.1719 15.0421 10.1719H7.69801Z" fill="#00E4C9"/>
<path fill-rule="evenodd" clip-rule="evenodd" d="M18.6895 5.25C18.6895 4.55964 19.2491 4 19.9395 4H27.2835C27.9739 4 28.5335 4.55964 28.5335 5.25V12.5941C28.5335 13.2844 27.9739 13.8441 27.2835 13.8441C26.5931 13.8441 26.0335 13.2844 26.0335 12.5941V6.5H19.9395C19.2491 6.5 18.6895 5.94036 18.6895 5.25Z" fill="#00E4C9"/>
<path fill-rule="evenodd" clip-rule="evenodd" d="M28.1663 4.36612C28.6545 4.85427 28.6545 5.64573 28.1663 6.13388L14.7022 19.598C14.2141 20.0861 13.4226 20.0861 12.9345 19.598C12.4463 19.1098 12.4463 18.3184 12.9345 17.8302L26.3986 4.36612C26.8867 3.87796 27.6782 3.87796 28.1663 4.36612Z" fill="#00E4C9"/>
</svg>
