<svg width="28" height="28" viewBox="0 0 28 28" fill="none" xmlns="http://www.w3.org/2000/svg">
<path fill-rule="evenodd" clip-rule="evenodd" d="M6.96447 17.4645C7.90215 16.5268 9.17392 16 10.5 16H17.5C18.8261 16 20.0979 16.5268 21.0355 17.4645C21.9732 18.4021 22.5 19.6739 22.5 21V23C22.5 23.5523 22.0523 24 21.5 24C20.9477 24 20.5 23.5523 20.5 23V21C20.5 20.2044 20.1839 19.4413 19.6213 18.8787C19.0587 18.3161 18.2956 18 17.5 18H10.5C9.70435 18 8.94129 18.3161 8.37868 18.8787C7.81607 19.4413 7.5 20.2044 7.5 21V23C7.5 23.5523 7.05228 24 6.5 24C5.94772 24 5.5 23.5523 5.5 23V21C5.5 19.6739 6.02678 18.4021 6.96447 17.4645Z" fill="#FF0000"/>
<path fill-rule="evenodd" clip-rule="evenodd" d="M14 6C12.3431 6 11 7.34315 11 9C11 10.6569 12.3431 12 14 12C15.6569 12 17 10.6569 17 9C17 7.34315 15.6569 6 14 6ZM9 9C9 6.23858 11.2386 4 14 4C16.7614 4 19 6.23858 19 9C19 11.7614 16.7614 14 14 14C11.2386 14 9 11.7614 9 9Z" fill="#FF0000"/>
</svg>
