<svg width="28" height="28" viewBox="0 0 28 28" fill="none" xmlns="http://www.w3.org/2000/svg">
<path fill-rule="evenodd" clip-rule="evenodd" d="M13.9993 11.9995C12.8947 11.9995 11.9993 12.8949 11.9993 13.9995C11.9993 15.1041 12.8947 15.9995 13.9993 15.9995C15.1038 15.9995 15.9993 15.1041 15.9993 13.9995C15.9993 12.8949 15.1038 11.9995 13.9993 11.9995ZM9.99927 13.9995C9.99927 11.7904 11.7901 9.99951 13.9993 9.99951C16.2084 9.99951 17.9993 11.7904 17.9993 13.9995C17.9993 16.2087 16.2084 17.9995 13.9993 17.9995C11.7901 17.9995 9.99927 16.2087 9.99927 13.9995Z" fill="#FF0000"/>
<path fill-rule="evenodd" clip-rule="evenodd" d="M14 4C13.7348 4 13.4804 4.10536 13.2929 4.29289C13.1054 4.48043 13 4.73478 13 5V5.17399C12.9979 5.6908 12.8448 6.19572 12.5594 6.62661C12.2741 7.0575 11.869 7.39555 11.3939 7.59914C11.3094 7.63538 11.2204 7.65969 11.1296 7.67157C10.698 7.82272 10.2333 7.85998 9.781 7.77796C9.26 7.68349 8.77925 7.43512 8.40073 7.06486L8.39285 7.05715L8.33289 6.99711C8.24002 6.90413 8.12934 6.82998 8.00794 6.77965C7.88654 6.72933 7.75642 6.70343 7.625 6.70343C7.49358 6.70343 7.36346 6.72933 7.24206 6.77965C7.12066 6.82998 7.01037 6.90374 6.9175 6.99671L6.91671 6.9975C6.82374 7.09037 6.74998 7.20066 6.69965 7.32206C6.64933 7.44346 6.62343 7.57358 6.62343 7.705C6.62343 7.83642 6.64933 7.96654 6.69965 8.08794C6.74998 8.20934 6.82374 8.31963 6.91671 8.4125L6.98491 8.48069C7.35516 8.85921 7.60349 9.34 7.69796 9.861C7.79055 10.3716 7.73113 10.898 7.52745 11.3748C7.34189 11.8613 7.01698 12.2827 6.59305 12.5859C6.16054 12.8952 5.64498 13.0673 5.11338 13.0797L5.09 13.08H5C4.73478 13.08 4.48043 13.1854 4.29289 13.3729C4.10536 13.5604 4 13.8148 4 14.08C4 14.3452 4.10536 14.5996 4.29289 14.7871C4.48043 14.9746 4.73478 15.08 5 15.08H5.17399C5.6908 15.0821 6.19572 15.2352 6.62661 15.5206C7.05601 15.8049 7.3932 16.2082 7.59701 16.6811C7.80908 17.1643 7.87211 17.6998 7.77796 18.219C7.68349 18.74 7.43512 19.2207 7.06486 19.5993L7.05715 19.6072L6.9971 19.6671C6.90413 19.76 6.82998 19.8707 6.77965 19.9921C6.72933 20.1135 6.70343 20.2436 6.70343 20.375C6.70343 20.5064 6.72933 20.6365 6.77965 20.7579C6.82998 20.8793 6.90374 20.9896 6.99671 21.0825L6.9975 21.0833C7.09037 21.1763 7.20066 21.25 7.32206 21.3003C7.44346 21.3507 7.57359 21.3766 7.705 21.3766C7.83641 21.3766 7.96654 21.3507 8.08794 21.3003C8.20934 21.25 8.31963 21.1763 8.4125 21.0833L8.48069 21.0151C8.85921 20.6448 9.34 20.3965 9.861 20.302C10.3716 20.2095 10.898 20.2689 11.3748 20.4725C11.8613 20.6581 12.2827 20.983 12.5859 21.407C12.8952 21.8395 13.0673 22.355 13.0797 22.8866L13.08 22.91V23C13.08 23.2652 13.1854 23.5196 13.3729 23.7071C13.5604 23.8946 13.8148 24 14.08 24C14.3452 24 14.5996 23.8946 14.7871 23.7071C14.9746 23.5196 15.08 23.2652 15.08 23V22.83L15.08 22.826C15.0821 22.3092 15.2352 21.8043 15.5206 21.3734C15.805 20.944 16.2083 20.6067 16.6812 20.4029C17.1643 20.1909 17.6998 20.1279 18.219 20.222C18.74 20.3165 19.2207 20.5649 19.5993 20.9351L19.6071 20.9429L19.6671 21.0029C19.76 21.0959 19.8707 21.17 19.9921 21.2203C20.1135 21.2707 20.2436 21.2966 20.375 21.2966C20.5064 21.2966 20.6365 21.2707 20.7579 21.2203C20.8793 21.17 20.9896 21.0963 21.0825 21.0033L21.0833 21.0025C21.1763 20.9096 21.25 20.7993 21.3003 20.6779C21.3507 20.5565 21.3766 20.4264 21.3766 20.295C21.3766 20.1636 21.3507 20.0335 21.3003 19.9121C21.25 19.7907 21.1763 19.6804 21.0833 19.5875L21.0151 19.5193C20.6448 19.1408 20.3965 18.66 20.302 18.139C20.2079 17.6198 20.2709 17.0843 20.4829 16.6012C20.6867 16.1283 21.024 15.725 21.4534 15.4406C21.8843 15.1552 22.3892 15.0021 22.906 15L22.91 15L23 15C23.2652 15 23.5196 14.8946 23.7071 14.7071C23.8946 14.5196 24 14.2652 24 14C24 13.7348 23.8946 13.4804 23.7071 13.2929C23.5196 13.1054 23.2652 13 23 13H22.83L22.826 13C22.3092 12.9979 21.8043 12.8448 21.3734 12.5594C20.9425 12.2741 20.6045 11.869 20.4009 11.3939C20.3646 11.3094 20.3403 11.2204 20.3284 11.1296C20.1773 10.698 20.14 10.2333 20.222 9.781C20.3165 9.26 20.5649 8.77925 20.9351 8.40073L20.9428 8.39285L21.0029 8.3329C21.0959 8.24002 21.17 8.12934 21.2203 8.00794C21.2707 7.88654 21.2966 7.75641 21.2966 7.625C21.2966 7.49359 21.2707 7.36346 21.2203 7.24206C21.17 7.12066 21.0963 7.01037 21.0033 6.9175L21.0025 6.91671C20.9096 6.82374 20.7993 6.74998 20.6779 6.69965C20.5565 6.64933 20.4264 6.62343 20.295 6.62343C20.1636 6.62343 20.0335 6.64933 19.9121 6.69965C19.7907 6.74998 19.6804 6.82374 19.5875 6.91671L19.5193 6.98491C19.1408 7.35516 18.66 7.60349 18.139 7.69796C17.6198 7.79211 17.0843 7.72908 16.6011 7.51701C16.1282 7.3132 15.7249 6.97601 15.4406 6.54661C15.1552 6.11572 15.0021 5.6108 15 5.09399L15 5.09V5C15 4.73478 14.8946 4.48043 14.7071 4.29289C14.5196 4.10536 14.2652 4 14 4ZM21.4 17L22.3149 17.4038C22.2624 17.5226 22.2468 17.6544 22.27 17.7822C22.2929 17.9086 22.3527 18.0253 22.4419 18.1177L22.4967 18.1725C22.4968 18.1726 22.4966 18.1724 22.4967 18.1725C22.7755 18.451 22.997 18.7822 23.1479 19.1462C23.2989 19.5104 23.3766 19.9008 23.3766 20.295C23.3766 20.6892 23.2989 21.0796 23.1479 21.4438C22.9969 21.808 22.7756 22.1389 22.4967 22.4175L21.79 21.71L22.4975 22.4167C22.2189 22.6956 21.888 22.9169 21.5238 23.0679C21.1596 23.2189 20.7692 23.2966 20.375 23.2966C19.9808 23.2966 19.5904 23.2189 19.2262 23.0679C18.8622 22.917 18.5314 22.6959 18.2529 22.4171C18.2528 22.417 18.253 22.4172 18.2529 22.4171L18.1977 22.3619C18.1053 22.2727 17.9886 22.2129 17.8622 22.19C17.7344 22.1668 17.6026 22.1824 17.4838 22.2349L17.474 22.2392C17.3574 22.2891 17.258 22.372 17.1881 22.4777C17.1183 22.583 17.0808 22.7063 17.08 22.8325V23C17.08 23.7957 16.7639 24.5587 16.2013 25.1213C15.6387 25.6839 14.8757 26 14.08 26C13.2843 26 12.5213 25.6839 11.9587 25.1213C11.3961 24.5587 11.08 23.7957 11.08 23V22.9244C11.0753 22.7972 11.0333 22.6741 10.9591 22.5704C10.8833 22.4644 10.7772 22.3836 10.6548 22.3385C10.635 22.3313 10.6155 22.3234 10.5962 22.3149C10.4774 22.2624 10.3456 22.2468 10.2178 22.27C10.0914 22.2929 9.97467 22.3527 9.8823 22.4419L9.8275 22.4967C9.82737 22.4968 9.82763 22.4966 9.8275 22.4967C9.54896 22.7755 9.21784 22.997 8.85382 23.1479C8.48963 23.2989 8.09925 23.3766 7.705 23.3766C7.31075 23.3766 6.92037 23.2989 6.55618 23.1479C6.19233 22.9971 5.86174 22.7761 5.58329 22.4975C5.30436 22.2189 5.08308 21.888 4.93211 21.5238C4.78113 21.1596 4.70343 20.7692 4.70343 20.375C4.70343 19.9808 4.78113 19.5904 4.93211 19.2262C5.08308 18.862 5.30436 18.5311 5.58329 18.2525L5.63811 18.1977C5.72728 18.1053 5.78713 17.9886 5.81005 17.8622C5.83322 17.7344 5.81758 17.6026 5.76514 17.4838L5.76081 17.474C5.71087 17.3574 5.62801 17.258 5.52232 17.1881C5.41704 17.1183 5.29374 17.0808 5.1675 17.08H5C4.20435 17.08 3.44129 16.7639 2.87868 16.2013C2.31607 15.6387 2 14.8756 2 14.08C2 13.2844 2.31607 12.5213 2.87868 11.9587C3.44129 11.3961 4.20435 11.08 5 11.08H5.07564C5.20283 11.0753 5.32591 11.0333 5.42955 10.9591C5.53564 10.8833 5.61644 10.7772 5.66146 10.6548C5.66874 10.635 5.67663 10.6155 5.68514 10.5962C5.73758 10.4774 5.75322 10.3456 5.73005 10.2178C5.70713 10.0914 5.64728 9.97468 5.5581 9.88231L5.50329 9.8275C5.22436 9.54888 5.00308 9.21802 4.85211 8.85382C4.70113 8.48963 4.62343 8.09925 4.62343 7.705C4.62343 7.31075 4.70113 6.92037 4.85211 6.55618C5.00301 6.19216 5.22415 5.86143 5.50289 5.58289C5.78143 5.30415 6.11216 5.08301 6.47618 4.93211C6.84037 4.78113 7.23075 4.70343 7.625 4.70343C8.01925 4.70343 8.40963 4.78113 8.77382 4.93211C9.13802 5.08308 9.46888 5.30436 9.7475 5.58329L9.80231 5.6381C9.89468 5.72728 10.0114 5.78713 10.1378 5.81005C10.2656 5.83322 10.3974 5.81758 10.5162 5.76514C10.5803 5.73687 10.6469 5.71549 10.7151 5.70122C10.7848 5.6539 10.845 5.59323 10.8919 5.52232C10.9617 5.41704 10.9992 5.29374 11 5.1675V5C11 4.20435 11.3161 3.44129 11.8787 2.87868C12.4413 2.31607 13.2044 2 14 2C14.7956 2 15.5587 2.31607 16.1213 2.87868C16.6839 3.44129 17 4.20435 17 5V5.0875C17.0008 5.21374 17.0383 5.33704 17.1081 5.44232C17.178 5.54801 17.2774 5.63092 17.3939 5.68086L17.4038 5.68508C17.5226 5.73752 17.6544 5.75322 17.7822 5.73005C17.9086 5.70713 18.0253 5.64728 18.1177 5.55811L18.1725 5.50329C18.4511 5.22436 18.782 5.00308 19.1462 4.85211C19.5104 4.70113 19.9008 4.62343 20.295 4.62343C20.6892 4.62343 21.0796 4.70113 21.4438 4.85211C21.808 5.00308 22.1389 5.22436 22.4175 5.50329C22.6961 5.78174 22.9171 6.11233 23.0679 6.47618C23.2189 6.84037 23.2966 7.23075 23.2966 7.625C23.2966 8.01925 23.2189 8.40963 23.0679 8.77382C22.917 9.13784 22.6959 9.46857 22.4171 9.7471C22.417 9.74724 22.4172 9.74697 22.4171 9.7471L22.3619 9.80231C22.2727 9.89468 22.2129 10.0114 22.19 10.1378C22.1668 10.2656 22.1824 10.3974 22.2349 10.5162C22.2631 10.5803 22.2845 10.6469 22.2988 10.7151C22.3461 10.7848 22.4068 10.845 22.4777 10.8919C22.583 10.9617 22.7063 10.9992 22.8325 11H23C23.7957 11 24.5587 11.3161 25.1213 11.8787C25.6839 12.4413 26 13.2043 26 14C26 14.7957 25.6839 15.5587 25.1213 16.1213C24.5587 16.6839 23.7957 17 23 17H22.9125C22.7863 17.0008 22.663 17.0383 22.5577 17.1081C22.452 17.178 22.3691 17.2774 22.3191 17.3939L21.4 17Z" fill="#FF0000"/>
</svg>
