<svg width="385" height="363" viewBox="0 0 385 363" fill="none" xmlns="http://www.w3.org/2000/svg">
<g clip-path="url(#clip0_1_373)">
<path fill-rule="evenodd" clip-rule="evenodd" d="M39.5394 183.183L59.0463 191.366L65.3872 189.115C86.1964 181.727 112.537 181.889 131.522 189.521L137.499 191.924L157.615 183.493C168.678 178.854 178.763 175.048 180.025 175.03C183.084 174.99 187.64 178.687 188.435 181.855C189.054 184.322 188.352 187.197 182.025 208.099C176.353 226.837 176.401 225.873 180.772 233.708C191.093 252.208 196.891 274.146 197.093 295.459C197.237 310.572 195.645 317.921 190.162 327.473C179.727 345.651 156.268 358.322 126.724 361.74C114.146 363.196 82.8604 363.195 70.2588 361.738C47.8544 359.149 29.5174 351.47 16.5696 339.256C4.33807 327.718 -0.0505666 316.118 0.000438845 295.459C0.0536147 274.302 5.2757 253.253 15.0904 234.637L20.0456 225.239L17.6972 217.212C16.4047 212.797 14.1246 205.033 12.6303 199.96C7.37995 182.137 7.37344 182.024 11.4984 177.442C12.8245 175.969 14.9537 175 16.8648 175C18.6066 175 28.8109 178.682 39.5394 183.183Z" fill="#FF7319"/>
<path d="M71.914 264.45L66.7818 265.732L63.031 267.144C52.6005 271.07 43.1205 277.163 35.2159 285.02L31.2054 290.371C23.2617 300.972 19.0351 312.957 18.9921 325.005C18.9508 336.768 22.5028 343.374 32.4026 349.944C42.8821 356.899 57.7234 361.271 75.8568 362.746C86.0562 363.575 111.378 363.576 121.558 362.747C145.47 360.8 164.457 353.585 172.902 343.235C177.341 337.795 178.629 333.611 178.512 325.005C178.349 312.868 173.656 300.377 165.303 289.842L162.845 287.332C153.664 277.957 142.551 270.694 130.279 266.049L125.441 264.681C110.075 260.335 88.7562 260.243 71.914 264.45Z" fill="white"/>
<path d="M158.951 186.649L142.345 193.807L148.067 197.11C153.802 200.421 169.996 215.595 172.983 220.454C174.495 222.916 174.835 222.118 179.853 204.35C187.887 175.902 186.536 174.758 158.951 186.649Z" fill="#77500C"/>
<path d="M13.8437 181.926C12.2549 184.35 12.4893 185.665 17.617 203.075C20.6242 213.283 23.0843 221.931 23.0843 222.291C23.0843 222.65 24.9585 220.58 27.2494 217.691C33.1997 210.189 45.1871 199.269 50.3799 196.62C52.8184 195.375 54.3898 193.998 53.871 193.559C51.6387 191.672 20.7707 179.34 18.2801 179.34C16.5882 179.34 14.8887 180.33 13.8437 181.926Z" fill="#77500C"/>
<path d="M79.6818 257.688C84.4766 257.688 88.3636 253.801 88.3636 249.006C88.3636 244.211 84.4766 240.324 79.6818 240.324C74.887 240.324 71 244.211 71 249.006C71 253.801 74.887 257.688 79.6818 257.688Z" fill="black"/>
<path d="M119.042 257.688C123.837 257.688 127.724 253.801 127.724 249.006C127.724 244.211 123.837 240.324 119.042 240.324C114.248 240.324 110.361 244.211 110.361 249.006C110.361 253.801 114.248 257.688 119.042 257.688Z" fill="black"/>
<path fill-rule="evenodd" clip-rule="evenodd" d="M102.102 280.144H95.5909V292.081H95.5837C95.5881 292.202 95.5904 292.323 95.5904 292.445C95.5904 297.839 91.2175 302.212 85.8234 302.212C85.0767 302.212 84.3496 302.128 83.6509 301.969V308.579C84.3609 308.674 85.0854 308.723 85.8213 308.723C91.147 308.723 95.8754 306.165 98.8452 302.211C101.815 306.165 106.543 308.723 111.869 308.723C112.604 308.723 113.329 308.674 114.039 308.579V301.969C113.34 302.128 112.613 302.212 111.866 302.212C106.554 302.212 102.233 297.972 102.102 292.693V292.197C102.103 292.158 102.104 292.12 102.105 292.081H102.102V280.144Z" fill="black"/>
<path fill-rule="evenodd" clip-rule="evenodd" d="M101.74 270.578C104.217 270.578 106.713 271.941 106.713 274.342C106.713 278.891 102.907 282.578 98.2128 282.578C93.5188 282.578 89.7134 278.891 89.7134 274.342C89.7134 271.941 92.2087 270.578 94.6868 270.578H101.74Z" fill="#77500C"/>
<path fill-rule="evenodd" clip-rule="evenodd" d="M93.3058 273.118C92.9307 273.378 92.8464 273.607 92.8464 273.846C92.8464 276.993 95.4651 279.557 98.7128 279.557C101.961 279.557 104.58 276.993 104.58 273.846C104.58 273.607 104.496 273.378 104.121 273.119C103.693 272.823 102.998 272.598 102.212 272.598H95.2144C94.4284 272.598 93.733 272.823 93.3058 273.118ZM90.3445 269.018C91.7698 268.033 93.5416 267.578 95.2144 267.578H102.212C103.885 267.578 105.656 268.033 107.082 269.018C108.559 270.038 109.713 271.688 109.713 273.846C109.713 279.782 104.779 284.578 98.7128 284.578C92.6459 284.578 87.7134 279.781 87.7134 273.846C87.7134 271.688 88.867 270.038 90.3445 269.018Z" fill="black"/>
<path d="M241.036 121.443L254.614 125.082L192.763 355.914L179.184 352.275L241.036 121.443Z" fill="#787878"/>
<path d="M374.623 56.2324L175.394 2.84918C170.06 1.41976 164.576 4.58558 163.147 9.92024L129.242 136.457C127.812 141.791 130.978 147.275 136.313 148.704L335.542 202.087C340.876 203.517 346.36 200.351 347.789 195.016L381.694 68.4799C383.124 63.1452 379.958 57.6618 374.623 56.2324Z" fill="#FFA800"/>
<path d="M199.218 30.3199C202.834 31.2889 205.566 33.3957 207.413 36.6404C209.299 39.8624 209.758 43.2816 208.789 46.898L208.068 49.5872C207.099 53.2036 204.988 55.9509 201.736 57.8289C198.522 59.6844 195.107 60.1276 191.49 59.1586L181.522 56.4876C181.429 56.4627 181.341 56.4224 181.256 56.3667C181.203 56.3192 181.149 56.2717 181.096 56.2242C181.05 56.1458 181.005 56.0675 180.96 55.9891C180.945 55.919 180.931 55.8489 180.917 55.7788C180.911 55.6778 180.92 55.5809 180.945 55.4882L188.262 28.1795C188.32 27.9631 188.443 27.8138 188.631 27.7316C188.827 27.6185 189.033 27.5909 189.249 27.6489L199.218 30.3199ZM202.968 48.2206L203.689 45.5315C204.277 43.3369 203.99 41.2557 202.828 39.2878C201.704 37.2973 200.046 36.008 197.851 35.42L192.241 33.9168L187.259 52.5089L192.869 54.0121C195.064 54.6002 197.141 54.3285 199.101 53.1971C201.091 52.074 202.38 50.4152 202.968 48.2206ZM229.101 63.7205C229.318 63.7784 229.482 63.9054 229.596 64.1014C229.709 64.2973 229.736 64.5035 229.678 64.7198L228.722 68.2899C228.68 68.4445 228.612 68.5753 228.517 68.6823C228.422 68.7894 228.305 68.8573 228.164 68.886C228.024 68.9147 227.877 68.9083 227.722 68.8669L211.587 64.5436C211.464 64.5105 211.36 64.466 211.275 64.4103C211.199 64.3236 211.138 64.2411 211.093 64.1627C211.048 64.0843 211.007 63.9905 210.97 63.8812C210.964 63.7802 210.977 63.6678 211.01 63.5442L218.328 36.2355C218.386 36.0192 218.509 35.8699 218.696 35.7877C218.892 35.6745 219.098 35.6469 219.315 35.7049L234.383 39.7425C234.6 39.8005 234.764 39.9274 234.877 40.1234C234.999 40.2884 235.031 40.4791 234.973 40.6955L234.004 44.3119C233.97 44.4356 233.906 44.5509 233.812 44.658C233.717 44.7651 233.599 44.833 233.459 44.8617C233.319 44.8903 233.171 44.884 233.017 44.8426L222.306 41.9728L220.58 48.4174L229.157 50.7158C229.373 50.7737 229.538 50.9007 229.651 51.0967C229.764 51.2926 229.792 51.4988 229.734 51.7152L228.765 55.3316C228.715 55.517 228.593 55.6663 228.397 55.7795C228.201 55.8926 227.994 55.9202 227.778 55.8622L219.201 53.5639L217.325 60.5649L229.101 63.7205ZM262.934 47.3926C263.15 47.4506 263.315 47.5776 263.428 47.7735C263.55 47.9386 263.581 48.1293 263.523 48.3457L262.554 51.9621C262.496 52.1785 262.369 52.3432 262.173 52.4563C261.986 52.5386 261.784 52.5507 261.567 52.4927L252.804 50.1447L246.655 73.0951C246.614 73.2497 246.545 73.3805 246.45 73.4875C246.355 73.5946 246.238 73.6625 246.098 73.6912C245.957 73.7199 245.826 73.7177 245.702 73.6845L242.085 72.7155C241.869 72.6575 241.704 72.5306 241.591 72.3346C241.509 72.1469 241.497 71.9449 241.555 71.7285L247.704 48.7781L238.942 46.4301C238.725 46.3722 238.556 46.2607 238.435 46.0956C238.322 45.8996 238.294 45.6935 238.352 45.4771L239.321 41.8607C239.379 41.6443 239.502 41.495 239.69 41.4128C239.886 41.2997 240.092 41.2721 240.308 41.3301L262.934 47.3926ZM286.663 68.46C286.589 68.7382 286.526 68.97 286.477 69.1555C286.427 69.341 286.365 69.5728 286.29 69.851C284.866 75.1674 282.615 78.6226 279.538 80.2164C277.079 81.4791 274.029 81.6723 270.388 80.796L270.295 80.7712C266.703 79.7094 264.159 78.0171 262.661 75.6943C260.793 72.7753 260.571 68.6576 261.995 63.3412C262.07 63.063 262.132 62.8311 262.182 62.6457C262.24 62.4293 262.302 62.1975 262.368 61.9502C263.793 56.6338 266.044 53.1786 269.121 51.5848C271.588 50.2912 274.638 50.098 278.271 51.0052L278.363 51.03C281.963 52.0609 284.508 53.7532 285.998 56.1069C287.866 59.0259 288.088 63.1436 286.663 68.46ZM281.144 68.472C281.202 68.2556 281.256 68.0547 281.305 67.8692L281.355 67.6838C281.397 67.5292 281.45 67.3283 281.517 67.0811C282.022 65.1956 282.297 63.6128 282.342 62.3328C282.387 61.0528 282.106 59.9342 281.502 58.977C280.73 57.7764 279.209 56.8388 276.938 56.1641C274.634 55.613 272.833 55.6603 271.533 56.306C270.531 56.8325 269.729 57.6612 269.128 58.7922C268.558 59.9314 268.02 61.4437 267.515 63.3292C267.457 63.5456 267.403 63.7465 267.353 63.9319L267.303 64.1174C267.262 64.272 267.208 64.4729 267.142 64.7201C266.811 65.9565 266.564 67.0003 266.402 67.8514C266.271 68.7108 266.253 69.5838 266.347 70.4702C266.44 71.3567 266.695 72.1372 267.111 72.8118C267.913 74.0206 269.45 74.9624 271.72 75.6371C274.024 76.1882 275.81 76.1367 277.079 75.4828C277.776 75.1064 278.387 74.5578 278.911 73.8369C279.436 73.1161 279.856 72.3508 280.172 71.5411C280.489 70.7314 280.813 69.7084 281.144 68.472ZM318.79 62.3591C319.006 62.4171 319.171 62.5441 319.284 62.74C319.405 62.9051 319.437 63.0958 319.379 63.3122L314.422 81.8116C313.693 84.5316 311.932 86.5939 309.137 87.9984C306.35 89.372 303.334 89.624 300.089 88.7544C296.874 87.8931 294.404 86.171 292.677 83.5882C290.959 80.9744 290.465 78.3075 291.194 75.5875L296.151 57.0881C296.208 56.8717 296.331 56.7224 296.519 56.6402C296.715 56.527 296.921 56.4995 297.137 56.5574L300.708 57.514C300.924 57.572 301.089 57.699 301.202 57.8949C301.323 58.06 301.355 58.2507 301.297 58.4671L296.34 76.9665C295.967 78.3574 296.286 79.7018 297.297 80.9995C298.316 82.2664 299.706 83.1359 301.468 83.6079C303.261 84.0883 304.915 84.0346 306.431 83.4469C307.955 82.8283 308.903 81.8235 309.276 80.4326L314.233 61.9332C314.291 61.7168 314.413 61.5675 314.601 61.4853C314.797 61.3721 315.003 61.3446 315.22 61.4025L318.79 62.3591ZM337.646 85.7486C339.241 90.1843 339.689 94.1972 338.992 97.7872C338.965 98.0118 338.85 98.1962 338.645 98.3402C338.449 98.4533 338.243 98.4809 338.027 98.4229C337.347 98.2407 336.141 97.9177 334.41 97.4539C334.194 97.3959 334.025 97.2844 333.904 97.1194C333.822 96.9317 333.79 96.741 333.809 96.5473C334.392 93.2581 333.785 89.6501 331.988 85.7232L326.703 84.307L324.143 93.8581C324.085 94.0744 323.958 94.2392 323.762 94.3523C323.566 94.4655 323.36 94.493 323.144 94.4351L319.574 93.4785C319.357 93.4205 319.193 93.2935 319.08 93.0976C318.966 92.9016 318.939 92.6954 318.997 92.4791L326.314 65.1704C326.372 64.954 326.495 64.8047 326.683 64.7225C326.879 64.6094 327.085 64.5818 327.301 64.6398L337.362 67.3356C339.866 68.0065 341.747 69.4548 343.006 71.6804C344.304 73.8834 344.622 76.2213 343.959 78.6941L343.798 79.2968C343.384 80.8423 342.628 82.1802 341.53 83.3106C340.432 84.4409 339.137 85.2536 337.646 85.7486ZM338.698 77.9303L338.859 77.3275C339.141 76.2766 338.995 75.2767 338.421 74.3278C337.886 73.3563 337.078 72.7256 335.996 72.4357L330.293 70.9077L328.069 79.2069L333.772 80.735C334.483 80.9255 335.177 80.9294 335.856 80.7467C336.543 80.5332 337.135 80.1783 337.632 79.6821C338.16 79.1942 338.515 78.6103 338.698 77.9303Z" fill="black"/>
<path fill-rule="evenodd" clip-rule="evenodd" d="M226.263 90.2243C226.691 88.6239 228.336 87.6741 229.937 88.103L232.139 88.6931C232.239 88.7093 232.34 88.7307 232.44 88.7576L270.465 98.9464L272.603 90.9689C273.235 88.6081 276.274 87.9539 277.822 89.8455L300.135 117.113C301.434 118.7 300.793 121.094 298.874 121.819L280.769 128.662C280.428 128.877 280.046 129.023 279.643 129.088L265.917 134.276C263.631 135.141 261.326 133.055 261.959 130.694L263.477 125.026L246.135 120.38L236.183 157.521C235.754 159.121 234.109 160.071 232.509 159.642L212.224 154.207C210.624 153.778 209.674 152.133 210.103 150.533L226.263 90.2243Z" fill="black"/>
</g>
<defs>
<clipPath id="clip0_1_373">
<rect width="385" height="363" fill="white"/>
</clipPath>
</defs>
</svg>
