<svg width="523" height="360" viewBox="0 0 523 360" fill="none" xmlns="http://www.w3.org/2000/svg">
<g clip-path="url(#clip0_1_194)">
<path fill-rule="evenodd" clip-rule="evenodd" d="M64.5394 180.183L84.0463 188.366L90.3872 186.115C111.196 178.727 137.537 178.889 156.522 186.521L162.499 188.924L182.615 180.493C193.678 175.854 203.763 172.048 205.025 172.03C208.084 171.99 212.64 175.687 213.435 178.855C214.054 181.322 213.352 184.197 207.025 205.099C201.353 223.837 201.401 222.873 205.772 230.708C216.093 249.208 221.891 271.146 222.093 292.459C222.237 307.572 220.645 314.921 215.162 324.473C204.727 342.651 181.268 355.322 151.724 358.74C139.146 360.196 107.86 360.195 95.2588 358.738C72.8544 356.149 54.5174 348.47 41.5696 336.256C29.3381 324.718 24.9494 313.118 25.0004 292.459C25.0536 271.302 30.2757 250.253 40.0904 231.637L45.0456 222.239L42.6972 214.212C41.4047 209.797 39.1246 202.033 37.6303 196.96C32.3799 179.137 32.3734 179.024 36.4984 174.442C37.8245 172.969 39.9537 172 41.8648 172C43.6066 172 53.8109 175.682 64.5394 180.183Z" fill="#FF7319"/>
<path d="M96.914 261.45L91.7818 262.732L88.031 264.144C77.6005 268.07 68.1205 274.163 60.2159 282.02L56.2054 287.371C48.2617 297.972 44.0351 309.957 43.9921 322.005C43.9508 333.768 47.5028 340.374 57.4026 346.944C67.8821 353.899 82.7234 358.271 100.857 359.746C111.056 360.575 136.378 360.576 146.558 359.747C170.47 357.8 189.457 350.585 197.902 340.235C202.341 334.795 203.629 330.611 203.512 322.005C203.349 309.868 198.656 297.377 190.303 286.842L187.845 284.332C178.664 274.957 167.551 267.694 155.279 263.049L150.441 261.681C135.075 257.335 113.756 257.243 96.914 261.45Z" fill="white"/>
<path d="M183.951 183.649L167.345 190.807L173.067 194.11C178.802 197.421 194.996 212.595 197.983 217.454C199.495 219.916 199.835 219.118 204.853 201.35C212.887 172.902 211.536 171.758 183.951 183.649Z" fill="#77500C"/>
<path d="M38.8437 178.926C37.2549 181.35 37.4893 182.665 42.617 200.075C45.6242 210.283 48.0843 218.931 48.0843 219.291C48.0843 219.65 49.9585 217.58 52.2494 214.691C58.1997 207.189 70.1871 196.269 75.3799 193.62C77.8184 192.375 79.3898 190.998 78.871 190.559C76.6387 188.672 45.7707 176.34 43.2801 176.34C41.5882 176.34 39.8887 177.33 38.8437 178.926Z" fill="#77500C"/>
<path d="M139.682 252.364C144.477 252.364 148.364 248.477 148.364 243.682C148.364 238.887 144.477 235 139.682 235C134.887 235 131 238.887 131 243.682C131 248.477 134.887 252.364 139.682 252.364Z" fill="black"/>
<path d="M179.042 252.364C183.837 252.364 187.724 248.477 187.724 243.682C187.724 238.887 183.837 235 179.042 235C174.247 235 170.36 238.887 170.36 243.682C170.36 248.477 174.247 252.364 179.042 252.364Z" fill="black"/>
<path fill-rule="evenodd" clip-rule="evenodd" d="M161.74 265.254C164.217 265.254 166.713 266.617 166.713 269.018C166.713 273.567 162.907 277.254 158.213 277.254C153.519 277.254 149.713 273.567 149.713 269.018C149.713 266.617 152.209 265.254 154.687 265.254H161.74Z" fill="#77500C"/>
<path fill-rule="evenodd" clip-rule="evenodd" d="M153.306 267.794C152.931 268.054 152.846 268.283 152.846 268.522C152.846 271.669 155.465 274.233 158.713 274.233C161.961 274.233 164.58 271.669 164.58 268.522C164.58 268.283 164.496 268.054 164.121 267.795C163.693 267.499 162.998 267.274 162.212 267.274H155.214C154.428 267.274 153.733 267.499 153.306 267.794ZM150.344 263.694C151.77 262.709 153.542 262.254 155.214 262.254H162.212C163.885 262.254 165.656 262.709 167.082 263.694C168.559 264.714 169.713 266.364 169.713 268.522C169.713 274.458 164.779 279.254 158.713 279.254C152.646 279.254 147.713 274.457 147.713 268.522C147.713 266.364 148.867 264.714 150.344 263.694Z" fill="black"/>
<path fill-rule="evenodd" clip-rule="evenodd" d="M13.4228 262.019C18.7815 261.417 24.2353 263.962 27.1027 268.935C29.9716 273.906 29.4457 279.908 26.2466 284.25L38.483 305.466C43.8417 304.864 49.2954 307.409 52.1642 312.381C55.0317 317.352 54.5058 323.354 51.3068 327.697L45.5943 317.793L38.6509 316.956L35.9037 323.393L41.6162 333.298C36.2589 333.899 30.8038 331.354 27.9364 326.381C25.0689 321.41 25.5935 315.409 28.7924 311.066L16.5561 289.851C11.1988 290.453 5.74367 287.907 2.87621 282.936C0.00875921 277.962 0.533285 271.962 3.73225 267.618L9.44479 277.523L16.3882 278.36L19.1354 271.922L13.4228 262.019Z" fill="#787878"/>
<path d="M174.417 189.738C174.417 202.788 151.875 188.349 120.263 188.349C99.1276 188.349 71.7196 209.256 61.8043 202.223C56.8882 198.735 63.9502 172.384 67.0327 169.353C80.3015 156.303 88.3809 149.988 119.954 151.593C132.786 152.245 148.389 153.65 157.134 160.409C172.245 172.087 174.417 182.201 174.417 189.738Z" fill="#EC8E00"/>
<path d="M175.416 186.552C175.689 187.658 176.242 192.188 173.654 193.851C165.584 199.039 142.502 196.505 117.826 202.616C85.2357 210.688 57.9034 213.539 56.7778 208.985C56.3814 207.382 54.6595 201.058 60.0155 198.388C69.868 193.476 93.7017 190.912 115.292 188.288C153.746 183.615 174.289 181.999 175.416 186.552Z" fill="#FF9900"/>
<path d="M133.069 174.912C133.069 178.314 135.955 187.357 135.077 190.04C133.467 194.96 127.218 192.364 123.966 192.364C121.304 192.364 117.367 195.733 115.702 192.243C114.223 189.139 114.862 179.448 114.862 174.912C114.862 169.684 102.793 154.182 104.693 150.983C106.296 148.286 118.888 149.122 121.188 149.122C126.215 149.122 133.069 165.275 133.069 174.912Z" fill="#FF9900"/>
<path fill-rule="evenodd" clip-rule="evenodd" d="M155.591 274.82H162.102V286.03C173.869 286.501 184 292.568 184 302.073C184 306.167 179.234 307.265 173.636 308.555C171.096 309.14 168.385 309.765 165.869 310.727C164.094 311.406 161.572 312.656 158.813 314.022C153.258 316.774 146.745 320 143.444 320C131.059 320 128.698 312.582 132.947 302.073C137.465 290.898 145.533 287.052 155.591 286.198V274.82Z" fill="black"/>
<path d="M365.022 342.579V104.081L371.393 82.0105L379.625 104.191L380.008 39.2124L391.861 53.8093L393.159 34.4572H447.464V342.579H365.022Z" fill="#00811D"/>
<path d="M425.552 89.0883L404.572 70.8958V50.563" stroke="#FFD719" stroke-width="2.5" stroke-miterlimit="10" stroke-linecap="round"/>
<path d="M399.911 46.0476C399.911 43.3981 402.052 41.2502 404.694 41.2502C407.335 41.2502 409.476 43.3981 409.476 46.0476C409.476 48.6971 407.335 50.845 404.694 50.845C402.052 50.845 399.911 48.6971 399.911 46.0476Z" fill="#444444" stroke="#FFD719" stroke-width="2.5" stroke-miterlimit="10"/>
<path d="M440.509 89.1115L419.53 70.919V50.5862" stroke="#FFD719" stroke-width="2.5" stroke-miterlimit="10" stroke-linecap="round"/>
<path d="M414.869 46.0708C414.869 43.4213 417.01 41.2734 419.651 41.2734C422.293 41.2734 424.434 43.4213 424.434 46.0708C424.434 48.7203 422.293 50.8682 419.651 50.8682C417.01 50.8682 414.869 48.7203 414.869 46.0708Z" fill="#444444" stroke="#FFD719" stroke-width="2.5" stroke-miterlimit="10"/>
<path d="M455.645 89.1347L434.665 70.9422V50.6094" stroke="#FFD719" stroke-width="2.5" stroke-miterlimit="10" stroke-linecap="round"/>
<path d="M430.004 46.094C430.004 43.4445 432.145 41.2966 434.786 41.2966C437.427 41.2966 439.568 43.4445 439.568 46.094C439.568 48.7435 437.427 50.8913 434.786 50.8913C432.145 50.8913 430.004 48.7435 430.004 46.094Z" fill="#444444" stroke="#FFD719" stroke-width="2.5" stroke-miterlimit="10"/>
<path d="M319.852 342.071L328.386 348.248L320.993 345.92" stroke="#805702" stroke-width="0.5" stroke-miterlimit="10" stroke-linecap="round"/>
<path d="M321.232 348.132L329.51 348.853L322.611 350.052" stroke="#805702" stroke-width="0.5" stroke-miterlimit="10" stroke-linecap="round"/>
<path d="M306.72 333.676L299.004 334.38L308.649 330.158" stroke="#805702" stroke-width="0.5" stroke-miterlimit="10" stroke-linecap="round"/>
<path d="M304.265 337.371L297.776 334.732L306.019 335.787" stroke="#805702" stroke-width="0.5" stroke-miterlimit="10" stroke-linecap="round"/>
<path d="M244.734 278.111C244.734 276.652 245.912 275.47 247.367 275.47H278.966C280.421 275.47 281.599 276.652 281.599 278.111V315.093C281.599 316.551 280.42 317.735 278.966 317.735H247.367C245.912 317.735 244.734 316.551 244.734 315.093V278.111Z" fill="#FEFFFF"/>
<path d="M272.384 309.81H263.167H253.951C253.224 309.81 252.634 309.218 252.634 308.489V284.715C252.634 283.986 253.224 283.394 253.951 283.394H272.384C273.11 283.394 273.7 283.986 273.7 284.715V308.489C273.7 309.218 273.11 309.81 272.384 309.81Z" fill="#3A98ED"/>
<path d="M247.368 272.828H278.967V278.111H247.368V272.828ZM284.233 278.111V315.093H278.967V278.111H284.233ZM278.967 320.376H247.368V315.093H278.967V320.376ZM242.102 315.093V278.111H247.368V315.093H242.102ZM247.368 320.376C244.46 320.376 242.102 318.011 242.102 315.093H247.368V320.376ZM284.233 315.093C284.233 318.011 281.875 320.376 278.967 320.376V315.093H284.233ZM278.967 272.828C281.875 272.828 284.233 275.194 284.233 278.111H278.967V272.828ZM247.368 278.111H242.102C242.102 275.194 244.46 272.828 247.368 272.828V278.111ZM260.534 311.882V309.81H265.801V311.882H260.534ZM263.167 307.168H272.384V312.452H263.167V307.168ZM263.167 312.452H253.951V307.168H263.167V312.452ZM250.001 308.489V284.715H255.268V308.489H250.001ZM271.067 308.489V284.715H276.333V308.489H271.067ZM272.384 286.036H253.951V280.753H272.384V286.036ZM300.167 337.547H286.117V332.263H300.167V337.547ZM364.547 355.61H351.904V350.327H364.547V355.61ZM351.904 355.61C343.325 355.61 332.766 353.794 327.239 351.217L327.287 345.638C336.014 348.887 342.489 350.327 351.904 350.327V355.61ZM250.001 284.715C250.001 282.527 251.769 280.753 253.951 280.753V286.036C254.678 286.036 255.268 285.444 255.268 284.715H250.001ZM253.951 312.452C251.769 312.452 250.001 310.678 250.001 308.489H255.268C255.268 307.76 254.678 307.168 253.951 307.168V312.452ZM272.384 307.168C271.657 307.168 271.067 307.76 271.067 308.489H276.333C276.333 310.678 274.565 312.452 272.384 312.452V307.168ZM271.067 284.715C271.067 285.444 271.657 286.036 272.384 286.036V280.753C274.565 280.753 276.333 282.527 276.333 284.715H271.067ZM265.801 311.882C265.801 323.138 274.897 332.263 286.117 332.263V337.547C271.987 337.547 260.534 326.057 260.534 311.882H265.801Z" fill="#3897EE"/>
<path d="M522.539 333.584C522.539 348.173 522.539 360 522.539 360H364.545C364.545 360 364.545 348.173 364.545 333.584L376.61 223.068C376.61 208.479 447.491 34.2699 447.491 34.2699L522.539 33.7656C522.539 33.7656 522.539 45.5923 522.539 60.1813V333.584Z" fill="#444444"/>
<path d="M390.878 339.088C387.969 339.088 385.611 336.746 385.611 333.859V288.898C385.611 286.011 387.969 283.669 390.878 283.669H496.207C499.115 283.669 501.473 286.011 501.473 288.898V333.859C501.473 336.746 499.115 339.088 496.207 339.088H390.878Z" fill="#787878"/>
<path d="M440.221 53.2795H496.984C499.892 53.2795 502.25 55.62 502.25 58.5072V103.469C502.25 106.357 499.892 108.697 496.984 108.697H417.782L440.221 53.2795Z" fill="#787878"/>
<path d="M475.142 305.627C478.05 305.627 480.408 307.969 480.408 310.856C480.408 313.743 478.05 316.084 475.142 316.084C472.234 316.084 469.875 313.743 469.875 310.856C469.875 307.969 472.234 305.627 475.142 305.627Z" fill="#CC0000"/>
<path d="M390.878 262.757C387.969 262.757 385.611 260.417 385.611 257.529V212.567C385.611 209.68 387.969 207.339 390.878 207.339H496.207C499.115 207.339 501.473 209.68 501.473 212.567V257.529C501.473 260.417 499.115 262.757 496.207 262.757H390.878Z" fill="#787878"/>
<path d="M475.142 229.297C478.05 229.297 480.408 231.638 480.408 234.525C480.408 237.412 478.05 239.753 475.142 239.753C472.234 239.753 469.875 237.412 469.875 234.525C469.875 231.638 472.234 229.297 475.142 229.297Z" fill="#FF0000"/>
<path d="M475.142 76.6357C478.05 76.6357 480.408 78.9775 480.408 81.8647C480.408 84.7519 478.05 87.0924 475.142 87.0924C472.234 87.0924 469.875 84.7519 469.875 81.8647C469.875 78.9775 472.234 76.6357 475.142 76.6357Z" fill="#FF0000"/>
<path d="M390.199 186.426C390.199 186.426 396.988 163.933 400.268 154.057C403.035 145.724 408.602 131.009 408.602 131.009H496.208C499.116 131.009 501.474 133.349 501.474 136.236V181.198C501.474 184.086 499.116 186.426 496.208 186.426H390.199Z" fill="#787878"/>
<path d="M475.142 152.967C478.05 152.967 480.408 155.307 480.408 158.194C480.408 161.081 478.05 163.423 475.142 163.423C472.234 163.423 469.875 161.081 469.875 158.194C469.875 155.307 472.234 152.967 475.142 152.967Z" fill="#CC0000"/>
<path d="M300.663 209.241C300.663 209.241 308.917 244.296 325.197 208.738C332.487 190.932 328.099 161.229 320.449 131.999C309.698 90.919 316.132 29.0886 315.863 24.2148C315.585 19.1668 311.389 78.8268 331.563 118.951C353.781 163.141 376.902 209.938 375.591 204.736C370.381 184.07 380.725 124.587 383.902 87.746C388.909 29.6954 359.746 -19.0765 377.205 7.39151C393.108 31.5011 396.761 146.157 409.265 173.858C420.073 197.803 411.246 105.966 411.246 105.966C411.246 105.966 450.467 194.059 452.242 203.878C464.029 269.064 424.042 315.026 371.578 332.75C303.164 355.862 295.861 195.757 284.074 130.571L300.663 209.241Z" fill="#BD0000"/>
<path d="M356.956 323.366C333.01 325.138 300.849 248.393 315.678 229.992C348.112 189.742 336.141 152.041 325.355 127.643C320.489 116.635 317.447 93.2718 317.115 83.5098C316.239 71.6343 321.959 110.738 334.436 134.356C349.146 162.203 368.357 201.472 375.024 223.395C377.322 230.949 387.057 74.4409 390.317 81.8089C392.88 87.6029 387.051 161.046 407.873 184.075C434.966 214.04 413.626 117.346 417.431 128.177C417.431 128.177 511.593 311.919 356.956 323.366Z" fill="#FF8800"/>
<path d="M354.705 300.828C334.414 301.644 314.872 245.529 324.864 233.13C356.581 193.771 350.948 179.401 341.512 157.151C335.059 141.936 367.457 217.843 377.191 235.514C378.739 240.604 388.641 136.089 390.838 141.054C392.565 144.958 394.828 184.823 408.858 200.341C427.114 220.532 425.589 160.68 428.153 167.979C439.525 200.353 452.451 296.893 354.705 300.828Z" fill="#FFD200"/>
</g>
<defs>
<clipPath id="clip0_1_194">
<rect width="523" height="360" fill="white"/>
</clipPath>
</defs>
</svg>
