<svg width="418" height="224" viewBox="0 0 418 224" fill="none" xmlns="http://www.w3.org/2000/svg">
<g clip-path="url(#clip0_1_133)">
<path d="M265.992 223C261.634 223 257.711 222.544 254.443 222.088C248.342 220.948 248.56 212.053 254.879 210.913C258.148 210.229 262.069 210 266.21 210C278.194 210 288 212.965 288 216.614C288 220.264 278.194 223 265.992 223Z" fill="black"/>
<path d="M235.081 224C232.293 224 229.934 223.544 227.79 223.088C223.93 221.947 224.144 213.053 228.004 211.912C230.148 211.228 232.507 211 235.081 211C237.653 211 240.227 211.456 242.157 211.912C246.016 213.053 246.016 222.175 241.728 223.316C240.012 223.544 237.653 224 235.081 224Z" fill="black"/>
<path d="M296.992 202C292.634 202 288.712 201.579 285.443 201.157C279.341 200.105 279.56 191.894 285.879 190.842C289.147 190.21 293.07 190 297.21 190C309.194 190 319 192.737 319 196.105C319 199.473 309.194 202 296.992 202Z" fill="black"/>
<path d="M267.081 204C264.293 204 261.934 203.544 259.79 203.088C255.93 201.947 256.144 193.053 260.004 191.912C262.149 191.229 264.507 191 267.081 191C269.654 191 272.227 191.456 274.157 191.912C278.016 193.053 278.016 202.176 273.728 203.316C272.012 203.772 269.654 204 267.081 204Z" fill="black"/>
<path d="M363.992 223C359.634 223 355.712 222.544 352.443 222.088C346.342 220.948 346.56 212.053 352.879 210.913C356.148 210.229 360.069 210 364.21 210C376.194 210 386 212.965 386 216.614C386 220.264 375.976 223 363.992 223Z" fill="black"/>
<path d="M334.081 224C331.293 224 328.934 223.544 326.79 223.088C322.93 221.947 323.144 213.053 327.004 211.912C329.148 211.228 331.507 211 334.081 211C336.654 211 339.227 211.456 341.157 211.912C345.016 213.053 345.016 222.175 340.728 223.316C338.798 223.544 336.654 224 334.081 224Z" fill="black"/>
<path d="M395.992 202C391.634 202 387.712 201.579 384.443 201.157C378.342 200.105 378.56 191.894 384.879 190.842C388.148 190.21 392.069 190 396.21 190C408.194 190 418 192.737 418 196.105C418 199.473 407.976 202 395.992 202Z" fill="black"/>
<path d="M365.585 204C362.658 204 360.181 203.544 357.929 203.088C353.876 201.947 354.102 193.053 358.154 191.912C360.406 191.229 362.883 191 365.585 191C368.287 191 370.988 191.456 373.015 191.912C377.067 193.053 377.067 202.176 372.565 203.316C370.538 203.772 368.287 204 365.585 204Z" fill="black"/>
<path fill-rule="evenodd" clip-rule="evenodd" d="M39.5394 44.183L59.0463 52.366L65.3872 50.115C86.1964 42.727 112.537 42.889 131.522 50.521L137.499 52.924L157.615 44.493C168.678 39.854 178.763 36.048 180.025 36.03C183.084 35.99 187.64 39.687 188.435 42.855C189.054 45.322 188.352 48.197 182.025 69.099C176.353 87.837 176.401 86.873 180.772 94.708C191.093 113.208 196.891 135.146 197.093 156.459C197.237 171.572 195.645 178.921 190.162 188.473C179.727 206.651 156.268 219.322 126.724 222.74C114.146 224.196 82.8604 224.195 70.2588 222.738C47.8544 220.149 29.5174 212.47 16.5696 200.256C4.33807 188.718 -0.0505666 177.118 0.000438845 156.459C0.0536147 135.302 5.2757 114.253 15.0904 95.637L20.0456 86.239L17.6972 78.212C16.4047 73.797 14.1246 66.033 12.6303 60.96C7.37995 43.137 7.37344 43.024 11.4984 38.442C12.8245 36.969 14.9537 36 16.8648 36C18.6066 36 28.8109 39.682 39.5394 44.183Z" fill="#FF7319"/>
<path d="M71.914 125.45L66.7818 126.732L63.031 128.144C52.6005 132.07 43.1205 138.163 35.2159 146.02L31.2054 151.371C23.2617 161.972 19.0351 173.957 18.9921 186.005C18.9508 197.768 22.5028 204.374 32.4026 210.944C42.8821 217.899 57.7234 222.271 75.8568 223.746C86.0562 224.575 111.378 224.576 121.558 223.747C145.47 221.8 164.457 214.585 172.902 204.235C177.341 198.795 178.629 194.611 178.512 186.005C178.349 173.868 173.656 161.377 165.303 150.842L162.845 148.332C153.664 138.957 142.551 131.694 130.279 127.049L125.441 125.681C110.075 121.335 88.7562 121.243 71.914 125.45Z" fill="white"/>
<path d="M158.951 47.6489L142.345 54.807L148.067 58.1099C153.802 61.4209 169.996 76.595 172.983 81.454C174.495 83.916 174.835 83.118 179.853 65.35C187.887 36.902 186.536 35.7579 158.951 47.6489Z" fill="#77500C"/>
<path d="M13.8437 42.926C12.2549 45.35 12.4893 46.665 17.617 64.075C20.6242 74.283 23.0843 82.931 23.0843 83.291C23.0843 83.65 24.9585 81.58 27.2494 78.691C33.1997 71.189 45.1871 60.269 50.3799 57.62C52.8184 56.375 54.3898 54.998 53.871 54.559C51.6387 52.672 20.7707 40.34 18.2801 40.34C16.5882 40.34 14.8887 41.33 13.8437 42.926Z" fill="#77500C"/>
<path d="M118.968 129.434C123.763 129.434 127.65 125.547 127.65 120.752C127.65 115.957 123.763 112.07 118.968 112.07C114.174 112.07 110.287 115.957 110.287 120.752C110.287 125.547 114.174 129.434 118.968 129.434Z" fill="black"/>
<path d="M158.329 129.434C163.124 129.434 167.011 125.547 167.011 120.752C167.011 115.957 163.124 112.07 158.329 112.07C153.534 112.07 149.647 115.957 149.647 120.752C149.647 125.547 153.534 129.434 158.329 129.434Z" fill="black"/>
<path fill-rule="evenodd" clip-rule="evenodd" d="M141.389 151.89H134.878V163.827H134.87C134.875 163.948 134.877 164.069 134.877 164.191C134.877 169.585 130.504 173.958 125.11 173.958C124.363 173.958 123.636 173.874 122.938 173.715V180.325C123.647 180.42 124.372 180.469 125.108 180.469C130.434 180.469 135.162 177.911 138.132 173.957C141.102 177.911 145.83 180.469 151.156 180.469C151.891 180.469 152.616 180.42 153.326 180.325V173.715C152.627 173.874 151.9 173.958 151.153 173.958C145.841 173.958 141.52 169.718 141.389 164.439V163.943C141.39 163.904 141.391 163.866 141.392 163.827H141.389V151.89Z" fill="black"/>
<path fill-rule="evenodd" clip-rule="evenodd" d="M141.027 142.324C143.504 142.324 146 143.687 146 146.088C146 150.637 142.193 154.324 137.499 154.324C132.805 154.324 129 150.637 129 146.088C129 143.687 131.495 142.324 133.973 142.324H141.027Z" fill="#77500C"/>
<path fill-rule="evenodd" clip-rule="evenodd" d="M132.592 144.865C132.217 145.124 132.133 145.353 132.133 145.592C132.133 148.739 134.752 151.304 137.999 151.304C141.248 151.304 143.867 148.739 143.867 145.592C143.867 145.353 143.783 145.124 143.407 144.865C142.98 144.57 142.284 144.344 141.499 144.344H134.501C133.715 144.344 133.02 144.57 132.592 144.865ZM129.631 140.764C131.056 139.779 132.828 139.324 134.501 139.324H141.499C143.171 139.324 144.943 139.78 146.368 140.764C147.846 141.784 149 143.434 149 145.592C149 151.528 144.066 156.324 137.999 156.324C131.932 156.324 127 151.527 127 145.592C127 143.435 128.154 141.785 129.631 140.764Z" fill="black"/>
<path fill-rule="evenodd" clip-rule="evenodd" d="M103 109.5C103 107.567 104.113 106 105.487 106H128.513C129.887 106 131 107.567 131 109.5C131 111.433 129.887 113 128.513 113H105.487C104.113 113 103 111.433 103 109.5Z" fill="black"/>
<path fill-rule="evenodd" clip-rule="evenodd" d="M175.785 111.209C175.655 111.212 175.526 111.213 175.396 111.213C165.788 111.213 158 103.425 158 93.817C158 93.544 158.006 93.271 158.019 93L164.989 93C164.968 93.271 164.958 93.544 164.958 93.82C164.958 99.584 169.631 104.257 175.395 104.257C175.526 104.257 175.655 104.255 175.785 104.25L175.785 111.209Z" fill="black"/>
<path fill-rule="evenodd" clip-rule="evenodd" d="M131.933 52.4916C138.782 51.3931 170.469 47.9911 180.27 47.6643C186.623 47.3447 197.994 46.4867 198 52.6538C198.086 60.6267 153.413 64.335 153.413 64.335C153.413 64.335 131.78 55.0477 131.933 52.4916Z" fill="#305959"/>
<path fill-rule="evenodd" clip-rule="evenodd" d="M68.0221 63.7008C68.0221 63.7008 57.0753 65.526 52.1287 66.56C47.034 67.6252 37.8853 69.9999 37.8853 69.9999C30.1525 44.2676 46.0287 10.0536 88.8307 4.05627L68.0221 63.7008Z" fill="#68A19A"/>
<path fill-rule="evenodd" clip-rule="evenodd" d="M153.678 64.5156C153.678 64.5156 138.233 60.14 111.652 60.1698C83.4482 60.2018 68.0224 63.7008 68.0224 63.7008C68.0224 63.7008 57.0389 26.2549 88.8309 4.05627C134.756 8.04652 155.803 35.7663 153.678 64.5156Z" fill="#508276"/>
<path d="M94.4395 4.5634C94.5667 6.28936 92.2216 6.87331 89.3174 7.05962C86.4127 7.24597 84.0042 6.96693 83.8774 5.24096C83.7501 3.515 85.1753 1.25593 88.8722 1.01878C92.5691 0.781622 94.3122 2.83745 94.4395 4.5634Z" fill="#281446"/>
<path opacity="0.5" d="M206.486 138.244C206.486 128.176 214.537 120.121 224.601 120.121C234.665 120.121 242.717 128.176 242.717 138.244C242.717 148.313 234.665 156.368 224.601 156.368C214.537 156.368 206.486 148.313 206.486 138.244Z" fill="white"/>
<path fill-rule="evenodd" clip-rule="evenodd" d="M207.607 138.244C207.607 128.795 215.156 121.242 224.601 121.242C234.045 121.242 241.596 128.795 241.596 138.244C241.596 147.694 234.045 155.247 224.601 155.247C215.156 155.247 207.607 147.694 207.607 138.244ZM224.601 119C213.917 119 205.365 127.557 205.365 138.244C205.365 143.526 207.454 148.287 210.856 151.752L183.328 179.292C182.89 179.729 182.891 180.439 183.328 180.877C183.766 181.315 184.476 181.314 184.914 180.877L212.52 153.259C215.814 155.909 220.011 157.489 224.601 157.489C235.284 157.489 243.838 148.931 243.838 138.244C243.838 127.557 235.284 119 224.601 119Z" fill="#7B7B7B"/>
</g>
<defs>
<clipPath id="clip0_1_133">
<rect width="418" height="224" fill="white"/>
</clipPath>
</defs>
</svg>
