<svg width="509" height="280" viewBox="0 0 509 280" fill="none" xmlns="http://www.w3.org/2000/svg">
<g clip-path="url(#clip0_1_455)">
<mask id="mask0_1_455" style="mask-type:luminance" maskUnits="userSpaceOnUse" x="0" y="0" width="509" height="280">
<path d="M509 0H0V280H509V0Z" fill="white"/>
</mask>
<g mask="url(#mask0_1_455)">
<path d="M352.658 121.333H325.76V115.803H352.658V121.333ZM475.915 108.198H451.711V102.667H475.915V108.198ZM451.711 108.198C435.286 108.198 419.098 110.344 404.488 114.46L399.88 109.54C415.917 105.023 433.686 102.667 451.711 102.667V108.198ZM352.658 115.803C369.082 115.803 385.27 113.655 399.88 109.54L404.488 114.46C388.452 118.977 370.683 121.333 352.658 121.333V115.803Z" fill="#3897EE"/>
<path d="M334.243 151.03H106.042C98.0769 151.03 91.6201 157.488 91.6201 165.455C91.6201 173.421 98.0769 179.879 106.042 179.879H334.243C342.208 179.879 348.665 173.421 348.665 165.455C348.665 157.488 342.208 151.03 334.243 151.03Z" fill="#B5B5B5"/>
<path d="M209.962 156.97H159.911C156.865 156.97 154.396 159.439 154.396 162.485C154.396 165.531 156.865 168 159.911 168H209.962C213.008 168 215.476 165.531 215.476 162.485C215.476 159.439 213.008 156.97 209.962 156.97Z" fill="#D9D9D9"/>
<path d="M179.847 137.455V159.515C179.847 162.327 182.126 164.606 184.937 164.606C187.748 164.606 190.027 162.327 190.027 159.515V137.455C190.027 134.643 187.748 132.364 184.937 132.364C182.126 132.364 179.847 134.643 179.847 137.455Z" fill="#D9D9D9"/>
<path d="M268.073 36.4849H101.8C98.9888 36.4849 96.71 38.7641 96.71 41.5758V138.303C96.71 141.115 98.9888 143.394 101.8 143.394H268.073C270.884 143.394 273.163 141.115 273.163 138.303V41.5758C273.163 38.7641 270.884 36.4849 268.073 36.4849Z" fill="#D9D9D9"/>
<path d="M335.94 36.4849H294.371C291.092 36.4849 288.433 39.144 288.433 42.4243V162.061C288.433 165.341 291.092 168 294.371 168H335.94C339.219 168 341.878 165.341 341.878 162.061V42.4243C341.878 39.144 339.219 36.4849 335.94 36.4849Z" fill="#D9D9D9"/>
<path d="M269.497 209.717C269.497 208.464 270.514 207.449 271.77 207.449H299.037C300.292 207.449 301.31 208.464 301.31 209.717V241.458C301.31 242.709 300.292 243.725 299.037 243.725H271.77C270.514 243.725 269.497 242.709 269.497 241.458V209.717Z" fill="#FEFFFF"/>
<path d="M293.356 236.922H285.403H277.45C276.823 236.922 276.314 236.415 276.314 235.789V215.384C276.314 214.758 276.823 214.251 277.45 214.251H293.356C293.983 214.251 294.492 214.758 294.492 215.384V235.789C294.492 236.415 293.983 236.922 293.356 236.922Z" fill="#3A98ED"/>
<path d="M271.77 205.182H299.037V209.717H271.77V205.182ZM303.582 209.717V241.458H299.037V209.717H303.582ZM299.037 245.992H271.77V241.458H299.037V245.992ZM267.225 241.458V209.717H271.77V241.458H267.225ZM271.77 245.992C269.26 245.992 267.225 243.962 267.225 241.458H271.77V245.992ZM303.582 241.458C303.582 243.962 301.547 245.992 299.037 245.992V241.458H303.582ZM299.037 205.182C301.547 205.182 303.582 207.213 303.582 209.717H299.037V205.182ZM271.77 209.717H267.225C267.225 207.213 269.26 205.182 271.77 205.182V209.717ZM283.131 238.702V236.923H287.676V238.702H283.131ZM285.403 234.656H293.356V239.19H285.403V234.656ZM285.403 239.19H277.45V234.656H285.403V239.19ZM274.042 235.79V215.385H278.587V235.79H274.042ZM292.22 235.79V215.385H296.765V235.79H292.22ZM293.356 216.519H277.45V211.984H293.356V216.519ZM317.331 260.729H305.208V256.195H317.331V260.729ZM372.887 249.96H361.977V245.425H372.887V249.96ZM361.977 249.96C354.575 249.96 347.278 251.719 340.692 255.094L338.616 251.061C345.844 247.357 353.853 245.425 361.977 245.425V249.96ZM317.331 256.195C324.734 256.195 332.031 254.434 338.616 251.061L340.692 255.094C333.465 258.797 325.456 260.729 317.331 260.729V256.195ZM274.042 215.385C274.042 213.507 275.568 211.984 277.45 211.984V216.519C278.078 216.519 278.587 216.011 278.587 215.385H274.042ZM277.45 239.19C275.568 239.19 274.042 237.668 274.042 235.79H278.587C278.587 235.164 278.078 234.656 277.45 234.656V239.19ZM293.356 234.656C292.729 234.656 292.22 235.164 292.22 235.79H296.765C296.765 237.668 295.239 239.19 293.356 239.19V234.656ZM292.22 215.385C292.22 216.011 292.729 216.519 293.356 216.519V211.984C295.239 211.984 296.765 213.507 296.765 215.385H292.22ZM287.676 238.702C287.676 248.363 295.526 256.195 305.208 256.195V260.729C293.014 260.729 283.131 250.868 283.131 238.702H287.676Z" fill="#3897EE"/>
<path d="M509.224 257.328C509.224 269.85 509.224 280 509.224 280H372.887C372.887 280 372.887 269.85 372.887 257.328V22.672C372.887 10.1506 372.887 0 372.887 0H509.224C509.224 0 509.224 10.1506 509.224 22.672V257.328Z" fill="#444444"/>
<path d="M395.609 262.051C393.1 262.051 391.064 260.041 391.064 257.563V218.974C391.064 216.496 393.1 214.486 395.609 214.486H486.501C489.01 214.486 491.046 216.496 491.046 218.974V257.563C491.046 260.041 489.01 262.051 486.501 262.051H395.609Z" fill="#787878"/>
<path d="M468.322 233.333C470.833 233.333 472.867 235.343 472.867 237.821C472.867 240.299 470.833 242.308 468.322 242.308C465.813 242.308 463.778 240.299 463.778 237.821C463.778 235.343 465.813 233.333 468.322 233.333Z" fill="#00CC00"/>
<path d="M395.609 196.539C393.1 196.539 391.064 194.53 391.064 192.052V153.462C391.064 150.984 393.1 148.975 395.609 148.975H486.501C489.01 148.975 491.046 150.984 491.046 153.462V192.052C491.046 194.53 489.01 196.539 486.501 196.539H395.609Z" fill="#787878"/>
<path d="M468.322 167.821C470.833 167.821 472.867 169.83 472.867 172.308C472.867 174.786 470.833 176.795 468.322 176.795C465.813 176.795 463.778 174.786 463.778 172.308C463.778 169.829 465.813 167.821 468.322 167.821Z" fill="#FFD600"/>
<path d="M395.609 65.514C393.1 65.514 391.064 63.5041 391.064 61.026V22.4371C391.064 19.959 393.1 17.9491 395.609 17.9491H486.501C489.01 17.9491 491.046 19.959 491.046 22.4371V61.026C491.046 63.5041 489.01 65.514 486.501 65.514H395.609Z" fill="#787878"/>
<path d="M468.322 36.7947C470.833 36.7947 472.867 38.8046 472.867 41.2826C472.867 43.7607 470.833 45.7695 468.322 45.7695C465.813 45.7695 463.778 43.7607 463.778 41.2826C463.778 38.8046 465.813 36.7947 468.322 36.7947Z" fill="#00FF00"/>
<path d="M395.609 131.025C393.1 131.025 391.064 129.016 391.064 126.538V87.948C391.064 85.4704 393.1 83.4614 395.609 83.4614H486.501C489.01 83.4614 491.046 85.4704 491.046 87.948V126.538C491.046 129.016 489.01 131.025 486.501 131.025H395.609Z" fill="#787878"/>
<path d="M468.322 102.307C470.833 102.307 472.867 104.316 472.867 106.794C472.867 109.272 470.833 111.282 468.322 111.282C465.813 111.282 463.778 109.272 463.778 106.794C463.778 104.316 465.813 102.307 468.322 102.307Z" fill="#FF0000"/>
<mask id="mask1_1_455" style="mask-type:alpha" maskUnits="userSpaceOnUse" x="106" y="44" width="158" height="91">
<path d="M106.037 49.1277C106.037 46.7847 107.935 44.8853 110.278 44.8853H259.274C261.618 44.8853 263.516 46.7847 263.516 49.1277V129.897C263.516 132.241 261.618 134.14 259.274 134.14H110.278C107.935 134.14 106.037 132.241 106.037 129.897V49.1277Z" fill="#707070"/>
</mask>
<g mask="url(#mask1_1_455)">
<path d="M106.037 44.8853H263.516V134.14H106.037V44.8853Z" fill="#707070"/>
<path d="M263.516 124.689H106.037V134.14H263.516V124.689Z" fill="#353535"/>
<path d="M117.585 129.415C117.585 127.385 115.94 125.74 113.91 125.74C111.881 125.74 110.236 127.385 110.236 129.415C110.236 131.444 111.881 133.09 113.91 133.09C115.94 133.09 117.585 131.444 117.585 129.415Z" fill="white"/>
<mask id="mask2_1_455" style="mask-type:alpha" maskUnits="userSpaceOnUse" x="120" y="62" width="98" height="60">
<path d="M213.928 62.7362H124.127C122.253 62.7362 120.734 64.2557 120.734 66.1301V118.145C120.734 120.02 122.253 121.539 124.127 121.539H213.928C215.802 121.539 217.322 120.02 217.322 118.145V66.1301C217.322 64.2557 215.802 62.7362 213.928 62.7362Z" fill="white"/>
<path d="M213.928 62.7362H124.127C122.253 62.7362 120.734 64.2557 120.734 66.1301V118.145C120.734 120.02 122.253 121.539 124.127 121.539H213.928C215.802 121.539 217.322 120.02 217.322 118.145V66.1301C217.322 64.2557 215.802 62.7362 213.928 62.7362Z" fill="white"/>
<path d="M213.928 62.7362H124.127C122.253 62.7362 120.734 64.2557 120.734 66.1301V118.145C120.734 120.02 122.253 121.539 124.127 121.539H213.928C215.802 121.539 217.322 120.02 217.322 118.145V66.1301C217.322 64.2557 215.802 62.7362 213.928 62.7362Z" fill="white"/>
</mask>
<g mask="url(#mask2_1_455)">
<path d="M213.928 62.7362H124.127C122.253 62.7362 120.734 64.2557 120.734 66.1301V118.145C120.734 120.02 122.253 121.539 124.127 121.539H213.928C215.802 121.539 217.322 120.02 217.322 118.145V66.1301C217.322 64.2557 215.802 62.7362 213.928 62.7362Z" fill="white"/>
<path d="M213.928 62.7362H124.127C122.253 62.7362 120.734 64.2557 120.734 66.1301V118.145C120.734 120.02 122.253 121.539 124.127 121.539H213.928C215.802 121.539 217.322 120.02 217.322 118.145V66.1301C217.322 64.2557 215.802 62.7362 213.928 62.7362Z" fill="white"/>
<path d="M213.928 62.7362H124.127C122.253 62.7362 120.734 64.2557 120.734 66.1301V118.145C120.734 120.02 122.253 121.539 124.127 121.539H213.928C215.802 121.539 217.322 120.02 217.322 118.145V66.1301C217.322 64.2557 215.802 62.7362 213.928 62.7362Z" fill="black"/>
<path d="M217.322 62.7362H120.734V70.0866H217.322V62.7362Z" fill="white"/>
<path d="M217.322 62.7362H120.734V70.0866H217.322V62.7362Z" fill="white"/>
<path d="M217.322 62.7362H120.734V70.0866H217.322V62.7362Z" fill="#3A36FF"/>
<path d="M209.973 66.4113C209.973 64.9615 211.148 63.7862 212.597 63.7862C214.047 63.7862 215.222 64.9615 215.222 66.4113C215.222 67.8612 214.047 69.0365 212.597 69.0365C211.148 69.0365 209.973 67.8612 209.973 66.4113Z" fill="#FF7B7B"/>
<path d="M209.973 66.4113C209.973 64.9615 211.148 63.7862 212.597 63.7862C214.047 63.7862 215.222 64.9615 215.222 66.4113C215.222 67.8612 214.047 69.0365 212.597 69.0365C211.148 69.0365 209.973 67.8612 209.973 66.4113Z" fill="#FF7B7B"/>
<path d="M209.973 66.4113C209.973 64.9615 211.148 63.7862 212.597 63.7862C214.047 63.7862 215.222 64.9615 215.222 66.4113C215.222 67.8612 214.047 69.0365 212.597 69.0365C211.148 69.0365 209.973 67.8612 209.973 66.4113Z" fill="#FF7B7B"/>
<path d="M209.973 66.4113C209.973 64.9615 211.148 63.7862 212.597 63.7862C214.047 63.7862 215.222 64.9615 215.222 66.4113C215.222 67.8612 214.047 69.0365 212.597 69.0365C211.148 69.0365 209.973 67.8612 209.973 66.4113Z" fill="#FF7B7B"/>
<path d="M202.624 66.4113C202.624 64.9615 203.798 63.7862 205.248 63.7862C206.698 63.7862 207.873 64.9615 207.873 66.4113C207.873 67.8612 206.698 69.0365 205.248 69.0365C203.798 69.0365 202.624 67.8612 202.624 66.4113Z" fill="#FF7B7B"/>
<path d="M202.624 66.4113C202.624 64.9615 203.798 63.7862 205.248 63.7862C206.698 63.7862 207.873 64.9615 207.873 66.4113C207.873 67.8612 206.698 69.0365 205.248 69.0365C203.798 69.0365 202.624 67.8612 202.624 66.4113Z" fill="#FF7B7B"/>
<path d="M202.624 66.4113C202.624 64.9615 203.798 63.7862 205.248 63.7862C206.698 63.7862 207.873 64.9615 207.873 66.4113C207.873 67.8612 206.698 69.0365 205.248 69.0365C203.798 69.0365 202.624 67.8612 202.624 66.4113Z" fill="#FF7B7B"/>
<path d="M202.624 66.4113C202.624 64.9615 203.798 63.7862 205.248 63.7862C206.698 63.7862 207.873 64.9615 207.873 66.4113C207.873 67.8612 206.698 69.0365 205.248 69.0365C203.798 69.0365 202.624 67.8612 202.624 66.4113Z" fill="white"/>
<path d="M177.112 114.189C178.561 114.189 179.736 113.014 179.736 111.564C179.736 110.114 178.561 108.939 177.112 108.939H160.314C158.864 108.939 157.689 110.114 157.689 111.564C157.689 113.014 158.864 114.189 160.314 114.189H177.112Z" fill="#2EFF36"/>
<path d="M169.553 72.1866H125.459C124.589 72.1866 123.884 72.8918 123.884 73.7617V73.7617C123.884 74.6316 124.589 75.3368 125.459 75.3368H169.553C170.423 75.3368 171.128 74.6316 171.128 73.7617C171.128 72.8918 170.423 72.1866 169.553 72.1866Z" fill="#42FF00"/>
<path d="M169.553 72.1866H125.459C124.589 72.1866 123.884 72.8918 123.884 73.7617V73.7617C123.884 74.6316 124.589 75.3368 125.459 75.3368H169.553C170.423 75.3368 171.128 74.6316 171.128 73.7617C171.128 72.8918 170.423 72.1866 169.553 72.1866Z" fill="#42FF00"/>
<path d="M169.553 72.1866H125.459C124.589 72.1866 123.884 72.8918 123.884 73.7617V73.7617C123.884 74.6316 124.589 75.3368 125.459 75.3368H169.553C170.423 75.3368 171.128 74.6316 171.128 73.7617C171.128 72.8918 170.423 72.1866 169.553 72.1866Z" fill="#42FF00"/>
<path d="M152.755 77.437H125.459C124.589 77.437 123.884 78.1421 123.884 79.012V79.012C123.884 79.8819 124.589 80.5871 125.459 80.5871H152.755C153.625 80.5871 154.33 79.8819 154.33 79.012C154.33 78.1421 153.625 77.437 152.755 77.437Z" fill="#42FF00"/>
<path d="M152.755 77.437H125.459C124.589 77.437 123.884 78.1421 123.884 79.012V79.012C123.884 79.8819 124.589 80.5871 125.459 80.5871H152.755C153.625 80.5871 154.33 79.8819 154.33 79.012C154.33 78.1421 153.625 77.437 152.755 77.437Z" fill="#42FF00"/>
<path d="M152.755 77.437H125.459C124.589 77.437 123.884 78.1421 123.884 79.012V79.012C123.884 79.8819 124.589 80.5871 125.459 80.5871H152.755C153.625 80.5871 154.33 79.8819 154.33 79.012C154.33 78.1421 153.625 77.437 152.755 77.437Z" fill="#42FF00"/>
<path d="M172.703 82.6872H125.459C124.589 82.6872 123.884 83.3924 123.884 84.2623V84.2623C123.884 85.1322 124.589 85.8374 125.459 85.8374H172.703C173.572 85.8374 174.277 85.1322 174.277 84.2623C174.277 83.3924 173.572 82.6872 172.703 82.6872Z" fill="#42FF00"/>
<path d="M172.703 82.6872H125.459C124.589 82.6872 123.884 83.3924 123.884 84.2623V84.2623C123.884 85.1322 124.589 85.8374 125.459 85.8374H172.703C173.572 85.8374 174.277 85.1322 174.277 84.2623C174.277 83.3924 173.572 82.6872 172.703 82.6872Z" fill="#42FF00"/>
<path d="M172.703 82.6872H125.459C124.589 82.6872 123.884 83.3924 123.884 84.2623V84.2623C123.884 85.1322 124.589 85.8374 125.459 85.8374H172.703C173.572 85.8374 174.277 85.1322 174.277 84.2623C174.277 83.3924 173.572 82.6872 172.703 82.6872Z" fill="#42FF00"/>
<path d="M134.907 87.9378H125.459C124.589 87.9378 123.884 88.643 123.884 89.5129V89.5129C123.884 90.3828 124.589 91.088 125.459 91.088H134.907C135.777 91.088 136.482 90.3828 136.482 89.5129V89.5129C136.482 88.643 135.777 87.9378 134.907 87.9378Z" fill="#42FF00"/>
<path d="M134.907 87.9378H125.459C124.589 87.9378 123.884 88.643 123.884 89.5129V89.5129C123.884 90.3828 124.589 91.088 125.459 91.088H134.907C135.777 91.088 136.482 90.3828 136.482 89.5129V89.5129C136.482 88.643 135.777 87.9378 134.907 87.9378Z" fill="#42FF00"/>
<path d="M134.907 87.9378H125.459C124.589 87.9378 123.884 88.643 123.884 89.5129V89.5129C123.884 90.3828 124.589 91.088 125.459 91.088H134.907C135.777 91.088 136.482 90.3828 136.482 89.5129V89.5129C136.482 88.643 135.777 87.9378 134.907 87.9378Z" fill="#42FF00"/>
<path d="M154.855 93.1874H125.459C124.589 93.1874 123.884 93.8926 123.884 94.7625V94.7625C123.884 95.6324 124.589 96.3375 125.459 96.3375H154.855C155.725 96.3375 156.43 95.6324 156.43 94.7625C156.43 93.8926 155.725 93.1874 154.855 93.1874Z" fill="#42FF00"/>
<path d="M154.855 93.1874H125.459C124.589 93.1874 123.884 93.8926 123.884 94.7625V94.7625C123.884 95.6324 124.589 96.3375 125.459 96.3375H154.855C155.725 96.3375 156.43 95.6324 156.43 94.7625C156.43 93.8926 155.725 93.1874 154.855 93.1874Z" fill="#42FF00"/>
<path d="M154.855 93.1874H125.459C124.589 93.1874 123.884 93.8926 123.884 94.7625V94.7625C123.884 95.6324 124.589 96.3375 125.459 96.3375H154.855C155.725 96.3375 156.43 95.6324 156.43 94.7625C156.43 93.8926 155.725 93.1874 154.855 93.1874Z" fill="#42FF00"/>
<path d="M177.952 98.4378H125.459C124.589 98.4378 123.884 99.143 123.884 100.013V100.013C123.884 100.883 124.589 101.588 125.459 101.588H177.952C178.822 101.588 179.527 100.883 179.527 100.013C179.527 99.143 178.822 98.4378 177.952 98.4378Z" fill="#42FF00"/>
<path d="M177.952 98.4378H125.459C124.589 98.4378 123.884 99.143 123.884 100.013V100.013C123.884 100.883 124.589 101.588 125.459 101.588H177.952C178.822 101.588 179.527 100.883 179.527 100.013C179.527 99.143 178.822 98.4378 177.952 98.4378Z" fill="#42FF00"/>
<path d="M177.952 98.4378H125.459C124.589 98.4378 123.884 99.143 123.884 100.013V100.013C123.884 100.883 124.589 101.588 125.459 101.588H177.952C178.822 101.588 179.527 100.883 179.527 100.013C179.527 99.143 178.822 98.4378 177.952 98.4378Z" fill="#42FF00"/>
<path d="M177.952 103.688H125.459C124.589 103.688 123.884 104.393 123.884 105.263V105.263C123.884 106.133 124.589 106.838 125.459 106.838H177.952C178.822 106.838 179.527 106.133 179.527 105.263C179.527 104.393 178.822 103.688 177.952 103.688Z" fill="#42FF00"/>
<path d="M177.952 103.688H125.459C124.589 103.688 123.884 104.393 123.884 105.263V105.263C123.884 106.133 124.589 106.838 125.459 106.838H177.952C178.822 106.838 179.527 106.133 179.527 105.263C179.527 104.393 178.822 103.688 177.952 103.688Z" fill="#42FF00"/>
<path d="M177.952 103.688H125.459C124.589 103.688 123.884 104.393 123.884 105.263V105.263C123.884 106.133 124.589 106.838 125.459 106.838H177.952C178.822 106.838 179.527 106.133 179.527 105.263C179.527 104.393 178.822 103.688 177.952 103.688Z" fill="#42FF00"/>
</g>
<mask id="mask3_1_455" style="mask-type:alpha" maskUnits="userSpaceOnUse" x="158" y="53" width="98" height="60">
<path d="M251.724 53.286H161.923C160.049 53.286 158.53 54.8055 158.53 56.68V108.695C158.53 110.569 160.049 112.089 161.923 112.089H251.724C253.598 112.089 255.118 110.569 255.118 108.695V56.68C255.118 54.8055 253.598 53.286 251.724 53.286Z" fill="white"/>
<path d="M251.724 53.286H161.923C160.049 53.286 158.53 54.8055 158.53 56.68V108.695C158.53 110.569 160.049 112.089 161.923 112.089H251.724C253.598 112.089 255.118 110.569 255.118 108.695V56.68C255.118 54.8055 253.598 53.286 251.724 53.286Z" fill="white"/>
<path d="M251.724 53.286H161.923C160.049 53.286 158.53 54.8055 158.53 56.68V108.695C158.53 110.569 160.049 112.089 161.923 112.089H251.724C253.598 112.089 255.118 110.569 255.118 108.695V56.68C255.118 54.8055 253.598 53.286 251.724 53.286Z" fill="white"/>
</mask>
<g mask="url(#mask3_1_455)">
<path d="M251.724 53.286H161.923C160.049 53.286 158.53 54.8055 158.53 56.68V108.695C158.53 110.569 160.049 112.089 161.923 112.089H251.724C253.598 112.089 255.118 110.569 255.118 108.695V56.68C255.118 54.8055 253.598 53.286 251.724 53.286Z" fill="white"/>
<path d="M251.724 53.286H161.923C160.049 53.286 158.53 54.8055 158.53 56.68V108.695C158.53 110.569 160.049 112.089 161.923 112.089H251.724C253.598 112.089 255.118 110.569 255.118 108.695V56.68C255.118 54.8055 253.598 53.286 251.724 53.286Z" fill="white"/>
<path d="M251.724 53.286H161.923C160.049 53.286 158.53 54.8055 158.53 56.68V108.695C158.53 110.569 160.049 112.089 161.923 112.089H251.724C253.598 112.089 255.118 110.569 255.118 108.695V56.68C255.118 54.8055 253.598 53.286 251.724 53.286Z" fill="white"/>
<path d="M255.118 53.286H158.53V60.6364H255.118V53.286Z" fill="white"/>
<path d="M255.118 53.286H158.53V60.6364H255.118V53.286Z" fill="white"/>
<path d="M255.118 53.286H158.53V60.6364H255.118V53.286Z" fill="#3A36FF"/>
<path d="M247.769 56.9611C247.769 55.5113 248.943 54.336 250.392 54.336C251.842 54.336 253.017 55.5113 253.017 56.9611C253.017 58.411 251.842 59.5863 250.392 59.5863C248.943 59.5863 247.769 58.411 247.769 56.9611Z" fill="#FF7B7B"/>
<path d="M247.769 56.9611C247.769 55.5113 248.943 54.336 250.392 54.336C251.842 54.336 253.017 55.5113 253.017 56.9611C253.017 58.411 251.842 59.5863 250.392 59.5863C248.943 59.5863 247.769 58.411 247.769 56.9611Z" fill="#FF7B7B"/>
<path d="M247.769 56.9611C247.769 55.5113 248.943 54.336 250.392 54.336C251.842 54.336 253.017 55.5113 253.017 56.9611C253.017 58.411 251.842 59.5863 250.392 59.5863C248.943 59.5863 247.769 58.411 247.769 56.9611Z" fill="#FF7B7B"/>
<path d="M247.769 56.9611C247.769 55.5113 248.943 54.336 250.392 54.336C251.842 54.336 253.017 55.5113 253.017 56.9611C253.017 58.411 251.842 59.5863 250.392 59.5863C248.943 59.5863 247.769 58.411 247.769 56.9611Z" fill="#FF7B7B"/>
<path d="M210.387 63.6367H163.728C162.791 63.6367 162.032 64.3964 162.032 65.3336C162.032 66.2708 162.791 67.0306 163.728 67.0306H210.387C211.324 67.0306 212.083 66.2708 212.083 65.3336C212.083 64.3964 211.324 63.6367 210.387 63.6367Z" fill="#D9D9D9"/>
<path d="M193.42 70.4246H163.728C162.791 70.4246 162.032 71.1843 162.032 72.1215C162.032 73.0587 162.791 73.8185 163.728 73.8185H193.42C194.357 73.8185 195.117 73.0587 195.117 72.1215C195.117 71.1843 194.357 70.4246 193.42 70.4246Z" fill="#D9D9D9"/>
<path d="M195.117 77.2124H163.728C162.791 77.2124 162.032 77.9722 162.032 78.9094C162.032 79.8466 162.791 80.6063 163.728 80.6063H195.117C196.054 80.6063 196.813 79.8466 196.813 78.9094C196.813 77.9722 196.054 77.2124 195.117 77.2124Z" fill="#D9D9D9"/>
<path d="M218.022 84.8484H163.728C162.791 84.8484 162.032 85.6082 162.032 86.5454C162.032 87.4826 162.791 88.2424 163.728 88.2424H218.022C218.959 88.2424 219.718 87.4826 219.718 86.5454C219.718 85.6082 218.959 84.8484 218.022 84.8484Z" fill="#D9D9D9"/>
<path d="M210.387 90.7878H163.728C162.791 90.7878 162.032 91.5476 162.032 92.4848C162.032 93.422 162.791 94.1818 163.728 94.1818H210.387C211.324 94.1818 212.083 93.422 212.083 92.4848C212.083 91.5476 211.324 90.7878 210.387 90.7878Z" fill="#D9D9D9"/>
<path d="M217.173 97.5757H163.728C162.791 97.5757 162.032 98.3355 162.032 99.2727C162.032 100.21 162.791 100.97 163.728 100.97H217.173C218.11 100.97 218.87 100.21 218.87 99.2727C218.87 98.3355 218.11 97.5757 217.173 97.5757Z" fill="#D9D9D9"/>
<path d="M217.173 104.364H163.728C162.791 104.364 162.032 105.123 162.032 106.061C162.032 106.998 162.791 107.758 163.728 107.758H217.173C218.11 107.758 218.87 106.998 218.87 106.061C218.87 105.123 218.11 104.364 217.173 104.364Z" fill="#D9D9D9"/>
<path d="M240.419 56.9611C240.419 55.5113 241.594 54.336 243.044 54.336C244.493 54.336 245.668 55.5113 245.668 56.9611C245.668 58.411 244.493 59.5863 243.044 59.5863C241.594 59.5863 240.419 58.411 240.419 56.9611Z" fill="#FF7B7B"/>
<path d="M240.419 56.9611C240.419 55.5113 241.594 54.336 243.044 54.336C244.493 54.336 245.668 55.5113 245.668 56.9611C245.668 58.411 244.493 59.5863 243.044 59.5863C241.594 59.5863 240.419 58.411 240.419 56.9611Z" fill="#FF7B7B"/>
<path d="M240.419 56.9611C240.419 55.5113 241.594 54.336 243.044 54.336C244.493 54.336 245.668 55.5113 245.668 56.9611C245.668 58.411 244.493 59.5863 243.044 59.5863C241.594 59.5863 240.419 58.411 240.419 56.9611Z" fill="#FF7B7B"/>
<path d="M240.419 56.9611C240.419 55.5113 241.594 54.336 243.044 54.336C244.493 54.336 245.668 55.5113 245.668 56.9611C245.668 58.411 244.493 59.5863 243.044 59.5863C241.594 59.5863 240.419 58.411 240.419 56.9611Z" fill="white"/>
<path d="M237.534 68.3033C237.534 66.6632 236.204 65.3336 234.564 65.3336C232.925 65.3336 231.595 66.6632 231.595 68.3033V86.97C231.595 88.6101 232.925 89.9397 234.564 89.9397C236.204 89.9397 237.534 88.6101 237.534 86.97V68.3033Z" fill="#2EFF36"/>
<path d="M243.896 107.758C245.536 107.758 246.865 106.428 246.865 104.788C246.865 103.148 245.536 101.818 243.896 101.818H225.233C223.593 101.818 222.264 103.148 222.264 104.788C222.264 106.428 223.593 107.758 225.233 107.758H243.896Z" fill="#2EFF36"/>
</g>
<path fill-rule="evenodd" clip-rule="evenodd" d="M225.228 83.6669C224.085 84.8104 224.085 86.6642 225.228 87.808L232.45 95.0303C233.06 95.6412 233.874 95.9254 234.673 95.8847C235.472 95.9254 236.285 95.6412 236.895 95.0303L244.117 87.808C245.26 86.6642 245.26 84.8104 244.117 83.6669C242.974 82.5234 241.12 82.5233 239.977 83.6669L234.673 88.9721L229.369 83.6669C228.225 82.5233 226.372 82.5234 225.228 83.6669Z" fill="#2EFF36"/>
</g>
<path fill-rule="evenodd" clip-rule="evenodd" d="M39.4817 100.655L58.9605 108.823L65.2925 106.577C86.071 99.2015 112.374 99.3627 131.33 106.982L137.299 109.38L157.385 100.964C168.431 96.3327 178.502 92.5324 179.761 92.5154C182.817 92.4747 187.366 96.1656 188.159 99.3287C188.777 101.791 188.076 104.661 181.759 125.528C176.096 144.234 176.144 143.273 180.508 151.094C190.814 169.564 196.604 191.464 196.805 212.742C196.949 227.828 195.36 235.165 189.884 244.701C179.465 262.848 156.04 275.498 126.539 278.911C113.979 280.363 82.7402 280.363 70.1562 278.908C47.7844 276.324 29.4748 268.658 16.5456 256.464C4.33219 244.945 -0.0500954 233.365 0.000431313 212.742C0.0537765 191.62 5.26842 170.606 15.0689 152.021L20.0168 142.64L17.6713 134.625C16.3813 130.219 14.1046 122.468 12.6125 117.403C7.36973 99.6096 7.36273 99.4976 11.4825 94.9226C12.8062 93.4521 14.9328 92.4849 16.8403 92.4849C18.5795 92.4849 28.7688 96.1605 39.4817 100.655Z" fill="#FF7319"/>
</g>
</g>
<defs>
<clipPath id="clip0_1_455">
<rect width="509" height="280" fill="white"/>
</clipPath>
</defs>
</svg>
