<svg width="478" height="454" viewBox="0 0 478 454" fill="none" xmlns="http://www.w3.org/2000/svg">
<g clip-path="url(#clip0_1_412)">
<mask id="mask0_1_412" style="mask-type:luminance" maskUnits="userSpaceOnUse" x="0" y="0" width="478" height="454">
<path d="M478 0H0V454H478V0Z" fill="white"/>
</mask>
<g mask="url(#mask0_1_412)">
<path d="M336.226 146.81C338.122 144.153 337.262 140.881 334.305 139.5C331.348 138.119 327.413 139.153 325.516 141.81L109.701 444.079C107.805 446.735 108.665 450.008 111.622 451.388C114.579 452.769 118.514 451.735 120.411 449.079L336.226 146.81Z" fill="#8A6849"/>
<path d="M229.959 146.81C231.855 144.153 230.995 140.881 228.038 139.5C225.081 138.119 221.146 139.153 219.249 141.81L3.43404 444.079C1.5375 446.735 2.3975 450.008 5.35491 451.388C8.31232 452.769 12.2472 451.735 14.1438 449.079L229.959 146.81Z" fill="#8A6849"/>
<path d="M132.322 413.992H29.6797V421.992H132.322V413.992Z" fill="#8A6849"/>
<path d="M157.055 383.992H54.4131V391.992H157.055V383.992Z" fill="#8A6849"/>
<path d="M178.078 353.992H75.436V361.992H178.078V353.992Z" fill="#8A6849"/>
<path d="M196.628 323.992H93.9858V331.992H196.628V323.992Z" fill="#8A6849"/>
<path d="M217.651 293.992H115.009V301.992H217.651V293.992Z" fill="#8A6849"/>
<path d="M239.911 263.992H137.269V271.992H239.911V263.992Z" fill="#8A6849"/>
<path d="M259.697 233.992H157.055V241.992H259.697V233.992Z" fill="#8A6849"/>
<path d="M284.43 196H181.788V204H284.43V196Z" fill="#8A6849"/>
<path d="M306.69 166H204.048V174H306.69V166Z" fill="#8A6849"/>
<path d="M325.24 136H222.598V144H325.24V136Z" fill="#8A6849"/>
<path d="M251 381H216V420H251V381Z" fill="white"/>
<path d="M242 389H223V413H242V389Z" fill="#3897EE"/>
<path d="M216.357 377H248.5V382.344H216.357V377ZM253.857 382.344V419.753H248.5V382.344H253.857ZM248.5 425.097H216.357V419.753H248.5V425.097ZM211 419.753V382.344H216.357V419.753H211ZM216.357 425.097C213.399 425.097 211 422.704 211 419.753H216.357V425.097ZM253.857 419.753C253.857 422.704 251.458 425.097 248.5 425.097V419.753H253.857ZM248.5 377C251.458 377 253.857 379.393 253.857 382.344H248.5V377ZM216.357 382.344H211C211 379.393 213.399 377 216.357 377V382.344ZM229.75 416.505V414.409H235.107V416.505H229.75ZM232.428 411.737H241.803V417.081H232.428V411.737ZM232.428 417.081H223.053V411.737H232.428V417.081ZM219.036 413.073V389.024H224.393V413.073H219.036ZM240.464 413.073V389.024H245.821V413.073H240.464ZM241.803 390.36H223.053V385.016H241.803V390.36ZM270.064 442.466H255.773V437.121H270.064V442.466ZM335.552 429.773H322.692V424.429H335.552V429.773ZM322.692 429.773C313.966 429.773 305.365 431.847 297.603 435.824L295.154 431.071C303.675 426.706 313.115 424.429 322.692 424.429V429.773ZM270.064 437.121C278.791 437.121 287.392 435.047 295.154 431.071L297.603 435.824C289.082 440.189 279.642 442.466 270.064 442.466V437.121ZM219.036 389.024C219.036 386.811 220.834 385.016 223.053 385.016V390.36C223.793 390.36 224.393 389.762 224.393 389.024H219.036ZM223.053 417.081C220.834 417.081 219.036 415.287 219.036 413.073H224.393C224.393 412.335 223.793 411.737 223.053 411.737V417.081ZM241.803 411.737C241.064 411.737 240.464 412.335 240.464 413.073H245.821C245.821 415.287 244.022 417.081 241.803 417.081V411.737ZM240.464 389.024C240.464 389.762 241.064 390.36 241.803 390.36V385.016C244.022 385.016 245.821 386.811 245.821 389.024H240.464ZM235.107 416.505C235.107 427.891 244.36 437.121 255.773 437.121V442.466C241.4 442.466 229.75 430.844 229.75 416.505H235.107Z" fill="#3897EE"/>
<path d="M478 420.559C478 439.028 478 454 478 454H317C317 454 317 439.028 317 420.559V74.4413C317 55.9722 317 41 317 41H478C478 41 478 55.9722 478 74.4413V420.559Z" fill="#444444"/>
<path d="M344.073 432.846C341.114 432.846 338.716 430.477 338.716 427.556V382.076C338.716 379.156 341.114 376.787 344.073 376.787H451.214C454.173 376.787 456.572 379.156 456.572 382.076V427.556C456.572 430.477 454.173 432.846 451.214 432.846H344.073Z" fill="#787878"/>
<path d="M429.786 399C432.745 399 435.143 401.369 435.143 404.289C435.143 407.21 432.745 409.577 429.786 409.577C426.828 409.577 424.429 407.21 424.429 404.289C424.429 401.369 426.828 399 429.786 399Z" fill="#24FF00"/>
<path d="M344.073 355.635C341.114 355.635 338.716 353.268 338.716 350.347V304.866C338.716 301.946 341.114 299.578 344.073 299.578H451.214C454.173 299.578 456.572 301.946 456.572 304.866V350.347C456.572 353.268 454.173 355.635 451.214 355.635H344.073Z" fill="#787878"/>
<path d="M429.786 321.789C432.745 321.789 435.143 324.157 435.143 327.077C435.143 329.998 432.745 332.365 429.786 332.365C426.828 332.365 424.429 329.998 424.429 327.077C424.429 324.156 426.828 321.789 429.786 321.789Z" fill="#FFE600"/>
<path d="M344.073 201.213C341.114 201.213 338.716 198.844 338.716 195.924V150.444C338.716 147.523 341.114 145.154 344.073 145.154H451.214C454.173 145.154 456.572 147.523 456.572 150.444V195.924C456.572 198.844 454.173 201.213 451.214 201.213H344.073Z" fill="#787878"/>
<path d="M344.073 121.213C341.114 121.213 338.716 118.844 338.716 115.924V70.4437C338.716 67.5231 341.114 65.1543 344.073 65.1543H451.214C454.173 65.1543 456.572 67.5231 456.572 70.4437V115.924C456.572 118.844 454.173 121.213 451.214 121.213H344.073Z" fill="#2E2E2E"/>
<path d="M429.786 167.365C432.745 167.365 435.143 169.734 435.143 172.655C435.143 175.575 432.745 177.943 429.786 177.943C426.828 177.943 424.429 175.575 424.429 172.655C424.429 169.734 426.828 167.365 429.786 167.365Z" fill="#24FF00"/>
<path d="M344.073 278.422C341.114 278.422 338.716 276.055 338.716 273.134V227.653C338.716 224.733 341.114 222.365 344.073 222.365H451.214C454.173 222.365 456.572 224.733 456.572 227.653V273.134C456.572 276.055 454.173 278.422 451.214 278.422H344.073Z" fill="#787878"/>
<path d="M429.786 244.576C432.745 244.576 435.143 246.944 435.143 249.864C435.143 252.785 432.745 255.154 429.786 255.154C426.828 255.154 424.429 252.785 424.429 249.864C424.429 246.944 426.828 244.576 429.786 244.576Z" fill="#FF0000"/>
<path d="M292.25 123.801C289.295 123.954 286.777 121.714 286.626 118.797L284.274 73.3766C284.123 70.46 286.396 67.9716 289.35 67.8186L396.348 62.2765C399.303 62.1234 401.821 64.3636 401.972 67.2803L404.324 112.701C404.475 115.617 402.202 118.106 399.248 118.259L292.25 123.801Z" fill="#787878"/>
<path d="M376.098 85.5666C379.052 85.4136 381.57 87.6538 381.721 90.5705C381.872 93.4871 379.599 95.9768 376.645 96.1299C373.69 96.2829 371.172 94.0413 371.021 91.1247C370.87 88.208 373.143 85.7197 376.098 85.5666Z" fill="#2E2E2E"/>
</g>
<path fill-rule="evenodd" clip-rule="evenodd" d="M127.065 64.3305L148.145 66.0874L153.481 61.9877C170.99 48.5329 196.092 40.5501 216.506 41.9442L222.933 42.3833L239.461 28.1506C248.55 20.321 256.966 13.5858 258.161 13.1788C261.058 12.1958 266.533 14.3046 268.268 17.0721C269.618 19.2272 269.839 22.1785 270.278 44.0126C270.672 63.5863 270.42 62.6547 276.997 68.7562C292.528 83.1631 304.82 102.237 311.596 122.445C316.401 136.775 317.157 144.256 314.893 155.035C310.584 175.547 292.186 194.845 265.143 207.222C253.63 212.493 223.874 222.156 211.439 224.663C189.33 229.122 169.518 227.483 153.431 219.866C138.233 212.67 130.476 202.994 124.143 183.329C117.658 163.191 116.122 141.558 119.706 120.82L121.516 110.351L116.803 103.442C114.209 99.6426 109.642 92.9627 106.654 88.5994C96.1548 73.27 96.1137 73.1645 98.6215 67.5324C99.4278 65.7218 101.153 64.1424 102.971 63.5521C104.628 63.014 115.47 63.3637 127.065 64.3305Z" fill="#FF7319"/>
<path d="M182.96 131.622L178.475 134.427L175.343 136.928C166.636 143.884 159.502 152.608 154.411 162.522L152.249 168.85C147.969 181.387 147.651 194.091 151.332 205.563C154.927 216.764 160.346 221.949 171.791 225.14C183.906 228.518 199.372 228.091 217.074 223.892C227.031 221.53 251.115 213.709 260.541 209.776C282.682 200.537 298.511 187.81 303.346 175.357C305.887 168.812 305.82 164.435 303.05 156.286C299.146 144.793 290.824 134.363 279.625 126.923L276.512 125.295C264.884 119.215 252.071 115.74 238.964 115.113L233.94 115.307C217.983 115.92 197.679 122.418 182.96 131.622Z" fill="white"/>
<path d="M241.707 30.7394L228.124 42.6771L234.586 44.051C241.064 45.4284 261.153 54.8578 265.495 58.5565C267.694 60.431 267.77 59.567 267.054 41.1179C265.908 11.5795 264.269 10.9087 241.707 30.7394Z" fill="#77500C"/>
<path d="M102.237 71.0725C101.475 73.8688 102.104 75.0471 112.359 90.0216C118.373 98.8014 123.384 106.266 123.495 106.609C123.606 106.95 124.749 104.403 126.036 100.947C129.377 91.974 137.405 77.885 141.526 73.7615C143.46 71.8241 144.53 70.029 143.9 69.7718C141.194 68.6666 108.027 66.4732 105.658 67.2426C104.049 67.7652 102.738 69.2318 102.237 71.0725Z" fill="#77500C"/>
<path fill-rule="evenodd" clip-rule="evenodd" d="M103.728 157.954C108.638 155.726 114.612 156.462 118.875 160.307C123.139 164.148 124.493 170.019 122.792 175.137L140.984 191.535C145.894 189.307 151.867 190.043 156.132 193.886C160.395 197.728 161.749 203.599 160.048 208.718L151.555 201.062L144.693 202.411L144.068 209.382L152.561 217.038C147.651 219.264 141.677 218.529 137.414 214.686C133.151 210.843 131.796 204.974 133.497 199.855L115.305 183.457C110.396 185.685 104.421 184.948 100.158 181.106C95.895 177.262 94.5403 171.393 96.241 166.273L104.734 173.929L111.596 172.58L112.22 165.609L103.728 157.954Z" fill="#787878"/>
<path d="M234.52 39.4763C238.551 51.8875 212.651 45.1179 182.585 54.8835C162.483 61.4123 142.874 89.7637 131.271 86.1371C125.518 84.3386 124.095 57.0951 126.09 53.2599C134.679 36.7499 140.412 28.2475 170.937 20.0206C183.343 16.6773 198.617 13.1931 209.022 16.9202C227.001 23.3589 232.191 32.3075 234.52 39.4763Z" fill="#EC8E00"/>
<path d="M234.486 36.1375C235.087 37.105 237.013 41.2419 235.065 43.6238C228.992 51.0503 206.256 55.771 184.675 69.2055C156.172 86.9502 131.057 98.1048 128.58 94.1216C127.708 92.7189 124.116 87.2362 128.386 83.0427C136.239 75.3273 158.115 65.5261 177.839 56.3606C212.968 40.0377 232.008 32.1544 234.486 36.1375Z" fill="#FF9900"/>
<path d="M190.614 38.1484C191.665 41.3833 197.204 49.0922 197.197 51.9156C197.186 57.0928 190.44 56.5534 187.347 57.5581C184.816 58.3802 182.112 62.8015 179.45 59.9966C177.084 57.5014 174.699 48.0863 173.298 43.7724C171.683 38.7997 155.415 27.7845 156.234 24.1551C156.925 21.0951 169.16 18.0004 171.348 17.2897C176.129 15.7368 187.637 28.9821 190.614 38.1484Z" fill="#FF9900"/>
<path d="M226.439 103.819C231.199 103.242 234.59 98.9149 234.012 94.155C233.434 89.3951 229.107 86.0047 224.348 86.5824C219.588 87.1601 216.197 91.487 216.775 96.2469C217.353 101.007 221.68 104.397 226.439 103.819Z" fill="black"/>
<path d="M265.513 99.0774C270.273 98.4997 273.663 94.1728 273.086 89.4129C272.508 84.653 268.181 81.2627 263.421 81.8403C258.661 82.418 255.271 86.7449 255.849 91.5048C256.426 96.2647 260.753 99.6551 265.513 99.0774Z" fill="black"/>
<path fill-rule="evenodd" clip-rule="evenodd" d="M249.89 113.958C252.349 113.66 254.991 114.713 255.28 117.096C255.828 121.612 252.494 125.73 247.834 126.296C243.174 126.861 238.952 123.66 238.404 119.144C238.115 116.761 240.428 115.107 242.888 114.808L249.89 113.958Z" fill="#77500C"/>
<path fill-rule="evenodd" clip-rule="evenodd" d="M241.823 117.497C241.482 117.799 241.426 118.037 241.455 118.274C241.834 121.398 244.743 123.629 247.967 123.237C251.191 122.846 253.482 119.984 253.103 116.861C253.075 116.623 252.963 116.406 252.559 116.194C252.099 115.952 251.382 115.812 250.602 115.907L243.655 116.75C242.875 116.845 242.212 117.152 241.823 117.497ZM238.389 113.783C239.686 112.633 241.39 111.968 243.05 111.766L249.997 110.923C251.658 110.722 253.471 110.96 255.005 111.766C256.594 112.601 257.939 114.1 258.199 116.242C258.914 122.134 254.594 127.49 248.571 128.221C242.549 128.952 237.074 124.785 236.359 118.893C236.099 116.751 237.046 114.974 238.389 113.783Z" fill="black"/>
<path fill-rule="evenodd" clip-rule="evenodd" d="M251.626 125.911L245.229 126.688L246.063 133.562C246.703 139.496 243.016 144.789 237.766 145.426C232.466 146.069 227.82 143.709 227.091 137.707C227.064 137.483 226.884 137.316 226.686 137.34L221.008 138.029C220.808 138.054 220.667 138.253 220.694 138.48C221.909 148.485 229.813 153.742 238.645 152.67C243.877 152.035 248.178 148.626 250.562 143.873C254.013 147.918 259.004 150.199 264.236 149.564C273.069 148.492 279.486 141.498 278.272 131.492C278.244 131.265 278.06 131.105 277.859 131.13L272.18 131.819C271.982 131.843 271.847 132.048 271.874 132.272C272.603 138.274 268.656 141.677 263.357 142.32C258.057 142.963 253.17 138.618 252.442 132.616L252.441 132.613C252.442 132.623 252.44 132.601 252.441 132.613L251.626 125.911Z" fill="black"/>
</g>
<defs>
<clipPath id="clip0_1_412">
<rect width="478" height="454" fill="white"/>
</clipPath>
</defs>
</svg>
