<svg width="527" height="328" viewBox="0 0 527 328" fill="none" xmlns="http://www.w3.org/2000/svg">
<g clip-path="url(#clip0_1_163)">
<path d="M246.754 245.668C246.754 244.201 247.941 243.012 249.407 243.012H281.248C282.714 243.012 283.901 244.201 283.901 245.668V282.85C283.901 284.316 282.714 285.506 281.248 285.506H249.407C247.941 285.506 246.754 284.316 246.754 282.85V245.668Z" fill="#FEFFFF"/>
<path d="M274.614 277.538H265.328H256.041C255.308 277.538 254.714 276.944 254.714 276.211V252.308C254.714 251.575 255.308 250.98 256.041 250.98H274.614C275.347 250.98 275.941 251.575 275.941 252.308V276.211C275.941 276.944 275.347 277.538 274.614 277.538Z" fill="#3A98ED"/>
<path d="M249.408 240.356H281.249V245.668H249.408V240.356ZM286.555 245.668V282.85H281.249V245.668H286.555ZM281.249 288.162H249.408V282.85H281.249V288.162ZM244.102 282.85V245.668H249.408V282.85H244.102ZM249.408 288.162C246.478 288.162 244.102 285.784 244.102 282.85H249.408V288.162ZM286.555 282.85C286.555 285.784 284.179 288.162 281.249 288.162V282.85H286.555ZM281.249 240.356C284.179 240.356 286.555 242.735 286.555 245.668H281.249V240.356ZM249.408 245.668H244.102C244.102 242.735 246.478 240.356 249.408 240.356V245.668ZM262.675 279.622V277.538H267.982V279.622H262.675ZM265.328 274.883H274.615V280.194H265.328V274.883ZM265.328 280.194H256.042V274.883H265.328V280.194ZM252.062 276.21V252.308H257.368V276.21H252.062ZM273.289 276.21V252.308H278.595V276.21H273.289ZM274.615 253.636H256.042V248.324H274.615V253.636ZM302.611 305.425H288.454V300.113H302.611V305.425ZM367.483 292.81H354.744V287.498H367.483V292.81ZM354.744 292.81C346.1 292.81 337.58 294.871 329.89 298.824L327.465 294.099C335.905 289.761 345.257 287.498 354.744 287.498V292.81ZM302.611 300.113C311.256 300.113 319.775 298.051 327.465 294.099L329.89 298.824C321.45 303.162 312.098 305.425 302.611 305.425V300.113ZM252.062 252.308C252.062 250.107 253.843 248.324 256.042 248.324V253.636C256.774 253.636 257.368 253.041 257.368 252.308H252.062ZM256.042 280.194C253.843 280.194 252.062 278.411 252.062 276.21H257.368C257.368 275.477 256.774 274.883 256.042 274.883V280.194ZM274.615 274.883C273.883 274.883 273.289 275.477 273.289 276.21H278.595C278.595 278.411 276.814 280.194 274.615 280.194V274.883ZM273.289 252.308C273.289 253.041 273.883 253.636 274.615 253.636V248.324C276.814 248.324 278.595 250.107 278.595 252.308H273.289ZM267.982 279.622C267.982 290.939 277.148 300.113 288.454 300.113V305.425C274.216 305.425 262.675 293.873 262.675 279.622H267.982Z" fill="#3897EE"/>
<path d="M526.684 301.441C526.684 316.109 526.684 328 526.684 328H367.482C367.482 328 367.482 316.109 367.482 301.441V26.5587C367.482 11.8907 367.482 0 367.482 0H526.684C526.684 0 526.684 11.8907 526.684 26.5587V301.441Z" fill="#444444"/>
<path d="M394.016 306.975C391.085 306.975 388.709 304.62 388.709 301.718V256.513C388.709 253.61 391.085 251.256 394.016 251.256H500.15C503.081 251.256 505.457 253.61 505.457 256.513V301.718C505.457 304.62 503.081 306.975 500.15 306.975H394.016Z" fill="#787878"/>
<path d="M478.924 273.333C481.855 273.333 484.231 275.687 484.231 278.59C484.231 281.493 481.855 283.846 478.924 283.846C475.994 283.846 473.618 281.493 473.618 278.59C473.618 275.687 475.994 273.333 478.924 273.333Z" fill="#00CC00"/>
<path d="M394.016 230.231C391.085 230.231 388.709 227.878 388.709 224.975V179.769C388.709 176.866 391.085 174.513 394.016 174.513H500.15C503.081 174.513 505.457 176.866 505.457 179.769V224.975C505.457 227.878 503.081 230.231 500.15 230.231H394.016Z" fill="#787878"/>
<path d="M478.924 196.59C481.855 196.59 484.231 198.943 484.231 201.846C484.231 204.749 481.855 207.102 478.924 207.102C475.994 207.102 473.618 204.749 473.618 201.846C473.618 198.943 475.994 196.59 478.924 196.59Z" fill="#FFD600"/>
<path d="M394.016 76.744C391.085 76.744 388.709 74.3895 388.709 71.4867V26.2825C388.709 23.3796 391.085 21.0251 394.016 21.0251H500.15C503.081 21.0251 505.457 23.3796 505.457 26.2825V71.4867C505.457 74.3895 503.081 76.744 500.15 76.744H394.016Z" fill="#787878"/>
<path d="M478.924 43.1022C481.855 43.1022 484.231 45.4566 484.231 48.3594C484.231 51.2623 481.855 53.6154 478.924 53.6154C475.994 53.6154 473.618 51.2623 473.618 48.3594C473.618 45.4566 475.994 43.1022 478.924 43.1022Z" fill="#00FF00"/>
<path d="M394.016 153.487C391.085 153.487 388.709 151.134 388.709 148.231V103.025C388.709 100.122 391.085 97.7692 394.016 97.7692H500.15C503.081 97.7692 505.457 100.122 505.457 103.025V148.231C505.457 151.134 503.081 153.487 500.15 153.487H394.016Z" fill="#787878"/>
<path d="M478.924 119.846C481.855 119.846 484.231 122.199 484.231 125.102C484.231 128.005 481.855 130.359 478.924 130.359C475.994 130.359 473.618 128.005 473.618 125.102C473.618 122.199 475.994 119.846 478.924 119.846Z" fill="#FF0000"/>
<path fill-rule="evenodd" clip-rule="evenodd" d="M66.5394 148.183L86.0463 156.366L92.3872 154.115C113.196 146.727 139.537 146.889 158.522 154.521L164.499 156.924L184.615 148.493C195.678 143.854 205.763 140.048 207.025 140.03C210.084 139.99 214.64 143.687 215.435 146.855C216.054 149.322 215.352 152.197 209.025 173.099C203.353 191.837 203.401 190.873 207.772 198.708C218.093 217.208 223.891 239.146 224.093 260.459C224.237 275.572 222.645 282.921 217.162 292.473C206.727 310.651 183.268 323.322 153.724 326.74C141.146 328.196 109.86 328.195 97.2588 326.738C74.8544 324.149 56.5174 316.47 43.5696 304.256C31.3381 292.718 26.9494 281.118 27.0004 260.459C27.0536 239.302 32.2757 218.253 42.0904 199.637L47.0456 190.239L44.6972 182.212C43.4047 177.797 41.1246 170.033 39.6303 164.96C34.3799 147.137 34.3734 147.024 38.4984 142.442C39.8245 140.969 41.9537 140 43.8648 140C45.6066 140 55.8109 143.682 66.5394 148.183Z" fill="#FF7319"/>
<path d="M98.914 229.45L93.7818 230.732L90.031 232.144C79.6005 236.07 70.1205 242.163 62.2159 250.02L58.2054 255.371C50.2617 265.972 46.0351 277.957 45.9921 290.005C45.9508 301.768 49.5028 308.374 59.4026 314.944C69.8821 321.899 84.7234 326.271 102.857 327.746C113.056 328.575 138.378 328.576 148.558 327.747C172.47 325.8 191.457 318.585 199.902 308.235C204.341 302.795 205.629 298.611 205.512 290.005C205.349 277.868 200.656 265.377 192.303 254.842L189.845 252.332C180.664 242.957 169.551 235.694 157.279 231.049L152.441 229.681C137.075 225.335 115.756 225.243 98.914 229.45Z" fill="white"/>
<path d="M185.951 151.649L169.345 158.807L175.067 162.11C180.802 165.421 196.996 180.595 199.983 185.454C201.495 187.916 201.835 187.118 206.853 169.35C214.887 140.902 213.536 139.758 185.951 151.649Z" fill="#77500C"/>
<path d="M40.8437 146.926C39.2549 149.35 39.4893 150.665 44.617 168.075C47.6242 178.283 50.0843 186.931 50.0843 187.291C50.0843 187.65 51.9585 185.58 54.2494 182.691C60.1997 175.189 72.1871 164.269 77.3799 161.62C79.8184 160.375 81.3898 158.998 80.871 158.559C78.6387 156.672 47.7707 144.34 45.2801 144.34C43.5882 144.34 41.8887 145.33 40.8437 146.926Z" fill="#77500C"/>
<path d="M141.682 220.364C146.477 220.364 150.364 216.477 150.364 211.682C150.364 206.887 146.477 203 141.682 203C136.887 203 133 206.887 133 211.682C133 216.477 136.887 220.364 141.682 220.364Z" fill="black"/>
<path d="M181.042 220.364C185.837 220.364 189.724 216.477 189.724 211.682C189.724 206.887 185.837 203 181.042 203C176.247 203 172.36 206.887 172.36 211.682C172.36 216.477 176.247 220.364 181.042 220.364Z" fill="black"/>
<path fill-rule="evenodd" clip-rule="evenodd" d="M164.102 242.82H157.591V254.757H157.584C157.588 254.878 157.59 254.999 157.59 255.121C157.59 260.515 153.217 264.888 147.823 264.888C147.077 264.888 146.35 264.804 145.651 264.645V271.255C146.361 271.35 147.085 271.399 147.821 271.399C153.147 271.399 157.875 268.841 160.845 264.887C163.815 268.841 168.543 271.399 173.869 271.399C174.604 271.399 175.329 271.35 176.039 271.255V264.645C175.34 264.804 174.613 264.888 173.866 264.888C168.554 264.888 164.233 260.648 164.102 255.369V254.873C164.103 254.834 164.104 254.796 164.105 254.757H164.102V242.82Z" fill="black"/>
<path fill-rule="evenodd" clip-rule="evenodd" d="M163.74 233.254C166.217 233.254 168.713 234.617 168.713 237.018C168.713 241.567 164.907 245.254 160.213 245.254C155.519 245.254 151.713 241.567 151.713 237.018C151.713 234.617 154.209 233.254 156.687 233.254H163.74Z" fill="#77500C"/>
<path fill-rule="evenodd" clip-rule="evenodd" d="M155.306 235.794C154.931 236.054 154.846 236.283 154.846 236.522C154.846 239.669 157.465 242.233 160.713 242.233C163.961 242.233 166.58 239.669 166.58 236.522C166.58 236.283 166.496 236.054 166.121 235.795C165.693 235.499 164.998 235.274 164.212 235.274H157.214C156.428 235.274 155.733 235.499 155.306 235.794ZM152.344 231.694C153.77 230.709 155.542 230.254 157.214 230.254H164.212C165.885 230.254 167.656 230.709 169.082 231.694C170.559 232.714 171.713 234.364 171.713 236.522C171.713 242.458 166.779 247.254 160.713 247.254C154.646 247.254 149.713 242.457 149.713 236.522C149.713 234.364 150.867 232.714 152.344 231.694Z" fill="black"/>
<path fill-rule="evenodd" clip-rule="evenodd" d="M15.4228 230.019C20.7815 229.417 26.2353 231.962 29.1027 236.935C31.9716 241.906 31.4457 247.908 28.2466 252.25L40.483 273.466C45.8417 272.864 51.2954 275.409 54.1642 280.381C57.0317 285.352 56.5058 291.354 53.3068 295.697L47.5943 285.793L40.6509 284.956L37.9037 291.393L43.6162 301.298C38.2589 301.899 32.8038 299.354 29.9364 294.381C27.0689 289.41 27.5935 283.409 30.7924 279.066L18.5561 257.851C13.1988 258.453 7.74367 255.907 4.87621 250.936C2.00876 245.962 2.53329 239.962 5.73225 235.618L11.4448 245.523L18.3882 246.36L21.1354 239.922L15.4228 230.019Z" fill="#787878"/>
<path d="M176.417 157.738C176.417 170.788 153.875 156.349 122.263 156.349C101.128 156.349 73.7196 177.256 63.8043 170.223C58.8882 166.735 65.9502 140.384 69.0327 137.353C82.3015 124.303 90.3809 117.988 121.954 119.593C134.786 120.245 150.389 121.65 159.134 128.409C174.245 140.087 176.417 150.201 176.417 157.738Z" fill="#EC8E00"/>
<path d="M177.416 154.552C177.689 155.658 178.242 160.188 175.654 161.851C167.584 167.039 144.502 164.505 119.826 170.616C87.2357 178.688 59.9034 181.539 58.7778 176.985C58.3814 175.382 56.6595 169.058 62.0155 166.388C71.868 161.476 95.7017 158.912 117.292 156.288C155.746 151.615 176.289 149.999 177.416 154.552Z" fill="#FF9900"/>
<path d="M135.069 142.912C135.069 146.314 137.955 155.357 137.077 158.04C135.467 162.96 129.218 160.364 125.966 160.364C123.304 160.364 119.367 163.733 117.702 160.243C116.223 157.139 116.862 147.448 116.862 142.912C116.862 137.684 104.793 122.182 106.693 118.983C108.296 116.286 120.888 117.122 123.188 117.122C128.215 117.122 135.069 133.275 135.069 142.912Z" fill="#FF9900"/>
</g>
<defs>
<clipPath id="clip0_1_163">
<rect width="527" height="328" fill="white"/>
</clipPath>
</defs>
</svg>
