<svg width="347" height="353" viewBox="0 0 347 353" fill="none" xmlns="http://www.w3.org/2000/svg">
<g clip-path="url(#clip0_1_341)">
<path fill-rule="evenodd" clip-rule="evenodd" d="M39.5394 173.183L59.0463 181.366L65.3872 179.115C86.1964 171.727 112.537 171.889 131.522 179.521L137.499 181.924L157.615 173.493C168.678 168.854 178.763 165.048 180.025 165.03C183.084 164.99 187.64 168.687 188.435 171.855C189.054 174.322 188.352 177.197 182.025 198.099C176.353 216.837 176.401 215.873 180.772 223.708C191.093 242.208 196.891 264.146 197.093 285.459C197.237 300.572 195.645 307.921 190.162 317.473C179.727 335.651 156.268 348.322 126.724 351.74C114.146 353.196 82.8604 353.195 70.2588 351.738C47.8544 349.149 29.5174 341.47 16.5696 329.256C4.33807 317.718 -0.0505666 306.118 0.000438845 285.459C0.0536147 264.302 5.2757 243.253 15.0904 224.637L20.0456 215.239L17.6972 207.212C16.4047 202.797 14.1246 195.033 12.6303 189.96C7.37995 172.137 7.37344 172.024 11.4984 167.442C12.8245 165.969 14.9537 165 16.8648 165C18.6066 165 28.8109 168.682 39.5394 173.183Z" fill="#FF7319"/>
<path d="M71.914 254.45L66.7818 255.732L63.031 257.144C52.6005 261.07 43.1205 267.163 35.2159 275.02L31.2054 280.371C23.2617 290.972 19.0351 302.957 18.9921 315.005C18.9508 326.768 22.5028 333.374 32.4026 339.944C42.8821 346.899 57.7235 351.271 75.8568 352.746C86.0562 353.575 111.378 353.576 121.558 352.747C145.47 350.8 164.457 343.585 172.902 333.235C177.341 327.795 178.629 323.611 178.512 315.005C178.349 302.868 173.656 290.377 165.303 279.842L162.845 277.332C153.664 267.957 142.551 260.694 130.279 256.049L125.441 254.681C110.075 250.335 88.7562 250.243 71.914 254.45Z" fill="white"/>
<path d="M158.951 176.649L142.345 183.807L148.067 187.11C153.802 190.421 169.996 205.595 172.983 210.454C174.495 212.916 174.835 212.118 179.853 194.35C187.887 165.902 186.536 164.758 158.951 176.649Z" fill="#77500C"/>
<path d="M13.8437 171.926C12.2549 174.35 12.4893 175.665 17.617 193.075C20.6242 203.283 23.0843 211.931 23.0843 212.291C23.0843 212.65 24.9585 210.58 27.2494 207.691C33.1997 200.189 45.1871 189.269 50.3799 186.62C52.8184 185.375 54.3898 183.998 53.871 183.559C51.6387 181.672 20.7707 169.34 18.2801 169.34C16.5882 169.34 14.8887 170.33 13.8437 171.926Z" fill="#77500C"/>
<path d="M79.6818 247.688C84.4766 247.688 88.3636 243.801 88.3636 239.006C88.3636 234.211 84.4766 230.324 79.6818 230.324C74.887 230.324 71 234.211 71 239.006C71 243.801 74.887 247.688 79.6818 247.688Z" fill="black"/>
<path d="M119.042 247.688C123.837 247.688 127.724 243.801 127.724 239.006C127.724 234.211 123.837 230.324 119.042 230.324C114.248 230.324 110.361 234.211 110.361 239.006C110.361 243.801 114.248 247.688 119.042 247.688Z" fill="black"/>
<path fill-rule="evenodd" clip-rule="evenodd" d="M102.102 270.144H95.5909V282.081H95.5837C95.5881 282.202 95.5904 282.323 95.5904 282.445C95.5904 287.839 91.2175 292.212 85.8234 292.212C85.0767 292.212 84.3496 292.128 83.6509 291.969V298.579C84.3609 298.674 85.0854 298.723 85.8213 298.723C91.147 298.723 95.8754 296.165 98.8452 292.211C101.815 296.165 106.543 298.723 111.869 298.723C112.604 298.723 113.329 298.674 114.039 298.579V291.969C113.34 292.128 112.613 292.212 111.866 292.212C106.554 292.212 102.233 287.972 102.102 282.693V282.197C102.103 282.158 102.104 282.12 102.105 282.081H102.102V270.144Z" fill="black"/>
<path fill-rule="evenodd" clip-rule="evenodd" d="M101.74 260.578C104.217 260.578 106.713 261.941 106.713 264.342C106.713 268.891 102.907 272.578 98.2128 272.578C93.5188 272.578 89.7134 268.891 89.7134 264.342C89.7134 261.941 92.2087 260.578 94.6868 260.578H101.74Z" fill="#77500C"/>
<path fill-rule="evenodd" clip-rule="evenodd" d="M93.3058 263.118C92.9307 263.378 92.8464 263.607 92.8464 263.846C92.8464 266.993 95.4651 269.557 98.7128 269.557C101.961 269.557 104.58 266.993 104.58 263.846C104.58 263.607 104.496 263.378 104.121 263.119C103.693 262.823 102.998 262.598 102.212 262.598H95.2144C94.4284 262.598 93.733 262.823 93.3058 263.118ZM90.3445 259.018C91.7698 258.033 93.5416 257.578 95.2144 257.578H102.212C103.885 257.578 105.656 258.033 107.082 259.018C108.559 260.038 109.713 261.688 109.713 263.846C109.713 269.782 104.779 274.578 98.7128 274.578C92.6459 274.578 87.7134 269.781 87.7134 263.846C87.7134 261.688 88.867 260.038 90.3445 259.018Z" fill="black"/>
<path d="M241.036 111.443L254.614 115.082L192.763 345.914L179.184 342.275L241.036 111.443Z" fill="#787878"/>
<path d="M336.8 36.0975L214.501 3.32769C209.167 1.89827 203.683 5.0641 202.254 10.3988L166.757 142.875C165.328 148.209 168.493 153.693 173.828 155.122L296.127 187.892C301.461 189.321 306.945 186.155 308.374 180.821L343.871 48.345C345.3 43.0103 342.135 37.527 336.8 36.0975Z" fill="white"/>
<path d="M223.968 23.5338C224.112 23.5725 224.212 23.6544 224.267 23.7795C224.348 23.8895 224.369 24.0167 224.33 24.1609L219.452 42.3667C219.413 42.5109 219.329 42.6208 219.198 42.6962C219.067 42.7716 218.94 42.7928 218.817 42.7596L216.406 42.1136C216.261 42.075 216.152 41.9903 216.076 41.8597C216.001 41.729 215.982 41.5916 216.021 41.4473L218.365 32.6999C215.357 37.0842 213.508 39.7802 212.819 40.788C212.675 40.9926 212.491 41.0645 212.264 41.0038L209.358 40.2253C209.111 40.159 208.977 40.0015 208.955 39.7527L208.196 29.9751L205.852 38.7225C205.813 38.8667 205.729 38.9766 205.598 39.052C205.467 39.1274 205.33 39.1458 205.186 39.1072L202.806 38.4694C202.661 38.4308 202.551 38.3461 202.476 38.2155C202.401 38.0849 202.382 37.9474 202.421 37.8032L207.299 19.5974C207.338 19.4532 207.42 19.3536 207.545 19.2988C207.675 19.2234 207.813 19.205 207.957 19.2436L210.584 19.9476C210.832 20.0139 210.966 20.1714 210.988 20.4202L212.186 35.4835C217.003 28.4699 219.849 24.3184 220.724 23.0291C220.868 22.8245 221.063 22.7553 221.31 22.8216L223.968 23.5338ZM240.58 47.8292C240.592 48.0312 240.528 48.1905 240.386 48.3072C240.244 48.4238 240.081 48.4573 239.895 48.4076L237.33 47.7201C237.103 47.6594 236.979 47.5047 236.957 47.2559L236.462 42.5514L228.982 40.5471C227.583 42.4693 226.656 43.7449 226.201 44.3737C226.057 44.5783 225.872 44.6502 225.646 44.5895L223.08 43.902C222.895 43.8524 222.77 43.7416 222.706 43.5697C222.641 43.3979 222.665 43.2275 222.776 43.0586C223.438 42.1538 225.441 39.3776 228.785 34.7299C232.154 30.0671 234.096 27.396 234.609 26.7163C234.747 26.5324 234.929 26.4707 235.156 26.5315L238.123 27.3266C238.35 27.3873 238.477 27.5317 238.504 27.7599C238.584 28.5323 238.92 31.7696 239.512 37.4719C240.105 43.1742 240.461 46.6266 240.58 47.8292ZM231.199 37.464L236.083 38.7726L235.355 31.72L231.199 37.464ZM254.546 42.0633C256.168 47.1361 257.26 50.5647 257.82 52.349C257.873 52.5621 257.823 52.7476 257.67 52.9054C257.544 53.0482 257.377 53.092 257.171 53.0367L254.328 52.2748C254.142 52.2251 254.02 52.104 253.961 51.9116L251.684 44.7087C251.337 45.0134 250.901 45.4045 250.376 45.8821C249.871 46.3652 249.106 47.0768 248.081 48.0169C247.082 48.9419 246.436 49.5417 246.141 49.8162C245.994 49.9534 245.828 49.9972 245.642 49.9475L242.798 49.1855C242.592 49.1303 242.46 49.0065 242.401 48.814C242.348 48.6009 242.405 48.4285 242.573 48.2968L250.497 40.9784C248.886 35.8644 247.803 32.4049 247.248 30.6C247.169 30.402 247.203 30.2344 247.35 30.0971C247.503 29.9393 247.682 29.8879 247.888 29.9432L250.732 30.7051C250.917 30.7548 251.042 30.8656 251.107 31.0374L253.398 38.3104C256.421 35.5203 258.284 33.7999 258.989 33.1494C259.13 33.0328 259.294 32.9993 259.479 33.049L262.323 33.811C262.529 33.8662 262.648 33.9975 262.681 34.2051C262.74 34.3976 262.696 34.5624 262.549 34.6996L254.546 42.0633ZM269.228 35.6611C269.372 35.6997 269.482 35.7844 269.557 35.915C269.638 36.025 269.659 36.1522 269.621 36.2964L264.742 54.5022C264.704 54.6464 264.619 54.7563 264.488 54.8317C264.358 54.9071 264.22 54.9255 264.076 54.8868L261.696 54.2491C261.634 54.2326 261.575 54.2057 261.519 54.1685C261.483 54.1369 261.448 54.1052 261.412 54.0736C261.382 54.0213 261.351 53.9691 261.321 53.9168C261.312 53.8701 261.302 53.8233 261.293 53.7766C261.289 53.7093 261.295 53.6447 261.311 53.5829L266.19 35.3771C266.228 35.2328 266.31 35.1333 266.435 35.0785C266.566 35.0031 266.703 34.9847 266.848 35.0233L269.228 35.6611ZM290.889 41.4651C291.033 41.5038 291.133 41.5857 291.187 41.7108C291.268 41.8208 291.289 41.948 291.251 42.0922L286.373 60.298C286.334 60.4422 286.249 60.5521 286.119 60.6275C285.988 60.7029 285.861 60.7241 285.737 60.6909L283.326 60.0449C283.182 60.0063 283.072 59.9216 282.997 59.791C282.921 59.6603 282.903 59.5229 282.942 59.3787L285.285 50.6312C282.278 55.0155 280.429 57.7115 279.739 58.7193C279.596 58.9239 279.411 58.9958 279.184 58.9351L276.279 58.1566C276.032 58.0903 275.897 57.9328 275.875 57.6841L275.116 47.9064L272.772 56.6538C272.734 56.7981 272.649 56.9079 272.518 56.9833C272.388 57.0587 272.25 57.0771 272.106 57.0385L269.726 56.4007C269.582 56.3621 269.472 56.2774 269.397 56.1468C269.321 56.0162 269.303 55.8787 269.341 55.7345L274.22 37.5287C274.258 37.3845 274.34 37.2849 274.465 37.2301C274.596 37.1547 274.733 37.1363 274.878 37.175L277.505 37.8789C277.752 37.9452 277.887 38.1027 277.908 38.3515L279.106 53.4148C283.923 46.4012 286.769 42.2497 287.645 40.9604C287.788 40.7558 287.983 40.6866 288.231 40.7529L290.889 41.4651ZM311.009 46.8563C311.153 46.895 311.263 46.9796 311.339 47.1103C311.419 47.2203 311.441 47.3474 311.402 47.4917L308.097 59.8246C307.611 61.638 306.437 63.0129 304.574 63.9492C302.716 64.8649 300.705 65.0329 298.542 64.4532C296.399 63.879 294.752 62.7309 293.601 61.009C292.455 59.2665 292.126 57.4886 292.612 55.6752L295.916 43.3423C295.955 43.1981 296.037 43.0985 296.162 43.0437C296.293 42.9683 296.43 42.9499 296.574 42.9885L298.954 43.6263C299.098 43.6649 299.208 43.7496 299.284 43.8802C299.365 43.9902 299.386 44.1174 299.347 44.2616L296.043 56.5946C295.794 57.5219 296.007 58.4181 296.68 59.2833C297.36 60.1278 298.287 60.7075 299.461 61.0222C300.656 61.3425 301.759 61.3067 302.77 60.9149C303.786 60.5025 304.418 59.8326 304.666 58.9053L307.971 46.5724C308.01 46.4281 308.092 46.3286 308.217 46.2738C308.347 46.1983 308.485 46.18 308.629 46.2186L311.009 46.8563ZM332.725 52.6752C332.87 52.7139 332.969 52.7958 333.024 52.9209C333.105 53.0309 333.126 53.1581 333.087 53.3023L328.209 71.5081C328.171 71.6523 328.086 71.7622 327.955 71.8376C327.825 71.913 327.698 71.9342 327.574 71.901L325.163 71.255C325.019 71.2164 324.909 71.1317 324.833 71.0011C324.758 70.8704 324.74 70.733 324.778 70.5888L327.122 61.8413C324.114 66.2256 322.265 68.9216 321.576 69.9294C321.433 70.134 321.248 70.2059 321.021 70.1452L318.116 69.3667C317.868 69.3004 317.734 69.1429 317.712 68.8942L316.953 59.1165L314.609 67.8639C314.57 68.0082 314.486 68.118 314.355 68.1934C314.224 68.2688 314.087 68.2872 313.943 68.2486L311.563 67.6108C311.418 67.5722 311.309 67.4875 311.233 67.3569C311.158 67.2263 311.139 67.0888 311.178 66.9446L316.056 48.7388C316.095 48.5946 316.177 48.495 316.302 48.4402C316.433 48.3648 316.57 48.3464 316.714 48.3851L319.342 49.089C319.589 49.1553 319.723 49.3128 319.745 49.5616L320.943 64.6249C325.76 57.6113 328.606 53.4598 329.482 52.1705C329.625 51.9659 329.82 51.8967 330.067 51.963L332.725 52.6752ZM247.407 91.264C248.914 95.0476 249.008 99.398 247.691 104.315C246.559 108.538 243.796 112.008 239.402 114.726C235.007 117.443 230.485 118.179 225.835 116.934C223.43 116.289 221.171 115.311 219.059 114.001C216.947 112.69 215.206 111.278 213.835 109.766C212.479 108.199 211.408 106.852 210.622 105.725C209.85 104.544 209.184 103.392 208.626 102.269C208.43 101.93 208.41 101.581 208.563 101.221C208.731 100.808 209.004 100.537 209.382 100.409C210.976 99.8051 212.982 99.0537 215.4 98.1548C216.17 97.8456 216.744 98.0566 217.121 98.7877C219.656 103.649 223.356 106.731 228.219 108.034C230.464 108.636 232.651 108.277 234.781 106.957C236.964 105.651 238.327 103.983 238.872 101.952C239.659 99.0125 239.653 96.5763 238.854 94.6435C237.965 92.4004 235.868 90.6069 232.562 89.2627C229.256 87.9186 225.584 87.1924 221.545 87.0842C221.264 87.066 221.023 87.0016 220.824 86.8908C220.664 86.8479 220.411 86.7228 220.065 86.5157C219.72 86.3085 219.374 86.1014 219.029 85.8942C218.683 85.6871 218.284 85.4656 217.832 85.2299C217.433 85.0084 217.087 84.8012 216.795 84.6084C216.503 84.4156 216.286 84.1569 216.144 83.8324C216.07 83.4687 216.102 83.1337 216.241 82.8274C216.492 82.3215 217.944 79.3595 220.599 73.9413C223.254 68.5232 224.915 65.1016 225.583 63.6767C225.93 63.0248 226.45 62.792 227.145 62.9782L254.484 70.3035C254.858 70.4038 255.143 70.6233 255.339 70.9622C255.549 71.2476 255.603 71.5773 255.503 71.9515L253.828 78.2049C253.727 78.579 253.508 78.8639 253.169 79.0595C252.844 79.2017 252.495 79.2227 252.121 79.1224L231.036 73.4727L228.533 78.6451C231.33 79.1082 233.835 79.808 236.047 80.7446C241.726 83.0682 245.513 86.5747 247.407 91.264ZM294.553 106.475C294.424 106.956 294.317 107.357 294.231 107.677C294.116 108.105 294.009 108.506 293.908 108.88C291.044 119.569 286.754 126.067 281.037 128.374C280.01 128.786 278.959 129.077 277.882 129.247C276.805 129.417 275.617 129.47 274.316 129.408C273.068 129.36 271.769 129.184 270.419 128.88L270.178 128.815C266.305 127.663 263.324 125.747 261.235 123.068C257.384 118.198 256.891 110.418 259.755 99.7285C259.855 99.3543 259.963 98.9535 260.077 98.5259C260.206 98.0448 260.314 97.644 260.4 97.3233C263.278 86.5803 267.602 80.0627 273.372 77.7706C276.507 76.5482 280.039 76.4063 283.97 77.3449L284.21 77.4093C288.083 78.5617 291.071 80.4508 293.175 83.0767C296.972 87.9323 297.431 95.7316 294.553 106.475ZM285.09 106.517C285.175 106.196 285.249 105.815 285.31 105.373L285.375 105.132C285.528 104.773 285.648 104.432 285.734 104.112C286.694 100.531 287.226 97.58 287.332 95.2597C287.457 92.6579 287.101 90.6721 286.265 89.3024C285.429 87.9327 283.896 86.9204 281.665 86.2655C279.406 85.7174 277.572 85.8275 276.163 86.5957C274.754 87.3639 273.48 88.9129 272.34 91.2426C271.272 93.3051 270.258 96.1268 269.299 99.7078C269.213 100.028 269.12 100.376 269.019 100.75L268.955 100.991C268.84 101.418 268.74 101.792 268.654 102.113C267.709 105.641 267.176 108.591 267.056 110.965C266.878 113.552 267.207 115.531 268.043 116.901C268.893 118.217 270.427 119.229 272.643 119.938C274.916 120.432 276.75 120.322 278.145 119.607C279.554 118.839 280.855 117.297 282.048 114.982C283.13 112.866 284.144 110.044 285.09 106.517ZM215.27 131.737C215.388 131.791 215.477 131.87 215.538 131.975C215.619 132.085 215.642 132.202 215.609 132.325L214.74 135.571C214.69 135.756 214.579 135.881 214.407 135.946C214.236 136.01 214.075 135.989 213.927 135.883C213.497 135.591 213.107 135.399 212.757 135.305C212.289 135.157 211.823 135.121 211.362 135.196C210.926 135.256 210.536 135.394 210.19 135.611C209.866 135.833 209.601 136.038 209.396 136.226C209.197 136.394 209.025 136.58 208.882 136.784L206.795 144.573C206.756 144.718 206.672 144.827 206.541 144.903C206.41 144.978 206.273 144.997 206.129 144.958L203.749 144.32C203.604 144.282 203.495 144.197 203.419 144.066C203.344 143.936 203.325 143.798 203.364 143.654L206.917 130.394C206.956 130.25 207.04 130.14 207.171 130.064C207.302 129.989 207.439 129.971 207.583 130.009L209.963 130.647C210.108 130.686 210.217 130.77 210.293 130.901C210.368 131.031 210.387 131.169 210.348 131.313L210.058 132.395C211.73 131.43 213.468 131.21 215.27 131.737ZM228.274 142.576L228.108 143.195L227.793 144.369C227.755 144.513 227.67 144.623 227.539 144.699C227.429 144.78 227.302 144.801 227.158 144.762L218.998 142.576C218.928 143.33 219.063 143.94 219.402 144.407C219.81 145.024 220.654 145.504 221.931 145.846C222.735 146.062 223.522 146.052 224.291 145.816C224.583 145.718 224.791 145.806 224.916 146.083C225.061 146.365 225.434 147.116 226.034 148.337C226.11 148.468 226.118 148.602 226.059 148.741C226.02 148.885 225.925 148.993 225.774 149.062C224.227 149.642 222.64 149.713 221.012 149.277C218.889 148.709 217.379 147.752 216.481 146.407C215.379 144.831 215.195 142.672 215.93 139.931L215.938 139.901C216.65 137.242 217.746 135.46 219.226 134.553C220.549 133.737 222.148 133.58 224.023 134.083C225.898 134.585 227.205 135.521 227.942 136.889C228.716 138.289 228.826 140.185 228.274 142.576ZM219.526 140.233L224.843 141.657C225.192 140.271 225.188 139.254 224.832 138.606C224.566 138.115 223.99 137.751 223.104 137.514C222.218 137.276 221.537 137.304 221.061 137.596C220.428 137.979 219.917 138.857 219.526 140.233ZM245.697 140.222C245.821 140.255 245.92 140.337 245.996 140.467C246.071 140.598 246.089 140.735 246.051 140.88L241.322 158.529C241.283 158.673 241.201 158.773 241.076 158.828C240.945 158.903 240.818 158.924 240.695 158.891L238.284 158.245C238.139 158.206 238.03 158.122 237.954 157.991C237.873 157.881 237.852 157.754 237.891 157.61L239.373 152.077C238.175 153.169 236.576 153.448 234.578 152.912C233.094 152.515 232.068 151.522 231.5 149.934C230.937 148.326 230.989 146.275 231.657 143.781C232.248 141.576 233.134 139.959 234.316 138.928C235.518 137.903 236.929 137.585 238.547 137.975C240.557 138.469 241.79 139.595 242.247 141.351L242.62 139.96C242.647 139.857 242.69 139.78 242.748 139.73C242.832 139.664 242.91 139.619 242.983 139.594C243.082 139.554 243.183 139.548 243.286 139.576L245.697 140.222ZM240.268 148.739L241.295 144.906C241.267 144.678 241.202 144.428 241.098 144.157C241.014 143.892 240.877 143.579 240.687 143.219C240.517 142.864 240.237 142.547 239.849 142.266C239.481 141.99 239.05 141.787 238.555 141.654C237.787 141.47 237.083 141.668 236.441 142.247C235.827 142.811 235.375 143.629 235.088 144.701C234.691 146.184 234.691 147.421 235.088 148.411C235.361 149.124 235.775 149.556 236.332 149.705C236.97 149.876 237.58 149.907 238.162 149.798C238.769 149.673 239.217 149.528 239.504 149.362C239.797 149.176 240.052 148.968 240.268 148.739ZM263.087 139.614C263.273 139.664 263.395 139.785 263.454 139.977C263.518 140.149 263.487 140.306 263.361 140.449C258.128 146.623 253.282 152.347 248.82 157.623C248.683 157.807 248.5 157.869 248.274 157.808L245.646 157.104C245.461 157.054 245.339 156.933 245.28 156.741C245.221 156.548 245.255 156.381 245.382 156.238C250.593 150.059 255.43 144.331 259.891 139.056C260.044 138.898 260.223 138.846 260.429 138.902L263.087 139.614ZM274.071 147.493C276.933 148.349 277.738 151.115 276.485 155.793L274.621 162.747C274.583 162.892 274.498 163.001 274.367 163.077C274.257 163.158 274.13 163.179 273.986 163.14L271.575 162.494C271.431 162.456 271.321 162.371 271.246 162.24C271.17 162.11 271.152 161.972 271.19 161.828L273.054 154.873C273.242 154.173 273.317 153.519 273.281 152.913C273.265 152.313 273.113 151.808 272.825 151.4C272.563 150.976 272.188 150.688 271.699 150.535C271.225 150.408 270.76 150.372 270.303 150.426C269.868 150.486 269.477 150.624 269.132 150.841C268.807 151.063 268.543 151.268 268.338 151.456C268.138 151.624 267.967 151.81 267.824 152.014L265.596 160.329C265.557 160.473 265.472 160.583 265.342 160.659C265.211 160.734 265.074 160.752 264.929 160.714L262.549 160.076C262.446 160.048 262.359 160.003 262.288 159.94C262.216 159.876 262.171 159.798 262.152 159.704C262.133 159.611 262.137 159.513 262.165 159.41L267.167 140.74C267.2 140.617 267.282 140.517 267.413 140.442C267.543 140.366 267.681 140.348 267.825 140.387L270.205 141.024C270.349 141.063 270.459 141.148 270.535 141.278C270.61 141.409 270.631 141.536 270.598 141.66L268.859 148.151C270.531 147.185 272.268 146.966 274.071 147.493Z" fill="black"/>
</g>
<defs>
<clipPath id="clip0_1_341">
<rect width="347" height="353" fill="white"/>
</clipPath>
</defs>
</svg>
