<svg width="347" height="353" viewBox="0 0 347 353" fill="none" xmlns="http://www.w3.org/2000/svg">
<path fill-rule="evenodd" clip-rule="evenodd" d="M39.5394 171.859L59.0463 180.042L65.3872 177.791C86.1964 170.403 112.537 170.565 131.522 178.197L137.499 180.6L157.615 172.169C168.678 167.53 178.763 163.724 180.025 163.706C183.084 163.666 187.64 167.363 188.435 170.531C189.054 172.998 188.352 175.873 182.025 196.775C176.353 215.513 176.401 214.549 180.772 222.384C191.093 240.884 196.891 262.822 197.093 284.135C197.237 299.248 195.645 306.597 190.162 316.149C179.727 334.327 156.268 346.998 126.724 350.416C114.146 351.872 82.8604 351.871 70.2588 350.414C47.8544 347.825 29.5174 340.146 16.5696 327.932C4.33807 316.394 -0.0505666 304.794 0.000438845 284.135C0.0536147 262.978 5.2757 241.929 15.0904 223.313L20.0456 213.915L17.6972 205.888C16.4047 201.473 14.1246 193.709 12.6303 188.636C7.37995 170.813 7.37344 170.7 11.4984 166.118C12.8245 164.645 14.9537 163.676 16.8648 163.676C18.6066 163.676 28.8109 167.358 39.5394 171.859Z" fill="#FF7319"/>
<path d="M71.914 253.126L66.7818 254.408L63.031 255.82C52.6005 259.746 43.1205 265.839 35.2159 273.696L31.2054 279.047C23.2617 289.648 19.0351 301.633 18.9921 313.681C18.9508 325.444 22.5028 332.05 32.4026 338.62C42.8821 345.575 57.7235 349.947 75.8568 351.422C86.0562 352.251 111.378 352.252 121.558 351.423C145.47 349.476 164.457 342.261 172.902 331.911C177.341 326.471 178.629 322.287 178.512 313.681C178.349 301.544 173.656 289.053 165.303 278.518L162.845 276.008C153.664 266.633 142.551 259.37 130.279 254.725L125.441 253.357C110.075 249.011 88.7562 248.919 71.914 253.126Z" fill="white"/>
<path d="M158.951 175.325L142.345 182.483L148.067 185.786C153.802 189.097 169.996 204.271 172.983 209.13C174.495 211.592 174.835 210.794 179.853 193.026C187.887 164.578 186.536 163.434 158.951 175.325Z" fill="#77500C"/>
<path d="M13.8437 170.602C12.2549 173.026 12.4893 174.341 17.617 191.751C20.6242 201.959 23.0843 210.607 23.0843 210.967C23.0843 211.326 24.9585 209.256 27.2494 206.367C33.1997 198.865 45.1871 187.945 50.3799 185.296C52.8184 184.051 54.3898 182.674 53.871 182.235C51.6387 180.348 20.7707 168.016 18.2801 168.016C16.5882 168.016 14.8887 169.006 13.8437 170.602Z" fill="#77500C"/>
<path d="M79.6818 246.364C84.4766 246.364 88.3636 242.477 88.3636 237.682C88.3636 232.887 84.4766 229 79.6818 229C74.887 229 71 232.887 71 237.682C71 242.477 74.887 246.364 79.6818 246.364Z" fill="black"/>
<path d="M119.042 246.364C123.837 246.364 127.724 242.477 127.724 237.682C127.724 232.887 123.837 229 119.042 229C114.248 229 110.361 232.887 110.361 237.682C110.361 242.477 114.248 246.364 119.042 246.364Z" fill="black"/>
<path fill-rule="evenodd" clip-rule="evenodd" d="M102.102 268.82H95.5909V280.757H95.5837C95.5881 280.878 95.5904 280.999 95.5904 281.121C95.5904 286.515 91.2175 290.888 85.8234 290.888C85.0767 290.888 84.3496 290.804 83.6509 290.645V297.255C84.3609 297.35 85.0854 297.399 85.8213 297.399C91.147 297.399 95.8754 294.841 98.8452 290.887C101.815 294.841 106.543 297.399 111.869 297.399C112.604 297.399 113.329 297.35 114.039 297.255V290.645C113.34 290.804 112.613 290.888 111.866 290.888C106.554 290.888 102.233 286.648 102.102 281.369V280.873C102.103 280.834 102.104 280.796 102.105 280.757H102.102V268.82Z" fill="black"/>
<path fill-rule="evenodd" clip-rule="evenodd" d="M101.74 259.254C104.217 259.254 106.713 260.617 106.713 263.018C106.713 267.567 102.907 271.254 98.2128 271.254C93.5188 271.254 89.7134 267.567 89.7134 263.018C89.7134 260.617 92.2087 259.254 94.6868 259.254H101.74Z" fill="#77500C"/>
<path fill-rule="evenodd" clip-rule="evenodd" d="M93.3058 261.794C92.9307 262.054 92.8464 262.283 92.8464 262.522C92.8464 265.669 95.4651 268.233 98.7128 268.233C101.961 268.233 104.58 265.669 104.58 262.522C104.58 262.283 104.496 262.054 104.121 261.795C103.693 261.499 102.998 261.274 102.212 261.274H95.2144C94.4284 261.274 93.733 261.499 93.3058 261.794ZM90.3445 257.694C91.7698 256.709 93.5416 256.254 95.2144 256.254H102.212C103.885 256.254 105.656 256.709 107.082 257.694C108.559 258.714 109.713 260.364 109.713 262.522C109.713 268.458 104.779 273.254 98.7128 273.254C92.6459 273.254 87.7134 268.457 87.7134 262.522C87.7134 260.364 88.867 258.714 90.3445 257.694Z" fill="black"/>
<path d="M241.036 111.443L254.614 115.082L192.763 345.914L179.184 342.275L241.036 111.443Z" fill="#787878"/>
<path d="M336.8 36.0975L214.501 3.32769C209.167 1.89827 203.683 5.0641 202.254 10.3988L166.757 142.875C165.328 148.209 168.493 153.693 173.828 155.122L296.127 187.892C301.461 189.321 306.945 186.155 308.374 180.821L343.871 48.345C345.3 43.0103 342.135 37.527 336.8 36.0975Z" fill="white"/>
<path d="M246.351 41.7559C247.414 44.7131 247.713 47.3883 247.249 49.7816C247.231 49.9314 247.154 50.0543 247.017 50.1503C246.887 50.2258 246.749 50.2441 246.605 50.2055C246.152 50.084 245.348 49.8687 244.194 49.5595C244.05 49.5208 243.937 49.4465 243.856 49.3365C243.801 49.2113 243.78 49.0842 243.793 48.955C244.182 46.7623 243.777 44.3569 242.579 41.739L239.055 40.7949L237.349 47.1622C237.311 47.3065 237.226 47.4163 237.095 47.4917C236.965 47.5672 236.827 47.5856 236.683 47.5469L234.303 46.9092C234.159 46.8705 234.049 46.7859 233.974 46.6552C233.898 46.5246 233.88 46.3872 233.918 46.2429L238.797 28.0371C238.835 27.8929 238.917 27.7934 239.042 27.7385C239.173 27.6631 239.31 27.6447 239.455 27.6834L246.162 29.4806C247.831 29.9279 249.085 30.8934 249.924 32.3771C250.79 33.8458 251.002 35.4044 250.56 37.0529L250.452 37.4548C250.176 38.4851 249.672 39.377 248.94 40.1306C248.208 40.8841 247.345 41.4259 246.351 41.7559ZM247.052 36.5437L247.16 36.1419C247.348 35.4413 247.25 34.7747 246.868 34.1421C246.511 33.4944 245.972 33.0739 245.251 32.8807L241.449 31.862L239.966 37.3948L243.768 38.4135C244.242 38.5405 244.705 38.5431 245.158 38.4214C245.615 38.279 246.01 38.0424 246.342 37.7116C246.694 37.3864 246.931 36.9971 247.052 36.5437ZM267.732 55.1044C267.744 55.3064 267.679 55.4658 267.537 55.5824C267.396 55.699 267.232 55.7325 267.047 55.6828L264.481 54.9954C264.255 54.9347 264.13 54.7799 264.109 54.5312L263.613 49.8267L256.133 47.8224C254.735 49.7446 253.808 51.0201 253.352 51.6489C253.209 51.8535 253.024 51.9255 252.797 51.8647L250.232 51.1773C250.046 51.1276 249.921 51.0168 249.857 50.845C249.793 50.6731 249.816 50.5027 249.928 50.3339C250.59 49.429 252.593 46.6528 255.936 42.0051C259.306 37.3424 261.247 34.6712 261.761 33.9916C261.898 33.8076 262.08 33.746 262.307 33.8067L265.274 34.6018C265.501 34.6625 265.628 34.807 265.655 35.0351C265.735 35.8075 266.072 39.0449 266.664 44.7471C267.256 50.4494 267.612 53.9018 267.732 55.1044ZM258.351 44.7393L263.235 46.0478L262.507 38.9953L258.351 44.7393ZM287.159 40.4657C287.303 40.5044 287.413 40.589 287.488 40.7197C287.569 40.8297 287.591 40.9569 287.552 41.1011L286.906 43.512C286.867 43.6563 286.783 43.7661 286.652 43.8416C286.527 43.8964 286.392 43.9045 286.248 43.8658L280.406 42.3005L276.306 57.6007C276.279 57.7038 276.233 57.791 276.17 57.8624C276.107 57.9337 276.028 57.979 275.935 57.9981C275.841 58.0172 275.753 58.0158 275.671 57.9937L273.26 57.3477C273.116 57.309 273.006 57.2244 272.931 57.0937C272.876 56.9686 272.868 56.8339 272.906 56.6897L277.006 41.3894L271.164 39.8241C271.02 39.7854 270.907 39.7111 270.826 39.6011C270.751 39.4704 270.732 39.333 270.771 39.1887L271.417 36.7778C271.456 36.6335 271.538 36.534 271.663 36.4792C271.793 36.4038 271.931 36.3854 272.075 36.424L287.159 40.4657ZM297.959 60.2883C298.103 60.327 298.213 60.4116 298.288 60.5422C298.363 60.6729 298.382 60.8103 298.343 60.9546L297.705 63.3346C297.678 63.4376 297.632 63.5248 297.569 63.5962C297.506 63.6676 297.427 63.7129 297.334 63.732C297.24 63.7511 297.142 63.7469 297.039 63.7193L286.283 60.8371C286.2 60.815 286.131 60.7854 286.075 60.7482C286.024 60.6904 285.983 60.6354 285.953 60.5831C285.923 60.5309 285.896 60.4683 285.871 60.3955C285.867 60.3281 285.876 60.2532 285.898 60.1708L290.776 41.965C290.815 41.8208 290.897 41.7213 291.022 41.6664C291.152 41.591 291.29 41.5726 291.434 41.6113L301.48 44.303C301.624 44.3416 301.734 44.4263 301.809 44.5569C301.89 44.667 301.911 44.7941 301.873 44.9383L301.227 47.3493C301.205 47.4317 301.162 47.5086 301.099 47.58C301.035 47.6514 300.957 47.6966 300.863 47.7158C300.77 47.7349 300.672 47.7307 300.569 47.7031L293.429 45.7899L292.277 50.0863L297.996 51.6185C298.14 51.6572 298.25 51.7418 298.325 51.8724C298.401 52.0031 298.419 52.1405 298.38 52.2848L297.734 54.6957C297.701 54.8194 297.619 54.9189 297.489 54.9943C297.358 55.0697 297.221 55.0881 297.076 55.0495L291.358 53.5173L290.107 58.1846L297.959 60.2883ZM235.514 77.7206C235.659 77.7592 235.758 77.8411 235.813 77.9662C235.888 78.0969 235.907 78.2343 235.868 78.3786L235.23 80.7586C235.192 80.9029 235.107 81.0127 234.977 81.0881C234.867 81.1691 234.739 81.1902 234.595 81.1516L224.766 78.5178C224.622 78.4792 224.512 78.3945 224.436 78.2639C224.361 78.1332 224.343 77.9958 224.381 77.8516L229.259 59.6458C229.298 59.5015 229.38 59.402 229.505 59.3472C229.636 59.2718 229.773 59.2534 229.917 59.292L232.297 59.9298C232.442 59.9684 232.552 60.0531 232.627 60.1837C232.708 60.2937 232.729 60.4209 232.69 60.5651L228.591 75.8654L235.514 77.7206ZM246.364 63.6988C246.508 63.7375 246.618 63.8221 246.693 63.9527C246.774 64.0628 246.795 64.1899 246.757 64.3342L241.878 82.5399C241.84 82.6842 241.755 82.794 241.625 82.8694C241.494 82.9449 241.356 82.9632 241.212 82.9246L238.832 82.2869C238.77 82.2703 238.711 82.2434 238.655 82.2063C238.619 82.1746 238.584 82.143 238.548 82.1113C238.518 82.0591 238.488 82.0068 238.457 81.9545C238.448 81.9078 238.438 81.8611 238.429 81.8143C238.425 81.747 238.431 81.6824 238.448 81.6206L243.326 63.4148C243.364 63.2706 243.446 63.1711 243.571 63.1162C243.702 63.0408 243.839 63.0224 243.984 63.0611L246.364 63.6988ZM268.025 69.5029C268.169 69.5415 268.269 69.6234 268.323 69.7485C268.404 69.8586 268.426 69.9857 268.387 70.13L263.509 88.3357C263.47 88.48 263.385 88.5898 263.255 88.6652C263.124 88.7407 262.997 88.7618 262.873 88.7287L260.462 88.0827C260.318 88.044 260.208 87.9594 260.133 87.8287C260.057 87.6981 260.039 87.5607 260.078 87.4164L262.422 78.669C259.414 83.0532 257.565 85.7492 256.875 86.7571C256.732 86.9617 256.547 87.0336 256.321 86.9729L253.415 86.1943C253.168 86.1281 253.033 85.9706 253.012 85.7218L252.252 75.9441L249.908 84.6916C249.87 84.8358 249.785 84.9456 249.655 85.0211C249.524 85.0965 249.386 85.1149 249.242 85.0762L246.862 84.4385C246.718 84.3998 246.608 84.3152 246.533 84.1846C246.457 84.0539 246.439 83.9165 246.477 83.7722L251.356 65.5665C251.394 65.4222 251.476 65.3227 251.601 65.2679C251.732 65.1924 251.869 65.1741 252.014 65.2127L254.641 65.9167C254.888 65.983 255.023 66.1405 255.044 66.3892L256.243 81.4526C261.059 74.4389 263.905 70.2874 264.781 68.9981C264.924 68.7935 265.119 68.7244 265.367 68.7906L268.025 69.5029ZM276.036 71.6494C276.18 71.6881 276.29 71.7727 276.365 71.9033C276.446 72.0134 276.467 72.1405 276.429 72.2848L271.551 90.4905C271.512 90.6348 271.427 90.7446 271.297 90.82C271.166 90.8955 271.028 90.9138 270.884 90.8752L268.504 90.2375C268.442 90.2209 268.383 90.194 268.327 90.1569C268.291 90.1252 268.256 90.0936 268.22 90.0619C268.19 90.0097 268.16 89.9574 268.129 89.9051C268.12 89.8584 268.11 89.8117 268.101 89.7649C268.097 89.6976 268.103 89.633 268.12 89.5712L272.998 71.3654C273.036 71.2212 273.118 71.1217 273.243 71.0668C273.374 70.9914 273.511 70.973 273.656 71.0117L276.036 71.6494ZM295.341 76.8221C295.485 76.8608 295.595 76.9454 295.67 77.076C295.751 77.1861 295.772 77.3132 295.733 77.4575L295.087 79.8684C295.049 80.0126 294.964 80.1225 294.834 80.1979C294.708 80.2527 294.574 80.2608 294.429 80.2222L288.588 78.6568L284.488 93.9571C284.46 94.0601 284.415 94.1473 284.352 94.2187C284.288 94.2901 284.21 94.3353 284.116 94.3545C284.023 94.3736 283.935 94.3721 283.853 94.35L281.442 93.704C281.297 93.6654 281.187 93.5807 281.112 93.4501C281.057 93.325 281.049 93.1903 281.088 93.046L285.188 77.7458L279.346 76.1804C279.201 76.1418 279.089 76.0674 279.008 75.9574C278.932 75.8268 278.914 75.6893 278.953 75.5451L279.599 73.1341C279.637 72.9899 279.719 72.8904 279.844 72.8355C279.975 72.7601 280.112 72.7417 280.257 72.7804L295.341 76.8221ZM238.866 123.14C240.373 126.923 240.467 131.274 239.15 136.191C238.018 140.413 235.255 143.883 230.861 146.601C226.466 149.319 221.944 150.055 217.294 148.809C214.889 148.165 212.63 147.187 210.518 145.876C208.406 144.566 206.665 143.154 205.294 141.641C203.938 140.075 202.867 138.728 202.081 137.601C201.308 136.42 200.643 135.268 200.085 134.144C199.889 133.806 199.868 133.456 200.022 133.096C200.19 132.683 200.463 132.413 200.841 132.285C202.435 131.681 204.441 130.929 206.859 130.03C207.629 129.721 208.203 129.932 208.579 130.663C211.115 135.525 214.815 138.607 219.678 139.91C221.923 140.511 224.11 140.152 226.24 138.832C228.423 137.527 229.786 135.859 230.331 133.828C231.118 130.888 231.112 128.452 230.313 126.519C229.424 124.276 227.327 122.482 224.021 121.138C220.715 119.794 217.043 119.068 213.004 118.96C212.723 118.942 212.482 118.877 212.283 118.766C212.122 118.723 211.87 118.598 211.524 118.391C211.179 118.184 210.833 117.977 210.488 117.77C210.142 117.563 209.743 117.341 209.291 117.105C208.892 116.884 208.546 116.677 208.254 116.484C207.962 116.291 207.745 116.032 207.603 115.708C207.529 115.344 207.561 115.009 207.7 114.703C207.95 114.197 209.403 111.235 212.058 105.817C214.713 100.399 216.374 96.9772 217.042 95.5522C217.389 94.9004 217.909 94.6675 218.604 94.8537L245.943 102.179C246.317 102.279 246.602 102.499 246.798 102.838C247.007 103.123 247.062 103.453 246.962 103.827L245.286 110.08C245.186 110.455 244.967 110.739 244.628 110.935C244.303 111.077 243.954 111.098 243.58 110.998L222.495 105.348L219.992 110.521C222.789 110.984 225.294 111.684 227.506 112.62C233.185 114.944 236.972 118.45 238.866 123.14ZM286.012 138.35C285.883 138.831 285.776 139.232 285.69 139.553C285.575 139.98 285.468 140.381 285.367 140.755C282.503 151.445 278.213 157.943 272.496 160.249C271.469 160.662 270.418 160.953 269.341 161.122C268.264 161.292 267.076 161.346 265.775 161.284C264.527 161.236 263.228 161.06 261.878 160.755L261.637 160.691C257.764 159.538 254.783 157.623 252.694 154.943C248.843 150.073 248.35 142.294 251.214 131.604C251.314 131.23 251.422 130.829 251.536 130.401C251.665 129.92 251.773 129.52 251.859 129.199C254.737 118.456 259.061 111.938 264.831 109.646C267.966 108.424 271.498 108.282 275.429 109.22L275.669 109.285C279.542 110.437 282.53 112.326 284.634 114.952C288.431 119.808 288.89 127.607 286.012 138.35ZM276.548 138.392C276.634 138.072 276.708 137.69 276.769 137.248L276.834 137.008C276.987 136.648 277.107 136.308 277.193 135.987C278.152 132.406 278.685 129.456 278.791 127.135C278.916 124.533 278.56 122.548 277.724 121.178C276.888 119.808 275.355 118.796 273.124 118.141C270.865 117.593 269.031 117.703 267.622 118.471C266.213 119.239 264.939 120.788 263.799 123.118C262.731 125.181 261.717 128.002 260.758 131.583C260.672 131.904 260.579 132.251 260.478 132.626L260.414 132.866C260.299 133.294 260.199 133.668 260.113 133.989C259.168 137.516 258.635 140.467 258.515 142.84C258.337 145.428 258.666 147.407 259.502 148.776C260.352 150.092 261.886 151.105 264.102 151.813C266.375 152.308 268.209 152.198 269.604 151.483C271.013 150.715 272.314 149.173 273.507 146.858C274.589 144.742 275.603 141.92 276.548 138.392Z" fill="black"/>
</svg>
