<svg width="343" height="338" viewBox="0 0 343 338" fill="none" xmlns="http://www.w3.org/2000/svg">
<g clip-path="url(#clip0_1_357)">
<path fill-rule="evenodd" clip-rule="evenodd" d="M39.5394 158.183L59.0463 166.366L65.3872 164.115C86.1964 156.727 112.537 156.889 131.522 164.521L137.499 166.924L157.615 158.493C168.678 153.854 178.763 150.048 180.025 150.03C183.084 149.99 187.64 153.687 188.435 156.855C189.054 159.322 188.352 162.197 182.025 183.099C176.353 201.837 176.401 200.873 180.772 208.708C191.093 227.208 196.891 249.146 197.093 270.459C197.237 285.572 195.645 292.921 190.162 302.473C179.727 320.651 156.268 333.322 126.724 336.74C114.146 338.196 82.8604 338.195 70.2588 336.738C47.8544 334.149 29.5174 326.47 16.5696 314.256C4.33807 302.718 -0.0505666 291.118 0.000438845 270.459C0.0536147 249.302 5.2757 228.253 15.0904 209.637L20.0456 200.239L17.6972 192.212C16.4047 187.797 14.1246 180.033 12.6303 174.96C7.37995 157.137 7.37344 157.024 11.4984 152.442C12.8245 150.969 14.9537 150 16.8648 150C18.6066 150 28.8109 153.682 39.5394 158.183Z" fill="#FF7319"/>
<path d="M71.914 239.45L66.7818 240.732L63.031 242.144C52.6005 246.07 43.1205 252.163 35.2159 260.02L31.2054 265.371C23.2617 275.972 19.0351 287.957 18.9921 300.005C18.9508 311.768 22.5028 318.374 32.4026 324.944C42.8821 331.899 57.7235 336.271 75.8568 337.746C86.0562 338.575 111.378 338.576 121.558 337.747C145.47 335.8 164.457 328.585 172.902 318.235C177.341 312.795 178.629 308.611 178.512 300.005C178.349 287.868 173.656 275.377 165.303 264.842L162.845 262.332C153.664 252.957 142.551 245.694 130.279 241.049L125.441 239.681C110.075 235.335 88.7562 235.243 71.914 239.45Z" fill="white"/>
<path d="M158.951 161.649L142.345 168.807L148.067 172.11C153.802 175.421 169.996 190.595 172.983 195.454C174.495 197.916 174.835 197.118 179.853 179.35C187.887 150.902 186.536 149.758 158.951 161.649Z" fill="#77500C"/>
<path d="M13.8437 156.926C12.2549 159.35 12.4893 160.665 17.617 178.075C20.6242 188.283 23.0843 196.931 23.0843 197.291C23.0843 197.65 24.9585 195.58 27.2494 192.691C33.1997 185.189 45.1871 174.269 50.3799 171.62C52.8184 170.375 54.3898 168.998 53.871 168.559C51.6387 166.672 20.7707 154.34 18.2801 154.34C16.5882 154.34 14.8887 155.33 13.8437 156.926Z" fill="#77500C"/>
<path d="M79.6818 232.688C84.4766 232.688 88.3636 228.801 88.3636 224.006C88.3636 219.211 84.4766 215.324 79.6818 215.324C74.887 215.324 71 219.211 71 224.006C71 228.801 74.887 232.688 79.6818 232.688Z" fill="black"/>
<path d="M119.042 232.688C123.837 232.688 127.724 228.801 127.724 224.006C127.724 219.211 123.837 215.324 119.042 215.324C114.248 215.324 110.361 219.211 110.361 224.006C110.361 228.801 114.248 232.688 119.042 232.688Z" fill="black"/>
<path fill-rule="evenodd" clip-rule="evenodd" d="M102.102 255.144H95.5909V267.081H95.5837C95.5881 267.202 95.5904 267.323 95.5904 267.445C95.5904 272.839 91.2175 277.212 85.8234 277.212C85.0767 277.212 84.3496 277.128 83.6509 276.969V283.579C84.3609 283.674 85.0854 283.723 85.8213 283.723C91.147 283.723 95.8754 281.165 98.8452 277.211C101.815 281.165 106.543 283.723 111.869 283.723C112.604 283.723 113.329 283.674 114.039 283.579V276.969C113.34 277.128 112.613 277.212 111.866 277.212C106.554 277.212 102.233 272.972 102.102 267.693V267.197C102.103 267.158 102.104 267.12 102.105 267.081H102.102V255.144Z" fill="black"/>
<path fill-rule="evenodd" clip-rule="evenodd" d="M101.74 245.578C104.217 245.578 106.713 246.941 106.713 249.342C106.713 253.891 102.907 257.578 98.2128 257.578C93.5188 257.578 89.7134 253.891 89.7134 249.342C89.7134 246.941 92.2087 245.578 94.6868 245.578H101.74Z" fill="#77500C"/>
<path fill-rule="evenodd" clip-rule="evenodd" d="M93.3058 248.118C92.9307 248.378 92.8464 248.607 92.8464 248.846C92.8464 251.993 95.4651 254.557 98.7128 254.557C101.961 254.557 104.58 251.993 104.58 248.846C104.58 248.607 104.496 248.378 104.121 248.119C103.693 247.823 102.998 247.598 102.212 247.598H95.2144C94.4284 247.598 93.733 247.823 93.3058 248.118ZM90.3445 244.018C91.7698 243.033 93.5416 242.578 95.2144 242.578H102.212C103.885 242.578 105.656 243.033 107.082 244.018C108.559 245.038 109.713 246.688 109.713 248.846C109.713 254.782 104.779 259.578 98.7128 259.578C92.6459 259.578 87.7134 254.781 87.7134 248.846C87.7134 246.688 88.867 245.038 90.3445 244.018Z" fill="black"/>
<path d="M241.036 96.4434L254.614 100.082L192.763 330.914L179.184 327.275L241.036 96.4434Z" fill="#787878"/>
<path d="M272.36 25.5209L268.096 24.3782C233.368 15.0729 197.671 35.6821 188.366 70.4102C179.061 105.138 199.67 140.834 234.398 150.14L238.663 151.283C273.391 160.588 309.087 139.979 318.392 105.251C327.698 70.5225 307.088 34.8263 272.36 25.5209Z" fill="white" stroke="#FF0000" stroke-width="12"/>
<path d="M247.859 82.0594C249.275 85.6151 249.364 89.7034 248.126 94.3244C247.062 98.2924 244.466 101.553 240.336 104.108C236.206 106.662 231.956 107.353 227.587 106.183C225.326 105.577 223.204 104.658 221.219 103.427C219.234 102.195 217.598 100.868 216.31 99.4464C215.035 97.9743 214.029 96.7087 213.29 95.6493C212.564 94.5397 211.939 93.457 211.414 92.4013C211.231 92.0828 211.211 91.7546 211.355 91.4164C211.513 91.0281 211.77 90.7738 212.125 90.6536C213.623 90.086 215.508 89.3798 217.78 88.5351C218.504 88.2445 219.043 88.4428 219.397 89.1299C221.78 93.6983 225.257 96.5948 229.827 97.8195C231.937 98.3848 233.992 98.0473 235.994 96.807C238.045 95.5801 239.326 94.0124 239.838 92.1037C240.578 89.3411 240.573 87.0517 239.821 85.2353C238.986 83.1274 237.015 81.4418 233.908 80.1787C230.801 78.9155 227.35 78.233 223.555 78.1314C223.291 78.1143 223.065 78.0537 222.877 77.9497C222.727 77.9093 222.489 77.7918 222.164 77.5971C221.84 77.4024 221.515 77.2078 221.19 77.0131C220.866 76.8184 220.491 76.6103 220.066 76.3887C219.691 76.1806 219.366 75.9859 219.091 75.8047C218.817 75.6235 218.613 75.3804 218.479 75.0755C218.409 74.7337 218.44 74.4189 218.571 74.131C218.806 73.6556 220.171 70.872 222.666 65.7803C225.161 60.6885 226.722 57.473 227.35 56.134C227.676 55.5214 228.165 55.3025 228.818 55.4775L254.51 62.3616C254.861 62.4558 255.129 62.6621 255.313 62.9805C255.51 63.2487 255.562 63.5586 255.467 63.9102L253.893 69.7869C253.799 70.1385 253.592 70.4063 253.274 70.5901C252.969 70.7237 252.641 70.7434 252.289 70.6492L232.474 65.3398L230.122 70.2006C232.751 70.6359 235.105 71.2936 237.184 72.1736C242.52 74.3573 246.079 77.6525 247.859 82.0594ZM292.165 96.3537C292.044 96.8058 291.943 97.1825 291.862 97.4838C291.754 97.8857 291.653 98.2624 291.559 98.614C288.867 108.66 284.836 114.766 279.464 116.934C278.498 117.321 277.51 117.595 276.498 117.754C275.486 117.914 274.369 117.964 273.147 117.906C271.974 117.861 270.754 117.695 269.485 117.409L269.258 117.348C265.619 116.266 262.817 114.465 260.854 111.947C257.235 107.371 256.772 100.06 259.463 90.0139C259.558 89.6623 259.659 89.2856 259.766 88.8838C259.887 88.4317 259.988 88.055 260.069 87.7537C262.774 77.6578 266.838 71.5329 272.26 69.3789C275.206 68.2301 278.526 68.0968 282.219 68.9788L282.445 69.0393C286.085 70.1223 288.893 71.8976 290.87 74.3653C294.438 78.9284 294.87 86.2579 292.165 96.3537ZM283.272 96.3933C283.352 96.0919 283.421 95.7336 283.479 95.3183L283.539 95.0923C283.684 94.7542 283.796 94.4344 283.877 94.133C284.779 90.7678 285.28 87.9949 285.379 85.8144C285.496 83.3693 285.162 81.5032 284.376 80.216C283.591 78.9288 282.15 77.9774 280.054 77.362C277.931 76.8469 276.207 76.9504 274.883 77.6723C273.559 78.3942 272.362 79.8499 271.29 82.0393C270.287 83.9775 269.334 86.6292 268.432 89.9945C268.351 90.2959 268.264 90.6224 268.17 90.974L268.109 91.2C268.001 91.6018 267.907 91.9534 267.826 92.2548C266.938 95.5698 266.437 98.3427 266.324 100.573C266.157 103.005 266.466 104.864 267.252 106.152C268.051 107.389 269.492 108.34 271.575 109.006C273.711 109.47 275.435 109.367 276.745 108.695C278.069 107.973 279.292 106.524 280.413 104.349C281.431 102.36 282.383 99.7084 283.272 96.3933Z" fill="black"/>
</g>
<defs>
<clipPath id="clip0_1_357">
<rect width="343" height="338" fill="white"/>
</clipPath>
</defs>
</svg>
