<svg width="351" height="352" viewBox="0 0 351 352" fill="none" xmlns="http://www.w3.org/2000/svg">
<g clip-path="url(#clip0_1_255)">
<path fill-rule="evenodd" clip-rule="evenodd" d="M39.5394 172.183L59.0463 180.366L65.3872 178.115C86.1964 170.727 112.537 170.889 131.522 178.521L137.499 180.924L157.615 172.493C168.678 167.854 178.763 164.048 180.025 164.03C183.084 163.99 187.64 167.687 188.435 170.855C189.054 173.322 188.352 176.197 182.025 197.099C176.353 215.837 176.401 214.873 180.772 222.708C191.093 241.208 196.891 263.146 197.093 284.459C197.237 299.572 195.645 306.921 190.162 316.473C179.727 334.651 156.268 347.322 126.724 350.74C114.146 352.196 82.8604 352.195 70.2588 350.738C47.8544 348.149 29.5174 340.47 16.5696 328.256C4.33807 316.718 -0.0505666 305.118 0.000438845 284.459C0.0536147 263.302 5.2757 242.253 15.0904 223.637L20.0456 214.239L17.6972 206.212C16.4047 201.797 14.1246 194.033 12.6303 188.96C7.37995 171.137 7.37344 171.024 11.4984 166.442C12.8245 164.969 14.9537 164 16.8648 164C18.6066 164 28.8109 167.682 39.5394 172.183Z" fill="#FF7319"/>
<path d="M71.914 253.45L66.7818 254.732L63.031 256.144C52.6005 260.07 43.1205 266.163 35.2159 274.02L31.2054 279.371C23.2617 289.972 19.0351 301.957 18.9921 314.005C18.9508 325.768 22.5028 332.374 32.4026 338.944C42.8821 345.899 57.7234 350.271 75.8568 351.746C86.0562 352.575 111.378 352.576 121.558 351.747C145.47 349.8 164.457 342.585 172.902 332.235C177.341 326.795 178.629 322.611 178.512 314.005C178.349 301.868 173.656 289.377 165.303 278.842L162.845 276.332C153.664 266.957 142.551 259.694 130.279 255.049L125.441 253.681C110.075 249.335 88.7562 249.243 71.914 253.45Z" fill="white"/>
<path d="M158.951 175.649L142.345 182.807L148.067 186.11C153.802 189.421 169.996 204.595 172.983 209.454C174.495 211.916 174.835 211.118 179.853 193.35C187.887 164.902 186.536 163.758 158.951 175.649Z" fill="#77500C"/>
<path d="M13.8437 170.926C12.2549 173.35 12.4893 174.665 17.617 192.075C20.6242 202.283 23.0843 210.931 23.0843 211.291C23.0843 211.65 24.9585 209.58 27.2494 206.691C33.1997 199.189 45.1871 188.269 50.3799 185.62C52.8184 184.375 54.3898 182.998 53.871 182.559C51.6387 180.672 20.7707 168.34 18.2801 168.34C16.5882 168.34 14.8887 169.33 13.8437 170.926Z" fill="#77500C"/>
<path d="M78.9684 247.434C83.7632 247.434 87.6502 243.547 87.6502 238.752C87.6502 233.957 83.7632 230.07 78.9684 230.07C74.1736 230.07 70.2866 233.957 70.2866 238.752C70.2866 243.547 74.1736 247.434 78.9684 247.434Z" fill="black"/>
<path d="M118.329 247.434C123.124 247.434 127.011 243.547 127.011 238.752C127.011 233.957 123.124 230.07 118.329 230.07C113.534 230.07 109.647 233.957 109.647 238.752C109.647 243.547 113.534 247.434 118.329 247.434Z" fill="black"/>
<path fill-rule="evenodd" clip-rule="evenodd" d="M101.389 269.89H94.8775V281.827H94.8703C94.8747 281.948 94.877 282.069 94.877 282.191C94.877 287.585 90.5041 291.958 85.11 291.958C84.3633 291.958 83.6362 291.874 82.9375 291.715V298.325C83.6475 298.42 84.372 298.469 85.1079 298.469C90.4336 298.469 95.162 295.911 98.1318 291.957C101.102 295.911 105.83 298.469 111.156 298.469C111.891 298.469 112.616 298.42 113.326 298.325V291.715C112.627 291.874 111.9 291.958 111.153 291.958C105.841 291.958 101.52 287.718 101.389 282.439V281.943C101.39 281.904 101.391 281.866 101.392 281.827H101.389V269.89Z" fill="black"/>
<path fill-rule="evenodd" clip-rule="evenodd" d="M101.027 260.324C103.504 260.324 106 261.687 106 264.088C106 268.637 102.193 272.324 97.4994 272.324C92.8054 272.324 89 268.637 89 264.088C89 261.687 91.4953 260.324 93.9734 260.324H101.027Z" fill="#77500C"/>
<path fill-rule="evenodd" clip-rule="evenodd" d="M92.5924 262.865C92.2173 263.124 92.133 263.353 92.133 263.592C92.133 266.739 94.7517 269.304 97.9994 269.304C101.248 269.304 103.867 266.739 103.867 263.592C103.867 263.353 103.783 263.124 103.407 262.865C102.98 262.569 102.284 262.344 101.499 262.344H94.501C93.7151 262.344 93.0196 262.569 92.5924 262.865ZM89.6311 258.764C91.0564 257.779 92.8283 257.324 94.501 257.324H101.499C103.171 257.324 104.943 257.779 106.368 258.764C107.846 259.784 109 261.434 109 263.592C109 269.528 104.066 274.324 97.9994 274.324C91.9325 274.324 87 269.527 87 263.592C87 261.434 88.1536 259.785 89.6311 258.764Z" fill="black"/>
<path fill-rule="evenodd" clip-rule="evenodd" d="M73.0043 221C73.0015 221.13 73 221.259 73 221.389C73 230.997 80.7885 238.785 90.396 238.785C90.6072 238.785 90.8175 238.781 91.0269 238.774V231.808C90.8171 231.821 90.6056 231.827 90.3927 231.827C84.6282 231.827 79.9551 227.154 79.9551 221.39C79.9551 221.259 79.9575 221.13 79.9622 221H73.0043Z" fill="black"/>
<path fill-rule="evenodd" clip-rule="evenodd" d="M124.258 221C124.261 221.13 124.262 221.259 124.262 221.389C124.262 230.997 116.474 238.785 106.866 238.785C106.593 238.785 106.32 238.779 106.049 238.766V231.796C106.32 231.817 106.593 231.827 106.869 231.827C112.633 231.827 117.306 227.154 117.306 221.39C117.306 221.259 117.304 221.13 117.299 221H124.258Z" fill="black"/>
<path d="M248.183 92.0163L262.694 95.9044L196.596 342.585L182.085 338.696L248.183 92.0163Z" fill="#787878"/>
<path d="M245.993 9L306.098 25.105L337.211 78.9936L321.105 139.098L267.217 170.211L207.112 154.106L176 100.217L192.105 40.1126L245.993 9Z" fill="#DC143C"/>
<path d="M226.263 81.8046C229.721 84.2497 231.099 86.7859 230.395 89.4132C229.87 91.3708 228.603 92.8534 226.594 93.861C224.585 94.8687 222.421 95.0619 220.103 94.4407C218.969 94.1371 217.686 93.5171 216.253 92.581C214.827 91.619 213.671 90.5226 212.786 89.2916C212.659 89.1472 212.62 88.9848 212.668 88.8045C212.716 88.6242 212.826 88.474 212.996 88.354C214.094 87.6544 214.97 87.1161 215.623 86.739C215.964 86.4989 216.254 86.5491 216.494 86.8895C216.798 87.3021 217.163 87.6899 217.59 88.0528C218.018 88.4158 218.442 88.7367 218.865 89.0155C219.287 89.2942 219.707 89.5309 220.124 89.7255C220.541 89.9201 220.917 90.0623 221.252 90.152C221.793 90.297 222.325 90.3706 222.849 90.373C223.38 90.3495 223.86 90.2574 224.29 90.0964C224.745 89.9424 225.124 89.7126 225.427 89.4072C225.762 89.083 225.989 88.7019 226.106 88.264C226.209 87.8776 226.013 87.4248 225.517 86.9054C225.04 86.4187 223.891 85.5585 222.068 84.3247C220.06 82.9584 218.653 81.7671 217.849 80.751C216.334 78.882 215.871 76.8528 216.457 74.6633C216.713 73.7103 217.177 72.8545 217.849 72.0961C218.529 71.3119 219.315 70.6945 220.209 70.2438C221.135 69.7742 222.165 69.4843 223.299 69.374C224.466 69.2448 225.629 69.3355 226.788 69.6461C227.509 69.8394 228.293 70.1598 229.139 70.6074C230.018 71.0362 230.911 71.6205 231.817 72.3602C232.723 73.0999 233.479 73.8824 234.086 74.7076C234.213 74.8521 234.253 75.0144 234.204 75.1947C234.182 75.382 234.085 75.5356 233.915 75.6556C232.464 76.5368 231.559 77.0811 231.2 77.2885C230.892 77.5097 230.615 77.463 230.368 77.1484C228.889 75.4546 227.313 74.3834 225.639 73.9348C224.531 73.6381 223.489 73.6626 222.513 74.0084C221.563 74.3611 220.97 74.9754 220.736 75.8511C220.508 76.7011 220.852 77.5802 221.768 78.4883C222.137 78.8632 222.551 79.2227 223.011 79.5668C223.497 79.9178 224.101 80.3419 224.824 80.8392C225.546 81.3365 226.026 81.6583 226.263 81.8046ZM257.481 78.2845C257.662 78.3328 257.799 78.4386 257.893 78.6019C257.994 78.7395 258.021 78.8984 257.972 79.0787L257.165 82.0924C257.117 82.2727 257.011 82.41 256.848 82.5043C256.691 82.5728 256.523 82.5829 256.342 82.5346L249.04 80.5779L243.915 99.703C243.881 99.832 243.824 99.941 243.745 100.03C243.666 100.12 243.568 100.176 243.451 100.2C243.334 100.224 243.224 100.222 243.121 100.194L240.108 99.387C239.927 99.339 239.79 99.233 239.696 99.07C239.627 98.913 239.617 98.745 239.665 98.564L244.79 79.4391L237.488 77.4825C237.307 77.4341 237.167 77.3412 237.065 77.2037C236.971 77.0404 236.948 76.8686 236.996 76.6883L237.804 73.6746C237.852 73.4943 237.955 73.3699 238.111 73.3013C238.274 73.2071 238.446 73.1841 238.626 73.2324L257.481 78.2845ZM277.256 95.8407C277.193 96.0725 277.142 96.2657 277.1 96.4203C277.059 96.5748 277.007 96.768 276.945 96.9998C275.758 101.43 273.882 104.309 271.318 105.638C269.269 106.69 266.727 106.851 263.693 106.121L263.615 106.1C260.623 105.215 258.502 103.805 257.254 101.869C255.697 99.437 255.512 96.0054 256.699 91.575C256.761 91.3431 256.813 91.15 256.854 90.9954C256.903 90.8151 256.955 90.6219 257.01 90.4159C258.197 85.9855 260.073 83.1062 262.637 81.778C264.693 80.7 267.234 80.539 270.262 81.295L270.339 81.3157C273.339 82.1747 275.46 83.585 276.701 85.5464C278.258 87.9789 278.443 91.4103 277.256 95.8407ZM272.656 95.8507C272.705 95.6704 272.749 95.5029 272.791 95.3484L272.832 95.1938C272.867 95.065 272.912 94.8976 272.967 94.6916C273.388 93.1203 273.617 91.8014 273.654 90.7347C273.692 89.668 273.458 88.7358 272.954 87.9382C272.311 86.9377 271.044 86.1563 269.151 85.5941C267.232 85.1348 265.73 85.1743 264.647 85.7123C263.812 86.1511 263.144 86.8417 262.643 87.7841C262.168 88.7335 261.719 89.9938 261.298 91.565C261.25 91.7453 261.205 91.9127 261.164 92.0673L261.122 92.2218C261.088 92.3506 261.043 92.5181 260.988 92.7241C260.712 93.7544 260.506 94.6242 260.372 95.3335C260.262 96.0497 260.247 96.7771 260.325 97.5159C260.403 98.255 260.615 98.905 260.962 99.467C261.63 100.475 262.911 101.259 264.803 101.822C266.723 102.281 268.212 102.238 269.269 101.693C269.85 101.379 270.359 100.922 270.796 100.321C271.233 99.721 271.583 99.083 271.847 98.408C272.11 97.734 272.38 96.881 272.656 95.8507ZM294.368 88.1684C296.455 88.7275 298.023 89.9344 299.072 91.7891C300.153 93.6249 300.418 95.5732 299.866 97.634L299.731 98.136C299.179 100.197 297.972 101.764 296.111 102.839C294.282 103.895 292.324 104.144 290.238 103.585L285.794 102.394L283.662 110.353C283.613 110.534 283.508 110.671 283.344 110.765C283.181 110.859 283.009 110.882 282.829 110.834L279.854 110.037C279.674 109.989 279.536 109.883 279.442 109.72C279.348 109.556 279.325 109.384 279.373 109.204L285.471 86.4469C285.519 86.2666 285.622 86.1422 285.778 86.0736C285.941 85.9794 286.113 85.9564 286.293 86.0047L294.368 88.1684ZM295.481 96.9973L295.616 96.495C295.851 95.6192 295.729 94.786 295.25 93.9952C294.805 93.1856 294.131 92.6601 293.23 92.4185L288.786 91.2279L286.933 98.144L291.377 99.335C292.278 99.576 293.121 99.471 293.905 99.018C294.721 98.547 295.247 97.873 295.481 96.9973Z" fill="white"/>
</g>
<defs>
<clipPath id="clip0_1_255">
<rect width="351" height="352" fill="white"/>
</clipPath>
</defs>
</svg>
