<svg width="359" height="364" viewBox="0 0 359 364" fill="none" xmlns="http://www.w3.org/2000/svg">
<g clip-path="url(#clip0_1_558)">
<path fill-rule="evenodd" clip-rule="evenodd" d="M39.5394 184.183L59.0463 192.366L65.3872 190.115C86.1964 182.727 112.537 182.889 131.522 190.521L137.499 192.924L157.615 184.493C168.678 179.854 178.763 176.048 180.025 176.03C183.084 175.99 187.64 179.687 188.435 182.855C189.054 185.322 188.352 188.197 182.025 209.099C176.353 227.837 176.401 226.873 180.772 234.708C191.093 253.208 196.891 275.146 197.093 296.459C197.237 311.572 195.645 318.921 190.162 328.473C179.727 346.651 156.268 359.322 126.724 362.74C114.146 364.196 82.8604 364.195 70.2588 362.738C47.8544 360.149 29.5174 352.47 16.5696 340.256C4.33807 328.718 -0.0505666 317.118 0.000438845 296.459C0.0536147 275.302 5.2757 254.253 15.0904 235.637L20.0456 226.239L17.6972 218.212C16.4047 213.797 14.1246 206.033 12.6303 200.96C7.37995 183.137 7.37344 183.024 11.4984 178.442C12.8245 176.969 14.9537 176 16.8648 176C18.6066 176 28.8109 179.682 39.5394 184.183Z" fill="#FF7319"/>
<path d="M71.914 265.45L66.7818 266.732L63.031 268.144C52.6005 272.07 43.1205 278.163 35.2159 286.02L31.2054 291.371C23.2617 301.972 19.0351 313.957 18.9921 326.005C18.9508 337.768 22.5028 344.374 32.4026 350.944C42.8821 357.899 57.7234 362.271 75.8568 363.746C86.0562 364.575 111.378 364.576 121.558 363.747C145.47 361.8 164.457 354.585 172.902 344.235C177.341 338.795 178.629 334.611 178.512 326.005C178.349 313.868 173.656 301.377 165.303 290.842L162.845 288.332C153.664 278.957 142.551 271.694 130.279 267.049L125.441 265.681C110.075 261.335 88.7562 261.243 71.914 265.45Z" fill="white"/>
<path d="M158.951 187.649L142.345 194.807L148.067 198.11C153.802 201.421 169.996 216.595 172.983 221.454C174.495 223.916 174.835 223.118 179.853 205.35C187.887 176.902 186.536 175.758 158.951 187.649Z" fill="#77500C"/>
<path d="M13.8437 182.926C12.2549 185.35 12.4893 186.665 17.617 204.075C20.6242 214.283 23.0843 222.931 23.0843 223.291C23.0843 223.65 24.9585 221.58 27.2494 218.691C33.1997 211.189 45.1871 200.269 50.3799 197.62C52.8184 196.375 54.3898 194.998 53.871 194.559C51.6387 192.672 20.7707 180.34 18.2801 180.34C16.5882 180.34 14.8887 181.33 13.8437 182.926Z" fill="#77500C"/>
<path d="M79.6818 258.688C84.4766 258.688 88.3636 254.801 88.3636 250.006C88.3636 245.211 84.4766 241.324 79.6818 241.324C74.887 241.324 71 245.211 71 250.006C71 254.801 74.887 258.688 79.6818 258.688Z" fill="black"/>
<path d="M119.042 258.688C123.837 258.688 127.724 254.801 127.724 250.006C127.724 245.211 123.837 241.324 119.042 241.324C114.248 241.324 110.361 245.211 110.361 250.006C110.361 254.801 114.248 258.688 119.042 258.688Z" fill="black"/>
<path fill-rule="evenodd" clip-rule="evenodd" d="M102.102 281.144H95.5909V293.081H95.5837C95.5881 293.202 95.5904 293.323 95.5904 293.445C95.5904 298.839 91.2175 303.212 85.8234 303.212C85.0767 303.212 84.3496 303.128 83.6509 302.969V309.579C84.3609 309.674 85.0854 309.723 85.8213 309.723C91.147 309.723 95.8754 307.165 98.8452 303.211C101.815 307.165 106.543 309.723 111.869 309.723C112.604 309.723 113.329 309.674 114.039 309.579V302.969C113.34 303.128 112.613 303.212 111.866 303.212C106.554 303.212 102.233 298.972 102.102 293.693V293.197C102.103 293.158 102.104 293.12 102.105 293.081H102.102V281.144Z" fill="black"/>
<path fill-rule="evenodd" clip-rule="evenodd" d="M101.74 271.578C104.217 271.578 106.713 272.941 106.713 275.342C106.713 279.891 102.907 283.578 98.2128 283.578C93.5188 283.578 89.7134 279.891 89.7134 275.342C89.7134 272.941 92.2087 271.578 94.6868 271.578H101.74Z" fill="#77500C"/>
<path fill-rule="evenodd" clip-rule="evenodd" d="M93.3058 274.118C92.9307 274.378 92.8464 274.607 92.8464 274.846C92.8464 277.993 95.4651 280.557 98.7128 280.557C101.961 280.557 104.58 277.993 104.58 274.846C104.58 274.607 104.496 274.378 104.121 274.119C103.693 273.823 102.998 273.598 102.212 273.598H95.2144C94.4284 273.598 93.733 273.823 93.3058 274.118ZM90.3445 270.018C91.7698 269.033 93.5416 268.578 95.2144 268.578H102.212C103.885 268.578 105.656 269.033 107.082 270.018C108.559 271.038 109.713 272.688 109.713 274.846C109.713 280.782 104.779 285.578 98.7128 285.578C92.6459 285.578 87.7134 280.781 87.7134 274.846C87.7134 272.688 88.867 271.038 90.3445 270.018Z" fill="black"/>
<path d="M241.036 122.443L254.614 126.082L192.763 356.914L179.184 353.275L241.036 122.443Z" fill="#787878"/>
<path d="M353.603 122.443L288.103 8.99351C285.342 4.21058 279.226 2.57183 274.443 5.33325L160.993 70.8333C156.211 73.5947 154.572 79.7106 157.333 84.4935L222.833 197.943C225.595 202.726 231.711 204.365 236.493 201.603L349.943 136.103C354.726 133.342 356.364 127.226 353.603 122.443Z" fill="#FFC700"/>
<path d="M341.268 120.602L283.53 20.5965C281.321 16.7701 276.428 15.4591 272.602 17.6683L172.597 75.4063C168.77 77.6154 167.459 82.5081 169.668 86.3345L227.406 186.34C229.616 190.166 234.508 191.477 238.335 189.268L338.34 131.53C342.166 129.321 343.477 124.428 341.268 120.602Z" fill="#FFC700" stroke="black" stroke-width="4"/>
<path d="M250.268 48.4018C250.376 48.4308 250.451 48.4922 250.492 48.586C250.553 48.6685 250.569 48.7639 250.54 48.8721L246.881 62.5264C246.852 62.6346 246.789 62.717 246.691 62.7735C246.593 62.8301 246.497 62.846 246.405 62.8211L244.596 62.3366C244.488 62.3076 244.406 62.2441 244.349 62.1461C244.293 62.0482 244.279 61.9451 244.308 61.8369L246.066 55.2763C243.81 58.5645 242.423 60.5865 241.906 61.3424C241.799 61.4958 241.66 61.5498 241.49 61.5042L239.311 60.9203C239.125 60.8706 239.025 60.7525 239.008 60.5659L238.439 53.2327L236.681 59.7933C236.652 59.9014 236.588 59.9838 236.491 60.0404C236.393 60.097 236.289 60.1108 236.181 60.0818L234.396 59.6035C234.288 59.5745 234.206 59.511 234.149 59.413C234.093 59.315 234.079 59.212 234.108 59.1038L237.766 45.4494C237.795 45.3413 237.857 45.2666 237.951 45.2255C238.049 45.1689 238.152 45.1551 238.26 45.1841L240.23 45.7121C240.416 45.7618 240.517 45.8799 240.533 46.0665L241.432 57.364C245.044 52.1038 247.179 48.9902 247.835 48.0232C247.943 47.8697 248.089 47.8179 248.275 47.8676L250.268 48.4018ZM260.597 60.3873L260.472 60.851L260.236 61.7319C260.207 61.8401 260.144 61.9225 260.046 61.979C259.963 62.0397 259.868 62.0556 259.76 62.0266L253.64 60.3867C253.587 60.9525 253.688 61.4102 253.943 61.7599C254.249 62.2231 254.882 62.583 255.84 62.8397C256.443 63.0012 257.033 62.9937 257.61 62.8171C257.829 62.7432 257.985 62.8098 258.078 63.0171C258.187 63.2285 258.467 63.7921 258.917 64.7079C258.974 64.8059 258.98 64.9069 258.935 65.0109C258.906 65.1191 258.835 65.1994 258.722 65.2518C257.562 65.6864 256.371 65.7401 255.15 65.413C253.558 64.9864 252.426 64.2688 251.752 63.26C250.926 62.0779 250.788 60.4591 251.339 58.4036L251.345 58.3804C251.879 56.3867 252.701 55.0499 253.811 54.37C254.803 53.7579 256.002 53.6403 257.409 54.0172C258.815 54.394 259.795 55.0955 260.348 56.1217C260.928 57.1716 261.011 58.5935 260.597 60.3873ZM254.036 58.6294L258.023 59.6978C258.285 58.6582 258.283 57.8955 258.015 57.4098C257.816 57.0416 257.384 56.7685 256.719 56.5904C256.055 56.4123 255.544 56.4329 255.187 56.652C254.713 56.9389 254.329 57.5981 254.036 58.6294ZM272.199 63.7197C272.199 63.7197 272.176 63.8047 272.13 63.9747C272.089 64.1293 272.068 64.2065 272.068 64.2065C271.542 66.1693 270.707 67.4612 269.564 68.0824C268.616 68.5904 267.473 68.6818 266.136 68.3566L266.09 68.3441C264.769 67.9571 263.825 67.3067 263.258 66.3928C262.578 65.283 262.501 63.7467 263.027 61.784C263.052 61.6913 263.073 61.614 263.089 61.5522C263.11 61.4749 263.133 61.3899 263.158 61.2972C263.683 59.3344 264.518 58.0424 265.662 57.4213C266.61 56.9133 267.752 56.8219 269.09 57.1471L269.136 57.1596C270.457 57.5466 271.401 58.197 271.968 59.1109C272.648 60.2207 272.725 61.7569 272.199 63.7197ZM269.495 63.517C269.512 63.4552 269.53 63.3857 269.551 63.3084L269.57 63.2389C269.607 63.0998 269.625 63.0302 269.625 63.0302C269.791 62.412 269.885 61.9071 269.907 61.5155C269.945 61.128 269.876 60.795 269.703 60.5165C269.495 60.1793 269.068 59.9159 268.424 59.7266C267.77 59.5681 267.269 59.583 266.921 59.7711C266.631 59.9254 266.398 60.1776 266.221 60.5278C266.06 60.8822 265.896 61.3685 265.731 61.9867C265.71 62.0639 265.691 62.1335 265.675 62.1953L265.656 62.2648C265.64 62.3267 265.621 62.3962 265.6 62.4735C265.534 62.7208 265.48 62.9217 265.439 63.0762C265.397 63.2308 265.358 63.4106 265.319 63.6156C265.3 63.8094 265.288 63.9799 265.281 64.1273C265.291 64.2788 265.307 64.4324 265.332 64.5881C265.376 64.7324 265.44 64.8654 265.523 64.9871C265.731 65.3244 266.157 65.5877 266.802 65.7771C267.456 65.9356 267.956 65.9207 268.305 65.7325C268.501 65.6194 268.681 65.4439 268.844 65.206C269.007 64.9681 269.127 64.7353 269.205 64.5077C269.286 64.2645 269.383 63.9343 269.495 63.517ZM290.863 63.2298C290.987 63.2629 291.073 63.3439 291.121 63.4728C291.169 63.6017 291.161 63.7238 291.097 63.8391C290.695 64.4766 289.688 66.0704 288.077 68.6203C286.482 71.1744 285.58 72.6225 285.373 72.9644C285.261 73.1333 285.113 73.1929 284.927 73.1432L282.818 72.5779C282.617 72.5241 282.518 72.3982 282.521 72.2003L282.271 65.6235C280.412 68.6039 279.251 70.4629 278.789 71.2003C278.677 71.3692 278.529 71.4288 278.343 71.3791L276.211 70.8076C276.025 70.7579 275.934 70.6341 275.937 70.4362C275.913 70.0322 275.873 69.069 275.817 67.5467C275.765 66.0089 275.71 64.4535 275.651 62.8807C275.592 61.3079 275.556 60.238 275.542 59.6711C275.529 59.5351 275.575 59.4233 275.682 59.3358C275.788 59.2483 275.911 59.2232 276.05 59.2605L277.927 59.7636C278.113 59.8133 278.212 59.9392 278.224 60.1412L278.451 66.7119C280.325 63.7356 281.494 61.8787 281.956 61.1413C282.052 60.9683 282.201 60.9087 282.402 60.9625L284.511 61.5278C284.697 61.5774 284.795 61.7033 284.808 61.9053L285.035 68.476C286.909 65.4997 288.077 63.6428 288.54 62.9054C288.636 62.7324 288.785 62.6728 288.985 62.7266L290.863 63.2298ZM302.066 66.2316C302.205 66.2689 302.297 66.3597 302.341 66.504C302.389 66.6329 302.374 66.7529 302.294 66.8642L294.668 77.244C294.366 77.627 294.01 77.9374 293.598 78.1749C292.63 78.7602 291.626 78.8307 290.585 78.3862C290.57 78.3821 290.325 78.2751 289.851 78.0653C289.747 78.0209 289.669 77.9419 289.616 77.8285C289.575 77.7347 289.577 77.6357 289.621 77.5317C289.694 77.3854 289.819 77.1042 289.997 76.688C290.174 76.2719 290.292 75.9886 290.349 75.8382C290.393 75.7341 290.462 75.6616 290.556 75.6204C290.665 75.5835 290.772 75.5872 290.876 75.6316C290.953 75.6523 291.092 75.7226 291.292 75.8424C291.496 75.9467 291.72 75.9738 291.966 75.9236C292.207 75.8888 292.408 75.7855 292.57 75.6136L293.623 74.2807C293.098 69.0711 292.758 65.7335 292.604 64.2677C292.591 64.1316 292.637 64.0199 292.744 63.9324C292.854 63.8294 292.979 63.7966 293.118 63.8339L295.042 64.3494C295.212 64.395 295.305 64.5111 295.321 64.6976L295.965 71.1065C297.991 68.3035 299.245 66.5606 299.726 65.8778C299.833 65.7244 299.98 65.6725 300.165 65.7222L302.066 66.2316ZM230.036 147.013C231.252 150.818 232.071 153.389 232.491 154.728C232.531 154.887 232.493 155.026 232.379 155.145C232.284 155.252 232.159 155.285 232.005 155.243L229.872 154.672C229.733 154.635 229.641 154.544 229.597 154.399L227.889 148.997C227.629 149.226 227.302 149.519 226.908 149.877C226.529 150.24 225.955 150.773 225.187 151.478C224.438 152.172 223.953 152.622 223.732 152.828C223.621 152.931 223.497 152.964 223.358 152.926L221.225 152.355C221.07 152.313 220.971 152.221 220.927 152.076C220.887 151.916 220.93 151.787 221.056 151.688L226.999 146.2C225.79 142.364 224.978 139.769 224.562 138.416C224.503 138.267 224.528 138.142 224.639 138.039C224.753 137.92 224.888 137.882 225.042 137.923L227.175 138.495C227.314 138.532 227.408 138.615 227.456 138.744L229.175 144.199C231.442 142.106 232.839 140.816 233.367 140.328C233.474 140.24 233.596 140.215 233.735 140.253L235.868 140.824C236.023 140.865 236.112 140.964 236.137 141.12C236.181 141.264 236.148 141.388 236.038 141.49L230.036 147.013ZM240.965 141.867C241.073 141.896 241.156 141.959 241.212 142.057C241.273 142.14 241.289 142.235 241.26 142.343L240.751 144.244C240.722 144.352 240.658 144.435 240.56 144.491C240.462 144.548 240.359 144.562 240.251 144.533L238.466 144.054C238.358 144.025 238.275 143.962 238.219 143.864C238.162 143.766 238.148 143.663 238.177 143.555L238.687 141.654C238.716 141.546 238.777 141.471 238.871 141.43C238.969 141.373 239.072 141.359 239.18 141.388L240.965 141.867ZM239.897 145.854C240.005 145.883 240.087 145.947 240.144 146.044C240.201 146.142 240.214 146.246 240.185 146.354L237.521 156.299C237.492 156.407 237.428 156.489 237.33 156.546C237.232 156.603 237.129 156.616 237.021 156.587L235.236 156.109C235.159 156.088 235.093 156.054 235.04 156.007C234.986 155.959 234.952 155.901 234.938 155.83C234.923 155.76 234.927 155.687 234.947 155.609L237.612 145.664C237.641 145.556 237.705 145.474 237.803 145.417C237.901 145.361 238.004 145.347 238.112 145.376L239.897 145.854ZM249.809 148.261C251.956 148.903 252.559 150.978 251.619 154.486L250.222 159.702C250.193 159.81 250.129 159.893 250.031 159.949C249.933 160.006 249.838 160.022 249.745 159.997L247.937 159.512C247.829 159.483 247.746 159.42 247.69 159.322C247.649 159.228 247.643 159.127 247.672 159.019L249.069 153.803C249.285 152.999 249.298 152.299 249.11 151.702C248.942 151.094 248.582 150.707 248.03 150.543C247.674 150.447 247.325 150.42 246.983 150.461C246.656 150.506 246.363 150.61 246.105 150.772C245.861 150.939 245.663 151.093 245.509 151.234C245.359 151.359 245.231 151.499 245.123 151.652L243.452 157.888C243.423 157.997 243.36 158.079 243.262 158.135C243.164 158.192 243.061 158.206 242.953 158.177L241.168 157.699C241.06 157.67 240.977 157.606 240.921 157.508C240.864 157.41 240.85 157.307 240.879 157.199L243.544 147.254C243.573 147.146 243.637 147.063 243.734 147.007C243.832 146.95 243.936 146.936 244.044 146.965L245.829 147.443C245.937 147.472 246.019 147.536 246.076 147.634C246.132 147.732 246.146 147.835 246.117 147.943L245.9 148.755C247.154 148.03 248.457 147.866 249.809 148.261ZM265.022 152.586C265.115 152.611 265.19 152.673 265.246 152.771C265.303 152.869 265.317 152.972 265.288 153.08L262.505 163.466C262.352 164.037 261.996 164.53 261.438 164.944C261.104 165.202 260.708 165.411 260.251 165.57C259.81 165.733 259.281 165.823 258.663 165.84C258.057 165.877 257.445 165.812 256.827 165.646C254.864 165.12 253.562 164.2 252.921 162.885C252.864 162.787 252.86 162.678 252.909 162.559C252.968 162.459 253.053 162.391 253.162 162.354C253.65 162.203 254.272 162.013 255.029 161.785C255.208 161.734 255.353 161.781 255.463 161.927C255.858 162.43 256.543 162.812 257.516 163.073C258.212 163.259 258.852 163.249 259.438 163.041C259.755 162.911 259.956 162.683 260.043 162.359L260.279 161.478C259.381 162.297 258.182 162.506 256.683 162.104C255.555 161.802 254.777 161.055 254.351 159.864C253.944 158.662 253.992 157.126 254.493 155.256C254.936 153.602 255.6 152.389 256.487 151.616C257.388 150.847 258.446 150.609 259.66 150.901C261.167 151.272 262.092 152.116 262.435 153.434L262.714 152.39C262.735 152.313 262.767 152.255 262.811 152.217C262.873 152.168 262.94 152.136 263.01 152.122C263.084 152.092 263.152 152.085 263.214 152.102L265.022 152.586ZM260.95 158.974L261.721 156.1C261.7 155.928 261.659 155.743 261.596 155.544C261.533 155.345 261.431 155.111 261.288 154.841C261.145 154.57 260.928 154.33 260.636 154.119C260.36 153.913 260.037 153.76 259.666 153.661C259.09 153.523 258.561 153.671 258.081 154.106C257.619 154.529 257.281 155.142 257.066 155.946C256.768 157.058 256.768 157.986 257.066 158.728C257.27 159.263 257.581 159.587 257.998 159.699C258.369 159.798 258.722 159.843 259.056 159.833C259.394 159.808 259.686 159.737 259.932 159.621C260.194 159.509 260.396 159.405 260.537 159.311C260.698 159.205 260.836 159.093 260.95 158.974Z" fill="black"/>
<path fill-rule="evenodd" clip-rule="evenodd" d="M246.806 80.0987L251.507 83.7396L253.392 83.5898C259.58 83.0977 266.72 85.058 271.32 88.5116L272.768 89.5988L278.843 88.7731C282.184 88.3186 285.2 88.0186 285.544 88.1057C286.377 88.3174 287.345 89.6528 287.331 90.5707C287.319 91.2855 286.919 92.015 283.681 97.2301C280.778 101.905 280.861 101.647 281.478 104.092C282.934 109.866 282.912 116.245 281.416 122.047C280.356 126.16 279.389 128.04 277.205 130.235C273.05 134.411 265.758 136.145 257.488 134.924C253.967 134.404 245.472 132.127 242.156 130.815C236.261 128.482 231.841 125.063 229.214 120.804C226.732 116.782 226.385 113.313 227.902 107.707C229.455 101.966 232.405 96.6312 236.424 92.2907L238.453 90.0994L238.399 87.7489C238.37 86.4562 238.315 84.1823 238.279 82.6961C238.15 77.4749 238.156 77.4438 239.61 76.4995C240.077 76.1962 240.726 76.0879 241.245 76.227C241.717 76.3537 244.22 78.0959 246.806 80.0987Z" fill="black"/>
</g>
<defs>
<clipPath id="clip0_1_558">
<rect width="359" height="364" fill="white"/>
</clipPath>
</defs>
</svg>
