<?xml version="1.0" encoding="utf-8"?>
<!-- Generator: Adobe Illustrator 25.2.3, SVG Export Plug-In . SVG Version: 6.00 Build 0)  -->
<svg version="1.1" id="Layer_1" xmlns="http://www.w3.org/2000/svg" xmlns:xlink="http://www.w3.org/1999/xlink" x="0px" y="0px"
	 viewBox="0 0 293.5 174.2" style="enable-background:new 0 0 293.5 174.2;" xml:space="preserve">
<style type="text/css">
	.st0{fill:#FF00FF;}
	.st1{fill:#FF7319;}
	.st2{fill:#FFFFFF;}
	.st3{fill:#945600;stroke:#000000;stroke-width:1.5;stroke-miterlimit:10;}
	.st4{fill:none;stroke:#000000;stroke-width:2.5;stroke-linecap:round;stroke-miterlimit:10;}
	.st5{fill:#77500C;}
	.st6{fill:#FFAB19;}
</style>
<rect class="st0" width="293.5" height="174.2"/>
<g>
	<path class="st1" d="M259,67.3l6.8-22.7c1.3-4.2-3-8.1-7-6.5l-22.3,9.3c-6.5-3-14-4.7-22.4-4.7c-8.6,0-16.1,1.7-22.6,4.6l-22.1-9.2
		c-4-1.7-8.3,2.2-7,6.5l6.7,22.4c-8.1,12.4-11.9,27.5-11.9,40.8c0,28.3,25.5,37.3,56.9,37.3c31.4,0,56.9-9.1,56.9-37.3
		C271,94.6,267.1,79.5,259,67.3z"/>
	<path class="st2" d="M258.6,125.6c0,14.8-20,19.5-44.6,19.5s-44.6-4.7-44.6-19.5s13.3-34,44.6-34
		C244.6,91.5,258.6,110.8,258.6,125.6z"/>
	<path class="st3" d="M209.1,98.3c0-2,2.2-2.6,5-2.6c2.8,0,5,0.6,5,2.6s-1.5,4.5-5,4.5C210.6,102.8,209.1,100.3,209.1,98.3z"/>
	<g>
		<path class="st4" d="M231,104.8c0,4.7-3.8,8.4-8.5,8.4c-4.7,0-8.5-3.8-8.5-8.4c0-0.2,0-0.2,0-0.2c0-0.3,0-0.5,0-0.5
			c0,0,0,0.2,0,0.5c0,0,0,0,0,0.2c0,4.7-3.8,8.4-8.5,8.4c-4.7,0-8.5-3.8-8.5-8.4"/>
	</g>
	<circle cx="204.2" cy="81.2" r="4.8"/>
	<circle cx="223.9" cy="81.2" r="4.8"/>
	<path class="st5" d="M189.3,48.9l-19.9-8.3c-2.5-0.7-4.8,1.4-4.4,3.9l6,20.8c2.4-4,5.1-6.6,8.3-9.5
		C182.2,53.1,184.8,50.7,189.3,48.9z"/>
	<path class="st5" d="M239.3,48.9l19.9-8.3c2.5-0.7,4.8,1.4,4.4,3.9l-6,20.8c-2.4-4-5.1-6.6-8.3-9.5
		C246.4,53.1,243.8,50.7,239.3,48.9z"/>
</g>
<g>
	<path class="st6" d="M124.3,67.3l6.8-22.7c1.3-4.2-3-8.1-7-6.5l-22.3,9.3c-6.5-3-14-4.7-22.4-4.7c-8.6,0-16.1,1.7-22.6,4.6
		l-22.1-9.2c-4-1.7-8.3,2.2-7,6.5l6.7,22.4c-8.1,12.4-11.9,27.5-11.9,40.8c0,28.3,25.5,37.3,56.9,37.3c31.4,0,56.9-9.1,56.9-37.3
		C136.3,94.6,132.4,79.5,124.3,67.3z"/>
	<path class="st2" d="M124,125.6c0,14.8-20,19.5-44.6,19.5s-44.6-4.7-44.6-19.5s13.3-34,44.6-34C110,91.5,124,110.8,124,125.6z"/>
	<path class="st3" d="M74.4,98.3c0-2,2.2-2.6,5-2.6s5,0.6,5,2.6c0,2-1.5,4.5-5,4.5C76,102.8,74.4,100.3,74.4,98.3z"/>
	<g>
		<path class="st4" d="M96.4,104.8c0,4.7-3.8,8.4-8.5,8.4c-4.7,0-8.5-3.8-8.5-8.4c0-0.2,0-0.2,0-0.2c0-0.3,0-0.5,0-0.5
			c0,0,0,0.2,0,0.5c0,0,0,0,0,0.2c0,4.7-3.8,8.4-8.5,8.4c-4.7,0-8.5-3.8-8.5-8.4"/>
	</g>
	<circle cx="69.5" cy="81.2" r="4.8"/>
	<circle cx="89.3" cy="81.2" r="4.8"/>
	<path class="st5" d="M54.7,48.9l-19.9-8.3c-2.5-0.7-4.8,1.4-4.4,3.9l6,20.8c2.4-4,5.1-6.6,8.3-9.5C47.6,53.1,50.2,50.7,54.7,48.9z"
		/>
	<path class="st5" d="M104.7,48.9l19.9-8.3c2.5-0.7,4.8,1.4,4.4,3.9l-6,20.8c-2.4-4-5.1-6.6-8.3-9.5
		C111.8,53.1,109.2,50.7,104.7,48.9z"/>
</g>
</svg>
