<svg version="1.1" xmlns="http://www.w3.org/2000/svg" xmlns:xlink="http://www.w3.org/1999/xlink" width="537" height="302" viewBox="0,0,537,302"><g transform="translate(28.5,-29)"><g data-paper-data="{&quot;isPaintingLayer&quot;:true}" fill-rule="nonzero" stroke-linejoin="miter" stroke-miterlimit="10" stroke-dasharray="" stroke-dashoffset="0" style="mix-blend-mode: normal"><path d="M-28.5,331v-302h537v302z" fill="#ffffff" stroke="none" stroke-width="0" stroke-linecap="butt"/><text transform="translate(14.31009,241.85741) scale(0.37971,0.37971)" font-size="40" xml:space="preserve" fill="#000000" fill-rule="nonzero" stroke="none" stroke-width="1" stroke-linecap="butt" stroke-linejoin="miter" stroke-miterlimit="10" stroke-dasharray="" stroke-dashoffset="0" font-family="Sans Serif" font-weight="normal" text-anchor="start" style="mix-blend-mode: normal"><tspan x="0" dy="0">                                 You received an alert.</tspan><tspan x="0" dy="46.15px">"You're now muted because you spammmed too many times."</tspan><tspan x="0" dy="46.15px">                  Meowy's kinda disappointed in you now...</tspan></text><g><path d="M313.34934,161.57196c0,40.01482 -36.18362,52.9274 -80.73912,52.9274c-44.55551,0 -80.73912,-12.77068 -80.73912,-52.9274c0,-18.87224 5.39206,-40.29862 16.88568,-57.89378l-9.50706,-31.78482c-1.84465,-6.10155 4.25689,-11.63551 9.93276,-9.22327l31.35913,13.05448c9.22327,-4.115 19.86551,-6.52724 32.06862,-6.52724c11.9193,0 22.56154,2.41224 31.78482,6.66914l31.64292,-13.19638c5.67586,-2.27035 11.77741,3.26362 9.93276,9.22327l-9.64897,32.21051c11.49362,17.31138 17.02759,38.73775 17.02759,57.46809z" fill="#ff7319" stroke="none" stroke-width="1" stroke-linecap="butt"/><path d="M295.75418,186.82954c0,21.00068 -28.3793,27.66982 -63.28585,27.66982c-34.90654,0 -63.28585,-6.66914 -63.28585,-27.66982c0,-21.00068 18.87224,-48.24482 63.28585,-48.24482c43.42033,-0.14189 63.28585,27.24413 63.28585,48.24482z" fill="#ffffff" stroke="none" stroke-width="1" stroke-linecap="butt"/><path d="M225.51539,148.09179c0,-2.83793 3.12173,-3.6893 7.09483,-3.6893c3.97311,0 7.09483,0.85138 7.09483,3.6893c0,2.83793 -2.12845,6.38535 -7.09483,6.38535c-4.96638,0 -7.09483,-3.54741 -7.09483,-6.38535z" fill="#945600" stroke="#000000" stroke-width="1.5" stroke-linecap="butt"/><path d="M224.19103,167.81542c6.66914,0 8.2773,-3.83121 8.2773,-10.50035c0,-0.28379 0,-0.28379 0,-0.28379c0,-0.4257 0,-0.70948 0,-0.70948c0,0 0,0.28379 0,0.70948c0,0 0,0 0,0.28379c0,6.52723 1.60816,10.97333 8.2773,10.97333" fill="none" stroke="#000000" stroke-width="2.5" stroke-linecap="round"/><path d="M211.75144,123.82749c0,-3.76163 3.0494,-6.81103 6.81103,-6.81103c3.76163,0 6.81103,3.0494 6.81103,6.81103c0,3.76163 -3.0494,6.81103 -6.81103,6.81103c-3.76163,0 -6.81103,-3.0494 -6.81103,-6.81103z" fill="#000000" stroke="none" stroke-width="1" stroke-linecap="butt"/><path d="M239.70506,123.82749c0,-3.76163 3.0494,-6.81103 6.81103,-6.81103c3.76163,0 6.81103,3.0494 6.81103,6.81103c0,3.76163 -3.0494,6.81103 -6.81103,6.81103c-3.76163,0 -6.81103,-3.0494 -6.81103,-6.81103z" fill="#000000" stroke="none" stroke-width="1" stroke-linecap="butt"/><path d="M183.23023,87.78578c-4.54068,4.115 -8.37189,7.8043 -11.77741,13.48017l-8.51379,-29.51448c-0.56759,-3.54741 2.69603,-6.52724 6.24345,-5.53397l28.23741,11.77741c-6.38535,2.55414 -10.07465,5.95965 -14.18965,9.79086z" fill="#77500c" stroke="none" stroke-width="1" stroke-linecap="butt"/><path d="M268.36815,77.99491l28.23741,-11.77741c3.54741,-0.99327 6.81103,1.98655 6.24345,5.53397l-8.51379,29.51448c-3.40552,-5.67586 -7.23673,-9.36517 -11.77741,-13.48017c-4.115,-3.83121 -7.8043,-7.23673 -14.18965,-9.79086z" fill="#77500c" stroke="none" stroke-width="1" stroke-linecap="butt"/><g stroke="#949494" stroke-width="2.5"><path d="M294.1366,181.83544c-4.97132,-11.45994 -17.39662,-40.69821 -20.42097,-47.57654c-1.26509,-2.8772 -0.58022,-5.82269 1.7261,-6.83677c9.63237,-4.23528 74.6501,-33.02633 90.67387,-40.1219c1.41283,-0.62563 3.2409,0.03435 4.3697,0.53097c0.66835,0.29406 0.90186,0.0994 1.17461,0.71975c2.39026,5.4362 15.82642,35.99424 21.51796,48.93859c1.61416,3.6711 0.67547,6.04507 -1.40843,6.96134c-9.31592,4.09615 -77.63601,34.13602 -92.96965,40.87811c-1.97712,0.86932 -3.40935,-0.6032 -4.66318,-3.49355z" fill="#d0d0d0" stroke-linecap="butt"/><path d="M367.75996,89.94593l-32.91023,47.32584l-62.82111,-7.34745" fill="none" stroke-linecap="round"/><path d="M294.61267,183.6792l27.8789,-46.61103" fill="none" stroke-linecap="round"/><path d="M342.75985,128.15636l49.74103,13.27484" fill="none" stroke-linecap="round"/></g><g><path d="M344.72798,137.15468c-0.4626,2.6863 -0.53584,6.04195 -2.38819,7.79841c-2.64191,2.50516 -12.2394,3.24506 -16.06872,2.66959c-6.51422,-0.97895 -6.25555,-7.49545 -5.13316,-14.01309c0.40271,-2.33852 0.13997,-5.46358 1.62846,-7.12108c2.66006,-2.96209 8.0219,-3.53532 12.19883,-2.90761c4.56137,0.68548 9.96428,2.85685 11.2738,6.9426c0.56064,1.74922 -1.17454,4.67731 -1.51101,6.63119z" fill="#f14141" stroke="none" stroke-width="1" stroke-linecap="butt"/><path d="M344.81585,137.15468c-1.12238,6.51765 -7.31307,11.00765 -13.82729,10.0287c-2.12702,-0.31965 -4.02554,-1.18284 -5.57893,-2.42744c-3.20402,-2.56711 -4.93976,-6.75684 -4.18385,-11.14634c1.12238,-6.51764 7.31307,-11.00765 13.82729,-10.0287c6.51422,0.97895 10.88517,7.05614 9.76278,13.57378z" fill="#f14141" stroke="#8e2626" stroke-width="1" stroke-linecap="butt"/><path d="M342.68486,136.83443c-0.9196,5.34011 -5.99183,9.01891 -11.32914,8.21683c-5.33731,-0.80208 -8.91856,-5.78132 -7.99896,-11.12143c0.9196,-5.34011 5.99183,-9.01891 11.32914,-8.21683c5.33731,0.80208 8.91856,5.78132 7.99896,11.12143z" fill="#f14141" stroke="#8e2626" stroke-width="1" stroke-linecap="butt"/><g stroke="#8e2626"><path d="M329.75848,141.76077c0,0 -3.28962,-7.89515 -3.6082,-8.65975c-0.04969,-0.11926 0.06003,-0.16434 0.23401,-0.11382c0.66058,0.19181 4.86541,1.55319 6.00012,1.88268c0.18263,0.05303 0.34801,-0.02439 0.45256,-0.21062c0.61812,-1.10093 2.70745,-5.1005 2.97976,-5.58551c0.05561,-0.09905 0.13173,-0.09358 0.17819,0.01793c0.30829,0.73991 3.59753,8.63414 3.59753,8.63414" fill="none" stroke-width="1" stroke-linecap="round"/><path d="M327.87806,135.35868l-0.58855,-1.41253l2.23766,0.64334" fill="#8e2626" stroke-width="1" stroke-linecap="round"/><path d="M334.80977,132.50647l1.11884,-2.04187l0.58855,1.41253" data-paper-data="{&quot;index&quot;:null}" fill="#8e2626" stroke-width="1" stroke-linecap="round"/><path d="M333.94338,136.46726c-0.14881,-0.35715 -0.18725,-0.68092 -0.08586,-0.72317c0.10139,-0.04225 0.30422,0.21303 0.45303,0.57018c0.14881,0.35715 0.18725,0.68092 0.08586,0.72317c-0.10139,0.04225 -0.30422,-0.21303 -0.45303,-0.57018z" fill="#8e2626" stroke-width="0.5" stroke-linecap="butt"/><path d="M332.33223,137.20835c-0.14881,-0.35715 -0.18725,-0.68092 -0.08586,-0.72317c0.10139,-0.04225 0.30422,0.21303 0.45303,0.57018c0.14881,0.35715 0.18725,0.68092 0.08586,0.72317c-0.10139,0.04225 -0.30422,-0.21303 -0.45303,-0.57018z" fill="#8e2626" stroke-width="0.5" stroke-linecap="butt"/><g fill="#8e2626" stroke-width="0" stroke-linecap="butt"><path d="M334.8985,138.20096c0.03549,0.03627 -0.00077,0.07176 -0.00077,0.07176l-0.05461,0.05344c-0.26622,0.25262 -0.59255,0.32254 -0.82318,0.13566c-0.03044,0.33277 -0.26466,0.59339 -0.65289,0.39401l-0.0596,-0.05996c0,0 -0.0355,-0.03627 0.00077,-0.07176c0.03627,-0.03549 0.07176,0.00077 0.07176,0.00077l0.04729,0.04926c0.34618,0.17778 0.51027,-0.10773 0.49511,-0.41501c-0.04898,-0.06583 -0.09068,-0.14805 -0.12273,-0.24777c0,0 -0.01553,-0.04831 0.03279,-0.06384c0.04831,-0.01553 0.06384,0.03279 0.06384,0.03279c0.00206,0.0064 0.00416,0.01271 0.0063,0.01894c0.00431,-0.00296 0.00953,-0.00555 0.01583,-0.00758c0.04831,-0.01553 0.06384,0.03279 0.06384,0.03279c0.02053,0.06387 0.03321,0.1297 0.03838,0.1949c0.19394,0.23483 0.502,0.18889 0.75149,-0.06574l0.05461,-0.05344c0,0 0.03627,-0.0355 0.07176,0.00077z"/><path d="M333.62816,137.98089c-0.02351,-0.10704 0.17496,-0.20981 0.282,-0.23332c0.10704,-0.02351 0.31197,-0.09781 0.33548,0.00923c0.02351,0.10704 -0.09834,0.3937 -0.20538,0.41721c-0.10704,0.02351 -0.38859,-0.08608 -0.41211,-0.19312z"/></g></g></g></g></g></g></svg>