<svg version="1.1" xmlns="http://www.w3.org/2000/svg" xmlns:xlink="http://www.w3.org/1999/xlink" width="375.6198" height="256.7095" viewBox="0,0,375.6198,256.7095"><g transform="translate(-52.52479,-57.65765)"><g data-paper-data="{&quot;isPaintingLayer&quot;:true}" fill-rule="nonzero" stroke-linejoin="miter" stroke-miterlimit="10" stroke-dasharray="" stroke-dashoffset="0" style="mix-blend-mode: normal"><path d="M133.85737,264.64107c0.23315,0.92907 1.58519,9.82117 1.64351,13.27983c0.08078,4.79029 -1.36191,9.32505 -3.92661,12.08552c-6.51153,7.00854 -22.62636,10.13723 -33.66605,10.13723c-11.4583,0 -26.1145,-1.68768 -32.6059,-9.15904c-1.69766,-1.95395 -2.8167,-5.08042 -3.47301,-8.60316c-1.12849,-6.05723 -0.88887,-13.28607 0.12975,-17.74038c4.24601,-18.56726 15.89504,-31.48342 35.50258,-31.48342c19.60754,0 31.91383,13.62383 36.39573,31.48342z" fill="#ffab19" stroke="none" stroke-width="NaN" stroke-linecap="butt"/><path d="M126.64818,280.4271c0.18511,0.49744 1.25859,5.25848 1.3049,7.11033c0.06414,2.56483 -1.08132,4.99284 -3.11762,6.47086c-5.16997,3.75253 -17.96469,5.4277 -26.7299,5.4277c-9.09757,0 -20.73418,-0.90362 -25.88817,-4.90396c-1.34789,-1.04619 -2.23638,-2.72017 -2.75746,-4.60632c-0.89599,-3.24318 -0.70574,-7.11367 0.10302,-9.4986c3.37122,-9.94133 12.62022,-16.85693 28.18805,-16.85693c15.56783,0 25.33868,7.2945 28.89719,16.85693z" fill="#ffffff" stroke="none" stroke-width="NaN" stroke-linecap="butt"/><path d="M109.49834,272.5808c0,0 -0.59618,2.36255 -2.52618,3.60083c-0.95122,0.6103 -2.76221,0.59033 -3.9365,0.57914c-0.9881,-0.00941 -2.44323,-0.76865 -3.11789,-2.08589c-0.77779,-1.51858 -0.75116,-3.62353 -1.59263,-3.63155c-0.92636,-0.00882 -0.70412,2.07514 -1.51467,3.57181c-0.70334,1.29869 -2.41742,2.03861 -3.44742,2.0288c-1.27454,-0.01214 -3.22958,-0.05183 -4.23916,-0.90228c-1.34717,-1.13481 -1.56327,-3.16085 -1.56327,-3.16085" fill="none" stroke="#000000" stroke-width="2.5" stroke-linecap="round"/><path d="M100.91684,267.32527c0,1.4982 -1.26733,2.71273 -2.83067,2.71273c-1.56334,0 -2.83067,-1.21453 -2.83067,-2.71273c0,-1.4982 5.66134,-1.4982 5.66134,0z" fill="#945600" stroke="#000000" stroke-width="1.5" stroke-linecap="butt"/><path d="M69.37803,251.69124c0,0 -3.55206,-16.40991 -4.18088,-20.66605c-0.09268,-0.62738 0.18209,-2.40394 0.99997,-3.20154c1.24024,-1.20949 3.3195,-1.31822 4.02016,-0.84965c3.18936,2.13287 15.4819,11.44183 15.4819,11.44183z" fill="#ffab19" stroke="none" stroke-width="0" stroke-linecap="butt"/><path d="M70.00006,243.9822c0,0 -1.94415,-8.98157 -2.28831,-11.31106c-0.05073,-0.34337 0.09967,-1.31575 0.54731,-1.7523c0.67882,-0.66199 1.81686,-0.72149 2.20035,-0.46505c1.74563,1.16736 8.47365,6.26241 8.47365,6.26241z" fill="#77500c" stroke="none" stroke-width="0" stroke-linecap="butt"/><path d="M132.25472,182.00601c0.23315,0.92907 1.58519,9.82117 1.64351,13.27983c0.08078,4.79029 -1.36191,9.32505 -3.92661,12.08552c-6.51152,7.00854 -22.62636,10.13722 -33.66605,10.13722c-11.4583,0 -26.1145,-1.68768 -32.6059,-9.15904c-1.69766,-1.95395 -2.8167,-5.08042 -3.47301,-8.60316c-1.12849,-6.05723 -0.88887,-13.28607 0.12975,-17.74038c4.24601,-18.56726 15.89504,-31.48342 35.50258,-31.48342c19.60754,0 31.91382,13.62383 36.39572,31.48342z" fill="#ff7319" stroke="none" stroke-width="NaN" stroke-linecap="butt"/><path d="M125.04553,197.79204c0.18511,0.49744 1.2586,5.25848 1.3049,7.11033c0.06414,2.56483 -1.08132,4.99284 -3.11762,6.47086c-5.16997,3.75253 -17.96469,5.4277 -26.7299,5.4277c-9.09757,0 -20.73418,-0.90362 -25.88817,-4.90396c-1.34789,-1.04619 -2.23638,-2.72016 -2.75746,-4.60632c-0.89599,-3.24318 -0.70574,-7.11367 0.10302,-9.4986c3.37122,-9.94133 12.62022,-16.85693 28.18805,-16.85693c15.56783,0 25.33868,7.2945 28.89718,16.85693z" fill="#ffffff" stroke="none" stroke-width="NaN" stroke-linecap="butt"/><path d="M107.89571,189.94574c0,0 -0.59618,2.36255 -2.52618,3.60083c-0.95122,0.6103 -2.76221,0.59033 -3.9365,0.57914c-0.9881,-0.00941 -2.44323,-0.76865 -3.11789,-2.08589c-0.77779,-1.51858 -0.75116,-3.62353 -1.59263,-3.63155c-0.92636,-0.00882 -0.70412,2.07514 -1.51467,3.57181c-0.70334,1.29869 -2.41742,2.03861 -3.44742,2.0288c-1.27454,-0.01214 -3.22958,-0.05183 -4.23916,-0.90228c-1.34717,-1.13481 -1.56327,-3.16085 -1.56327,-3.16085" fill="none" stroke="#000000" stroke-width="2.5" stroke-linecap="round"/><path d="M99.31419,184.6902c0,1.4982 -1.26733,2.71273 -2.83067,2.71273c-1.56334,0 -2.83067,-1.21453 -2.83067,-2.71273c0,-1.4982 5.66134,-1.4982 5.66134,0z" fill="#945600" stroke="#000000" stroke-width="1.5" stroke-linecap="butt"/><path d="M82.12726,172.0536c0,-1.99448 1.61683,-3.61131 3.61131,-3.61131c1.99448,0 3.61131,1.61683 3.61131,3.61131c0,1.99448 -1.61683,3.61131 -3.61131,3.61131c-1.99448,0 -3.61131,-1.61683 -3.61131,-3.61131z" fill="#000000" stroke="none" stroke-width="0.5" stroke-linecap="butt"/><text transform="translate(158.80871,284.14222) rotate(-0.55779) scale(2.76935,2.76935)" font-size="22" xml:space="preserve" fill="#ffffff" fill-rule="nonzero" stroke="none" stroke-width="1" stroke-linecap="butt" stroke-linejoin="miter" stroke-miterlimit="10" stroke-dasharray="" stroke-dashoffset="0" font-family="Scratch" font-weight="400" text-anchor="start" style="mix-blend-mode: normal"><tspan x="0" dy="0">meower</tspan></text><text transform="translate(146.80871,185.14221) rotate(-0.55779) scale(2.76935,2.76935)" font-size="22" xml:space="preserve" fill="#ffffff" fill-rule="nonzero" stroke="none" stroke-width="1" stroke-linecap="butt" stroke-linejoin="miter" stroke-miterlimit="10" stroke-dasharray="" stroke-dashoffset="0" font-family="Scratch" font-weight="400" text-anchor="start" style="mix-blend-mode: normal"><tspan x="0" dy="0">meower+</tspan></text><path d="M110.52653,237.30272c0,0 12.29253,-9.30897 15.4819,-11.44183c0.70066,-0.46857 2.77991,-0.35983 4.02015,0.84966c0.81788,0.7976 1.09266,2.57416 0.99998,3.20154c-0.62882,4.25614 -4.18088,20.66605 -4.18088,20.66605z" data-paper-data="{&quot;index&quot;:null}" fill="#ffab19" stroke="none" stroke-width="0" stroke-linecap="butt"/><path d="M117.29264,235.60309c0,0 6.72803,-5.09504 8.47366,-6.26241c0.3835,-0.25645 1.52153,-0.19694 2.20035,0.46505c0.44764,0.43654 0.59804,1.40893 0.54731,1.7523c-0.34416,2.32949 -2.28831,11.31106 -2.28831,11.31106z" data-paper-data="{&quot;index&quot;:null}" fill="#77500c" stroke="none" stroke-width="0" stroke-linecap="butt"/><path d="M66.12532,167.74539c0,0 -3.55206,-16.40992 -4.18088,-20.66605c-0.09268,-0.62738 0.18209,-2.40394 0.99998,-3.20153c1.24024,-1.20949 3.3195,-1.31822 4.02015,-0.84965c3.18936,2.13286 15.4819,11.44183 15.4819,11.44183z" fill="#ff7319" stroke="none" stroke-width="0" stroke-linecap="butt"/><path d="M66.74735,160.03635c0,0 -1.94415,-8.98157 -2.28831,-11.31106c-0.05073,-0.34337 0.09967,-1.31575 0.54731,-1.7523c0.67882,-0.66199 1.81686,-0.72149 2.20035,-0.46504c1.74563,1.16737 8.47366,6.26241 8.47366,6.26241z" fill="#77500c" stroke="none" stroke-width="0" stroke-linecap="butt"/><path d="M107.27382,153.35687c0,0 12.29253,-9.30897 15.4819,-11.44183c0.70066,-0.46856 2.77992,-0.35984 4.02016,0.84965c0.81788,0.7976 1.09265,2.57416 0.99997,3.20154c-0.62882,4.25614 -4.18088,20.66605 -4.18088,20.66605z" data-paper-data="{&quot;index&quot;:null}" fill="#ff7319" stroke="none" stroke-width="0" stroke-linecap="butt"/><path d="M114.03993,151.65724c0,0 6.72803,-5.09504 8.47365,-6.26241c0.3835,-0.25644 1.52153,-0.19694 2.20035,0.46505c0.44764,0.43654 0.59804,1.40893 0.54731,1.7523c-0.34416,2.32949 -2.28831,11.31106 -2.28831,11.31106z" data-paper-data="{&quot;index&quot;:null}" fill="#77500c" stroke="none" stroke-width="0" stroke-linecap="butt"/><path d="M103.63266,172.16311c0,-1.99448 1.61683,-3.61131 3.61131,-3.61131c1.99448,0 3.61131,1.61683 3.61131,3.61131c0,1.99448 -1.61683,3.61131 -3.61131,3.61131c-1.99448,0 -3.61131,-1.61683 -3.61131,-3.61131z" fill="#000000" stroke="none" stroke-width="0.5" stroke-linecap="butt"/><path d="M83.45939,254.07887c0,-1.99448 1.61683,-3.61131 3.61131,-3.61131c1.99448,0 3.61131,1.61683 3.61131,3.61131c0,1.99448 -1.61683,3.61131 -3.61131,3.61131c-1.99448,0 -3.61131,-1.61683 -3.61131,-3.61131z" fill="#000000" stroke="none" stroke-width="0.5" stroke-linecap="butt"/><path d="M104.9648,254.18838c0,-1.99448 1.61684,-3.61131 3.61132,-3.61131c1.99448,0 3.61131,1.61683 3.61131,3.61131c0,1.99448 -1.61683,3.61131 -3.61131,3.61131c-1.99448,0 -3.61132,-1.61683 -3.61132,-3.61131z" fill="#000000" stroke="none" stroke-width="0.5" stroke-linecap="butt"/><path d="M63.5601,189.71816l-7.94706,-1.22262" fill="none" stroke="#000000" stroke-width="2" stroke-linecap="round"/><path d="M55.52479,184.14416l7.94706,1.22262" fill="none" stroke="#000000" stroke-width="2" stroke-linecap="round"/><path d="M130.76142,189.33831l7.94706,-1.22262" data-paper-data="{&quot;index&quot;:null}" fill="none" stroke="#000000" stroke-width="2" stroke-linecap="round"/><path d="M138.79673,183.76432l-7.94706,1.22262" data-paper-data="{&quot;index&quot;:null}" fill="none" stroke="#000000" stroke-width="2" stroke-linecap="round"/><path d="M130.56528,269.52966l7.94706,-1.22262" data-paper-data="{&quot;index&quot;:null}" fill="none" stroke="#000000" stroke-width="2" stroke-linecap="round"/><path d="M138.60058,263.95566l-7.94706,1.22262" data-paper-data="{&quot;index&quot;:null}" fill="none" stroke="#000000" stroke-width="2" stroke-linecap="round"/><path d="M58.01694,270.25048l7.94705,1.22262" data-paper-data="{&quot;index&quot;:null}" fill="none" stroke="#000000" stroke-width="2" stroke-linecap="round"/><path d="M57.92869,265.8991l7.94705,1.22262" data-paper-data="{&quot;index&quot;:null}" fill="none" stroke="#000000" stroke-width="2" stroke-linecap="round"/><path d="M130.25472,98.00601c0.23315,0.92907 1.58519,9.82117 1.64351,13.27983c0.08078,4.79029 -1.36191,9.32505 -3.92661,12.08552c-6.51152,7.00854 -22.62636,10.13722 -33.66605,10.13722c-11.4583,0 -26.1145,-1.68768 -32.6059,-9.15904c-1.69766,-1.95395 -2.8167,-5.08042 -3.47301,-8.60316c-1.12849,-6.05723 -0.88887,-13.28607 0.12975,-17.74038c4.24601,-18.56726 15.89504,-31.48342 35.50258,-31.48342c19.60754,0 31.91382,13.62383 36.39572,31.48342z" fill="#ff8cb4" stroke="none" stroke-width="NaN" stroke-linecap="butt"/><path d="M123.04553,113.79204c0.18511,0.49744 1.2586,5.25848 1.3049,7.11033c0.06414,2.56483 -1.08132,4.99284 -3.11762,6.47086c-5.16997,3.75253 -17.96469,5.4277 -26.7299,5.4277c-9.09757,0 -20.73418,-0.90362 -25.88817,-4.90396c-1.34789,-1.04619 -2.23638,-2.72016 -2.75746,-4.60632c-0.89599,-3.24318 -0.70574,-7.11367 0.10302,-9.4986c3.37122,-9.94133 12.62022,-16.85693 28.18805,-16.85693c15.56783,0 25.33868,7.2945 28.89718,16.85693z" fill="#ffffff" stroke="none" stroke-width="NaN" stroke-linecap="butt"/><path d="M105.89571,105.94574c0,0 -0.59618,2.36255 -2.52618,3.60083c-0.95122,0.6103 -2.76221,0.59033 -3.9365,0.57914c-0.9881,-0.00941 -2.44323,-0.76865 -3.11789,-2.08589c-0.77779,-1.51858 -0.75116,-3.62353 -1.59263,-3.63155c-0.92636,-0.00882 -0.70412,2.07514 -1.51467,3.57181c-0.70334,1.29869 -2.41742,2.03861 -3.44742,2.0288c-1.27454,-0.01214 -3.22958,-0.05183 -4.23916,-0.90228c-1.34717,-1.13481 -1.56327,-3.16085 -1.56327,-3.16085" fill="none" stroke="#000000" stroke-width="2.5" stroke-linecap="round"/><path d="M97.31419,100.6902c0,1.4982 -1.26733,2.71273 -2.83067,2.71273c-1.56334,0 -2.83067,-1.21453 -2.83067,-2.71273c0,-1.4982 5.66134,-1.4982 5.66134,0z" fill="#945600" stroke="#000000" stroke-width="1.5" stroke-linecap="butt"/><path d="M80.12726,88.0536c0,-1.99448 1.61683,-3.61131 3.61131,-3.61131c1.99448,0 3.61131,1.61683 3.61131,3.61131c0,1.99448 -1.61683,3.61131 -3.61131,3.61131c-1.99448,0 -3.61131,-1.61683 -3.61131,-3.61131z" fill="#000000" stroke="none" stroke-width="0.5" stroke-linecap="butt"/><path d="M64.12532,83.74539c0,0 -3.55206,-16.40992 -4.18088,-20.66605c-0.09268,-0.62738 0.18209,-2.40394 0.99998,-3.20153c1.24024,-1.20949 3.3195,-1.31822 4.02015,-0.84965c3.18936,2.13286 15.4819,11.44183 15.4819,11.44183z" fill="#ff8cb4" stroke="none" stroke-width="0" stroke-linecap="butt"/><path d="M64.74735,76.03635c0,0 -1.94415,-8.98157 -2.28831,-11.31106c-0.05073,-0.34337 0.09967,-1.31575 0.54731,-1.7523c0.67882,-0.66199 1.81686,-0.72149 2.20035,-0.46504c1.74563,1.16737 8.47366,6.26241 8.47366,6.26241z" fill="#77500c" stroke="none" stroke-width="0" stroke-linecap="butt"/><path d="M105.27382,69.35687c0,0 12.29253,-9.30897 15.4819,-11.44183c0.70066,-0.46856 2.77992,-0.35984 4.02016,0.84965c0.81788,0.7976 1.09265,2.57416 0.99997,3.20154c-0.62882,4.25614 -4.18088,20.66605 -4.18088,20.66605z" data-paper-data="{&quot;index&quot;:null}" fill="#ff8cb4" stroke="none" stroke-width="0" stroke-linecap="butt"/><path d="M112.03993,67.65724c0,0 6.72803,-5.09504 8.47365,-6.26241c0.3835,-0.25644 1.52153,-0.19694 2.20035,0.46505c0.44764,0.43654 0.59804,1.40893 0.54731,1.7523c-0.34416,2.32949 -2.28831,11.31106 -2.28831,11.31106z" data-paper-data="{&quot;index&quot;:null}" fill="#77500c" stroke="none" stroke-width="0" stroke-linecap="butt"/><path d="M101.63266,89.16311c0,-1.99448 1.61683,-3.61131 3.61131,-3.61131c1.99448,0 3.61131,1.61683 3.61131,3.61131c0,1.99448 -1.61683,3.61131 -3.61131,3.61131c-1.99448,0 -3.61131,-1.61683 -3.61131,-3.61131z" fill="#000000" stroke="none" stroke-width="0.5" stroke-linecap="butt"/><path d="M53.61304,104.49554l7.94706,1.22262" fill="none" stroke="#000000" stroke-width="2" stroke-linecap="round"/><path d="M53.52479,100.14416l7.94706,1.22262" fill="none" stroke="#000000" stroke-width="2" stroke-linecap="round"/><path d="M128.76142,105.33831l7.94706,-1.22262" data-paper-data="{&quot;index&quot;:null}" fill="none" stroke="#000000" stroke-width="2" stroke-linecap="round"/><path d="M136.79673,99.76432l-7.94706,1.22262" data-paper-data="{&quot;index&quot;:null}" fill="none" stroke="#000000" stroke-width="2" stroke-linecap="round"/><text transform="translate(139.80871,106.14221) rotate(-0.55779) scale(2.76935,2.76935)" font-size="22" xml:space="preserve" fill="#ffffff" fill-rule="nonzero" stroke="none" stroke-width="1" stroke-linecap="butt" stroke-linejoin="miter" stroke-miterlimit="10" stroke-dasharray="" stroke-dashoffset="0" font-family="Scratch" font-weight="400" text-anchor="start" style="mix-blend-mode: normal"><tspan x="0" dy="0">WikiMeower</tspan></text></g></g></svg>