<svg version="1.1" xmlns="http://www.w3.org/2000/svg" xmlns:xlink="http://www.w3.org/1999/xlink" width="22.79094" height="18.4859" viewBox="0,0,22.79094,18.4859"><g transform="translate(-308.60453,-170.75705)"><g data-paper-data="{&quot;isPaintingLayer&quot;:true}" fill="#f2f2f2" fill-rule="nonzero" stroke="none" stroke-width="0" stroke-linecap="butt" stroke-linejoin="miter" stroke-miterlimit="10" stroke-dasharray="" stroke-dashoffset="0" style="mix-blend-mode: normal"><path d="M330.72545,174.68222l-13.80759,13.88322c-0.73871,0.74288 -1.85801,0.87451 -2.73372,0.39654c-0.03831,-0.02052 -0.07523,-0.04368 -0.11271,-0.0662c-0.01936,-0.01219 -0.03871,-0.02316 -0.05767,-0.03552c-0.1432,-0.09315 -0.27927,-0.20207 -0.40314,-0.33034l-4.35991,-4.51369c-0.88311,-0.91443 -0.85799,-2.37166 0.05664,-3.25497c0.91406,-0.88291 2.37106,-0.85759 3.25437,0.05684l2.74391,2.84043l12.15649,-12.22272c0.89647,-0.90147 2.3537,-0.90547 3.25457,-0.00916c0.90167,0.89667 0.90547,2.3539 0.00876,3.25557z"/></g></g></svg>