<svg width="32" height="32" viewBox="0 0 32 32" fill="none" xmlns="http://www.w3.org/2000/svg">
<g clip-path="url(#clip0_2_35)">
<path d="M0.25 31.3462V0.25H31.3462V31.3462H0.25Z" fill="white" fill-opacity="0.01" stroke="white" stroke-opacity="0.01" stroke-width="0.5" stroke-miterlimit="10"/>
<path d="M29.309 19.6932C29.309 26.3893 23.254 28.5501 15.7981 28.5501C8.34216 28.5501 2.28717 26.413 2.28717 19.6932C2.28717 16.5351 3.18947 12.9496 5.11282 10.0052L3.52191 4.6863C3.21322 3.66527 4.23426 2.7392 5.18407 3.14287L10.4317 5.32741C11.9751 4.6388 13.756 4.23513 15.7981 4.23513C17.7927 4.23513 19.5736 4.63881 21.117 5.35115L26.4121 3.14284C27.3619 2.76292 28.383 3.68898 28.0743 4.68627L26.4596 10.0764C28.383 12.9733 29.309 16.5588 29.309 19.6931L29.309 19.6932Z" fill="#FF7319" stroke="#FF7319" stroke-width="2.5" stroke-miterlimit="10"/>
</g>
<defs>
<clipPath id="clip0_2_35">
<rect width="31.5962" height="31.5962" fill="white"/>
</clipPath>
</defs>
</svg>
