<svg width="28" height="28" viewBox="0 0 28 28" fill="none" xmlns="http://www.w3.org/2000/svg">
<path fill-rule="evenodd" clip-rule="evenodd" d="M8.5 20C8.10218 20 7.72064 20.158 7.43934 20.4393C7.15804 20.7206 7 21.1022 7 21.5C7 22.0523 6.55228 22.5 6 22.5C5.44772 22.5 5 22.0523 5 21.5C5 20.5717 5.36875 19.6815 6.02513 19.0251C6.6815 18.3687 7.57174 18 8.5 18H22C22.5523 18 23 18.4477 23 19C23 19.5523 22.5523 20 22 20H8.5Z" fill="#FF0000"/>
<path fill-rule="evenodd" clip-rule="evenodd" d="M8.5 5C8.10218 5 7.72064 5.15804 7.43934 5.43934C7.15804 5.72064 7 6.10218 7 6.5V21.5C7 21.8978 7.15804 22.2794 7.43934 22.5607C7.72064 22.842 8.10218 23 8.5 23H21V5H8.5ZM6.02513 4.02513C6.6815 3.36875 7.57174 3 8.5 3H22C22.5523 3 23 3.44772 23 4V24C23 24.5523 22.5523 25 22 25H8.5C7.57174 25 6.6815 24.6313 6.02513 23.9749C5.36875 23.3185 5 22.4283 5 21.5V6.5C5 5.57174 5.36875 4.6815 6.02513 4.02513Z" fill="#FF0000"/>
</svg>
