<svg width="28" height="28" viewBox="0 0 28 28" fill="none" xmlns="http://www.w3.org/2000/svg">
<path fill-rule="evenodd" clip-rule="evenodd" d="M2.2448 17.4449C3.04183 16.6478 4.12283 16.2001 5.25 16.2001H12.05C13.1772 16.2001 14.2582 16.6478 15.0552 17.4449C15.8522 18.2419 16.3 19.3229 16.3 20.4501V22.1501C16.3 22.6195 15.9194 23.0001 15.45 23.0001C14.9806 23.0001 14.6 22.6195 14.6 22.1501V20.4501C14.6 19.7738 14.3313 19.1252 13.8531 18.647C13.3749 18.1687 12.7263 17.9001 12.05 17.9001H5.25C4.5737 17.9001 3.9251 18.1687 3.44688 18.647C2.96866 19.1252 2.7 19.7738 2.7 20.4501V22.1501C2.7 22.6195 2.31944 23.0001 1.85 23.0001C1.38056 23.0001 1 22.6195 1 22.1501V20.4501C1 19.3229 1.44777 18.2419 2.2448 17.4449Z" fill="#FF0000"/>
<path fill-rule="evenodd" clip-rule="evenodd" d="M8.65015 7.7C7.24182 7.7 6.10015 8.84167 6.10015 10.25C6.10015 11.6583 7.24182 12.8 8.65015 12.8C10.0585 12.8 11.2001 11.6583 11.2001 10.25C11.2001 8.84167 10.0585 7.7 8.65015 7.7ZM4.40015 10.25C4.40015 7.90279 6.30294 6 8.65015 6C10.9974 6 12.9001 7.90279 12.9001 10.25C12.9001 12.5972 10.9974 14.5 8.65015 14.5C6.30294 14.5 4.40015 12.5972 4.40015 10.25Z" fill="#FF0000"/>
<path fill-rule="evenodd" clip-rule="evenodd" d="M17.1771 16.9479C17.2945 16.4934 17.7581 16.22 18.2126 16.3374C19.1244 16.5728 19.9321 17.1044 20.5091 17.8486C21.086 18.5928 21.3994 19.5076 21.4001 20.4493L21.4001 22.1499C21.4001 22.6193 21.0196 22.9999 20.5501 22.9999C20.0807 22.9999 19.7001 22.6193 19.7001 22.1499L19.7001 20.4505C19.7001 20.4504 19.7001 20.4506 19.7001 20.4505C19.6996 19.8856 19.5116 19.3366 19.1655 18.8901C18.8193 18.4436 18.3347 18.1246 17.7876 17.9834C17.3331 17.866 17.0597 17.4024 17.1771 16.9479Z" fill="#FF0000"/>
<path fill-rule="evenodd" clip-rule="evenodd" d="M13.7765 6.7496C13.893 6.29483 14.356 6.02056 14.8108 6.137C15.725 6.37107 16.5353 6.90274 17.1139 7.6482C17.6925 8.39366 18.0066 9.3105 18.0066 10.2542C18.0066 11.1979 17.6925 12.1147 17.1139 12.8602C16.5353 13.6056 15.725 14.1373 14.8108 14.3714C14.356 14.4878 13.893 14.2135 13.7765 13.7588C13.6601 13.304 13.9344 12.8409 14.3891 12.7245C14.9376 12.5841 15.4238 12.2651 15.771 11.8178C16.1182 11.3705 16.3066 10.8204 16.3066 10.2542C16.3066 9.68798 16.1182 9.13787 15.771 8.69059C15.4238 8.24332 14.9376 7.92431 14.3891 7.78387C13.9344 7.66743 13.6601 7.20437 13.7765 6.7496Z" fill="#FF0000"/>
<path fill-rule="evenodd" clip-rule="evenodd" d="M22.277 16.9479C22.3943 16.4934 22.8579 16.22 23.3125 16.3374C24.2242 16.5728 25.032 17.1044 25.6089 17.8486C26.1858 18.5928 26.4993 19.5076 26.5 20.4493L26.5 22.1499C26.5 22.6193 26.1194 22.9999 25.65 22.9999C25.1805 22.9999 24.8 22.6193 24.8 22.1499L24.8 20.4505C24.8 20.4504 24.8 20.4506 24.8 20.4505C24.7995 19.8856 24.6114 19.3366 24.2653 18.8901C23.9192 18.4436 23.4345 18.1246 22.8875 17.9834C22.4329 17.866 22.1596 17.4024 22.277 16.9479Z" fill="#FF0000"/>
<path fill-rule="evenodd" clip-rule="evenodd" d="M18.8766 6.7496C18.9931 6.29483 19.4561 6.02056 19.9109 6.137C20.8251 6.37107 21.6354 6.90274 22.214 7.6482C22.7926 8.39366 23.1067 9.3105 23.1067 10.2542C23.1067 11.1979 22.7926 12.1147 22.214 12.8602C21.6354 13.6056 20.8251 14.1373 19.9109 14.3714C19.4561 14.4878 18.9931 14.2135 18.8766 13.7588C18.7602 13.304 19.0345 12.8409 19.4892 12.7245C20.0377 12.5841 20.5239 12.2651 20.8711 11.8178C21.2183 11.3705 21.4067 10.8204 21.4067 10.2542C21.4067 9.68798 21.2183 9.13787 20.8711 8.69059C20.5239 8.24332 20.0377 7.92431 19.4892 7.78387C19.0345 7.66743 18.7602 7.20437 18.8766 6.7496Z" fill="#FF0000"/>
</svg>
