<svg width="28" height="28" viewBox="0 0 28 28" fill="none" xmlns="http://www.w3.org/2000/svg">
<path fill-rule="evenodd" clip-rule="evenodd" d="M14.4999 17.8271C14.0034 17.8271 13.6133 17.9503 13.6133 18.3021C13.6133 18.6012 13.8182 18.9638 14.2499 19.0659V19.4579C14.2499 19.9355 13.8202 20.3623 13.2966 20.3623C12.7683 20.3623 12.3433 19.9631 12.3433 19.4579C12.3433 19.3198 12.2313 19.2079 12.0933 19.2079C11.9552 19.2079 11.8433 19.3198 11.8433 19.4579C11.8433 20.2674 12.5212 20.8623 13.2966 20.8623C13.7836 20.8623 14.2289 20.6162 14.4949 20.2432C14.7603 20.6238 15.2123 20.8623 15.7033 20.8623C16.4833 20.8623 17.1566 20.231 17.1566 19.4579C17.1566 19.3198 17.0447 19.2079 16.9066 19.2079C16.7685 19.2079 16.6566 19.3198 16.6566 19.4579C16.6566 19.9355 16.2269 20.3623 15.7033 20.3623C15.175 20.3623 14.7499 19.9623 14.7499 19.4571V19.0669C15.1816 18.9683 15.3866 18.6162 15.3866 18.3021C15.3866 17.9327 14.9965 17.8271 14.4999 17.8271Z" fill="#FF0000"/>
<path d="M12.2178 16.2734C12.2178 15.7848 12.6159 15.3867 13.1044 15.3867C13.593 15.3867 13.9911 15.7848 13.9911 16.2734C13.9911 16.762 13.593 17.1601 13.1044 17.1601C12.6159 17.1601 12.2178 16.762 12.2178 16.2734V16.2734Z" fill="#FF0000"/>
<path d="M15.0088 16.2734C15.0088 15.7848 15.4069 15.3867 15.8955 15.3867C16.384 15.3867 16.7821 15.7848 16.7821 16.2734C16.7821 16.762 16.384 17.1601 15.8955 17.1601C15.4069 17.1601 15.0088 16.762 15.0088 16.2734Z" fill="#FF0000"/>
<path fill-rule="evenodd" clip-rule="evenodd" d="M4 4H6.12985L14.5 11.7357L22.8701 4H25V24H23V6.60334L14.9249 14.0664H14.0751L6 6.60334V24H4V4Z" fill="#FF0000"/>
</svg>
