<svg width="28" height="28" viewBox="0 0 28 28" fill="none" xmlns="http://www.w3.org/2000/svg">
<path fill-rule="evenodd" clip-rule="evenodd" d="M5.71454 16.6443C6.81234 15.5915 8.30128 15 9.85381 15H19.1462C20.6987 15 22.1877 15.5915 23.2855 16.6443C24.3833 17.6971 25 19.125 25 20.614V22.8419C25 23.4815 24.4593 24 23.7924 24C23.1254 24 22.5848 23.4815 22.5848 22.8419V20.614C22.5848 19.7394 22.2225 18.9006 21.5776 18.2821C20.9328 17.6637 20.0582 17.3163 19.1462 17.3163H9.85381C8.94185 17.3163 8.06723 17.6637 7.42238 18.2821C6.77752 18.9006 6.41524 19.7394 6.41524 20.614V22.8419C6.41524 23.4815 5.87457 24 5.20762 24C4.54067 24 4 23.4815 4 22.8419V20.614C4 19.125 4.61674 17.6971 5.71454 16.6443Z" fill="#FF0000"/>
<path fill-rule="evenodd" clip-rule="evenodd" d="M14.5 5.85667C13.0401 5.85667 11.8567 7.04013 11.8567 8.5C11.8567 9.95987 13.0401 11.1433 14.5 11.1433C15.9599 11.1433 17.1433 9.95987 17.1433 8.5C17.1433 7.04013 15.9599 5.85667 14.5 5.85667ZM10 8.5C10 6.01472 12.0147 4 14.5 4C16.9853 4 19 6.01472 19 8.5C19 10.9853 16.9853 13 14.5 13C12.0147 13 10 10.9853 10 8.5Z" fill="#FF0000"/>
</svg>
