<svg width="28" height="28" viewBox="0 0 28 28" fill="none" xmlns="http://www.w3.org/2000/svg">
<path fill-rule="evenodd" clip-rule="evenodd" d="M13 6C9.13401 6 6 9.13401 6 13C6 16.866 9.13401 20 13 20C16.866 20 20 16.866 20 13C20 9.13401 16.866 6 13 6ZM4 13C4 8.02944 8.02944 4 13 4C17.9706 4 22 8.02944 22 13C22 17.9706 17.9706 22 13 22C8.02944 22 4 17.9706 4 13Z" fill="#FF0000"/>
<path fill-rule="evenodd" clip-rule="evenodd" d="M17.9433 17.9428C18.3338 17.5523 18.967 17.5523 19.3575 17.9428L23.7075 22.2928C24.098 22.6833 24.098 23.3165 23.7075 23.707C23.317 24.0975 22.6838 24.0975 22.2933 23.707L17.9433 19.357C17.5528 18.9665 17.5528 18.3333 17.9433 17.9428Z" fill="#FF0000"/>
</svg>
