<svg width="257" height="189" viewBox="0 0 257 189" fill="none" xmlns="http://www.w3.org/2000/svg">
<path fill-rule="evenodd" clip-rule="evenodd" d="M39.5394 8.183L59.0463 16.366L65.3872 14.115C86.1964 6.72701 112.537 6.88901 131.522 14.521L137.499 16.924L157.615 8.49301C168.678 3.85401 178.763 0.0479988 180.025 0.0299988C183.084 -0.0100012 187.64 3.68701 188.435 6.85501C189.054 9.32201 188.352 12.197 182.025 33.099C176.353 51.837 176.401 50.873 180.772 58.708C191.093 77.208 196.891 99.146 197.093 120.459C197.237 135.572 195.645 142.921 190.162 152.473C179.727 170.651 156.268 183.322 126.724 186.74C114.146 188.196 82.8604 188.195 70.2588 186.738C47.8544 184.149 29.5174 176.47 16.5696 164.256C4.33807 152.718 -0.0505666 141.118 0.000438845 120.459C0.0536147 99.302 5.2757 78.253 15.0904 59.637L20.0456 50.239L17.6972 42.212C16.4047 37.797 14.1246 30.033 12.6303 24.96C7.37995 7.13701 7.37344 7.024 11.4984 2.442C12.8245 0.969001 14.9537 0 16.8648 0C18.6066 0 28.8109 3.682 39.5394 8.183Z" fill="#FF7319"/>
<path d="M71.914 89.45L66.7818 90.732L63.031 92.144C52.6005 96.07 43.1205 102.163 35.2159 110.02L31.2054 115.371C23.2617 125.972 19.0351 137.957 18.9921 150.005C18.9508 161.768 22.5028 168.374 32.4026 174.944C42.8821 181.899 57.7235 186.271 75.8568 187.746C86.0562 188.575 111.378 188.576 121.558 187.747C145.47 185.8 164.457 178.585 172.902 168.235C177.341 162.795 178.629 158.611 178.512 150.005C178.349 137.868 173.656 125.377 165.303 114.842L162.845 112.332C153.664 102.957 142.551 95.694 130.279 91.049L125.441 89.6809C110.075 85.3349 88.7562 85.243 71.914 89.45Z" fill="white"/>
<path d="M158.951 11.6489L142.345 18.807L148.067 22.1099C153.802 25.4209 169.996 40.595 172.983 45.454C174.495 47.916 174.835 47.118 179.853 29.35C187.887 0.901953 186.536 -0.242052 158.951 11.6489Z" fill="#77500C"/>
<path d="M13.8437 6.92596C12.2549 9.34996 12.4893 10.665 17.617 28.075C20.6242 38.283 23.0843 46.931 23.0843 47.291C23.0843 47.65 24.9585 45.58 27.2494 42.691C33.1997 35.189 45.1871 24.269 50.3799 21.62C52.8184 20.375 54.3898 18.998 53.871 18.559C51.6387 16.672 20.7707 4.33997 18.2801 4.33997C16.5882 4.33997 14.8887 5.32996 13.8437 6.92596Z" fill="#77500C"/>
<path d="M78.9684 83.4338C83.7632 83.4338 87.6502 79.5468 87.6502 74.752C87.6502 69.9572 83.7632 66.0702 78.9684 66.0702C74.1736 66.0702 70.2866 69.9572 70.2866 74.752C70.2866 79.5468 74.1736 83.4338 78.9684 83.4338Z" fill="black"/>
<path d="M118.329 83.4338C123.124 83.4338 127.011 79.5468 127.011 74.752C127.011 69.9572 123.124 66.0702 118.329 66.0702C113.534 66.0702 109.647 69.9572 109.647 74.752C109.647 79.5468 113.534 83.4338 118.329 83.4338Z" fill="black"/>
<path fill-rule="evenodd" clip-rule="evenodd" d="M101.389 105.89H94.8775V117.827H94.8703C94.8747 117.948 94.877 118.069 94.877 118.191C94.877 123.585 90.5041 127.958 85.11 127.958C84.3633 127.958 83.6362 127.874 82.9375 127.715V134.325C83.6475 134.42 84.372 134.469 85.1079 134.469C90.4336 134.469 95.162 131.911 98.1318 127.957C101.102 131.911 105.83 134.469 111.156 134.469C111.891 134.469 112.616 134.42 113.326 134.325V127.715C112.627 127.874 111.9 127.958 111.153 127.958C105.841 127.958 101.52 123.718 101.389 118.439V117.943C101.39 117.904 101.391 117.866 101.392 117.827H101.389V105.89Z" fill="black"/>
<path fill-rule="evenodd" clip-rule="evenodd" d="M101.027 96.324C103.504 96.324 106 97.6874 106 100.088C106 104.637 102.193 108.324 97.4994 108.324C92.8054 108.324 89 104.637 89 100.088C89 97.6874 91.4953 96.324 93.9734 96.324H101.027Z" fill="#77500C"/>
<path fill-rule="evenodd" clip-rule="evenodd" d="M92.5924 98.8646C92.2173 99.1237 92.133 99.3529 92.133 99.5922C92.133 102.739 94.7517 105.304 97.9994 105.304C101.248 105.304 103.867 102.739 103.867 99.5922C103.867 99.3533 103.783 99.1241 103.407 98.8647C102.98 98.5694 102.284 98.3443 101.499 98.3443H94.501C93.7151 98.3443 93.0196 98.5695 92.5924 98.8646ZM89.6311 94.764C91.0564 93.7793 92.8283 93.324 94.501 93.324H101.499C103.171 93.324 104.943 93.7794 106.368 94.7639C107.846 95.7843 109 97.434 109 99.5922C109 105.528 104.066 110.324 97.9994 110.324C91.9325 110.324 87 105.527 87 99.5922C87 97.4345 88.1536 95.7846 89.6311 94.764Z" fill="black"/>
<path fill-rule="evenodd" clip-rule="evenodd" d="M227.59 47.1838C228.935 47.2048 230.259 47.9103 231.037 49.1663L249.621 79.1946C250.815 81.1234 250.267 83.6189 248.399 84.7688L180.759 126.425C178.891 127.576 176.409 126.945 175.216 125.017L156.632 94.9888C155.821 93.6787 155.814 92.1072 156.477 90.8735C156.674 89.8463 157.27 88.9152 158.21 88.3363L224.425 47.5579C225.4 46.957 226.55 46.8568 227.59 47.1838Z" fill="#D0D0D0"/>
<path fill-rule="evenodd" clip-rule="evenodd" d="M228.272 49.2057C228.295 49.2164 228.317 49.2276 228.339 49.2393L204.232 87.5579L159.402 91.6937C159.401 91.6528 159.401 91.612 159.403 91.5716C159.539 91.3931 159.706 91.2394 159.9 91.1203L227.541 49.464C227.765 49.3261 228.014 49.2401 228.272 49.2057ZM228.9 45.196C227.417 44.8062 225.794 44.9834 224.374 45.8578L158.16 86.6362C156.797 87.4751 155.926 88.7681 155.578 90.1932C154.719 92.0068 154.802 94.2215 155.93 96.0441L174.514 126.072C176.254 128.885 179.947 129.892 182.806 128.131L250.446 86.4748C253.309 84.7122 254.062 80.9607 252.32 78.1449L233.735 48.1163C232.654 46.3696 230.82 45.319 228.9 45.196ZM231.382 51.9142L248.919 80.25C249.563 81.2917 249.222 82.5314 248.349 83.0687L180.708 124.725C179.832 125.265 178.561 125.011 177.915 123.967L160.372 95.6212L206.566 91.3596L231.382 51.9142Z" fill="#949494"/>
<path d="M213.172 86.0107C213.367 88.4026 214.043 91.2794 212.845 93.1832C211.138 95.8978 203.098 98.6334 199.698 98.9827C193.916 99.576 192.705 93.9636 192.231 88.1609C192.061 86.0794 191.149 83.4723 192.057 81.733C193.68 78.6239 198.136 76.9595 201.844 76.579C205.893 76.1627 210.988 76.8292 213.006 80.0257C213.869 81.3939 213.03 84.2706 213.172 86.0107Z" fill="#F14141"/>
<path d="M212.796 86.038C213.25 91.5912 209.13 96.5542 203.596 97.1225C201.789 97.3081 200.054 97.0025 198.521 96.3133C195.361 94.8905 193.059 91.836 192.754 88.0962C192.301 82.5422 196.42 77.5792 201.955 77.0109C207.489 76.4425 212.343 80.484 212.796 86.038Z" fill="#F14141" stroke="#8E2626" stroke-miterlimit="10"/>
<path d="M211.021 86.2041C211.395 90.7906 207.994 94.889 203.423 95.3583C201.931 95.5111 200.498 95.2585 199.233 94.6894C196.623 93.5145 194.722 90.9925 194.47 87.9037C194.096 83.3172 197.498 79.2188 202.069 78.7495C206.639 78.2801 210.647 81.6176 211.021 86.2041Z" fill="#F14141" stroke="#8E2626" stroke-miterlimit="10"/>
<path fill-rule="evenodd" clip-rule="evenodd" d="M204.443 88.8563C204.408 88.8066 204.364 88.7704 204.31 88.7508C204.257 88.7315 204.202 88.7308 204.151 88.7398C204.051 88.7573 203.947 88.8142 203.852 88.8799C203.755 88.9465 203.666 89.0251 203.615 89.1129C203.589 89.1578 203.571 89.2089 203.57 89.2642C203.568 89.3208 203.585 89.3749 203.619 89.4238C203.739 89.5965 204.019 89.7063 204.293 89.5179C204.566 89.3299 204.568 89.0364 204.443 88.8563Z" fill="#8E2626"/>
<path fill-rule="evenodd" clip-rule="evenodd" d="M205.172 88.7764C205.218 88.745 205.28 88.7564 205.311 88.8019C205.52 89.1039 205.441 89.5325 205.139 89.7416C204.938 89.8799 204.682 89.8886 204.469 89.7894C204.483 90.0206 204.389 90.258 204.19 90.395C203.888 90.603 203.467 90.5395 203.248 90.2238C203.217 90.1784 203.228 90.1161 203.274 90.0847C203.319 90.0532 203.381 90.0645 203.413 90.1099C203.567 90.3321 203.863 90.3778 204.076 90.2304C204.284 90.0876 204.333 89.7655 204.184 89.5502L204.17 89.5306L204.168 89.527L204.247 89.4668L204.327 89.4067L204.328 89.4076L204.329 89.4091L204.333 89.4143M204.168 89.527L204.247 89.4668ZM204.333 89.4143C204.491 89.6416 204.817 89.7207 205.025 89.5771C205.237 89.4306 205.292 89.1264 205.147 88.9155C205.115 88.87 205.127 88.8077 205.172 88.7764" fill="#8E2626"/>
<path fill-rule="evenodd" clip-rule="evenodd" d="M202.63 88.2266C202.853 88.0732 203.161 88.1285 203.315 88.3519C203.469 88.5743 203.413 88.8815 203.189 89.0353C202.966 89.1899 202.659 89.1329 202.505 88.9111L202.505 88.9109C202.35 88.6875 202.407 88.3803 202.63 88.2266Z" fill="#8E2626"/>
<path fill-rule="evenodd" clip-rule="evenodd" d="M203.678 87.5047C203.901 87.3513 204.208 87.4066 204.362 87.6299C204.517 87.8524 204.461 88.1597 204.237 88.3134C204.014 88.467 203.707 88.4113 203.553 88.1883C203.398 87.9655 203.455 87.6583 203.678 87.5047ZM203.553 88.1883L203.553 88.1884L203.635 88.1312L203.552 88.1882L203.553 88.1883ZM204.237 88.3134L204.237 88.3134L204.18 88.231L204.237 88.3135L204.237 88.3134Z" fill="#8E2626"/>
<path d="M201.549 93.5114L201.731 93.7742L196.723 86.5432L197.013 86.3437L202.566 87.0523L202.592 87.0344L203.893 81.6028L204.183 81.4033L209.191 88.6342L209.009 88.3714" stroke="#8E2626" stroke-miterlimit="10" stroke-linecap="round"/>
</svg>
