<svg width="346" height="330" viewBox="0 0 346 330" fill="none" xmlns="http://www.w3.org/2000/svg">
<g clip-path="url(#clip0_1_390)">
<path fill-rule="evenodd" clip-rule="evenodd" d="M39.5394 150.183L59.0463 158.366L65.3872 156.115C86.1964 148.727 112.537 148.889 131.522 156.521L137.499 158.924L157.615 150.493C168.678 145.854 178.763 142.048 180.025 142.03C183.084 141.99 187.64 145.687 188.435 148.855C189.054 151.322 188.352 154.197 182.025 175.099C176.353 193.837 176.401 192.873 180.772 200.708C191.093 219.208 196.891 241.146 197.093 262.459C197.237 277.572 195.645 284.921 190.162 294.473C179.727 312.651 156.268 325.322 126.724 328.74C114.146 330.196 82.8604 330.195 70.2588 328.738C47.8544 326.149 29.5174 318.47 16.5696 306.256C4.33807 294.718 -0.0505666 283.118 0.000438845 262.459C0.0536147 241.302 5.2757 220.253 15.0904 201.637L20.0456 192.239L17.6972 184.212C16.4047 179.797 14.1246 172.033 12.6303 166.96C7.37995 149.137 7.37344 149.024 11.4984 144.442C12.8245 142.969 14.9537 142 16.8648 142C18.6066 142 28.8109 145.682 39.5394 150.183Z" fill="#FF7319"/>
<path d="M71.914 231.45L66.7818 232.732L63.031 234.144C52.6005 238.07 43.1205 244.163 35.2159 252.02L31.2054 257.371C23.2617 267.972 19.0351 279.957 18.9921 292.005C18.9508 303.768 22.5028 310.374 32.4026 316.944C42.8821 323.899 57.7234 328.271 75.8568 329.746C86.0562 330.575 111.378 330.576 121.558 329.747C145.47 327.8 164.457 320.585 172.902 310.235C177.341 304.795 178.629 300.611 178.512 292.005C178.349 279.868 173.656 267.377 165.303 256.842L162.845 254.332C153.664 244.957 142.551 237.694 130.279 233.049L125.441 231.681C110.075 227.335 88.7562 227.243 71.914 231.45Z" fill="white"/>
<path d="M158.951 153.649L142.345 160.807L148.067 164.11C153.802 167.421 169.996 182.595 172.983 187.454C174.495 189.916 174.835 189.118 179.853 171.35C187.887 142.902 186.536 141.758 158.951 153.649Z" fill="#77500C"/>
<path d="M13.8437 148.926C12.2549 151.35 12.4893 152.665 17.617 170.075C20.6242 180.283 23.0843 188.931 23.0843 189.291C23.0843 189.65 24.9585 187.58 27.2494 184.691C33.1997 177.189 45.1871 166.269 50.3799 163.62C52.8184 162.375 54.3898 160.998 53.871 160.559C51.6387 158.672 20.7707 146.34 18.2801 146.34C16.5882 146.34 14.8887 147.33 13.8437 148.926Z" fill="#77500C"/>
<path d="M79.6818 224.688C84.4766 224.688 88.3636 220.801 88.3636 216.006C88.3636 211.211 84.4766 207.324 79.6818 207.324C74.887 207.324 71 211.211 71 216.006C71 220.801 74.887 224.688 79.6818 224.688Z" fill="black"/>
<path d="M119.042 224.688C123.837 224.688 127.724 220.801 127.724 216.006C127.724 211.211 123.837 207.324 119.042 207.324C114.248 207.324 110.361 211.211 110.361 216.006C110.361 220.801 114.248 224.688 119.042 224.688Z" fill="black"/>
<path fill-rule="evenodd" clip-rule="evenodd" d="M102.102 247.144H95.5909V259.081H95.5837C95.5881 259.202 95.5904 259.323 95.5904 259.445C95.5904 264.839 91.2175 269.212 85.8234 269.212C85.0767 269.212 84.3496 269.128 83.6509 268.969V275.579C84.3609 275.674 85.0854 275.723 85.8213 275.723C91.147 275.723 95.8754 273.165 98.8452 269.211C101.815 273.165 106.543 275.723 111.869 275.723C112.604 275.723 113.329 275.674 114.039 275.579V268.969C113.34 269.128 112.613 269.212 111.866 269.212C106.554 269.212 102.233 264.972 102.102 259.693V259.197C102.103 259.158 102.104 259.12 102.105 259.081H102.102V247.144Z" fill="black"/>
<path fill-rule="evenodd" clip-rule="evenodd" d="M101.74 237.578C104.217 237.578 106.713 238.941 106.713 241.342C106.713 245.891 102.907 249.578 98.2128 249.578C93.5188 249.578 89.7134 245.891 89.7134 241.342C89.7134 238.941 92.2087 237.578 94.6868 237.578H101.74Z" fill="#77500C"/>
<path fill-rule="evenodd" clip-rule="evenodd" d="M93.3058 240.118C92.9307 240.378 92.8464 240.607 92.8464 240.846C92.8464 243.993 95.4651 246.557 98.7128 246.557C101.961 246.557 104.58 243.993 104.58 240.846C104.58 240.607 104.496 240.378 104.121 240.119C103.693 239.823 102.998 239.598 102.212 239.598H95.2144C94.4284 239.598 93.733 239.823 93.3058 240.118ZM90.3445 236.018C91.7698 235.033 93.5416 234.578 95.2144 234.578H102.212C103.885 234.578 105.656 235.033 107.082 236.018C108.559 237.038 109.713 238.688 109.713 240.846C109.713 246.782 104.779 251.578 98.7128 251.578C92.6459 251.578 87.7134 246.781 87.7134 240.846C87.7134 238.688 88.867 237.038 90.3445 236.018Z" fill="black"/>
<path d="M241.292 90.788L254.87 94.4263L193.019 325.259L179.44 321.62L241.292 90.788Z" fill="#787878"/>
<path fill-rule="evenodd" clip-rule="evenodd" d="M336.735 86.0496L178.465 43.6443C178.708 43.0188 178.957 42.3953 179.214 41.7742L336.999 84.0494C336.921 84.7211 336.833 85.3878 336.735 86.0496Z" fill="white"/>
<path fill-rule="evenodd" clip-rule="evenodd" d="M336.998 84.0981C338.918 70.4358 336.456 54.6955 327.565 36.6603C303.418 48.4786 276.451 29.8897 269.248 21.0184C247.67 29.1094 212.287 19.6189 205.801 4C194.255 14.3081 184.827 27.4741 179.212 41.7759L336.998 84.0981Z" fill="#E13636"/>
<path fill-rule="evenodd" clip-rule="evenodd" d="M336.736 86.0486L178.465 43.64C172.863 58.1559 171.194 73.8151 175.218 88.832C184.343 122.884 224.3 161.992 231.008 163.79C236.448 165.248 327.861 145.287 336.736 86.0486Z" fill="#368FE1"/>
<path d="M206.952 25.1331C207.061 25.1621 207.143 25.2256 207.2 25.3236C207.26 25.4061 207.276 25.5014 207.247 25.6096L203.589 39.264C203.56 39.3721 203.496 39.4545 203.398 39.5111C203.3 39.5676 203.197 39.5814 203.089 39.5525L201.304 39.0742C201.257 39.0617 201.213 39.0416 201.171 39.0137C201.144 38.99 201.117 38.9662 201.091 38.9425C201.068 38.9033 201.045 38.8641 201.023 38.8249C201.016 38.7899 201.008 38.7548 201.001 38.7198C200.998 38.6693 201.003 38.6208 201.015 38.5745L204.674 24.9201C204.703 24.812 204.764 24.7373 204.858 24.6962C204.956 24.6396 205.059 24.6258 205.167 24.6548L206.952 25.1331ZM221.251 28.9644C221.359 28.9934 221.434 29.0548 221.475 29.1486C221.536 29.2312 221.552 29.3265 221.523 29.4347L217.864 43.089C217.835 43.1972 217.771 43.2796 217.673 43.3362C217.591 43.3969 217.496 43.4127 217.387 43.3837L214.907 42.7191C214.752 42.6777 214.655 42.5771 214.615 42.4173L212.073 31.5986L209.588 40.8715C209.559 40.9797 209.495 41.062 209.397 41.1186C209.299 41.1752 209.196 41.189 209.088 41.16L207.303 40.6817C207.195 40.6527 207.113 40.5892 207.056 40.4912C206.999 40.3932 206.986 40.2902 207.015 40.182L210.673 26.5276C210.702 26.4195 210.764 26.3448 210.858 26.3037C210.955 26.2471 211.059 26.2333 211.167 26.2623L213.555 26.9021C213.709 26.9435 213.801 27.0343 213.829 27.1746L216.475 38.0707L218.973 28.7514C219.002 28.6432 219.055 28.5665 219.134 28.5213C219.232 28.4647 219.335 28.4509 219.443 28.4799L221.251 28.9644ZM235.739 32.8464C235.847 32.8754 235.929 32.9388 235.986 33.0367C236.047 33.1193 236.063 33.2147 236.034 33.3229L235.549 35.1311C235.52 35.2393 235.457 35.3216 235.359 35.3781C235.265 35.4193 235.164 35.4254 235.056 35.3963L230.674 34.2224L227.599 45.6976C227.579 45.7749 227.545 45.8403 227.497 45.8939C227.45 45.9474 227.391 45.9813 227.321 45.9957C227.251 46.01 227.185 46.0089 227.123 45.9923L225.315 45.5078C225.206 45.4788 225.124 45.4154 225.067 45.3174C225.026 45.2235 225.02 45.1225 225.049 45.0144L228.124 33.5392L223.743 32.3652C223.634 32.3362 223.55 32.2804 223.489 32.1979C223.433 32.0999 223.419 31.9968 223.448 31.8886L223.932 30.0804C223.961 29.9722 224.023 29.8976 224.117 29.8565C224.215 29.7999 224.318 29.7861 224.426 29.8151L235.739 32.8464ZM243.838 47.7133C243.947 47.7423 244.029 47.8058 244.086 47.9038C244.142 48.0017 244.156 48.1048 244.127 48.213L243.649 49.998C243.628 50.0753 243.594 50.1407 243.546 50.1943C243.499 50.2478 243.44 50.2817 243.37 50.2961C243.3 50.3104 243.226 50.3072 243.149 50.2865L235.082 48.1249C235.02 48.1083 234.968 48.0861 234.926 48.0582C234.887 48.0149 234.857 47.9736 234.834 47.9344C234.812 47.8952 234.791 47.8483 234.773 47.7937C234.77 47.7432 234.777 47.687 234.793 47.6252L238.452 33.9709C238.481 33.8627 238.542 33.788 238.636 33.7469C238.734 33.6903 238.837 33.6766 238.945 33.7055L246.479 35.7242C246.588 35.7533 246.67 35.8168 246.727 35.9148C246.787 35.9973 246.803 36.0927 246.774 36.2008L246.29 38.0091C246.273 38.0709 246.241 38.1286 246.194 38.1821C246.146 38.2356 246.087 38.2696 246.017 38.2839C245.947 38.2983 245.873 38.2951 245.796 38.2744L240.441 36.8394L239.578 40.0618L243.866 41.211C243.975 41.24 244.057 41.3034 244.113 41.4014C244.17 41.4994 244.184 41.6025 244.155 41.7107L243.67 43.5189C243.646 43.6116 243.584 43.6863 243.486 43.7428C243.388 43.7994 243.285 43.8132 243.177 43.7842L238.888 42.635L237.95 46.1356L243.838 47.7133ZM255.889 47.4141C256.687 49.632 256.911 51.6385 256.562 53.4334C256.549 53.5458 256.491 53.6379 256.389 53.71C256.291 53.7665 256.188 53.7803 256.08 53.7513C255.74 53.6602 255.137 53.4987 254.272 53.2668C254.163 53.2378 254.079 53.1821 254.018 53.0996C253.977 53.0057 253.961 52.9104 253.971 52.8135C254.262 51.1689 253.959 49.3649 253.06 47.4015L250.418 46.6934L249.138 51.4689C249.109 51.5771 249.046 51.6595 248.948 51.716C248.85 51.7726 248.746 51.7864 248.638 51.7574L246.853 51.2791C246.745 51.2501 246.663 51.1866 246.606 51.0886C246.55 50.9907 246.536 50.8876 246.565 50.7794L250.223 37.1251C250.252 37.0169 250.314 36.9422 250.408 36.9011C250.506 36.8446 250.609 36.8308 250.717 36.8598L255.747 38.2077C256.999 38.5431 257.94 39.2671 258.569 40.38C259.218 41.4816 259.377 42.6505 259.046 43.8869L258.965 44.1883C258.758 44.961 258.38 45.63 257.831 46.1952C257.282 46.7603 256.635 47.1667 255.889 47.4141ZM256.415 43.505L256.496 43.2036C256.637 42.6782 256.564 42.1782 256.277 41.7038C256.009 41.218 255.605 40.9027 255.064 40.7577L252.213 39.9937L251.101 44.1433L253.952 44.9073C254.308 45.0026 254.655 45.0046 254.994 44.9132C255.338 44.8064 255.634 44.629 255.882 44.3809C256.146 44.137 256.324 43.845 256.415 43.505ZM267.696 48.5404C269.771 50.0074 270.598 51.5291 270.175 53.1055C269.861 54.2801 269.1 55.1697 267.895 55.7742C266.689 56.3788 265.391 56.4948 264 56.1221C263.32 55.9398 262.55 55.5679 261.69 55.0062C260.834 54.429 260.141 53.7712 259.61 53.0326C259.534 52.9459 259.51 52.8485 259.539 52.7403C259.568 52.6321 259.634 52.542 259.736 52.47C260.395 52.0503 260.921 51.7273 261.313 51.501C261.517 51.357 261.691 51.3871 261.835 51.5913C262.017 51.8389 262.236 52.0715 262.493 52.2893C262.749 52.5071 263.004 52.6996 263.257 52.8669C263.511 53.0342 263.762 53.1762 264.013 53.2929C264.263 53.4097 264.489 53.495 264.69 53.5488C265.014 53.6358 265.334 53.68 265.648 53.6814C265.966 53.6673 266.255 53.612 266.512 53.5155C266.786 53.423 267.013 53.2852 267.195 53.1019C267.396 52.9074 267.532 52.6788 267.602 52.416C267.664 52.1842 267.546 51.9125 267.249 51.6009C266.963 51.3089 266.273 50.7927 265.179 50.0524C263.974 49.2326 263.131 48.5179 262.648 47.9082C261.739 46.7868 261.461 45.5693 261.813 44.2556C261.966 43.6838 262.244 43.1703 262.648 42.7153C263.056 42.2448 263.528 41.8743 264.064 41.6039C264.62 41.3221 265.238 41.1482 265.918 41.082C266.618 41.0045 267.316 41.0589 268.011 41.2453C268.444 41.3612 268.914 41.5535 269.422 41.8221C269.949 42.0793 270.485 42.4299 271.029 42.8737C271.572 43.3175 272.026 43.787 272.39 44.2822C272.467 44.3689 272.49 44.4663 272.461 44.5745C272.448 44.6868 272.39 44.779 272.288 44.851C271.417 45.3797 270.874 45.7063 270.659 45.8307C270.474 45.9635 270.308 45.9354 270.159 45.7466C269.272 44.7304 268.326 44.0877 267.322 43.8185C266.657 43.6404 266.032 43.6552 265.446 43.8626C264.876 44.0743 264.521 44.4428 264.38 44.9683C264.243 45.4783 264.45 46.0057 264.999 46.5506C265.221 46.7755 265.469 46.9912 265.745 47.1977C266.037 47.4083 266.399 47.6628 266.833 47.9611C267.266 48.2595 267.554 48.4526 267.696 48.5404ZM286.427 46.4283C286.535 46.4573 286.618 46.5208 286.674 46.6188C286.735 46.7013 286.751 46.7966 286.722 46.9048L286.237 48.7131C286.209 48.8212 286.145 48.9036 286.047 48.9602C285.953 49.0013 285.852 49.0074 285.744 48.9784L281.363 47.8044L278.288 59.2796C278.267 59.3568 278.233 59.4222 278.186 59.4758C278.138 59.5293 278.079 59.5633 278.009 59.5776C277.939 59.592 277.873 59.5908 277.811 59.5743L276.003 59.0898C275.895 59.0608 275.813 58.9973 275.756 58.8993C275.715 58.8055 275.709 58.7045 275.738 58.5963L278.813 47.1211L274.431 45.9471C274.323 45.9181 274.238 45.8623 274.178 45.7798C274.121 45.6818 274.107 45.5788 274.136 45.4706L274.621 43.6624C274.65 43.5542 274.711 43.4795 274.805 43.4384C274.903 43.3818 275.006 43.3681 275.114 43.397L286.427 46.4283ZM295.605 63.7706C295.614 63.9222 295.566 64.0415 295.459 64.1291C295.353 64.2166 295.23 64.2416 295.091 64.2043L293.167 63.6889C292.997 63.6433 292.904 63.5273 292.888 63.3407L292.516 59.8123L286.906 58.3091C285.857 59.7508 285.162 60.7074 284.82 61.179C284.713 61.3325 284.574 61.3864 284.404 61.3409L282.48 60.8253C282.341 60.788 282.247 60.7049 282.199 60.5761C282.151 60.4472 282.168 60.3194 282.252 60.1927C282.749 59.5141 284.251 57.4319 286.758 53.9462C289.286 50.4491 290.742 48.4457 291.127 47.936C291.23 47.798 291.367 47.7518 291.537 47.7974L293.762 48.3937C293.932 48.4392 294.027 48.5476 294.048 48.7187C294.108 49.298 294.36 51.726 294.804 56.0027C295.249 60.2794 295.515 62.8687 295.605 63.7706ZM288.569 55.9968L292.232 56.9782L291.687 51.6888L288.569 55.9968ZM310.175 52.7916C310.284 52.8206 310.366 52.8841 310.423 52.9821C310.483 53.0646 310.499 53.16 310.47 53.2682L309.986 55.0764C309.957 55.1845 309.893 55.2669 309.795 55.3235C309.701 55.3646 309.6 55.3707 309.492 55.3417L305.111 54.1677L302.036 65.6428C302.015 65.7201 301.981 65.7856 301.934 65.8391C301.886 65.8926 301.827 65.9266 301.757 65.9409C301.687 65.9553 301.621 65.9542 301.559 65.9375L299.751 65.4531C299.643 65.4241 299.561 65.3606 299.504 65.2626C299.463 65.1688 299.457 65.0678 299.486 64.9596L302.561 53.4844L298.179 52.3104C298.071 52.2814 297.987 52.2256 297.926 52.1431C297.869 52.0451 297.856 51.9421 297.885 51.8339L298.369 50.0257C298.398 49.9175 298.459 49.8428 298.553 49.8017C298.651 49.7452 298.754 49.7314 298.863 49.7603L310.175 52.7916ZM318.275 67.6586C318.383 67.6875 318.466 67.7509 318.522 67.8489C318.579 67.9469 318.593 68.0501 318.564 68.1583L318.085 69.9432C318.065 70.0205 318.031 70.086 317.983 70.1395C317.936 70.193 317.877 70.227 317.807 70.2413C317.737 70.2557 317.663 70.2525 317.586 70.2318L309.518 68.07C309.456 68.0536 309.404 68.0313 309.362 68.0035C309.324 67.9601 309.294 67.9188 309.271 67.8797C309.248 67.8405 309.228 67.7935 309.209 67.7388C309.206 67.6884 309.213 67.6323 309.23 67.5704L312.888 53.9161C312.917 53.8079 312.979 53.7333 313.073 53.6922C313.171 53.6356 313.274 53.6218 313.382 53.6508L320.916 55.6696C321.024 55.6986 321.107 55.762 321.163 55.86C321.224 55.9426 321.24 56.0379 321.211 56.1461L320.726 57.9543C320.71 58.0161 320.678 58.0737 320.63 58.1273C320.583 58.1809 320.524 58.2148 320.454 58.2292C320.384 58.2435 320.31 58.2402 320.233 58.2196L314.878 56.7847L314.014 60.0071L318.303 61.1562C318.411 61.1852 318.494 61.2487 318.55 61.3467C318.607 61.4446 318.621 61.5477 318.592 61.6559L318.107 63.4641C318.082 63.5569 318.021 63.6315 317.923 63.6881C317.825 63.7446 317.722 63.7584 317.614 63.7294L313.325 62.5803L312.387 66.0808L318.275 67.6586Z" fill="white"/>
<path d="M242.79 90.6555C240.136 104.67 235.082 114.012 227.627 118.682C225.829 119.765 223.9 120.582 221.84 121.131C219.848 121.641 218.086 121.836 216.553 121.715C215.02 121.594 213.528 121.426 212.078 121.212C210.683 121.012 209.662 120.709 209.017 120.304C208.584 120.188 208.303 119.939 208.174 119.557C208.044 119.174 208.057 118.801 208.213 118.437C208.466 117.925 208.775 117.312 209.14 116.598C209.506 115.884 209.885 115.116 210.279 114.294C210.728 113.487 211.03 112.901 211.185 112.537C211.55 111.823 212.104 111.595 212.847 111.852C216.428 112.985 219.715 112.619 222.707 110.754C223.819 110.067 225.197 108.928 226.84 107.339C228.498 105.697 229.529 104.118 229.935 102.603C228.957 103.443 227.424 104.076 225.339 104.502C223.322 104.89 221.692 104.916 220.447 104.583C220.217 104.579 219.877 104.546 219.43 104.484C219.037 104.437 218.218 104.247 216.974 103.913C215.799 103.54 214.699 103.101 213.675 102.595C212.651 102.088 211.558 101.302 210.394 100.237C209.284 99.1863 208.387 97.9894 207.703 96.6466C207.088 95.2643 206.717 93.5125 206.59 91.3913C206.477 89.216 206.761 86.8572 207.442 84.3149C207.529 83.9903 207.602 83.7198 207.66 83.5035C207.718 83.2871 207.783 83.0437 207.855 82.7732C209.261 77.5263 211.558 73.8226 214.746 71.662C218.497 69.1306 223.47 68.637 229.665 70.1811L229.828 70.2246C236.019 71.9995 240.107 74.9209 242.089 78.9887C243.626 82.1253 243.859 86.0142 242.79 90.6555ZM233.082 91.1849C233.14 90.9686 233.171 90.745 233.174 90.5141L233.337 90.5576L233.424 90.233L233.261 90.1896C233.359 90.0418 233.437 89.8597 233.495 89.6433C234.306 86.6142 234.37 84.4282 233.687 83.0855C232.899 81.4829 230.781 80.1908 227.333 79.2091C223.857 78.3356 221.377 78.3958 219.893 79.3896C218.684 80.225 217.673 82.1573 216.862 85.1865C216.804 85.4028 216.753 85.5922 216.709 85.7544L216.622 86.079C216.564 86.2953 216.506 86.5117 216.448 86.7281C215.651 89.7031 215.56 91.8818 216.175 93.2641C216.978 94.8126 219.096 96.1048 222.529 97.1406C226.074 97.9745 228.554 97.9143 229.969 96.9601C231.247 96.085 232.285 94.16 233.082 91.1849ZM283.722 108.667C285.246 112.496 285.342 116.899 284.009 121.875C282.864 126.148 280.068 129.66 275.62 132.411C271.173 135.162 266.596 135.907 261.89 134.646C259.456 133.993 257.17 133.004 255.032 131.678C252.895 130.351 251.133 128.922 249.746 127.391C248.373 125.806 247.289 124.443 246.493 123.302C245.712 122.107 245.039 120.941 244.474 119.804C244.276 119.461 244.254 119.108 244.41 118.744C244.58 118.325 244.856 118.052 245.239 117.922C246.852 117.311 248.882 116.55 251.329 115.641C252.108 115.328 252.689 115.541 253.07 116.281C255.637 121.201 259.381 124.32 264.303 125.639C266.575 126.248 268.788 125.885 270.944 124.549C273.153 123.228 274.533 121.539 275.084 119.484C275.881 116.509 275.875 114.043 275.065 112.087C274.166 109.817 272.044 108.002 268.698 106.641C265.352 105.281 261.636 104.546 257.549 104.437C257.264 104.418 257.02 104.353 256.818 104.241C256.656 104.197 256.4 104.071 256.05 103.861C255.701 103.652 255.351 103.442 255.001 103.232C254.652 103.023 254.248 102.799 253.79 102.56C253.387 102.336 253.037 102.126 252.741 101.931C252.446 101.736 252.226 101.474 252.082 101.146C252.007 100.778 252.04 100.439 252.181 100.129C252.434 99.617 253.904 96.6193 256.591 91.1358C259.277 85.6524 260.959 82.1896 261.635 80.7475C261.986 80.0878 262.513 79.8521 263.216 80.0405L290.884 87.4541C291.263 87.5556 291.551 87.7778 291.749 88.1207C291.961 88.4096 292.017 88.7433 291.915 89.1219L290.22 95.4507C290.118 95.8293 289.896 96.1176 289.553 96.3156C289.225 96.4595 288.871 96.4808 288.492 96.3793L267.153 90.6615L264.62 95.8962C267.451 96.3649 269.986 97.0732 272.225 98.021C277.972 100.372 281.805 103.921 283.722 108.667Z" fill="white"/>
</g>
<defs>
<clipPath id="clip0_1_390">
<rect width="346" height="330" fill="white"/>
</clipPath>
</defs>
</svg>
