<svg width="440" height="407" viewBox="0 0 440 407" fill="none" xmlns="http://www.w3.org/2000/svg">
<g clip-path="url(#clip0_14_17)">
<path d="M234.88 73.3102C234.88 37.4736 263.917 8.4223 299.737 8.4223C335.556 8.4223 364.594 37.4736 364.594 73.3102C364.594 109.147 335.556 168.733 299.737 168.733C263.917 168.733 234.88 109.147 234.88 73.3102Z" fill="#CCCCCC"/>
<path d="M252.292 186.261C216.472 186.261 187.435 157.21 187.435 121.373C187.435 85.5368 216.472 56.4856 252.292 56.4856C288.111 56.4856 347.67 85.5369 347.67 121.373C347.67 157.21 288.111 186.261 252.292 186.261Z" fill="#CCCCCC"/>
<path d="M279.766 95.4927C279.766 59.6561 339.324 30.6048 375.143 30.6048C410.963 30.6048 440 59.6561 440 95.4927C440 131.329 410.963 160.38 375.143 160.38C339.324 160.38 279.766 131.329 279.766 95.4927V95.4927Z" fill="#CCCCCC"/>
<path d="M252.995 140.023C252.995 104.187 312.553 75.1356 348.372 75.1356C384.192 75.1356 413.229 104.187 413.229 140.023C413.229 175.86 384.192 204.911 348.372 204.911C312.553 204.911 252.995 175.86 252.995 140.023V140.023Z" fill="#CCCCCC"/>
<path d="M296.235 277.962V156.998H315.183V277.962H296.235Z" fill="#CCCCCC"/>
<path d="M267.362 261.713H344.958L307.062 303.238L267.362 261.713Z" fill="#CCCCCC"/>
<path d="M247.358 314.819H368.264V333.776H247.358V314.819Z" fill="#CCCCCC"/>
<path d="M249.009 282.168V333.623H230.062V282.168H249.009Z" fill="#CCCCCC"/>
<path d="M384.65 282.466V333.921H365.702V282.466H384.65Z" fill="#CCCCCC"/>
<path d="M229.168 64.8879C229.168 29.0513 258.206 0 294.025 0C329.845 0 358.882 29.0513 358.882 64.8879C358.882 100.724 329.845 160.311 294.025 160.311C258.206 160.311 229.168 100.724 229.168 64.8879Z" fill="#FAFAFA"/>
<path d="M246.581 177.839C210.761 177.839 181.724 148.788 181.724 112.951C181.724 77.1145 210.761 48.0633 246.581 48.0633C282.4 48.0633 341.958 77.1145 341.958 112.951C341.958 148.788 282.4 177.839 246.581 177.839Z" fill="#FAFAFA"/>
<path d="M274.054 87.0704C274.054 51.2338 333.612 22.1825 369.432 22.1825C405.251 22.1825 434.289 51.2338 434.289 87.0704C434.289 122.907 405.251 151.958 369.432 151.958C333.612 151.958 274.054 122.907 274.054 87.0704V87.0704Z" fill="#FAFAFA"/>
<path d="M247.283 131.601C247.283 95.7646 306.841 66.7133 342.661 66.7133C378.48 66.7133 407.518 95.7646 407.518 131.601C407.518 167.438 378.48 196.489 342.661 196.489C306.841 196.489 247.283 167.438 247.283 131.601V131.601Z" fill="#FAFAFA"/>
<path d="M290.523 269.539V148.576H309.471V269.539H290.523Z" fill="#FAFAFA"/>
<path d="M261.65 253.291H339.247L301.351 294.815L261.65 253.291Z" fill="#FAFAFA"/>
<path d="M241.647 306.397H362.553V325.354H241.647V306.397Z" fill="#FAFAFA"/>
<path d="M243.298 273.746V325.201H224.35V273.746H243.298Z" fill="#FAFAFA"/>
<path d="M378.938 274.044V325.498H359.99V274.044H378.938Z" fill="#FAFAFA"/>
<path fill-rule="evenodd" clip-rule="evenodd" d="M40.8711 219.812L61.0336 228.275L67.5892 225.947C89.0981 218.306 116.326 218.473 135.95 226.366L142.128 228.851L162.921 220.131C174.357 215.336 184.782 211.399 186.087 211.379C189.248 211.339 193.958 215.162 194.78 218.439C195.42 220.989 194.693 223.962 188.154 245.579C182.291 264.957 182.341 263.96 186.86 272.063C197.527 291.195 203.521 313.883 203.73 335.924C203.879 351.554 202.234 359.154 196.564 369.032C185.778 387.831 161.53 400.934 130.991 404.47C117.989 405.976 85.6495 405.974 72.625 404.468C49.4647 401.79 30.5106 393.849 17.1267 381.216C4.48421 369.285 -0.052498 357.289 0.000457579 335.924C0.0550152 314.043 5.45352 292.275 15.5974 273.023L20.7198 263.305L18.2918 255.002C16.9566 250.438 14.5992 242.408 13.0554 237.161C7.62798 218.73 7.62156 218.614 11.8855 213.874C13.2559 212.351 15.4561 211.349 17.4316 211.349C19.2322 211.349 29.7804 215.157 40.8711 219.812L40.8711 219.812Z" fill="#FF7319"/>
<path d="M129.665 304.095L134.666 305.51C147.35 310.314 158.839 317.824 168.328 327.52L170.868 330.116C179.504 341.01 184.355 353.928 184.523 366.479C184.644 375.38 183.312 379.707 178.724 385.333C169.995 396.037 150.369 403.498 125.65 405.512C115.128 406.369 88.9536 406.367 78.4102 405.51C59.6663 403.985 44.3261 399.463 33.4938 392.271C23.2601 385.476 19.5884 378.644 19.6317 366.479C19.675 354.02 24.0449 341.625 32.255 330.662L36.4017 325.128C44.5717 317.002 54.3705 310.702 65.1531 306.642L69.0302 305.181L74.3356 303.856C91.7443 299.505 113.781 299.6 129.665 304.095V304.095Z" fill="#FEFFFF"/>
<path d="M185.91 241.702C180.723 260.077 180.37 260.903 178.809 258.358C175.721 253.333 158.982 237.64 153.053 234.215L147.138 230.799L164.305 223.397C192.818 211.1 194.215 212.282 185.91 241.702Z" fill="#77500C"/>
<path d="M18.8965 215.838C21.4706 215.838 53.3786 228.591 55.6846 230.543C56.2223 230.996 54.5966 232.422 52.0771 233.708C46.7091 236.449 34.3185 247.742 28.1674 255.5C25.7987 258.488 23.8617 260.628 23.8617 260.256C23.8617 259.885 21.3181 250.942 18.2097 240.384C12.9106 222.379 12.6683 221.019 14.31 218.513C15.3901 216.862 17.1473 215.838 18.8965 215.838H18.8965Z" fill="#77500C"/>
<path d="M104.692 274.496C104.45 269.543 108.267 265.332 113.217 265.09C118.168 264.848 122.377 268.667 122.618 273.62C122.86 278.573 119.043 282.784 114.093 283.026C109.142 283.267 104.933 279.449 104.692 274.496Z" fill="black"/>
<path d="M142.188 272.319C141.946 267.366 145.763 263.155 150.714 262.913C155.664 262.671 159.873 266.49 160.115 271.443C160.357 276.396 156.54 280.607 151.589 280.849C146.639 281.09 142.43 277.271 142.188 272.319Z" fill="black"/>
<path fill-rule="evenodd" clip-rule="evenodd" d="M125.983 327.42L125.989 327.421C125.977 327.507 125.967 327.593 125.956 327.679L125.95 327.735L125.944 327.792L125.938 327.848L125.932 327.906C125.414 333.406 129.419 338.315 134.926 338.895C140.471 339.48 145.44 335.456 146.024 329.909C146.037 329.784 146.049 329.659 146.057 329.536L152.754 330.242C152.744 330.365 152.731 330.489 152.718 330.614C151.744 339.859 143.463 346.566 134.221 345.592C128.747 345.015 124.164 341.873 121.539 337.486C118.058 341.229 112.922 343.347 107.448 342.77C98.2054 341.796 91.5033 333.51 92.4768 324.265C92.4899 324.14 92.5046 324.016 92.5191 323.893L99.2157 324.599C99.1996 324.722 99.1833 324.846 99.1702 324.97C98.5861 330.517 102.608 335.489 108.153 336.073C113.663 336.654 118.604 332.685 119.239 327.192L119.24 327.189L119.25 327.087L119.261 326.983L119.262 326.98C119.271 326.892 119.277 326.802 119.283 326.714L119.29 326.715L119.902 320.895L126.596 321.6L125.983 327.42Z" fill="black"/>
<path fill-rule="evenodd" clip-rule="evenodd" d="M128.03 308.455C130.652 308.731 133.138 310.5 132.861 313.124C132.338 318.096 127.885 321.701 122.916 321.177C117.947 320.653 114.343 316.199 114.867 311.228C115.143 308.603 117.941 307.391 120.565 307.668L128.03 308.455Z" fill="#77500C" stroke="black" stroke-width="2.5" stroke-miterlimit="10"/>
<path d="M349.252 110.961C349.252 130.715 331.398 137.089 309.413 137.089C287.428 137.089 269.573 130.785 269.573 110.961C269.573 101.644 272.234 91.0663 277.905 82.3801L273.214 66.6889C272.304 63.6768 275.315 60.9449 278.115 62.1357L293.589 68.5803C298.14 66.5488 303.391 65.358 309.413 65.358C315.294 65.358 320.545 66.5489 325.096 68.6503L340.71 62.1357C343.511 61.0149 346.522 63.7469 345.611 66.6889L340.85 82.5903C346.522 91.1364 349.252 101.714 349.252 110.961V110.961Z" fill="#77500C"/>
<path d="M343.714 105.42C343.714 125.174 325.86 131.548 303.875 131.548C281.889 131.548 264.035 125.244 264.035 105.42C264.035 96.1031 266.696 85.5256 272.367 76.8394L267.676 61.1482C266.766 58.1361 269.776 55.4041 272.577 56.595L288.051 63.0396C292.602 61.0081 297.853 59.8172 303.875 59.8172C309.756 59.8172 315.007 61.0081 319.558 63.1096L335.172 56.595C337.973 55.4742 340.983 58.2061 340.073 61.1482L335.312 77.0495C340.983 85.5956 343.714 96.1731 343.714 105.42H343.714Z" fill="#FF7319"/>
</g>
<defs>
<clipPath id="clip0_14_17">
<rect width="440" height="406.154" fill="white"/>
</clipPath>
</defs>
</svg>
