<svg width="354" height="331" viewBox="0 0 354 331" fill="none" xmlns="http://www.w3.org/2000/svg">
<g clip-path="url(#clip0_1_271)">
<path fill-rule="evenodd" clip-rule="evenodd" d="M39.5394 151.183L59.0463 159.366L65.3872 157.115C86.1964 149.727 112.537 149.889 131.522 157.521L137.499 159.924L157.615 151.493C168.678 146.854 178.763 143.048 180.025 143.03C183.084 142.99 187.64 146.687 188.435 149.855C189.054 152.322 188.352 155.197 182.025 176.099C176.353 194.837 176.401 193.873 180.772 201.708C191.093 220.208 196.891 242.146 197.093 263.459C197.237 278.572 195.645 285.921 190.162 295.473C179.727 313.651 156.268 326.322 126.724 329.74C114.146 331.196 82.8604 331.195 70.2588 329.738C47.8544 327.149 29.5174 319.47 16.5696 307.256C4.33807 295.718 -0.0505666 284.118 0.000438845 263.459C0.0536147 242.302 5.2757 221.253 15.0904 202.637L20.0456 193.239L17.6972 185.212C16.4047 180.797 14.1246 173.033 12.6303 167.96C7.37995 150.137 7.37344 150.024 11.4984 145.442C12.8245 143.969 14.9537 143 16.8648 143C18.6066 143 28.8109 146.682 39.5394 151.183Z" fill="#FF7319"/>
<path d="M71.914 232.45L66.7818 233.732L63.031 235.144C52.6005 239.07 43.1205 245.163 35.2159 253.02L31.2054 258.371C23.2617 268.972 19.0351 280.957 18.9921 293.005C18.9508 304.768 22.5028 311.374 32.4026 317.944C42.8821 324.899 57.7234 329.271 75.8568 330.746C86.0562 331.575 111.378 331.576 121.558 330.747C145.47 328.8 164.457 321.585 172.902 311.235C177.341 305.795 178.629 301.611 178.512 293.005C178.349 280.868 173.656 268.377 165.303 257.842L162.845 255.332C153.664 245.957 142.551 238.694 130.279 234.049L125.441 232.681C110.075 228.335 88.7562 228.243 71.914 232.45Z" fill="white"/>
<path d="M158.951 154.649L142.345 161.807L148.067 165.11C153.802 168.421 169.996 183.595 172.983 188.454C174.495 190.916 174.835 190.118 179.853 172.35C187.887 143.902 186.536 142.758 158.951 154.649Z" fill="#77500C"/>
<path d="M13.8437 149.926C12.2549 152.35 12.4893 153.665 17.617 171.075C20.6242 181.283 23.0843 189.931 23.0843 190.291C23.0843 190.65 24.9585 188.58 27.2494 185.691C33.1997 178.189 45.1871 167.269 50.3799 164.62C52.8184 163.375 54.3898 161.998 53.871 161.559C51.6387 159.672 20.7707 147.34 18.2801 147.34C16.5882 147.34 14.8887 148.33 13.8437 149.926Z" fill="#77500C"/>
<path d="M78.9684 226.434C83.7632 226.434 87.6502 222.547 87.6502 217.752C87.6502 212.957 83.7632 209.07 78.9684 209.07C74.1736 209.07 70.2866 212.957 70.2866 217.752C70.2866 222.547 74.1736 226.434 78.9684 226.434Z" fill="black"/>
<path d="M118.329 226.434C123.124 226.434 127.011 222.547 127.011 217.752C127.011 212.957 123.124 209.07 118.329 209.07C113.534 209.07 109.647 212.957 109.647 217.752C109.647 222.547 113.534 226.434 118.329 226.434Z" fill="black"/>
<path fill-rule="evenodd" clip-rule="evenodd" d="M101.389 248.89H94.8775V260.827H94.8703C94.8747 260.948 94.877 261.069 94.877 261.191C94.877 266.585 90.5041 270.958 85.11 270.958C84.3633 270.958 83.6362 270.874 82.9375 270.715V277.325C83.6475 277.42 84.372 277.469 85.1079 277.469C90.4336 277.469 95.162 274.911 98.1318 270.957C101.102 274.911 105.83 277.469 111.156 277.469C111.891 277.469 112.616 277.42 113.326 277.325V270.715C112.627 270.874 111.9 270.958 111.153 270.958C105.841 270.958 101.52 266.718 101.389 261.439V260.943C101.39 260.904 101.391 260.866 101.392 260.827H101.389V248.89Z" fill="black"/>
<path fill-rule="evenodd" clip-rule="evenodd" d="M101.027 239.324C103.504 239.324 106 240.687 106 243.088C106 247.637 102.193 251.324 97.4994 251.324C92.8054 251.324 89 247.637 89 243.088C89 240.687 91.4953 239.324 93.9734 239.324H101.027Z" fill="#77500C"/>
<path fill-rule="evenodd" clip-rule="evenodd" d="M92.5924 241.865C92.2173 242.124 92.133 242.353 92.133 242.592C92.133 245.739 94.7517 248.304 97.9994 248.304C101.248 248.304 103.867 245.739 103.867 242.592C103.867 242.353 103.783 242.124 103.407 241.865C102.98 241.569 102.284 241.344 101.499 241.344H94.501C93.7151 241.344 93.0196 241.569 92.5924 241.865ZM89.6311 237.764C91.0564 236.779 92.8283 236.324 94.501 236.324H101.499C103.171 236.324 104.943 236.779 106.368 237.764C107.846 238.784 109 240.434 109 242.592C109 248.528 104.066 253.324 97.9994 253.324C91.9325 253.324 87 248.527 87 242.592C87 240.434 88.1536 238.785 89.6311 237.764Z" fill="black"/>
<path fill-rule="evenodd" clip-rule="evenodd" d="M63 206.5C63 204.567 64.1135 203 65.487 203H88.513C89.8865 203 91 204.567 91 206.5C91 208.433 89.8865 210 88.513 210H65.487C64.1135 210 63 208.433 63 206.5Z" fill="black"/>
<path fill-rule="evenodd" clip-rule="evenodd" d="M135.785 208.209C135.655 208.212 135.526 208.213 135.396 208.213C125.788 208.213 118 200.425 118 190.817C118 190.544 118.006 190.271 118.019 190L124.989 190C124.968 190.271 124.958 190.544 124.958 190.82C124.958 196.584 129.631 201.257 135.395 201.257C135.526 201.257 135.655 201.255 135.785 201.25L135.785 208.209Z" fill="black"/>
<path d="M241.036 89.4434L254.614 93.0817L192.763 323.914L179.184 320.275L241.036 89.4434Z" fill="#787878"/>
<path d="M229.875 175.571C227.153 178.292 222.506 177.047 221.51 173.329L176.966 7.08957C175.97 3.37171 179.372 -0.0303534 183.09 0.965841L349.329 45.5096C353.047 46.5058 354.292 51.1531 351.571 53.8748L229.875 175.571Z" fill="#DC143C"/>
<path d="M239.883 138.219C237.161 140.94 232.514 139.695 231.518 135.977L204.308 34.4304C203.312 30.7126 206.714 27.3105 210.432 28.3067L311.979 55.5161C315.697 56.5123 316.942 61.1596 314.22 63.8813L239.883 138.219Z" fill="white"/>
<path d="M241.334 51.3625C241.473 51.3998 241.564 51.4906 241.608 51.6349C241.657 51.7638 241.633 51.8818 241.538 51.9889L235.064 59.6461L233.797 64.3753C233.768 64.4835 233.704 64.5658 233.606 64.6224C233.508 64.679 233.405 64.6928 233.297 64.6638L231.489 64.1793C231.396 64.1544 231.322 64.093 231.265 63.995C231.208 63.897 231.195 63.794 231.224 63.6858L232.491 58.9566C231.567 53.8723 230.974 50.5828 230.712 49.088C230.684 48.9478 230.715 48.8319 230.806 48.7403C230.916 48.6374 231.048 48.6066 231.203 48.648L233.173 49.176C233.343 49.2216 233.441 49.3222 233.465 49.4778L234.648 56.0064C236.972 53.2666 238.402 51.5791 238.936 50.9438C239.051 50.8254 239.185 50.7869 239.34 50.8283L241.334 51.3625ZM246.24 52.6772C246.348 52.7062 246.431 52.7697 246.487 52.8677C246.548 52.9502 246.564 53.0455 246.535 53.1537L242.876 66.8081C242.847 66.9162 242.784 66.9986 242.686 67.0552C242.588 67.1118 242.485 67.1255 242.376 67.0966L240.591 66.6183C240.545 66.6058 240.501 66.5857 240.459 66.5578C240.432 66.5341 240.405 66.5103 240.378 66.4866C240.356 66.4474 240.333 66.4082 240.31 66.369C240.303 66.334 240.296 66.2989 240.289 66.2639C240.286 66.2134 240.291 66.1649 240.303 66.1186L243.962 52.4642C243.991 52.356 244.052 52.2814 244.146 52.2403C244.244 52.1837 244.347 52.1699 244.455 52.1989L246.24 52.6772ZM255.371 67.8204C255.479 67.8494 255.561 67.9129 255.618 68.0109C255.675 68.1088 255.688 68.2119 255.659 68.3201L255.181 70.1051C255.16 70.1824 255.126 70.2478 255.079 70.3014C255.031 70.3549 254.972 70.3888 254.902 70.4032C254.832 70.4175 254.759 70.4143 254.681 70.3936L246.614 68.232C246.552 68.2154 246.5 68.1932 246.458 68.1653C246.42 68.122 246.389 68.0807 246.367 68.0415C246.344 68.0023 246.324 67.9554 246.305 67.9008C246.302 67.8503 246.309 67.7941 246.325 67.7323L249.984 54.078C250.013 53.9698 250.074 53.8951 250.168 53.854C250.266 53.7974 250.369 53.7836 250.478 53.8126L258.012 55.8314C258.12 55.8604 258.202 55.9239 258.259 56.0219C258.32 56.1044 258.335 56.1998 258.307 56.3079L257.822 58.1162C257.805 58.178 257.773 58.2356 257.726 58.2892C257.678 58.3427 257.62 58.3767 257.55 58.391C257.479 58.4054 257.406 58.4022 257.329 58.3815L251.973 56.9466L251.11 60.1689L255.399 61.3181C255.507 61.347 255.589 61.4105 255.646 61.5085C255.702 61.6065 255.716 61.7096 255.687 61.8178L255.203 63.626C255.178 63.7187 255.116 63.7933 255.018 63.8499C254.92 63.9065 254.817 63.9203 254.709 63.8913L250.421 62.7421L249.483 66.2426L255.371 67.8204ZM266.447 70.7883C266.555 70.8173 266.63 70.8787 266.671 70.9725C266.728 71.0705 266.741 71.1736 266.712 71.2818L266.234 73.0668C266.205 73.175 266.142 73.2573 266.044 73.3139C265.961 73.3746 265.866 73.3905 265.758 73.3615L258.386 71.3862C258.277 71.3572 258.195 71.2937 258.138 71.1957C258.082 71.0978 258.068 70.9947 258.097 70.8865L261.756 57.2322C261.785 57.124 261.846 57.0493 261.94 57.0082C262.038 56.9517 262.141 56.9379 262.249 56.9668L264.034 57.4451C264.142 57.4741 264.225 57.5376 264.281 57.6356C264.342 57.7181 264.358 57.8135 264.329 57.9217L261.254 69.3969L266.447 70.7883ZM277.783 61.1291C279.591 61.6137 280.957 62.6671 281.881 64.2894C282.824 65.9004 283.053 67.61 282.569 69.4182L282.209 70.7628C281.724 72.571 280.669 73.9446 279.042 74.8837C277.435 75.8114 275.728 76.033 273.919 75.5485L268.935 74.213C268.889 74.2006 268.845 74.1804 268.802 74.1525C268.776 74.1288 268.749 74.1051 268.722 74.0813C268.7 74.0421 268.677 74.0029 268.654 73.9637C268.647 73.9287 268.64 73.8936 268.633 73.8586C268.63 73.8081 268.634 73.7596 268.647 73.7133L272.305 60.059C272.334 59.9508 272.396 59.8761 272.49 59.835C272.588 59.7784 272.691 59.7646 272.799 59.7936L277.783 61.1291ZM279.659 70.0795L280.019 68.7349C280.313 67.6376 280.169 66.597 279.588 65.6131C279.027 64.6178 278.197 63.9732 277.1 63.6792L274.295 62.9276L271.804 72.2236L274.609 72.9753C275.706 73.2693 276.745 73.1334 277.725 72.5678C278.72 72.0062 279.365 71.1768 279.659 70.0795Z" fill="#DC143C"/>
</g>
<defs>
<clipPath id="clip0_1_271">
<rect width="354" height="331" fill="white"/>
</clipPath>
</defs>
</svg>
