<svg width="348" height="353" viewBox="0 0 348 353" fill="none" xmlns="http://www.w3.org/2000/svg">
<path fill-rule="evenodd" clip-rule="evenodd" d="M39.5394 171.859L59.0463 180.042L65.3872 177.791C86.1964 170.403 112.537 170.565 131.522 178.197L137.499 180.6L157.615 172.169C168.678 167.53 178.763 163.724 180.025 163.706C183.084 163.666 187.64 167.363 188.435 170.531C189.054 172.998 188.352 175.873 182.025 196.775C176.353 215.513 176.401 214.549 180.772 222.384C191.093 240.884 196.891 262.822 197.093 284.135C197.237 299.248 195.645 306.597 190.162 316.149C179.727 334.327 156.268 346.998 126.724 350.416C114.146 351.872 82.8604 351.871 70.2588 350.414C47.8544 347.825 29.5174 340.146 16.5696 327.932C4.33807 316.394 -0.0505666 304.794 0.000438845 284.135C0.0536147 262.978 5.2757 241.929 15.0904 223.313L20.0456 213.915L17.6972 205.888C16.4047 201.473 14.1246 193.709 12.6303 188.636C7.37995 170.813 7.37344 170.7 11.4984 166.118C12.8245 164.645 14.9537 163.676 16.8648 163.676C18.6066 163.676 28.8109 167.358 39.5394 171.859Z" fill="#FF7319"/>
<path d="M71.914 253.126L66.7818 254.408L63.031 255.82C52.6005 259.746 43.1205 265.839 35.2159 273.696L31.2054 279.047C23.2617 289.648 19.0351 301.633 18.9921 313.681C18.9508 325.444 22.5028 332.05 32.4026 338.62C42.8821 345.575 57.7235 349.947 75.8568 351.422C86.0562 352.251 111.378 352.252 121.558 351.423C145.47 349.476 164.457 342.261 172.902 331.911C177.341 326.471 178.629 322.287 178.512 313.681C178.349 301.544 173.656 289.053 165.303 278.518L162.845 276.008C153.664 266.633 142.551 259.37 130.279 254.725L125.441 253.357C110.075 249.011 88.7562 248.919 71.914 253.126Z" fill="white"/>
<path d="M158.951 175.325L142.345 182.483L148.067 185.786C153.802 189.097 169.996 204.271 172.983 209.13C174.495 211.592 174.835 210.794 179.853 193.026C187.887 164.578 186.536 163.434 158.951 175.325Z" fill="#77500C"/>
<path d="M13.8437 170.602C12.2549 173.026 12.4893 174.341 17.617 191.751C20.6242 201.959 23.0843 210.607 23.0843 210.967C23.0843 211.326 24.9585 209.256 27.2494 206.367C33.1997 198.865 45.1871 187.945 50.3799 185.296C52.8184 184.051 54.3898 182.674 53.871 182.235C51.6387 180.348 20.7707 168.016 18.2801 168.016C16.5882 168.016 14.8887 169.006 13.8437 170.602Z" fill="#77500C"/>
<path fill-rule="evenodd" clip-rule="evenodd" d="M73.6234 221.32C73.6206 221.45 73.6191 221.579 73.6191 221.709C73.6191 231.317 81.4076 239.105 91.0151 239.105C91.2263 239.105 91.4366 239.101 91.646 239.094V232.128C91.4362 232.141 91.2247 232.147 91.0118 232.147C85.2473 232.147 80.5742 227.474 80.5742 221.71C80.5742 221.579 80.5766 221.45 80.5813 221.32H73.6234Z" fill="black"/>
<path fill-rule="evenodd" clip-rule="evenodd" d="M124.877 221.32C124.88 221.45 124.881 221.579 124.881 221.709C124.881 231.317 117.093 239.105 107.485 239.105C107.212 239.105 106.939 239.099 106.668 239.086V232.116C106.939 232.137 107.212 232.147 107.488 232.147C113.252 232.147 117.925 227.474 117.925 221.71C117.925 221.579 117.923 221.45 117.918 221.32H124.877Z" fill="black"/>
<path d="M78.9684 247.11C83.7632 247.11 87.6502 243.223 87.6502 238.428C87.6502 233.633 83.7632 229.746 78.9684 229.746C74.1736 229.746 70.2866 233.633 70.2866 238.428C70.2866 243.223 74.1736 247.11 78.9684 247.11Z" fill="black"/>
<path d="M118.329 247.11C123.124 247.11 127.011 243.223 127.011 238.428C127.011 233.633 123.124 229.746 118.329 229.746C113.534 229.746 109.647 233.633 109.647 238.428C109.647 243.223 113.534 247.11 118.329 247.11Z" fill="black"/>
<path fill-rule="evenodd" clip-rule="evenodd" d="M101.389 269.566H94.8775V281.503H94.8703C94.8747 281.624 94.877 281.745 94.877 281.867C94.877 287.261 90.5041 291.634 85.11 291.634C84.3633 291.634 83.6362 291.55 82.9375 291.391V298.001C83.6475 298.096 84.372 298.145 85.1079 298.145C90.4336 298.145 95.162 295.587 98.1318 291.633C101.102 295.587 105.83 298.145 111.156 298.145C111.891 298.145 112.616 298.096 113.326 298.001V291.391C112.627 291.55 111.9 291.634 111.153 291.634C105.841 291.634 101.52 287.394 101.389 282.115V281.619C101.39 281.58 101.391 281.542 101.392 281.503H101.389V269.566Z" fill="black"/>
<path fill-rule="evenodd" clip-rule="evenodd" d="M101.027 260C103.504 260 106 261.363 106 263.764C106 268.313 102.193 272 97.4994 272C92.8054 272 89 268.313 89 263.764C89 261.363 91.4953 260 93.9734 260H101.027Z" fill="#77500C"/>
<path fill-rule="evenodd" clip-rule="evenodd" d="M92.5924 262.541C92.2173 262.8 92.133 263.029 92.133 263.268C92.133 266.415 94.7517 268.98 97.9994 268.98C101.248 268.98 103.867 266.415 103.867 263.268C103.867 263.029 103.783 262.8 103.407 262.541C102.98 262.245 102.284 262.02 101.499 262.02H94.501C93.7151 262.02 93.0196 262.246 92.5924 262.541ZM89.6311 258.44C91.0564 257.455 92.8283 257 94.501 257H101.499C103.171 257 104.943 257.455 106.368 258.44C107.846 259.46 109 261.11 109 263.268C109 269.204 104.066 274 97.9994 274C91.9325 274 87 269.203 87 263.268C87 261.11 88.1536 259.461 89.6311 258.44Z" fill="black"/>
<path d="M241.036 111.443L254.614 115.082L192.763 345.914L179.184 342.275L241.036 111.443Z" fill="#787878"/>
<path d="M338.278 36.4935L211.741 2.58819C206.407 1.15877 200.923 4.3246 199.494 9.65926L165.588 136.196C164.159 141.53 167.325 147.014 172.66 148.443L299.196 182.348C304.53 183.778 310.014 180.612 311.443 175.277L345.349 48.7409C346.778 43.4063 343.612 37.9229 338.278 36.4935Z" fill="white"/>
<path d="M256 160C293.003 160 323 130.003 323 93C323 55.9969 293.003 26 256 26C218.997 26 189 55.9969 189 93C189 130.003 218.997 160 256 160Z" fill="#DC143C"/>
<path d="M232.326 53.2132C234.134 53.6977 235.5 54.7511 236.424 56.3735C237.367 57.9845 237.596 59.6941 237.112 61.5023L236.751 62.8469C236.267 64.6551 235.211 66.0287 233.585 66.9677C231.978 67.8955 230.27 68.1171 228.462 67.6326L223.478 66.297C223.432 66.2846 223.387 66.2645 223.345 66.2366C223.318 66.2129 223.292 66.1891 223.265 66.1654C223.242 66.1262 223.22 66.087 223.197 66.0478C223.19 66.0128 223.183 65.9777 223.175 65.9427C223.172 65.8922 223.177 65.8437 223.19 65.7974L226.848 52.143C226.877 52.0348 226.939 51.9602 227.032 51.9191C227.13 51.8625 227.233 51.8487 227.342 51.8777L232.326 53.2132ZM234.201 62.1636L234.561 60.819C234.856 59.7217 234.712 58.6811 234.131 57.6972C233.569 56.7019 232.74 56.0573 231.643 55.7633L228.838 55.0116L226.347 64.3077L229.152 65.0593C230.249 65.3533 231.288 65.2175 232.267 64.6518C233.263 64.0903 233.907 63.2609 234.201 62.1636ZM251.802 65.7865C251.765 65.9256 251.734 66.0415 251.709 66.1343C251.684 66.227 251.653 66.3429 251.616 66.482C250.904 69.1402 249.778 70.8678 248.24 71.6647C247.01 72.2961 245.485 72.3927 243.665 71.9545L243.618 71.9421C241.823 71.4112 240.55 70.5651 239.801 69.4037C238.867 67.9442 238.756 65.8853 239.469 63.2271C239.506 63.088 239.537 62.9721 239.562 62.8794C239.591 62.7712 239.622 62.6553 239.655 62.5316C240.367 59.8734 241.493 58.1458 243.031 57.3489C244.265 56.7021 245.79 56.6055 247.606 57.0591L247.653 57.0715C249.452 57.5869 250.725 58.4331 251.47 59.61C252.404 61.0694 252.515 63.1283 251.802 65.7865ZM249.043 65.7925C249.072 65.6843 249.099 65.5839 249.124 65.4911L249.148 65.3984C249.169 65.3211 249.196 65.2207 249.229 65.097C249.482 64.1543 249.619 63.3629 249.642 62.7229C249.664 62.0829 249.524 61.5236 249.222 61.045C248.836 60.4447 248.075 59.9759 246.94 59.6385C245.788 59.363 244.887 59.3867 244.237 59.7095C243.736 59.9728 243.335 60.3871 243.035 60.9526C242.75 61.5222 242.481 62.2784 242.228 63.2211C242.199 63.3293 242.172 63.4298 242.147 63.5225L242.122 63.6152C242.102 63.6925 242.075 63.7929 242.042 63.9166C241.876 64.5348 241.753 65.0567 241.672 65.4822C241.606 65.9119 241.597 66.3484 241.644 66.7916C241.691 67.2349 241.818 67.6251 242.026 67.9624C242.427 68.5668 243.196 69.0377 244.331 69.3751C245.483 69.6506 246.376 69.6249 247.01 69.2979C247.359 69.1097 247.664 68.8354 247.926 68.475C248.189 68.1146 248.399 67.7319 248.557 67.3271C248.715 66.9222 248.877 66.4107 249.043 65.7925ZM273.376 64.2127C273.485 64.2417 273.559 64.3031 273.6 64.3969C273.661 64.4795 273.677 64.5748 273.648 64.683L269.989 78.3373C269.96 78.4455 269.897 78.5279 269.799 78.5845C269.716 78.6452 269.621 78.661 269.513 78.632L267.032 77.9674C266.878 77.926 266.781 77.8254 266.741 77.6656L264.198 66.8469L261.713 76.1198C261.684 76.228 261.621 76.3103 261.523 76.3669C261.425 76.4235 261.322 76.4373 261.214 76.4083L259.429 75.93C259.32 75.901 259.238 75.8375 259.181 75.7395C259.125 75.6415 259.111 75.5385 259.14 75.4303L262.799 61.7759C262.828 61.6678 262.889 61.5931 262.983 61.552C263.081 61.4954 263.184 61.4816 263.292 61.5106L265.68 62.1504C265.835 62.1918 265.926 62.2826 265.955 62.4229L268.601 73.319L271.098 63.9997C271.127 63.8915 271.181 63.8148 271.259 63.7696C271.357 63.713 271.46 63.6992 271.568 63.7282L273.376 64.2127ZM287.277 75.2921C287.24 75.4312 287.209 75.5471 287.184 75.6398C287.159 75.7325 287.128 75.8484 287.091 75.9875C286.379 78.6458 285.253 80.3733 283.715 81.1702C282.485 81.8016 280.96 81.8982 279.14 81.46L279.093 81.4476C277.298 80.9167 276.025 80.0706 275.276 78.9092C274.342 77.4497 274.231 75.3908 274.944 72.7326C274.981 72.5935 275.012 72.4776 275.037 72.3849C275.066 72.2767 275.097 72.1608 275.13 72.0372C275.842 69.3789 276.968 67.6514 278.506 66.8544C279.74 66.2076 281.265 66.111 283.081 66.5646L283.128 66.5771C284.928 67.0925 286.2 67.9386 286.945 69.1155C287.879 70.575 287.99 72.6338 287.277 75.2921ZM284.518 75.298C284.547 75.1899 284.574 75.0894 284.599 74.9967L284.623 74.9039C284.644 74.8267 284.671 74.7262 284.704 74.6026C284.957 73.6598 285.094 72.8684 285.117 72.2284C285.139 71.5884 284.999 71.0291 284.697 70.5506C284.311 69.9503 283.55 69.4814 282.415 69.1441C281.263 68.8685 280.362 68.8922 279.713 69.215C279.211 69.4783 278.81 69.8927 278.51 70.4581C278.225 71.0277 277.956 71.7839 277.703 72.7266C277.674 72.8348 277.647 72.9353 277.622 73.028L277.598 73.1207C277.577 73.198 277.55 73.2985 277.517 73.4221C277.351 74.0403 277.228 74.5622 277.147 74.9877C277.082 75.4174 277.072 75.8539 277.119 76.2972C277.166 76.7404 277.293 77.1306 277.501 77.4679C277.902 78.0724 278.671 78.5433 279.806 78.8806C280.958 79.1561 281.851 79.1304 282.485 78.8034C282.834 78.6152 283.139 78.3409 283.402 77.9805C283.664 77.6201 283.874 77.2375 284.032 76.8326C284.19 76.4278 284.352 75.9162 284.518 75.298ZM301.968 71.8739C302.076 71.9028 302.159 71.9663 302.215 72.0643C302.276 72.1468 302.292 72.2422 302.263 72.3504L301.779 74.1586C301.75 74.2668 301.686 74.3491 301.588 74.4057C301.494 74.4468 301.393 74.4529 301.285 74.4239L296.904 73.2499L293.829 84.7251C293.808 84.8024 293.774 84.8678 293.727 84.9213C293.679 84.9749 293.62 85.0088 293.55 85.0231C293.48 85.0375 293.414 85.0364 293.352 85.0198L291.544 84.5353C291.436 84.5063 291.354 84.4428 291.297 84.3448C291.256 84.251 291.25 84.15 291.279 84.0418L294.354 72.5666L289.972 71.3926C289.864 71.3636 289.779 71.3079 289.719 71.2253C289.662 71.1274 289.648 71.0243 289.677 70.9161L290.162 69.1079C290.191 68.9997 290.252 68.9251 290.346 68.8839C290.444 68.8274 290.547 68.8136 290.655 68.8426L301.968 71.8739ZM225.174 118.863C225.282 118.892 225.364 118.956 225.421 119.054C225.478 119.152 225.491 119.255 225.462 119.363L224.984 121.148C224.963 121.225 224.929 121.291 224.882 121.344C224.834 121.398 224.776 121.432 224.705 121.446C224.635 121.46 224.562 121.457 224.484 121.436L216.417 119.275C216.355 119.258 216.303 119.236 216.261 119.208C216.223 119.165 216.192 119.123 216.17 119.084C216.147 119.045 216.127 118.998 216.108 118.943C216.105 118.893 216.112 118.837 216.128 118.775L219.787 105.121C219.816 105.012 219.878 104.938 219.971 104.897C220.069 104.84 220.172 104.826 220.281 104.855L227.815 106.874C227.923 106.903 228.005 106.967 228.062 107.065C228.123 107.147 228.139 107.242 228.11 107.351L227.625 109.159C227.608 109.221 227.576 109.278 227.529 109.332C227.482 109.385 227.423 109.419 227.353 109.434C227.283 109.448 227.209 109.445 227.132 109.424L221.776 107.989L220.913 111.212L225.202 112.361C225.31 112.39 225.392 112.453 225.449 112.551C225.505 112.649 225.519 112.752 225.49 112.86L225.006 114.669C224.981 114.761 224.92 114.836 224.822 114.893C224.724 114.949 224.62 114.963 224.512 114.934L220.224 113.785L219.286 117.285L225.174 118.863ZM242.137 110.712C242.245 110.741 242.319 110.802 242.361 110.896C242.421 110.978 242.437 111.074 242.408 111.182L238.749 124.836C238.72 124.944 238.657 125.027 238.559 125.083C238.476 125.144 238.381 125.16 238.273 125.131L235.792 124.466C235.638 124.425 235.541 124.324 235.501 124.165L232.958 113.346L230.473 122.619C230.444 122.727 230.381 122.809 230.283 122.866C230.185 122.922 230.082 122.936 229.974 122.907L228.189 122.429C228.08 122.4 227.998 122.336 227.942 122.238C227.885 122.14 227.871 122.037 227.9 121.929L231.559 108.275C231.588 108.167 231.649 108.092 231.743 108.051C231.841 107.994 231.944 107.981 232.052 108.01L234.44 108.649C234.595 108.691 234.686 108.782 234.715 108.922L237.361 119.818L239.858 110.499C239.887 110.39 239.941 110.314 240.019 110.268C240.117 110.212 240.22 110.198 240.328 110.227L242.137 110.712ZM256.624 114.594C256.733 114.623 256.815 114.686 256.872 114.784C256.932 114.867 256.948 114.962 256.919 115.07L256.435 116.878C256.406 116.987 256.342 117.069 256.244 117.125C256.15 117.167 256.049 117.173 255.941 117.144L251.56 115.97L248.485 127.445C248.464 127.522 248.43 127.588 248.383 127.641C248.335 127.695 248.276 127.729 248.206 127.743C248.136 127.757 248.07 127.756 248.008 127.74L246.2 127.255C246.092 127.226 246.01 127.163 245.953 127.065C245.912 126.971 245.906 126.87 245.935 126.762L249.01 115.286L244.628 114.112C244.52 114.083 244.436 114.028 244.375 113.945C244.318 113.847 244.304 113.744 244.333 113.636L244.818 111.828C244.847 111.719 244.908 111.645 245.002 111.604C245.1 111.547 245.203 111.533 245.311 111.562L256.624 114.594ZM264.724 129.461C264.832 129.49 264.915 129.553 264.971 129.651C265.028 129.749 265.042 129.852 265.013 129.96L264.534 131.745C264.514 131.823 264.479 131.888 264.432 131.941C264.384 131.995 264.326 132.029 264.256 132.043C264.185 132.058 264.112 132.054 264.035 132.034L255.967 129.872C255.905 129.856 255.853 129.833 255.811 129.805C255.773 129.762 255.743 129.721 255.72 129.682C255.697 129.642 255.677 129.596 255.658 129.541C255.655 129.49 255.662 129.434 255.679 129.372L259.337 115.718C259.366 115.61 259.428 115.535 259.522 115.494C259.62 115.438 259.723 115.424 259.831 115.453L267.365 117.472C267.473 117.501 267.556 117.564 267.612 117.662C267.673 117.745 267.689 117.84 267.66 117.948L267.175 119.756C267.159 119.818 267.127 119.876 267.079 119.929C267.032 119.983 266.973 120.017 266.903 120.031C266.833 120.045 266.759 120.042 266.682 120.022L261.327 118.587L260.463 121.809L264.752 122.958C264.86 122.987 264.942 123.051 264.999 123.149C265.056 123.247 265.069 123.35 265.04 123.458L264.556 125.266C264.531 125.359 264.47 125.433 264.372 125.49C264.274 125.547 264.171 125.56 264.062 125.531L259.774 124.382L258.836 127.883L264.724 129.461ZM276.775 129.161C277.572 131.379 277.796 133.386 277.448 135.181C277.435 135.293 277.377 135.385 277.275 135.457C277.177 135.514 277.074 135.528 276.965 135.499C276.625 135.407 276.023 135.246 275.157 135.014C275.049 134.985 274.964 134.929 274.904 134.847C274.863 134.753 274.847 134.658 274.856 134.561C275.148 132.916 274.844 131.112 273.946 129.149L271.303 128.441L270.024 133.216C269.995 133.324 269.931 133.407 269.833 133.463C269.735 133.52 269.632 133.534 269.524 133.505L267.739 133.026C267.631 132.997 267.548 132.934 267.492 132.836C267.435 132.738 267.421 132.635 267.45 132.527L271.109 118.872C271.138 118.764 271.199 118.689 271.293 118.648C271.391 118.592 271.494 118.578 271.602 118.607L276.633 119.955C277.885 120.29 278.825 121.014 279.455 122.127C280.104 123.229 280.263 124.398 279.931 125.634L279.851 125.936C279.644 126.708 279.266 127.377 278.717 127.942C278.168 128.508 277.52 128.914 276.775 129.161ZM277.301 125.252L277.381 124.951C277.522 124.425 277.449 123.925 277.162 123.451C276.895 122.965 276.491 122.65 275.95 122.505L273.098 121.741L271.986 125.891L274.838 126.655C275.193 126.75 275.541 126.752 275.88 126.66C276.223 126.554 276.519 126.376 276.768 126.128C277.032 125.884 277.21 125.592 277.301 125.252Z" fill="white"/>
<path d="M306.816 99.3132L208.233 72.8982C204.232 71.8261 200.12 74.2005 199.048 78.2015C197.976 82.2025 200.35 86.315 204.351 87.3871L302.934 113.802C306.935 114.874 311.047 112.5 312.119 108.499C313.191 104.498 310.817 100.385 306.816 99.3132Z" fill="white"/>
</svg>
