<svg width="313" height="203" viewBox="0 0 313 203" fill="none" xmlns="http://www.w3.org/2000/svg">
<g clip-path="url(#clip0_1_106)">
<path fill-rule="evenodd" clip-rule="evenodd" d="M116.539 23.183L136.046 31.366L142.387 29.115C163.196 21.727 189.537 21.889 208.522 29.521L214.499 31.924L234.615 23.493C245.678 18.854 255.763 15.048 257.025 15.03C260.084 14.99 264.64 18.687 265.435 21.855C266.054 24.322 265.352 27.197 259.025 48.099C253.353 66.837 253.401 65.873 257.772 73.708C268.093 92.208 273.891 114.146 274.093 135.459C274.237 150.572 272.645 157.921 267.162 167.473C256.727 185.651 233.268 198.322 203.724 201.74C191.146 203.196 159.86 203.195 147.259 201.738C124.854 199.149 106.517 191.47 93.5696 179.256C81.3381 167.718 76.9494 156.118 77.0004 135.459C77.0536 114.302 82.2757 93.253 92.0904 74.637L97.0456 65.239L94.6972 57.212C93.4047 52.797 91.1246 45.033 89.6303 39.96C84.3799 22.137 84.3734 22.024 88.4984 17.442C89.8245 15.969 91.9537 15 93.8648 15C95.6066 15 105.811 18.682 116.539 23.183Z" fill="#FF7319"/>
<path d="M148.914 104.45L143.782 105.732L140.031 107.144C129.6 111.07 120.12 117.163 112.216 125.02L108.205 130.371C100.262 140.972 96.0351 152.957 95.9921 165.005C95.9508 176.768 99.5028 183.374 109.403 189.944C119.882 196.899 134.723 201.271 152.857 202.746C163.056 203.575 188.378 203.576 198.558 202.747C222.47 200.8 241.457 193.585 249.902 183.235C254.341 177.795 255.629 173.611 255.512 165.005C255.349 152.868 250.656 140.377 242.303 129.842L239.845 127.332C230.664 117.957 219.551 110.694 207.279 106.049L202.441 104.681C187.075 100.335 165.756 100.243 148.914 104.45Z" fill="white"/>
<path d="M235.951 26.6489L219.345 33.807L225.067 37.1099C230.802 40.4209 246.996 55.595 249.983 60.454C251.495 62.916 251.835 62.118 256.853 44.35C264.887 15.902 263.536 14.7579 235.951 26.6489Z" fill="#77500C"/>
<path d="M90.8437 21.926C89.2549 24.35 89.4893 25.665 94.617 43.075C97.6242 53.283 100.084 61.931 100.084 62.291C100.084 62.65 101.959 60.58 104.249 57.691C110.2 50.189 122.187 39.269 127.38 36.62C129.818 35.375 131.39 33.998 130.871 33.559C128.639 31.672 97.7707 19.34 95.2801 19.34C93.5882 19.34 91.8887 20.33 90.8437 21.926Z" fill="#77500C"/>
<path d="M155.968 98.4338C160.763 98.4338 164.65 94.5468 164.65 89.752C164.65 84.9572 160.763 81.0702 155.968 81.0702C151.174 81.0702 147.287 84.9572 147.287 89.752C147.287 94.5468 151.174 98.4338 155.968 98.4338Z" fill="black"/>
<path d="M195.329 98.4338C200.124 98.4338 204.011 94.5468 204.011 89.752C204.011 84.9572 200.124 81.0702 195.329 81.0702C190.534 81.0702 186.647 84.9572 186.647 89.752C186.647 94.5468 190.534 98.4338 195.329 98.4338Z" fill="black"/>
<path fill-rule="evenodd" clip-rule="evenodd" d="M178.027 111.324C180.504 111.324 183 112.687 183 115.088C183 119.637 179.193 123.324 174.499 123.324C169.805 123.324 166 119.637 166 115.088C166 112.687 168.495 111.324 170.973 111.324H178.027Z" fill="#77500C"/>
<path fill-rule="evenodd" clip-rule="evenodd" d="M169.592 113.865C169.217 114.124 169.133 114.353 169.133 114.592C169.133 117.739 171.752 120.304 174.999 120.304C178.248 120.304 180.867 117.739 180.867 114.592C180.867 114.353 180.783 114.124 180.407 113.865C179.98 113.569 179.284 113.344 178.499 113.344H171.501C170.715 113.344 170.02 113.569 169.592 113.865ZM166.631 109.764C168.056 108.779 169.828 108.324 171.501 108.324H178.499C180.171 108.324 181.943 108.779 183.368 109.764C184.846 110.784 186 112.434 186 114.592C186 120.528 181.066 125.324 174.999 125.324C168.932 125.324 164 120.527 164 114.592C164 112.434 165.154 110.785 166.631 109.764Z" fill="black"/>
<path fill-rule="evenodd" clip-rule="evenodd" d="M171.776 123H178.221L178.222 129.751V129.754C178.222 135.8 182.55 140.703 187.889 140.703C193.227 140.703 197.555 137.8 197.555 131.754C197.555 131.528 197.714 131.341 197.913 131.341H203.634C203.836 131.341 204 131.522 204 131.751C204 140.415 198.669 146.191 191.52 147.642C189.973 150.218 184.654 157.739 175.194 157.977C165.585 158.488 160.032 150.337 158.464 147.638C151.323 146.183 146 140.409 146 131.751C146 131.522 146.164 131.341 146.366 131.341H152.086C152.285 131.341 152.443 131.528 152.443 131.754C152.443 137.8 156.772 140.703 162.111 140.703C167.399 140.703 171.696 135.892 171.776 129.924V123Z" fill="black"/>
<path d="M263.404 174.628C263.108 175.147 262.404 175.776 261.701 176.405C260.072 176.851 258.443 177.296 256.997 176.816C254.625 176.153 252.662 175.379 250.882 173.68C249.732 172.682 248.879 171.168 248.137 170.059C248.025 169.652 247.914 169.246 248.098 168.321C249.65 164.4 251.202 160.479 253.384 157.26C253.977 156.225 255.383 154.966 256.828 155.445C261.164 156.883 265.61 158.727 269.17 162.125C270.319 163.123 268.21 165.01 267.729 166.453C266.658 168.931 265.29 171.927 263.404 174.628Z" fill="#FF9400"/>
<path d="M271.537 157.982C270.649 159.536 270.761 159.942 269.946 160.165C267.279 160.02 264.5 159.468 262.017 158.398C259.941 157.217 258.457 154.999 257.085 153.19C256.566 152.894 255.751 153.117 256.231 151.674C258.855 145.275 261.998 139.171 265.029 132.661C274.603 111.686 284.065 90.3056 293.639 69.3313C296.078 63.8569 294.822 67.2598 295.636 67.0376C298.081 66.3694 300.229 66.2195 302.601 66.8825C304.454 67.2501 306.122 68.5431 307.679 69.429C308.716 70.0196 310.273 70.9048 310.608 72.1247C310.942 73.3447 312.014 70.8667 309.982 76.2298C300.815 97.093 291.649 117.955 281.964 138.523C278.526 145.145 275.087 151.767 271.537 157.982Z" fill="#FFFF00"/>
<path d="M277.803 126.547C273.404 136.054 269.117 145.967 264.311 155.586C263.239 158.064 263.758 158.36 262.536 158.694C261.721 158.916 260.683 158.325 260.053 157.624C258.384 156.331 257.123 154.927 256.159 153.005C255.936 152.193 255.16 154.153 256.416 150.75C261.959 137.433 268.022 124.412 273.973 110.985C280.219 97.0392 286.762 82.5756 293.416 68.5185C295.08 65.004 294.822 67.2597 295.637 67.0368C297.267 66.5916 298.785 65.74 300.23 66.2195C302.082 66.5871 303.935 66.9547 304.789 68.47C305.531 69.5788 305.196 68.3589 303.532 71.8734C297.174 85.4123 290.816 98.9512 284.458 112.49C282.202 117.04 280.059 121.997 277.803 126.547Z" fill="#F6E575"/>
<path d="M266.954 168.413C266.658 168.931 266.658 168.931 266.251 169.042C264.102 169.192 262.249 168.825 260.285 168.05C258.321 167.276 256.246 166.095 254.578 164.802C253.428 163.805 252.279 162.808 251.537 161.699C251.425 161.292 251.129 161.811 251.314 160.886C252.681 157.89 254.161 155.3 255.528 152.304C255.824 151.785 255.824 151.785 256.231 151.674C257.27 152.265 257.604 153.485 258.53 153.668C260.717 155.257 262.793 156.438 265.276 157.507C266.721 157.987 268.462 157.948 269.796 158.021C270.203 157.909 270.611 157.798 271.129 158.093C271.241 158.5 271.129 158.093 270.834 158.612C269.393 162.939 268.433 165.824 266.954 168.413Z" fill="#C0C8C9"/>
<path d="M268.69 163.568C268.69 163.568 263.467 163.684 260.984 162.614C257.982 161.249 257.574 161.36 253.68 156.742" stroke="#ACB3B4" stroke-width="2" stroke-miterlimit="10" stroke-linecap="round"/>
<path d="M308.237 71.4617C307.31 71.2775 306.422 72.8316 305.903 72.5363C304.866 71.9457 305.011 69.2836 303.566 68.8041C302.121 68.3246 301.161 71.2097 300.123 70.6191C299.085 70.0285 299.342 67.7728 298.304 67.1822C297.267 66.5916 295.86 67.8503 294.822 67.2597C294.303 66.9644 294.303 66.9644 295.302 65.8175C300.409 60.4878 305.404 54.7518 311.03 49.7178C312.436 48.4592 312.659 49.2725 312.587 50.6036C312.63 57.1481 311.859 63.9153 311.383 70.1642C311.422 71.9024 311.127 72.42 310.831 72.9382C310.535 73.4557 310.128 73.5676 310.016 73.1604C309.09 72.977 309.163 71.6459 308.237 71.4617Z" fill="#FFFFCC"/>
<path d="M312.844 48.348C312.771 49.6791 312.699 51.0103 312.738 52.748C312.849 53.1547 312.849 53.1547 312.442 53.2661C312.034 53.3774 311.108 53.1934 310.589 52.8981C310.07 52.6028 309.551 52.3075 308.92 51.6056C308.92 51.6056 308.92 51.6056 309.216 51.0877C310.623 49.8291 311.622 48.682 312.844 48.348C313.14 47.83 312.732 47.9413 312.844 48.348Z" fill="#464646"/>
<path d="M266.159 151.147L299.391 79.1246" stroke="#EDD571" stroke-width="2" stroke-miterlimit="10" stroke-linecap="round"/>
<path d="M70.2026 177.222L0 107.436L44.5185 63L114.435 132.786L70.2026 177.222Z" fill="white" stroke="#B5B5B5" stroke-width="0.5" stroke-miterlimit="10"/>
<path d="M46.8017 87.7814C47.6578 89.7752 45.9455 90.6297 45.9455 90.6297L43.0918 91.7689C39.3819 91.1989 37.0989 101.169 32.5329 102.878C27.6815 104.872 23.4009 100.884 21.4033 107.15C21.4033 107.15 20.8325 109.145 18.8349 108.575C16.8373 108.005 17.408 106.011 17.408 106.011C18.2641 103.447 18.5495 101.454 21.1179 100.029C24.5424 98.0354 27.6815 100.029 30.8206 98.8899C37.3843 96.3263 34.8159 87.7814 43.0918 87.2115L43.9479 86.3569C43.9479 86.9269 45.9455 85.787 46.8017 87.7814Z" fill="#B5B5B5"/>
<path d="M57.6459 105.726C57.6459 108.005 55.3629 108.005 55.3629 108.005L55.9337 107.436C52.7945 110.568 48.7993 113.987 45.0894 116.266C43.3772 117.12 41.0942 115.98 39.3819 117.12C36.5282 119.399 36.8136 122.247 31.3914 122.247C31.3914 122.247 29.1084 122.247 29.1084 119.969C29.1084 117.69 31.3914 117.689 31.3914 117.689C33.6744 117.689 34.816 114.557 36.8136 113.417C38.5258 112.278 41.0942 113.417 42.521 112.278C45.9455 109.999 49.6554 107.15 52.5092 104.017L55.0775 103.447C55.3629 103.733 57.6459 103.732 57.6459 105.726Z" fill="#B5B5B5"/>
<path d="M70.7733 119.399C71.3439 121.392 69.3462 121.962 69.3462 121.962L66.2071 123.102C64.4948 123.102 62.4972 121.678 61.3557 122.817C59.6434 124.241 58.7873 130.223 56.7897 132.216C53.0799 135.35 50.2261 133.071 46.5162 136.774C46.5162 136.774 45.0894 138.198 43.3771 136.774C41.9502 135.35 43.3771 133.641 43.3771 133.641C43.9479 133.071 47.3724 129.653 47.9431 129.368C49.9408 128.799 52.5091 130.223 53.936 128.799C59.0727 123.386 55.9336 118.829 65.351 118.829L67.9194 117.974C67.9194 117.974 70.2027 117.405 70.7733 119.399Z" fill="#B5B5B5"/>
<path d="M86.1834 138.198C86.1834 140.477 83.9001 140.476 83.9001 140.476L83.6148 139.907C79.3342 144.18 78.1929 145.035 72.4851 147.028C70.7732 147.598 70.2025 150.161 68.7754 150.731C63.9241 152.725 60.4995 148.167 58.5019 154.149C58.5019 154.149 57.9311 156.143 55.9335 155.573C53.9359 155.004 54.5066 153.01 54.5066 153.01C57.6458 144.465 61.0703 149.307 67.0632 147.028C68.7754 146.458 69.3461 143.895 70.7732 143.325C72.1998 142.755 74.7684 144.465 75.6243 143.04C75.9097 142.186 75.0537 141.046 75.6243 140.192C76.7656 138.768 79.3342 138.483 80.4755 137.059L83.9001 136.489C83.9001 135.919 86.1834 135.919 86.1834 138.198Z" fill="#B5B5B5"/>
</g>
<defs>
<clipPath id="clip0_1_106">
<rect width="313" height="203" fill="white"/>
</clipPath>
</defs>
</svg>
