<svg width="385" height="339" viewBox="0 0 385 339" fill="none" xmlns="http://www.w3.org/2000/svg">
<g clip-path="url(#clip0_1_238)">
<path fill-rule="evenodd" clip-rule="evenodd" d="M39.5394 159.183L59.0463 167.366L65.3872 165.115C86.1964 157.727 112.537 157.889 131.522 165.521L137.499 167.924L157.615 159.493C168.678 154.854 178.763 151.048 180.025 151.03C183.084 150.99 187.64 154.687 188.435 157.855C189.054 160.322 188.352 163.197 182.025 184.099C176.353 202.837 176.401 201.873 180.772 209.708C191.093 228.208 196.891 250.146 197.093 271.459C197.237 286.572 195.645 293.921 190.162 303.473C179.727 321.651 156.268 334.322 126.724 337.74C114.146 339.196 82.8604 339.195 70.2588 337.738C47.8544 335.149 29.5174 327.47 16.5696 315.256C4.33807 303.718 -0.0505666 292.118 0.000438845 271.459C0.0536147 250.302 5.2757 229.253 15.0904 210.637L20.0456 201.239L17.6972 193.212C16.4047 188.797 14.1246 181.033 12.6303 175.96C7.37995 158.137 7.37344 158.024 11.4984 153.442C12.8245 151.969 14.9537 151 16.8648 151C18.6066 151 28.8109 154.682 39.5394 159.183Z" fill="#FF7319"/>
<path d="M71.914 240.45L66.7818 241.732L63.031 243.144C52.6005 247.07 43.1205 253.163 35.2159 261.02L31.2054 266.371C23.2617 276.972 19.0351 288.957 18.9921 301.005C18.9508 312.768 22.5028 319.374 32.4026 325.944C42.8821 332.899 57.7234 337.271 75.8568 338.746C86.0562 339.575 111.378 339.576 121.558 338.747C145.47 336.8 164.457 329.585 172.902 319.235C177.341 313.795 178.629 309.611 178.512 301.005C178.349 288.868 173.656 276.377 165.303 265.842L162.845 263.332C153.664 253.957 142.551 246.694 130.279 242.049L125.441 240.681C110.075 236.335 88.7562 236.243 71.914 240.45Z" fill="white"/>
<path d="M158.951 162.649L142.345 169.807L148.067 173.11C153.802 176.421 169.996 191.595 172.983 196.454C174.495 198.916 174.835 198.118 179.853 180.35C187.887 151.902 186.536 150.758 158.951 162.649Z" fill="#77500C"/>
<path d="M13.8437 157.926C12.2549 160.35 12.4893 161.665 17.617 179.075C20.6242 189.283 23.0843 197.931 23.0843 198.291C23.0843 198.65 24.9585 196.58 27.2494 193.691C33.1997 186.189 45.1871 175.269 50.3799 172.62C52.8184 171.375 54.3898 169.998 53.871 169.559C51.6387 167.672 20.7707 155.34 18.2801 155.34C16.5882 155.34 14.8887 156.33 13.8437 157.926Z" fill="#77500C"/>
<path d="M79.6818 233.688C84.4766 233.688 88.3636 229.801 88.3636 225.006C88.3636 220.211 84.4766 216.324 79.6818 216.324C74.887 216.324 71 220.211 71 225.006C71 229.801 74.887 233.688 79.6818 233.688Z" fill="black"/>
<path d="M119.042 233.688C123.837 233.688 127.724 229.801 127.724 225.006C127.724 220.211 123.837 216.324 119.042 216.324C114.248 216.324 110.361 220.211 110.361 225.006C110.361 229.801 114.248 233.688 119.042 233.688Z" fill="black"/>
<path fill-rule="evenodd" clip-rule="evenodd" d="M102.102 256.144H95.5909V268.081H95.5837C95.5881 268.202 95.5904 268.323 95.5904 268.445C95.5904 273.839 91.2175 278.212 85.8234 278.212C85.0767 278.212 84.3496 278.128 83.6509 277.969V284.579C84.3609 284.674 85.0854 284.723 85.8213 284.723C91.147 284.723 95.8754 282.165 98.8452 278.211C101.815 282.165 106.543 284.723 111.869 284.723C112.604 284.723 113.329 284.674 114.039 284.579V277.969C113.34 278.128 112.613 278.212 111.866 278.212C106.554 278.212 102.233 273.972 102.102 268.693V268.197C102.103 268.158 102.104 268.12 102.105 268.081H102.102V256.144Z" fill="black"/>
<path fill-rule="evenodd" clip-rule="evenodd" d="M101.74 246.578C104.217 246.578 106.713 247.941 106.713 250.342C106.713 254.891 102.907 258.578 98.2128 258.578C93.5188 258.578 89.7134 254.891 89.7134 250.342C89.7134 247.941 92.2087 246.578 94.6868 246.578H101.74Z" fill="#77500C"/>
<path fill-rule="evenodd" clip-rule="evenodd" d="M93.3058 249.118C92.9307 249.378 92.8464 249.607 92.8464 249.846C92.8464 252.993 95.4651 255.557 98.7128 255.557C101.961 255.557 104.58 252.993 104.58 249.846C104.58 249.607 104.496 249.378 104.121 249.119C103.693 248.823 102.998 248.598 102.212 248.598H95.2144C94.4284 248.598 93.733 248.823 93.3058 249.118ZM90.3445 245.018C91.7698 244.033 93.5416 243.578 95.2144 243.578H102.212C103.885 243.578 105.656 244.033 107.082 245.018C108.559 246.038 109.713 247.688 109.713 249.846C109.713 255.782 104.779 260.578 98.7128 260.578C92.6459 260.578 87.7134 255.781 87.7134 249.846C87.7134 247.688 88.867 246.038 90.3445 245.018Z" fill="black"/>
<path d="M241.036 97.4434L254.614 101.082L192.763 331.914L179.184 328.275L241.036 97.4434Z" fill="#787878"/>
<path d="M374.331 61.8804L160.824 4.67158C156.29 3.45658 151.629 6.14753 150.414 10.682L130.596 84.6458C129.38 89.1803 132.071 93.8411 136.606 95.0562L350.112 152.265C354.647 153.48 359.308 150.789 360.523 146.255L380.341 72.2908C381.556 67.7563 378.865 63.0954 374.331 61.8804Z" fill="black" stroke="white" stroke-width="3"/>
<path fill-rule="evenodd" clip-rule="evenodd" d="M357.18 108.018C358.986 107.258 359.591 105 358.407 103.439L324.302 58.4905C322.794 56.503 319.66 57.1175 319.015 59.5274L315.821 71.4446L170.14 32.4094C168.54 31.9806 166.895 32.9303 166.466 34.5307L157.247 68.9359C156.818 70.5363 157.768 72.1814 159.368 72.6102L305.05 111.645L301.109 126.35C300.464 128.76 302.871 130.859 305.17 129.892L357.18 108.018Z" fill="white"/>
<path d="M191.096 58.9834C191.046 59.1688 191.005 59.3234 190.972 59.447C190.938 59.5706 190.897 59.7252 190.847 59.9106C189.898 63.4549 188.397 65.7584 186.345 66.8209C184.706 67.6627 182.673 67.7915 180.246 67.2073L180.184 67.1908C177.789 66.4829 176.093 65.3547 175.094 63.8062C173.849 61.8602 173.701 59.1151 174.651 55.5708C174.7 55.3853 174.742 55.2308 174.775 55.1071C174.814 54.9629 174.855 54.8083 174.899 54.6435C175.849 51.0992 177.349 48.7957 179.401 47.7332C181.046 46.8708 183.079 46.742 185.501 47.3468L185.563 47.3634C187.963 48.0506 189.659 49.1788 190.652 50.7479C191.898 52.6939 192.045 55.4391 191.096 58.9834ZM187.416 58.9913C187.455 58.8471 187.491 58.7131 187.524 58.5895L187.557 58.4659C187.585 58.3628 187.621 58.2289 187.665 58.064C188.002 56.807 188.185 55.7519 188.215 54.8985C188.245 54.0452 188.058 53.2995 187.655 52.6613C187.14 51.8609 186.126 51.2358 184.612 50.786C183.077 50.4187 181.875 50.4502 181.009 50.8807C180.341 51.2317 179.806 51.7841 179.406 52.5381C179.025 53.2976 178.667 54.3058 178.33 55.5628C178.291 55.707 178.256 55.841 178.222 55.9646L178.189 56.0883C178.162 56.1913 178.126 56.3252 178.082 56.4901C177.861 57.3143 177.696 58.0102 177.589 58.5776C177.501 59.1505 177.489 59.7325 177.551 60.3235C177.614 60.9145 177.784 61.4348 178.061 61.8845C178.596 62.6904 179.62 63.3183 181.134 63.7681C182.67 64.1355 183.861 64.1012 184.706 63.6652C185.171 63.4142 185.578 63.0485 185.928 62.568C186.278 62.0874 186.558 61.5772 186.769 61.0374C186.98 60.4976 187.195 59.8156 187.416 58.9913ZM211.772 54.7173C211.916 54.756 212.015 54.8378 212.07 54.963C212.151 55.073 212.172 55.2001 212.134 55.3444L207.255 73.5501C207.217 73.6944 207.132 73.8042 207.002 73.8797C206.891 73.9606 206.764 73.9817 206.62 73.9431L203.313 73.0569C203.107 73.0017 202.977 72.8675 202.924 72.6545L199.534 58.2295L196.221 70.5934C196.182 70.7376 196.097 70.8475 195.967 70.9229C195.836 70.9983 195.699 71.0167 195.554 70.9781L193.174 70.3403C193.03 70.3017 192.92 70.217 192.845 70.0864C192.769 69.9558 192.751 69.8183 192.79 69.6741L197.668 51.4683C197.707 51.3241 197.789 51.2245 197.914 51.1697C198.044 51.0943 198.182 51.0759 198.326 51.1145L201.51 51.9676C201.716 52.0228 201.838 52.1439 201.876 52.3308L205.404 66.859L208.734 54.4333C208.772 54.2891 208.844 54.1868 208.948 54.1265C209.079 54.051 209.216 54.0326 209.361 54.0713L211.772 54.7173ZM224.26 74.9924C224.404 75.0311 224.514 75.1157 224.59 75.2463C224.665 75.377 224.683 75.5144 224.645 75.6587L224.007 78.0387C223.979 78.1417 223.934 78.229 223.871 78.3003C223.807 78.3717 223.729 78.417 223.636 78.4361C223.542 78.4552 223.444 78.451 223.341 78.4234L212.584 75.5412C212.502 75.5191 212.432 75.4895 212.376 75.4523C212.325 75.3945 212.285 75.3395 212.255 75.2872C212.225 75.235 212.197 75.1724 212.172 75.0996C212.168 75.0322 212.177 74.9573 212.2 74.8749L217.078 56.6691C217.116 56.5249 217.198 56.4254 217.323 56.3705C217.454 56.2951 217.591 56.2767 217.736 56.3154L227.781 59.0071C227.926 59.0458 228.035 59.1304 228.111 59.261C228.192 59.3711 228.213 59.4982 228.174 59.6425L227.528 62.0534C227.506 62.1358 227.464 62.2127 227.4 62.2841C227.337 62.3555 227.259 62.4008 227.165 62.4199C227.072 62.439 226.973 62.4348 226.87 62.4072L219.73 60.494L218.579 64.7904L224.297 66.3226C224.442 66.3613 224.551 66.4459 224.627 66.5766C224.702 66.7072 224.721 66.8446 224.682 66.9889L224.036 69.3998C224.003 69.5235 223.921 69.623 223.79 69.6984C223.66 69.7739 223.522 69.7922 223.378 69.7536L217.66 68.2214L216.409 72.8887L224.26 74.9924ZM260.685 67.8236C260.85 67.8678 260.967 67.9655 261.037 68.1167C261.107 68.268 261.099 68.4205 261.014 68.5743C260.693 69.195 260.057 70.372 259.107 72.1051C258.177 73.8437 257.237 75.5796 256.287 77.3127C255.357 79.0513 254.439 80.7487 253.531 82.4049C252.65 84.046 252.075 85.1179 251.808 85.6205C251.675 85.8719 251.474 85.9616 251.206 85.8899L248.486 85.161C248.218 85.0892 248.089 84.9111 248.099 84.6267L248.421 72.4221C248.068 73.0785 247.612 73.9169 247.051 74.9373C246.517 75.9426 245.721 77.4299 244.663 79.3992C243.611 81.348 242.932 82.6018 242.628 83.1607C242.494 83.4121 242.294 83.5018 242.026 83.43L239.306 82.7012C239.038 82.6294 238.909 82.4513 238.919 82.1669C238.939 81.2668 239.024 78.065 239.174 72.5615C239.329 67.0374 239.417 63.7813 239.439 62.7933C239.462 62.6229 239.542 62.4897 239.678 62.3937C239.815 62.2977 239.965 62.2717 240.13 62.3159L242.572 62.9702C242.84 63.042 242.982 63.2126 242.998 63.4819L242.645 75.6782C245.828 69.8169 247.759 66.2374 248.438 64.9396C248.587 64.7144 248.795 64.6377 249.063 64.7095L251.752 65.43C252.02 65.5018 252.152 65.6696 252.147 65.9335L251.825 78.138C254.988 72.2712 256.919 68.6917 257.618 67.3994C257.746 67.1687 257.944 67.0892 258.212 67.161L260.685 67.8236ZM273.994 91.2339C274.006 91.4359 273.941 91.5952 273.8 91.7119C273.658 91.8285 273.494 91.862 273.309 91.8123L270.743 91.1249C270.517 91.0641 270.392 90.9094 270.371 90.6606L269.876 85.9561L262.395 83.9518C260.997 85.8741 260.07 87.1496 259.614 87.7784C259.471 87.983 259.286 88.0549 259.059 87.9942L256.494 87.3068C256.309 87.2571 256.184 87.1463 256.119 86.9744C256.055 86.8026 256.078 86.6322 256.19 86.4633C256.852 85.5585 258.855 82.7823 262.198 78.1346C265.568 73.4719 267.509 70.8007 268.023 70.1211C268.16 69.9371 268.343 69.8755 268.569 69.9362L271.537 70.7313C271.763 70.792 271.89 70.9365 271.917 71.1646C271.998 71.937 272.334 75.1743 272.926 80.8766C273.518 86.5789 273.874 90.0313 273.994 91.2339ZM264.613 80.8687L269.497 82.1773L268.769 75.1247L264.613 80.8687ZM292.085 76.2371C292.27 76.2868 292.392 76.4079 292.451 76.6004C292.516 76.7722 292.485 76.9295 292.358 77.0723L283.725 87.2819L282.036 93.5875C281.997 93.7317 281.912 93.8415 281.782 93.917C281.651 93.9924 281.514 94.0108 281.369 93.9721L278.959 93.3261C278.835 93.293 278.735 93.2111 278.66 93.0805C278.585 92.9498 278.566 92.8124 278.605 92.6681L280.294 86.3626C279.063 79.5835 278.273 75.1975 277.923 73.2045C277.885 73.0176 277.926 72.863 278.047 72.7409C278.195 72.6036 278.371 72.5626 278.577 72.6178L281.205 73.3218C281.431 73.3825 281.561 73.5167 281.594 73.7242L283.17 82.4289C286.27 78.7759 288.175 76.5259 288.888 75.6788C289.041 75.521 289.22 75.4697 289.427 75.5249L292.085 76.2371Z" fill="black"/>
</g>
<defs>
<clipPath id="clip0_1_238">
<rect width="385" height="339" fill="white"/>
</clipPath>
</defs>
</svg>
