<svg width="266" height="80" viewBox="0 0 266 80" fill="none" xmlns="http://www.w3.org/2000/svg">
<g filter="url(#filter0_d_2532_257)">
<path d="M22.6553 57.7756C18.0388 57.7756 14.0871 56.8615 10.8002 55.0334C7.51323 53.1868 4.99263 50.62 3.23837 47.3331C1.48411 44.0277 0.606978 40.196 0.606978 35.8381C0.606978 31.4801 1.48411 27.6577 3.23837 24.3707C4.99263 21.0653 7.51323 18.4986 10.8002 16.6705C14.0871 14.8239 18.0388 13.9006 22.6553 13.9006C27.2718 13.9006 31.2235 14.8239 34.5104 16.6705C37.7973 18.4986 40.3179 21.0653 42.0722 24.3707C43.8264 27.6577 44.7036 31.4801 44.7036 35.8381C44.7036 40.196 43.8264 44.0277 42.0722 47.3331C40.3179 50.62 37.7973 53.1868 34.5104 55.0334C31.2235 56.8615 27.2718 57.7756 22.6553 57.7756ZM22.7661 46.4744C24.0587 46.4744 25.1759 46.0405 26.1176 45.1726C27.0594 44.3047 27.7888 43.0675 28.3058 41.4609C28.8229 39.8544 29.0814 37.9432 29.0814 35.7273C29.0814 33.4929 28.8229 31.5817 28.3058 29.9936C27.7888 28.3871 27.0594 27.1499 26.1176 26.282C25.1759 25.4141 24.0587 24.9801 22.7661 24.9801C21.3996 24.9801 20.227 25.4141 19.2483 26.282C18.2696 27.1499 17.5218 28.3871 17.0047 29.9936C16.4877 31.5817 16.2291 33.4929 16.2291 35.7273C16.2291 37.9432 16.4877 39.8544 17.0047 41.4609C17.5218 43.0675 18.2696 44.3047 19.2483 45.1726C20.227 46.0405 21.3996 46.4744 22.7661 46.4744ZM50.9081 72.9545V14.4545H66.0871V21.8778H66.4195C66.9735 20.4375 67.786 19.1172 68.857 17.9169C69.928 16.6982 71.2575 15.7287 72.8456 15.0085C74.4337 14.2699 76.2803 13.9006 78.3854 13.9006C81.1922 13.9006 83.8605 14.6484 86.3904 16.1442C88.9387 17.6399 91.0068 19.9943 92.5949 23.2074C94.2014 26.4205 95.0047 30.5937 95.0047 35.7273C95.0047 40.6392 94.2384 44.7109 92.7057 47.9425C91.1915 51.174 89.1602 53.5838 86.6119 55.1719C84.0821 56.7599 81.303 57.554 78.2746 57.554C76.2803 57.554 74.4983 57.2308 72.9287 56.5845C71.3776 55.9197 70.048 55.0241 68.9401 53.8977C67.8506 52.7528 67.0104 51.4602 66.4195 50.0199H66.1979V72.9545H50.9081ZM65.8655 35.7273C65.8655 37.7955 66.1333 39.5866 66.6688 41.1009C67.2227 42.5966 67.9983 43.7599 68.9955 44.5909C70.0111 45.4034 71.2206 45.8097 72.624 45.8097C74.0274 45.8097 75.2185 45.4126 76.1972 44.6186C77.1943 43.8061 77.9514 42.652 78.4685 41.1562C79.004 39.642 79.2718 37.8324 79.2718 35.7273C79.2718 33.6222 79.004 31.8217 78.4685 30.326C77.9514 28.8118 77.1943 27.6577 76.1972 26.8636C75.2185 26.0511 74.0274 25.6449 72.624 25.6449C71.2206 25.6449 70.0111 26.0511 68.9955 26.8636C67.9983 27.6577 67.2227 28.8118 66.6688 30.326C66.1333 31.8217 65.8655 33.6222 65.8655 35.7273ZM121.796 57.7756C117.254 57.7756 113.339 56.9077 110.052 55.1719C106.784 53.4176 104.263 50.9062 102.49 47.6378C100.736 44.3509 99.8589 40.4176 99.8589 35.8381C99.8589 31.4432 100.745 27.6023 102.518 24.3153C104.291 21.0284 106.793 18.4709 110.024 16.6428C113.256 14.8146 117.069 13.9006 121.464 13.9006C124.677 13.9006 127.585 14.3991 130.189 15.3963C132.793 16.3935 135.018 17.843 136.865 19.745C138.711 21.6286 140.133 23.9183 141.13 26.6143C142.127 29.3104 142.626 32.348 142.626 35.7273V39.2727H104.623V30.8523H128.555C128.536 29.6335 128.223 28.5625 127.613 27.6392C127.022 26.6974 126.219 25.968 125.203 25.451C124.206 24.9155 123.071 24.6477 121.796 24.6477C120.559 24.6477 119.424 24.9155 118.389 25.451C117.355 25.968 116.524 26.6882 115.897 27.6115C115.287 28.5348 114.964 29.6151 114.927 30.8523V39.9375C114.927 41.304 115.213 42.5227 115.786 43.5938C116.358 44.6648 117.18 45.505 118.251 46.1143C119.322 46.7237 120.615 47.0284 122.129 47.0284C123.181 47.0284 124.142 46.8807 125.01 46.5852C125.896 46.2898 126.653 45.8651 127.281 45.3111C127.909 44.7386 128.37 44.0554 128.666 43.2614H142.626C142.146 46.2159 141.01 48.7827 139.219 50.9616C137.428 53.1222 135.055 54.8026 132.1 56.0028C129.164 57.1847 125.73 57.7756 121.796 57.7756ZM164.155 33.0682V57H148.865V14.4545H163.379V22.5426H163.823C164.746 19.8466 166.371 17.7322 168.698 16.1996C171.043 14.6669 173.776 13.9006 176.896 13.9006C179.906 13.9006 182.519 14.593 184.735 15.978C186.97 17.3445 188.696 19.228 189.915 21.6286C191.152 24.0291 191.761 26.7713 191.743 29.8551V57H176.453V33.0682C176.472 30.9631 175.936 29.3104 174.847 28.1101C173.776 26.9098 172.28 26.3097 170.359 26.3097C169.104 26.3097 168.005 26.5866 167.063 27.1406C166.14 27.6761 165.429 28.4517 164.93 29.4673C164.432 30.4645 164.173 31.6648 164.155 33.0682ZM214.581 0.272726V57H199.291V0.272726H214.581ZM231.678 72.9545C229.924 72.9545 228.252 72.8161 226.664 72.5391C225.076 72.2805 223.682 71.9205 222.482 71.4588L225.806 60.6009C227.061 61.044 228.206 61.3303 229.24 61.4595C230.293 61.5888 231.188 61.5149 231.927 61.2379C232.684 60.9609 233.229 60.4347 233.561 59.6591L233.894 58.8835L218.936 14.4545H234.891L241.76 43.9261H242.203L249.184 14.4545H265.249L249.737 60.5455C248.962 62.8906 247.835 64.9957 246.358 66.8608C244.899 68.7443 242.979 70.2308 240.597 71.3203C238.215 72.4098 235.242 72.9545 231.678 72.9545Z" fill="white"/>
</g>
<defs>
<filter id="filter0_d_2532_257" x="0.607422" y="0.272949" width="264.641" height="79.6816" filterUnits="userSpaceOnUse" color-interpolation-filters="sRGB">
<feFlood flood-opacity="0" result="BackgroundImageFix"/>
<feColorMatrix in="SourceAlpha" type="matrix" values="0 0 0 0 0 0 0 0 0 0 0 0 0 0 0 0 0 0 127 0" result="hardAlpha"/>
<feOffset dy="7"/>
<feComposite in2="hardAlpha" operator="out"/>
<feColorMatrix type="matrix" values="0 0 0 0 0 0 0 0 0 0 0 0 0 0 0 0 0 0 0.25 0"/>
<feBlend mode="normal" in2="BackgroundImageFix" result="effect1_dropShadow_2532_257"/>
<feBlend mode="normal" in="SourceGraphic" in2="effect1_dropShadow_2532_257" result="shape"/>
</filter>
</defs>
</svg>
