<svg width="239" height="221" viewBox="0 0 239 221" fill="none" xmlns="http://www.w3.org/2000/svg">
<path d="M108.797 158.043C108.797 154.329 112.917 153.029 118.16 153.029C123.403 153.029 127.523 154.143 127.523 158.043C127.523 161.943 124.527 166.4 118.16 166.4C111.793 166.4 108.797 161.757 108.797 158.043Z" fill="white" stroke="white" stroke-miterlimit="10"/>
<path d="M144.939 168.443C144.939 175.686 138.759 181.814 131.456 181.814C124.153 181.814 117.973 176.057 117.973 168.443C117.973 167.886 117.973 167.886 117.973 167.886C117.973 167.329 117.973 167.143 117.973 167.143C117.973 167.143 117.973 167.329 117.973 167.886C117.973 167.886 117.973 167.886 117.973 168.443C117.973 175.686 111.794 181.814 104.49 181.814C97.1874 181.814 91.0078 176.057 91.0078 168.443" stroke="white" stroke-width="4" stroke-miterlimit="10" stroke-linecap="round"/>
<path d="M94.1914 133.529C94.1914 128.514 98.3111 124.429 103.367 124.429C108.423 124.429 112.543 128.514 112.543 133.529C112.543 138.543 108.423 142.629 103.367 142.629C98.3111 142.629 94.1914 138.543 94.1914 133.529V133.529Z" fill="white"/>
<path d="M123.965 133.529C123.965 128.514 128.085 124.429 133.141 124.429C138.197 124.429 142.316 128.514 142.316 133.529C142.316 138.543 138.197 142.629 133.141 142.629C128.085 142.629 123.965 138.543 123.965 133.529Z" fill="white"/>
<path d="M12.1719 208.929V216.357V12.0715H20.4113L117.786 98.8001H118.535L215.91 12.0715H224.15V216.357V208.929" stroke="white" stroke-width="20" stroke-miterlimit="10" stroke-linecap="round"/>
</svg>
