<svg version="1.1" xmlns="http://www.w3.org/2000/svg" xmlns:xlink="http://www.w3.org/1999/xlink" width="159.66563" height="113.25824" viewBox="0,0,159.66563,113.25824"><g transform="translate(-164.4365,-131.13301)"><g data-paper-data="{&quot;isPaintingLayer&quot;:true}" fill-rule="nonzero" stroke-linejoin="miter" stroke-miterlimit="10" stroke-dasharray="" stroke-dashoffset="0" style="mix-blend-mode: normal"><g stroke-width="1.5" stroke-linecap="butt"><path d="M267.41134,213.13515l19.34388,-45.24582l36.33342,9.55649l-20.13659,50.0021z" fill="#e0995c" stroke="#885d38"/><path d="M271.79651,211.31964l17.18641,-41.35913l29.78025,8.06592l-17.95049,44.82671z" fill="#ffffff" stroke="#a2a2a2"/><g><g><path d="M285.48046,215.97424c0.33688,1.02175 1.11237,3.37371 1.71278,5.19468c0.4468,1.35512 -0.71778,1.80011 -1.52101,1.63448c-1.74629,-0.36011 -7.75572,-1.29552 -7.75572,-1.29552c0,0 3.85509,-4.63794 4.99259,-5.93132c0.47059,-0.53509 2.25325,-0.5671 2.57136,0.39768z" fill="#865c37" stroke="#4e3520"/><path d="M279.8066,220.13108c0.07796,0.23645 0.25742,0.78073 0.39636,1.20213c0.10339,0.31359 -0.16611,0.41657 -0.35199,0.37824c-0.40412,-0.08334 -1.7948,-0.2998 -1.7948,-0.2998c0,0 0.89213,-1.0733 1.15537,-1.3726c0.1089,-0.12383 0.52144,-0.13124 0.59506,0.09203z" fill="#000000" stroke="#000000"/></g><g><path d="M286.32847,222.72994l-2.76313,-7.68874l30.1635,-10.84l2.76313,7.68873z" fill="#fbff00" stroke="#7f7500"/><path d="M317.31342,211.59473l-2.76314,-7.68874l4.79725,-1.72401l2.76313,7.68873z" fill="#ff4848" stroke="#802222"/></g></g></g><path d="M285.2186,183.12192c0.30041,1.19711 2.04252,12.65459 2.11766,17.11107c0.10409,6.17229 -1.75482,12.01533 -5.05944,15.5722c-8.3901,9.03051 -29.15408,13.06182 -43.37873,13.06182c-14.76403,0 -33.64855,-2.17458 -42.01273,-11.80143c-2.18744,-2.51767 -3.62932,-6.54613 -4.47498,-11.08518c-1.45406,-7.80475 -1.14531,-17.11911 0.16718,-22.85849c5.47099,-23.92393 20.48077,-40.56641 45.7451,-40.56641c25.26433,0 41.12098,17.55432 46.89592,40.56641z" fill="#ff7319" stroke="none" stroke-width="NaN" stroke-linecap="butt"/><path d="M275.92955,203.21224c0.23851,0.64095 1.62171,6.77556 1.68136,9.16167c0.08264,3.30479 -1.39328,6.43328 -4.01706,8.33771c-6.66151,4.83514 -23.14752,6.9936 -34.4415,6.9936c-11.72223,0 -26.71601,-1.16432 -33.35693,-6.31876c-1.73676,-1.34802 -2.88158,-3.50493 -3.55299,-5.93525c-1.15448,-4.17884 -0.90935,-9.16597 0.13274,-12.23895c4.34382,-12.80941 16.26116,-21.72017 36.32033,-21.72017c20.05916,0 32.64891,9.39897 37.23404,21.72017z" fill="#ffffff" stroke="none" stroke-width="NaN" stroke-linecap="butt"/><path d="M246.76922,196.29015c0,0 -11.08898,-0.53119 -12.0038,-1.99535c-1.16491,-1.8644 -0.56131,-1.96973 -1.64251,-1.88784c-1.19027,0.09017 -0.87664,-0.05873 -1.7533,1.95154c-0.7607,1.74435 -9.15559,1.46957 -10.54489,0.48832" fill="none" stroke="#000000" stroke-width="2.5" stroke-linecap="round"/><path d="M235.9747,187.78051c0,1.93043 -1.63296,3.49535 -3.64732,3.49535c-2.01436,0 -3.64732,-1.56492 -3.64732,-3.49535c0,-1.93043 7.29464,-1.93043 7.29464,0z" fill="#945600" stroke="#000000" stroke-width="1.5" stroke-linecap="butt"/><path d="M213.62932,169.9649c0,-2.56989 2.08329,-4.65318 4.65318,-4.65318c2.56989,0 4.65318,2.08329 4.65318,4.65318c0,2.56989 -2.08329,4.65318 -4.65318,4.65318c-2.56989,0 -4.65318,-2.08329 -4.65318,-4.65318z" fill="#000000" stroke="none" stroke-width="0.5" stroke-linecap="butt"/><path d="M200.01081,164.7471c0,0 -4.57683,-21.1442 -5.38707,-26.62822c-0.11942,-0.80838 0.23462,-3.09748 1.28848,-4.12517c1.59805,-1.55843 4.27718,-1.69853 5.17997,-1.09477c4.10949,2.74819 19.94844,14.74281 19.94844,14.74281z" fill="#ff7319" stroke="none" stroke-width="0" stroke-linecap="butt"/><path d="M200.8123,154.814c0,0 -2.50504,-11.57276 -2.94849,-14.57431c-0.06537,-0.44243 0.12842,-1.69534 0.70521,-2.25784c0.87466,-0.85297 2.34103,-0.92964 2.83515,-0.5992c2.24925,1.50416 10.91832,8.06912 10.91832,8.06912z" fill="#77500c" stroke="none" stroke-width="0" stroke-linecap="butt"/><path d="M253.03069,146.20747c0,0 15.83894,-11.99462 19.94844,-14.74281c0.9028,-0.60374 3.58193,-0.46365 5.17998,1.09477c1.05384,1.02771 1.40788,3.31681 1.28846,4.12519c-0.81024,5.48404 -5.38707,26.62822 -5.38707,26.62822z" data-paper-data="{&quot;index&quot;:null}" fill="#ff7319" stroke="none" stroke-width="0" stroke-linecap="butt"/><path d="M261.74882,144.01751c0,0 8.66907,-6.56496 10.91831,-8.06912c0.49414,-0.33042 1.96049,-0.25376 2.83515,0.59922c0.57678,0.56248 0.77058,1.81541 0.70521,2.25784c-0.44345,3.00155 -2.94849,14.57431 -2.94849,14.57431z" data-paper-data="{&quot;index&quot;:null}" fill="#77500c" stroke="none" stroke-width="0" stroke-linecap="butt"/><path d="M240.33905,171.93934c0,-2.56989 2.08329,-4.65318 4.65318,-4.65318c2.56989,0 4.65318,2.08329 4.65318,4.65318c0,2.56989 -2.08329,4.65318 -4.65318,4.65318c-2.56989,0 -4.65318,-2.08329 -4.65318,-4.65318z" fill="#000000" stroke="none" stroke-width="0.5" stroke-linecap="butt"/><path d="M186.46573,191.48369l10.23979,1.57535" fill="none" stroke="#000000" stroke-width="2" stroke-linecap="round"/><path d="M186.35202,185.87693l10.23979,1.57535" fill="none" stroke="#000000" stroke-width="2" stroke-linecap="round"/><path d="M293.53427,190.99425l-10.23979,1.57535" data-paper-data="{&quot;index&quot;:null}" fill="none" stroke="#000000" stroke-width="2" stroke-linecap="round"/><path d="M293.64798,185.38751l-10.23979,1.57535" data-paper-data="{&quot;index&quot;:null}" fill="none" stroke="#000000" stroke-width="2" stroke-linecap="round"/><path d="M252.5028,170.02571c-0.16826,1.23863 -1.40689,1.07036 -1.40689,1.07036l-0.3303,-0.04487c-2.79074,-0.42787 -5.68269,-2.10918 -7.12575,-4.50016c0,0 -0.60856,-1.09186 0.48329,-1.70042c1.09186,-0.60856 1.70042,0.48329 1.70042,0.48329c0.80587,1.66471 3.40966,3.03214 5.27857,3.24004l0.3303,0.04487c0,0 1.23862,0.16826 1.07036,1.40689z" fill="#000000" stroke="none" stroke-width="0.5" stroke-linecap="butt"/><g fill="#e0995c" stroke="#885d38" stroke-width="1.5" stroke-linecap="butt"><path d="M165.26096,216.47802l7.14202,-46.45419l19.2742,9.53966l-7.57059,46.31133z"/><path d="M184.17473,225.64436l7.3563,-45.66847l20.74966,-2.80938l-7.99917,45.88276z" data-paper-data="{&quot;index&quot;:null}"/><path d="M203.73207,222.89857l8.57059,-45.45418l17.84563,8.53965l-7.14202,46.45419z" data-paper-data="{&quot;index&quot;:null}"/></g><g stroke="#a2a2a2" stroke-width="2.5"><path d="M253.49999,216.40916v-4.54075c0,0 7.74661,-3.02716 11.96379,-3.02716c4.01333,0 13.01032,2.7749 13.01032,2.7749l-0.25227,4.79301z" fill="#885d38" stroke-linecap="butt"/><g><path d="M287.89999,236.74125c0,3.53462 -9.5811,6.4 -21.4,6.4c-11.81889,0 -21.4,-2.86538 -21.4,-6.4c0,-3.53462 9.58111,-6.4 21.4,-6.4c11.81889,0 21.4,2.86538 21.4,6.4z" fill="#ffffff" stroke-linecap="butt"/><path d="M277.44369,215.68256c0,0 8.40099,2.86765 8.85915,9.26443c0.45816,6.39678 -7.51578,9.49166 -7.51578,9.49166" fill="none" stroke-linecap="round"/><path d="M253.56303,232.97894c0,-4.66246 0,-20.18109 0,-20.18109c0,0 7.73796,2.52264 11.98253,2.52264c3.92971,0 12.61318,-3.02716 12.61318,-3.02716c0,0 0,15.97162 0,20.43336c0,2.02448 -0.24603,5.80206 -3.78395,5.80206c-4.93877,0 -13.89922,0.12613 -16.39715,0.12613c-2.00522,0 -4.41461,-3.20329 -4.41461,-5.67594z" fill="#ffffff" stroke-linecap="butt"/></g></g><path d="M212.15684,167.21882l0.3303,-0.04487c1.86891,-0.2079 4.47269,-1.57533 5.27857,-3.24004c0,0 0.60856,-1.09186 1.70042,-0.48329c1.09186,0.60856 0.48329,1.70042 0.48329,1.70042c-1.44305,2.39098 -4.33501,4.07229 -7.12575,4.50016l-0.3303,0.04487c0,0 -1.23863,0.16827 -1.40689,-1.07036c-0.16826,-1.23863 1.07036,-1.40689 1.07036,-1.40689z" data-paper-data="{&quot;index&quot;:null}" fill="#000000" stroke="none" stroke-width="0.5" stroke-linecap="butt"/></g></g></svg>