<svg version="1.1" xmlns="http://www.w3.org/2000/svg" xmlns:xlink="http://www.w3.org/1999/xlink" width="123" height="128.13287" viewBox="0,0,123,128.13287"><defs><linearGradient x1="178.5" y1="180.00001" x2="301.5" y2="180.00001" gradientUnits="userSpaceOnUse" id="color-1"><stop offset="0" stop-color="#87d183"/><stop offset="1" stop-color="#a4e2a3"/></linearGradient><linearGradient x1="196" y1="180.00002" x2="284" y2="180.00002" gradientUnits="userSpaceOnUse" id="color-2"><stop offset="0" stop-color="#98e397"/><stop offset="1" stop-color="#84cb80"/></linearGradient><linearGradient x1="240" y1="152" x2="240" y2="192.00002" gradientUnits="userSpaceOnUse" id="color-3"><stop offset="0" stop-color="#f2fff2"/><stop offset="1" stop-color="#defcde"/></linearGradient><linearGradient x1="240" y1="188.00002" x2="240" y2="234.00002" gradientUnits="userSpaceOnUse" id="color-4"><stop offset="0" stop-color="#e4fce3"/><stop offset="1" stop-color="#f2fff2"/></linearGradient></defs><g transform="translate(-178.5,-113.36713)"><g data-paper-data="{&quot;isPaintingLayer&quot;:true}" fill-rule="nonzero" stroke="none" stroke-width="0" stroke-linecap="butt" stroke-linejoin="miter" stroke-miterlimit="10" stroke-dasharray="" stroke-dashoffset="0" style="mix-blend-mode: normal"><path d="M178.5,180.00001c0,-33.96551 27.53449,-61.5 61.5,-61.5c33.96551,0 61.5,27.53449 61.5,61.5c0,33.96551 -27.53449,61.5 -61.5,61.5c-33.96551,0 -61.5,-27.53449 -61.5,-61.5z" fill="url(#color-1)"/><path d="M196,180.00002c0,-24.30053 19.69947,-44 44,-44c24.30053,0 44,19.69947 44,44c0,24.30053 -19.69947,44 -44,44c-24.30053,0 -44,-19.69947 -44,-44z" fill="url(#color-2)"/><path d="M259.5,172.00002c0,11.04569 -8.73045,20 -19.5,20c-10.76955,0 -19.5,-8.95431 -19.5,-20c0,-11.04569 8.73045,-20 19.5,-20c10.76955,0 19.5,8.95431 19.5,20z" fill="url(#color-3)"/><path d="M264.5,211.00002c0,12.70255 -10.96902,23 -24.5,23c-13.53098,0 -24.5,-10.29745 -24.5,-23c0,-12.70255 10.96902,-23 24.5,-23c13.53098,0 24.5,10.29745 24.5,23z" fill="url(#color-4)"/><path d="M234.5,115.29957v-1.93243h11v1.93243z" fill="#80e37d"/></g></g></svg>